<?xml version="1.0" encoding="UTF-8"?>
<svg version="1.1" xmlns="http://www.w3.org/2000/svg" width="512" height="512">
<path d="M0 0 C0.94875 -0.02191406 1.8975 -0.04382812 2.875 -0.06640625 C10.18543157 1.4048181 15.70036748 6.80929433 20.80078125 11.96484375 C21.70536324 12.86512047 21.70536324 12.86512047 22.6282196 13.78358459 C23.88970235 15.04304175 25.14746876 16.30623151 26.40161133 17.57299805 C28.31462319 19.50214109 30.24321003 21.41466638 32.17382812 23.32617188 C33.40460931 24.55893466 34.63446 25.79262729 35.86328125 27.02734375 C36.43516678 27.59315659 37.00705231 28.15896942 37.5962677 28.7419281 C42.64780432 33.88283202 45.42838702 38.54346012 45.5 45.9375 C45.54640625 47.52691406 45.54640625 47.52691406 45.59375 49.1484375 C44.20143689 57.1542379 38.17405773 62.80241057 32.546875 68.2734375 C31.84604797 68.96764801 31.14522095 69.66185852 30.42315674 70.37710571 C28.20583884 72.57120611 25.97853049 74.75479427 23.75 76.9375 C21.50902408 79.14340061 19.27022753 81.35145369 17.03399658 83.56216431 C15.64714031 84.93204807 14.25721606 86.29883418 12.86395264 87.66220093 C11.92727753 88.58423813 11.92727753 88.58423813 10.97167969 89.52490234 C10.1449173 90.33476089 10.1449173 90.33476089 9.30145264 91.16098022 C7.88896326 92.55047849 7.88896326 92.55047849 7 94.5625 C7.66644531 94.76746094 8.33289063 94.97242188 9.01953125 95.18359375 C13.10120533 97.07196983 16.24647767 99.75883655 19.6875 102.625 C20.39648438 103.20846191 21.10546875 103.79192383 21.8359375 104.39306641 C26.52406816 108.27315633 31.1182662 112.2423946 35.59375 116.3671875 C37.62046978 118.21624028 39.67713482 120.01274353 41.75390625 121.8046875 C46.14967371 125.64343248 50.31385302 129.68463134 54.4375 133.8125 C55.18249756 134.55757812 55.92749512 135.30265625 56.69506836 136.0703125 C61.47985217 140.90475811 65.92046047 145.82476947 70.11328125 151.18359375 C71.90192977 153.43884623 73.78562566 155.52291695 75.75 157.625 C101.97932074 186.79200466 101.97932074 186.79200466 102.3125 201.75 C102.36857422 203.38001953 102.36857422 203.38001953 102.42578125 205.04296875 C101.51092252 212.60524135 96.79369164 218.63648749 92.4375 224.6875 C91.9108374 225.42468262 91.3841748 226.16186523 90.84155273 226.92138672 C85.76779946 233.9725288 80.49994986 240.83947895 75 247.5625 C74.56268555 248.10422852 74.12537109 248.64595703 73.67480469 249.20410156 C65.98646582 258.66451561 57.465342 267.30548012 48.875 275.9375 C48.04571487 276.77468567 48.04571487 276.77468567 47.19967651 277.62878418 C40.13548214 284.74493752 32.89754693 291.36109097 25 297.5625 C23.52856925 298.74730072 22.05721051 299.9321909 20.5859375 301.1171875 C-37.48940251 347.15516747 -110.03468634 370.33795258 -184.125 362.375 C-204.74884516 359.8927388 -227.32088293 356.00963158 -246 346.5625 C-247.01024986 347.58607353 -247.01024986 347.58607353 -248.04090881 348.63032532 C-254.40024583 355.07087305 -260.7702128 361.50073832 -267.15064335 367.92039204 C-270.4302765 371.22086835 -273.70609768 374.52494804 -276.97338867 377.83764648 C-280.12872427 381.03655553 -283.29383128 384.22549298 -286.46584892 387.40785789 C-287.6721698 388.62154943 -288.8749742 389.83874691 -290.07411385 391.05953407 C-291.75896345 392.77356958 -293.45607467 394.4745242 -295.15649414 396.1730957 C-295.64561783 396.67660049 -296.13474152 397.18010529 -296.63868713 397.6988678 C-301.43059133 402.43499516 -306.61234612 404.98985861 -313.4375 405 C-314.73494141 405.02900391 -314.73494141 405.02900391 -316.05859375 405.05859375 C-323.55003612 403.79509683 -328.82652189 399.33927172 -334.01953125 394.07421875 C-334.64478195 393.45279495 -335.27003265 392.83137115 -335.91423035 392.19111633 C-337.22402276 390.8840283 -338.52884838 389.57194576 -339.82885742 388.25512695 C-341.81070215 386.25181732 -343.81305087 384.27080693 -345.81835938 382.29101562 C-347.09503472 381.01169745 -348.37046891 379.73113922 -349.64453125 378.44921875 C-350.23829056 377.86355637 -350.83204987 377.27789398 -351.44380188 376.67448425 C-356.42925604 371.57567802 -359.42656003 366.4876029 -359.4375 359.125 C-359.45683594 358.26003906 -359.47617187 357.39507812 -359.49609375 356.50390625 C-358.06538353 348.02103387 -352.70392848 342.72615178 -346.76953125 336.9765625 C-345.9785051 336.19356781 -345.18747894 335.41057312 -344.3724823 334.60385132 C-341.8618304 332.12203896 -339.3378621 329.65433439 -336.8125 327.1875 C-334.27913737 324.6966362 -331.74861947 322.20294472 -329.22038269 319.70687866 C-327.65030618 318.15851919 -326.07676052 316.61366823 -324.49946594 315.07266235 C-323.79170517 314.37788788 -323.0839444 313.6831134 -322.35473633 312.96728516 C-321.72948563 312.35631989 -321.10423492 311.74535461 -320.46003723 311.11587524 C-318.90365864 309.60873858 -318.90365864 309.60873858 -318 307.5625 C-318.80050781 307.20865234 -318.80050781 307.20865234 -319.6171875 306.84765625 C-322.68658863 305.19219236 -325.37906424 303.13249492 -328.125 301 C-328.69758545 300.55744873 -329.2701709 300.11489746 -329.86010742 299.65893555 C-334.23731211 296.23873007 -338.40859856 292.63533975 -342.48828125 288.86328125 C-344.52842384 286.99447256 -346.59798706 285.18593233 -348.6953125 283.3828125 C-353.5244229 279.16855204 -358.04280419 274.6663384 -362.5625 270.125 C-363.37396484 269.31740234 -364.18542969 268.50980469 -365.02148438 267.67773438 C-369.88838556 262.80297701 -374.55264793 257.82262774 -379 252.5625 C-379.5168335 251.95237061 -380.03366699 251.34224121 -380.56616211 250.71362305 C-410.63549392 214.87365024 -410.63549392 214.87365024 -410.4609375 199.09375 C-409.65475257 192.9175536 -406.53172743 188.56998496 -403 183.5625 C-402.20780163 182.40400924 -401.41615269 181.24514262 -400.625 180.0859375 C-395.45157927 172.60674849 -389.8758735 165.50409565 -384 158.5625 C-383.56494141 158.04252441 -383.12988281 157.52254883 -382.68164062 156.98681641 C-331.80796891 96.19313747 -261.80507131 49.76613961 -181.40234375 41.875 C-141.49497654 38.34548087 -103.0006754 42.7746116 -65 55.5625 C-64.06824951 54.61742584 -64.06824951 54.61742584 -63.11767578 53.65325928 C-57.24385236 47.69907727 -51.36029465 41.75472207 -45.46577454 35.82102585 C-42.4361366 32.77056957 -39.4103091 29.71652964 -36.39306641 26.65380859 C-33.47767275 23.69475198 -30.55243602 20.7457557 -27.62030029 17.80329132 C-26.50690249 16.68253877 -25.39701361 15.55828833 -24.29083252 14.43041229 C-10.11341019 -0.01374105 -10.11341019 -0.01374105 0 0 Z " fill="#FCFCFC" transform="translate(410,53.4375)"/>
<path d="M0 0 C1.74825015 1.09897496 3.49473273 2.20076207 5.24047852 3.30371094 C6.21324234 3.91696228 7.18600616 4.53021362 8.18824768 5.16204834 C11.97088918 7.63463889 15.46555287 10.36387123 18.9375 13.25 C19.62440918 13.81662354 20.31131836 14.38324707 21.01904297 14.96704102 C30.71903069 23.02624042 39.76835409 31.6717375 48.71966553 40.54544067 C50.14290827 41.95581156 51.5696896 43.36260878 52.99658203 44.76928711 C59.10279563 50.86841187 64.63822893 57.24216001 70 64 C71.04824301 65.2781276 72.09871395 66.55443437 73.15234375 67.828125 C80.00228067 76.211291 86.15799015 84.88801561 92 94 C83.96636652 110.06726696 71.26977548 124.34453141 59.24609375 137.53515625 C57.74820488 139.17892647 56.26116833 140.83265156 54.78515625 142.49609375 C47.02174784 151.24186666 38.85809368 159.37084656 30 167 C29.36360596 167.54841553 28.72721191 168.09683105 28.0715332 168.66186523 C12.81897518 181.69999519 -3.50582337 193.1624946 -21 203 C-21.71591309 203.4031543 -22.43182617 203.80630859 -23.16943359 204.22167969 C-34.3753159 210.46663702 -45.78701861 215.65818094 -57.79443359 220.16552734 C-59.69168466 220.88334937 -61.57581919 221.63566944 -63.45703125 222.39453125 C-109.82425863 240.40399688 -174.73037833 242.45607463 -221 223 C-219.54832597 219.68846747 -217.72580235 217.44404181 -215.2121582 214.8581543 C-214.04503044 213.65252083 -214.04503044 213.65252083 -212.85432434 212.42253113 C-212.01165512 211.56508804 -211.1689859 210.70764496 -210.30078125 209.82421875 C-209.43237106 208.93966507 -208.56396088 208.05511139 -207.66923523 207.14375305 C-205.83045759 205.27732989 -203.98856214 203.41397398 -202.14379883 201.5534668 C-200.25327133 199.6451695 -198.37551885 197.72554874 -196.50805664 195.79467773 C-193.81237758 193.01399444 -191.09147719 190.26046139 -188.36328125 187.51171875 C-187.53073318 186.64415451 -186.69818512 185.77659027 -185.84040833 184.88273621 C-179.93254572 179.0184182 -179.93254572 179.0184182 -175.10620117 178.9230957 C-173.56863159 179.45616333 -173.56863159 179.45616333 -172 180 C-170.989375 180.2371875 -169.97875 180.474375 -168.9375 180.71875 C-166.97916667 181.23958333 -165.02083333 181.76041667 -163.0625 182.28125 C-139.47034219 187.818185 -114.67728572 182.12408513 -94.3059082 169.5925293 C-75.21444481 157.27931087 -61.4027932 136.76436365 -56.46484375 114.59765625 C-55.10709477 107.84742906 -54.69433779 101.37428248 -54.75 94.5 C-54.74226562 93.54480469 -54.73453125 92.58960938 -54.7265625 91.60546875 C-54.75172591 82.30758769 -56.09391122 73.63866111 -59.51171875 64.97265625 C-60.14397406 62.41834479 -59.9666982 61.47556363 -59 59 C-57.20894518 56.93516818 -55.41659555 55.03772206 -53.47045898 53.12988281 C-52.89485229 52.55383804 -52.31924561 51.97779327 -51.72619629 51.3842926 C-49.82318708 49.48337223 -47.90977485 47.59329642 -45.99609375 45.703125 C-44.67407568 44.38670252 -43.35271872 43.06961583 -42.03199768 41.75189209 C-38.55497311 38.28631907 -35.06903342 34.82984961 -31.58117676 31.37518311 C-28.02331141 27.84801172 -24.4739288 24.31232713 -20.92382812 20.77734375 C-13.9575066 13.84319189 -6.98173961 6.91862531 0 0 Z " fill="#000000" transform="translate(400,161)"/>
<path d="M0 0 C1.06713226 0.00040787 1.06713226 0.00040787 2.15582275 0.00082397 C13.79109529 0.02125164 25.22167048 0.55808116 36.75 2.1875 C37.48750488 2.28401855 38.22500977 2.38053711 38.98486328 2.47998047 C51.59675989 4.15587945 63.59777763 7.47809639 75.75 11.1875 C68.87417027 19.38771949 61.38318751 26.96158731 53.8737793 34.57861328 C52.1599599 36.32428806 50.45425409 38.07796395 48.7565918 39.83935547 C46.29544199 42.3913953 43.80935764 44.91656446 41.31640625 47.4375 C40.18483849 48.62629761 40.18483849 48.62629761 39.03041077 49.83911133 C33.67491744 55.17511463 33.67491744 55.17511463 29.06713867 55.23681641 C27.42515503 54.71740479 27.42515503 54.71740479 25.75 54.1875 C24.80608398 54.01524902 23.86216797 53.84299805 22.88964844 53.66552734 C21.9721582 53.4948877 21.05466797 53.32424805 20.109375 53.1484375 C-4.42812552 49.04867466 -27.60379193 52.95809486 -48.6015625 66.3203125 C-69.30409907 81.245397 -81.5715292 100.9482902 -86.8046875 125.82421875 C-88.59684454 139.35972058 -87.81205794 152.8033676 -84.02734375 165.88671875 C-83.01061283 170.20399328 -83.01061283 170.20399328 -84.25 173.1875 C-86.07110425 175.28256768 -87.89503408 177.21134886 -89.87133789 179.14941406 C-90.45669815 179.7352124 -91.04205841 180.32101074 -91.64515686 180.92456055 C-93.58063031 182.85794495 -95.52651098 184.78048816 -97.47265625 186.703125 C-98.81709455 188.04196778 -100.16087177 189.3814747 -101.50401306 190.72161865 C-105.04022095 194.24637438 -108.58534552 197.76202819 -112.13238525 201.27587891 C-115.75057325 204.86337424 -119.36027941 208.45938136 -122.97070312 212.0546875 C-130.05551407 219.10732772 -137.14977149 226.150384 -144.25 233.1875 C-148.6999326 231.52536916 -152.07935739 229.21897765 -155.75 226.25 C-156.36311035 225.75983398 -156.9762207 225.26966797 -157.60791016 224.76464844 C-159.49598432 223.24778392 -161.37449872 221.71987319 -163.25 220.1875 C-164.07129395 219.51920166 -164.07129395 219.51920166 -164.90917969 218.83740234 C-178.63009443 207.6177401 -191.56539024 195.52149747 -203.25 182.1875 C-204.19919713 181.12498069 -205.14841651 180.06248125 -206.09765625 179 C-213.90077382 170.16913583 -220.97596027 160.82152811 -227.796875 151.21484375 C-228.69743222 149.95842118 -229.62071472 148.71756457 -230.578125 147.50390625 C-232.51823025 144.94589076 -233.24782787 143.46263663 -233.2734375 140.21875 C-232.03799208 136.55956814 -230.18032854 133.73452777 -227.875 130.6875 C-227.43164307 130.08583008 -226.98828613 129.48416016 -226.53149414 128.86425781 C-225.11898045 126.96046726 -223.68781647 125.07223816 -222.25 123.1875 C-221.78674316 122.57712891 -221.32348633 121.96675781 -220.84619141 121.33789062 C-215.66206426 114.53748201 -210.32127691 107.94970925 -204.515625 101.6640625 C-202.64826242 99.62284203 -200.83691797 97.55217522 -199.03125 95.45703125 C-195.03103962 90.87528307 -190.80205797 86.54747839 -186.5 82.25 C-185.70577637 81.45658203 -184.91155273 80.66316406 -184.09326172 79.84570312 C-179.25185711 75.05457578 -174.38253732 70.51117036 -168.98925781 66.34423828 C-166.17632394 64.12949159 -163.46328328 61.82247856 -160.7421875 59.49609375 C-154.55153451 54.28668433 -148.00855108 49.6961184 -141.25 45.25 C-140.66495697 44.86320068 -140.07991394 44.47640137 -139.47714233 44.07788086 C-121.52734926 32.23594651 -103.27065689 23.04155418 -83.25 15.1875 C-81.9986023 14.67992317 -80.7472844 14.17214949 -79.49609375 13.6640625 C-62.27387993 7.02875558 -43.68404158 3.62291215 -25.41650391 1.45385742 C-23.47706782 1.2154165 -21.54435717 0.92368414 -19.61328125 0.625 C-13.11498433 -0.17932055 -6.53718386 -0.00934558 0 0 Z " fill="#000000" transform="translate(254.25,114.8125)"/>
<path d="M0 0 C3.71713736 1.73760147 6.08741012 3.85676878 8.984375 6.7890625 C9.67506073 7.48399307 9.67506073 7.48399307 10.37969971 8.19296265 C11.84125078 9.66565898 13.29567168 11.14517403 14.75 12.625 C15.74302611 13.62806322 16.73651089 14.63067257 17.73046875 15.6328125 C20.15897941 18.08330835 22.58114675 20.5399667 25 23 C23.38770679 27.02625514 20.54738296 29.72857918 17.52208519 32.72401047 C16.95417232 33.29423103 16.38625944 33.86445159 15.80113709 34.45195156 C13.88601633 36.37239017 11.96381118 38.2855784 10.04159546 40.19891357 C8.65763382 41.58374691 7.27411157 42.96901948 5.89099276 44.3546946 C2.08047534 48.16969653 -1.7362713 51.97841333 -5.5540328 55.78616405 C-9.66671107 59.890226 -13.7736292 64.00004481 -17.88124084 68.10917664 C-25.00159152 75.23057731 -32.12560239 82.34829951 -39.25209427 89.46355438 C-49.55587004 99.75109376 -59.85413908 110.04413141 -70.15105359 120.33853772 C-86.85614515 137.0394272 -103.56587003 153.73567383 -120.27832031 170.42919922 C-136.51536732 186.64788086 -152.75031481 202.86865941 -168.98242188 219.09228516 C-169.48266755 219.59226778 -169.98291323 220.09225041 -170.49831787 220.60738402 C-175.52193648 225.62836562 -180.54551241 230.64938992 -185.56905707 235.67044551 C-195.80281993 245.89913579 -206.03686767 256.12754102 -216.27108765 266.35577393 C-216.74165186 266.82606356 -217.21221607 267.29635318 -217.6970398 267.78089401 C-249.12658857 299.19203795 -280.56279844 330.59651544 -312 362 C-315.71713736 360.26239853 -318.08741012 358.14323122 -320.984375 355.2109375 C-321.67506073 354.51600693 -321.67506073 354.51600693 -322.37969971 353.80703735 C-323.84125078 352.33434102 -325.29567168 350.85482597 -326.75 349.375 C-327.74302611 348.37193678 -328.73651089 347.36932743 -329.73046875 346.3671875 C-332.15897941 343.91669165 -334.58114675 341.4600333 -337 339 C-335.38770679 334.97374486 -332.54738296 332.27142082 -329.52208519 329.27598953 C-328.95417232 328.70576897 -328.38625944 328.13554841 -327.80113709 327.54804844 C-325.88601633 325.62760983 -323.96381118 323.7144216 -322.04159546 321.80108643 C-320.65763382 320.41625309 -319.27411157 319.03098052 -317.89099276 317.6453054 C-314.08047534 313.83030347 -310.2637287 310.02158667 -306.4459672 306.21383595 C-302.33328893 302.109774 -298.2263708 297.99995519 -294.11875916 293.89082336 C-286.99840848 286.76942269 -279.87439761 279.65170049 -272.74790573 272.53644562 C-262.44412996 262.24890624 -252.14586092 251.95586859 -241.84894641 241.66146228 C-225.14385485 224.9605728 -208.43412997 208.26432617 -191.72167969 191.57080078 C-175.48463268 175.35211914 -159.24968519 159.13134059 -143.01757812 142.90771484 C-142.51733245 142.40773222 -142.01708677 141.90774959 -141.50168213 141.39261598 C-136.47806352 136.37163438 -131.45448759 131.35061008 -126.43094293 126.32955449 C-116.19718007 116.10086421 -105.96313233 105.87245898 -95.72891235 95.64422607 C-95.25834814 95.17393644 -94.78778393 94.70364682 -94.3029602 94.21910599 C-62.87341143 62.80796205 -31.43720156 31.40348456 0 0 Z " fill="#000000" transform="translate(409,75)"/>
</svg>
