<?xml version="1.0" encoding="UTF-8"?>
<svg version="1.1" xmlns="http://www.w3.org/2000/svg" width="512" height="512">
<path d="M0 0 C3.7011384 0.9629079 7.41867715 1.85799305 11.13635254 2.75454712 C11.91061584 2.94173813 12.68487915 3.12892914 13.48260498 3.3217926 C46.82941405 11.29023363 81.08832532 15.79574933 115.21447754 18.73110962 C116.24621597 18.81999451 116.24621597 18.81999451 117.29879761 18.91067505 C135.42799736 20.44413067 153.58341582 21.24461799 171.77697754 21.29360962 C172.73382446 21.29622803 173.69067139 21.29884644 174.67651367 21.30154419 C194.30429533 21.30709167 213.87858876 20.41285587 233.47247696 19.35778427 C235.79173433 19.23366469 238.11115278 19.11308896 240.43063354 18.9932251 C269.95626909 17.45132027 299.25584804 14.42068148 328.46447754 9.79360962 C329.82973068 9.58174515 329.82973068 9.58174515 331.2225647 9.36560059 C342.18830575 7.65841365 353.09297046 5.74073731 363.96838379 3.52798462 C364.98372192 3.32142746 365.99906006 3.1148703 367.04516602 2.90205383 C371.9181542 1.90380675 376.78478621 0.88185655 381.64562988 -0.17391968 C406.83736319 -5.55379794 406.83736319 -5.55379794 415.21447754 -0.83139038 C420.55816422 3.24488344 423.38172473 7.28357132 424.58947754 13.98110962 C424.68741731 20.73895378 423.31048022 25.43985683 419.58947754 30.98110962 C378.19793623 93.12676648 384.33156775 221.51436676 390.58947754 311.98110962 C390.75858643 312.61105835 390.92769531 313.24100708 391.10192871 313.89004517 C392.90026732 321.60299968 390.98060824 327.76895758 387.77697754 334.79360962 C387.37245361 335.70304321 386.96792969 336.61247681 386.55114746 337.54946899 C376.40246864 359.92256099 363.16465062 380.98229169 347.58947754 399.98110962 C347.13347168 400.53862915 346.67746582 401.09614868 346.2076416 401.67056274 C334.53323745 415.83038403 321.67287553 429.67809863 307.16369629 440.96548462 C304.75018591 442.85527423 302.43471114 444.83134166 300.12463379 446.84536743 C273.34642434 470.07169946 241.72574212 488.2855233 210.58947754 504.98110962 C209.90885254 505.35783813 209.22822754 505.73456665 208.52697754 506.12271118 C204.38559256 508.33315573 201.13000891 509.56925938 196.33947754 509.60610962 C195.34432129 509.63962524 194.34916504 509.67314087 193.32385254 509.70767212 C183.41033418 507.77889135 174.3209095 501.21735877 165.77697754 496.04360962 C164.70383301 495.39609741 163.63068848 494.74858521 162.52502441 494.08145142 C130.34635333 474.5406939 99.69278883 453.00788645 72.08654785 427.36050415 C70.56532559 425.95885611 69.02925513 424.57542859 67.48791504 423.19595337 C61.91480832 418.19280352 56.64118524 413.05820062 51.71057129 407.40689087 C50.35627171 405.85805102 48.97553552 404.33167963 47.56213379 402.83657837 C30.74704617 384.95684833 17.00662756 363.64779822 5.58947754 341.98110962 C5.10849609 341.0798938 4.62751465 340.17867798 4.13195801 339.25015259 C-2.56960173 326.55591298 -7.1990296 317.27680845 -4.90246582 302.77236938 C-3.05397107 290.14798075 -3.10045523 277.59408843 -3.16052246 264.85610962 C-3.16362427 263.68716156 -3.16672607 262.5182135 -3.16992188 261.31384277 C-3.23444459 240.4795651 -3.85199528 219.75621076 -5.41052246 198.98110962 C-5.47604309 198.10126404 -5.54156372 197.22141846 -5.60906982 196.31491089 C-8.4377977 110.00084856 -8.4377977 110.00084856 -36.41052246 30.98110962 C-40.15173948 25.42273004 -41.67613826 20.74900008 -41.41052246 13.98110962 C-40.2625162 8.24107831 -37.50468676 4.07527392 -33.41052246 -0.01889038 C-23.05078929 -6.16655491 -11.0079279 -2.88072967 0 0 Z " fill="#000000" transform="translate(64.4105224609375,3.018890380859375)"/>
<path d="M0 0 C3.7011384 0.9629079 7.41867715 1.85799305 11.13635254 2.75454712 C11.91061584 2.94173813 12.68487915 3.12892914 13.48260498 3.3217926 C46.82941405 11.29023363 81.08832532 15.79574933 115.21447754 18.73110962 C116.24621597 18.81999451 116.24621597 18.81999451 117.29879761 18.91067505 C135.42799736 20.44413067 153.58341582 21.24461799 171.77697754 21.29360962 C172.73382446 21.29622803 173.69067139 21.29884644 174.67651367 21.30154419 C194.30429533 21.30709167 213.87858876 20.41285587 233.47247696 19.35778427 C235.79173433 19.23366469 238.11115278 19.11308896 240.43063354 18.9932251 C269.95626909 17.45132027 299.25584804 14.42068148 328.46447754 9.79360962 C329.82973068 9.58174515 329.82973068 9.58174515 331.2225647 9.36560059 C342.18830575 7.65841365 353.09297046 5.74073731 363.96838379 3.52798462 C364.98372192 3.32142746 365.99906006 3.1148703 367.04516602 2.90205383 C371.9181542 1.90380675 376.78478621 0.88185655 381.64562988 -0.17391968 C406.83736319 -5.55379794 406.83736319 -5.55379794 415.21447754 -0.83139038 C420.55816422 3.24488344 423.38172473 7.28357132 424.58947754 13.98110962 C424.68741731 20.73895378 423.31048022 25.43985683 419.58947754 30.98110962 C378.19793623 93.12676648 384.33156775 221.51436676 390.58947754 311.98110962 C390.75858643 312.61105835 390.92769531 313.24100708 391.10192871 313.89004517 C392.90026732 321.60299968 390.98060824 327.76895758 387.77697754 334.79360962 C387.37245361 335.70304321 386.96792969 336.61247681 386.55114746 337.54946899 C376.40246864 359.92256099 363.16465062 380.98229169 347.58947754 399.98110962 C347.13347168 400.53862915 346.67746582 401.09614868 346.2076416 401.67056274 C334.53323745 415.83038403 321.67287553 429.67809863 307.16369629 440.96548462 C304.75018591 442.85527423 302.43471114 444.83134166 300.12463379 446.84536743 C273.34642434 470.07169946 241.72574212 488.2855233 210.58947754 504.98110962 C209.90885254 505.35783813 209.22822754 505.73456665 208.52697754 506.12271118 C204.38559256 508.33315573 201.13000891 509.56925938 196.33947754 509.60610962 C195.34432129 509.63962524 194.34916504 509.67314087 193.32385254 509.70767212 C183.41033418 507.77889135 174.3209095 501.21735877 165.77697754 496.04360962 C164.70383301 495.39609741 163.63068848 494.74858521 162.52502441 494.08145142 C130.34635333 474.5406939 99.69278883 453.00788645 72.08654785 427.36050415 C70.56532559 425.95885611 69.02925513 424.57542859 67.48791504 423.19595337 C61.91480832 418.19280352 56.64118524 413.05820062 51.71057129 407.40689087 C50.35627171 405.85805102 48.97553552 404.33167963 47.56213379 402.83657837 C30.74704617 384.95684833 17.00662756 363.64779822 5.58947754 341.98110962 C5.10849609 341.0798938 4.62751465 340.17867798 4.13195801 339.25015259 C-2.56960173 326.55591298 -7.1990296 317.27680845 -4.90246582 302.77236938 C-3.05397107 290.14798075 -3.10045523 277.59408843 -3.16052246 264.85610962 C-3.16362427 263.68716156 -3.16672607 262.5182135 -3.16992188 261.31384277 C-3.23444459 240.4795651 -3.85199528 219.75621076 -5.41052246 198.98110962 C-5.47604309 198.10126404 -5.54156372 197.22141846 -5.60906982 196.31491089 C-8.4377977 110.00084856 -8.4377977 110.00084856 -36.41052246 30.98110962 C-40.15173948 25.42273004 -41.67613826 20.74900008 -41.41052246 13.98110962 C-40.2625162 8.24107831 -37.50468676 4.07527392 -33.41052246 -0.01889038 C-23.05078929 -6.16655491 -11.0079279 -2.88072967 0 0 Z M-18.41052246 17.98110962 C-18.15786621 18.47868774 -17.90520996 18.97626587 -17.64489746 19.48892212 C0.17903621 55.47521858 4.74590323 96.17688441 9.31665039 135.65774536 C9.57732857 137.87765044 9.84802863 140.09602385 10.12365723 142.31411743 C15.10193482 182.40296375 17.96916997 222.95936888 17.96447754 263.35610962 C17.96629028 264.34904022 17.96810303 265.34197083 17.9699707 266.36499023 C17.96296358 299.83837464 17.96296358 299.83837464 15.02520752 311.1546936 C14.45680156 313.53723736 14.96757492 314.55834566 16.00354004 316.75454712 C16.34554443 317.48560669 16.68754883 318.21666626 17.03991699 318.96987915 C17.42752197 319.75733521 17.81512695 320.54479126 18.21447754 321.35610962 C18.61690674 322.18610474 19.01933594 323.01609985 19.43395996 323.87124634 C33.3701083 352.01572319 51.80795353 377.41678152 73.58947754 399.98110962 C74.18550781 400.59905396 74.78153809 401.21699829 75.39562988 401.85366821 C82.24698829 408.91708827 89.13579284 415.73220392 96.87854004 421.82876587 C99.31257994 423.76126729 101.66701672 425.76299552 104.01135254 427.80264282 C117.02429526 439.0661661 131.16467659 448.81571468 145.46447754 458.35610962 C146.02225891 458.72865875 146.58004028 459.10120789 147.15472412 459.48504639 C158.94482622 467.34344863 171.02269547 474.70358421 183.21447754 481.91860962 C184.66273926 482.78195923 184.66273926 482.78195923 186.14025879 483.66275024 C187.0645166 484.20995728 187.98877441 484.75716431 188.94104004 485.32095337 C189.76426758 485.80942749 190.58749512 486.29790161 191.43566895 486.80117798 C193.66340406 488.10490051 193.66340406 488.10490051 196.58947754 488.98110962 C199.12349137 487.97135344 199.12349137 487.97135344 201.87463379 486.36001587 C202.94963135 485.76245483 204.02462891 485.1648938 205.13220215 484.54922485 C206.30589899 483.88145637 207.47914579 483.21289635 208.65197754 482.54360962 C209.86616961 481.85864975 211.08044493 481.17383745 212.2947998 480.48916626 C247.06666625 460.78741971 279.72191582 438.46402775 309.02697754 411.23110962 C309.67739014 410.62927856 310.32780273 410.02744751 310.9979248 409.40737915 C315.50332902 405.17346852 319.57342127 400.6769345 323.58947754 395.98110962 C324.54963459 394.89722997 325.51176059 393.81509014 326.47619629 392.73501587 C340.92023056 376.36680716 371.50573879 340.91717553 370.40197754 318.10610962 C370.14826832 316.39514933 369.87513915 314.68702606 369.58947754 312.98110962 C366.81568097 296.29147552 367.23564555 279.40572019 367.27697754 262.54360962 C367.27919919 260.95039882 367.28137574 259.35718797 367.2835083 257.76397705 C367.61752417 77.25273926 367.61752417 77.25273926 399.51672363 22.92422485 C400.72722562 20.87065408 400.72722562 20.87065408 401.58947754 17.98110962 C391.08763646 19.31960083 380.76019527 21.24449573 370.38485718 23.32254028 C341.07191102 29.17956862 311.59711148 34.44897703 281.75476074 36.72842407 C279.41066851 36.92730571 279.41066851 36.92730571 276.58947754 37.98110962 C274.82363379 40.73654012 274.82363379 40.73654012 273.14807129 44.19204712 C272.66261086 45.14438736 272.66261086 45.14438736 272.16734314 46.1159668 C271.11158325 48.1916003 270.06945121 50.27377634 269.02697754 52.35610962 C268.29840896 53.79318434 267.56874896 55.22970624 266.8380127 56.66567993 C265.39633097 59.4998458 263.95851883 62.3359176 262.52355957 65.17349243 C260.22025391 69.71920742 257.85486286 74.23065808 255.46447754 78.73110962 C251.46393745 86.29270104 247.52214984 93.88402085 243.58947754 101.48110962 C239.23218444 109.8978408 234.85423426 118.30246843 230.4263916 126.68228149 C226.09654649 134.88954709 221.83929178 143.13458781 217.58557129 151.38150024 C217.0248291 152.46624634 216.46408691 153.55099243 215.88635254 154.66860962 C215.07134277 156.24835571 215.07134277 156.24835571 214.23986816 157.86001587 C212.11556713 161.8773331 209.85923141 165.81523252 207.5670166 169.73892212 C206.24992951 172.07748811 206.24992951 172.07748811 207.58947754 174.98110962 C209.90710414 176.41076732 209.90710414 176.41076732 212.81213379 177.65298462 C213.90131104 178.14959595 214.99048828 178.64620728 216.1126709 179.15786743 C217.86462769 179.93662231 217.86462769 179.93662231 219.65197754 180.73110962 C220.8296167 181.26317017 222.00725586 181.79523071 223.22058105 182.34341431 C226.67251991 183.8992577 230.13065299 185.44065069 233.58947754 186.98110962 C235.31644434 187.76146549 237.04306013 188.54259914 238.76916504 189.32485962 C240.1879397 189.96138337 241.60716554 190.59690308 243.02697754 191.23110962 C243.66321045 191.51824829 244.29944336 191.80538696 244.95495605 192.10122681 C247.70477675 193.30807344 249.54462834 193.98110962 252.58947754 193.98110962 C246.99718242 203.94789347 241.12821237 213.71813108 235.14172363 223.45181274 C232.34053463 228.01619118 229.55976684 232.59299876 226.77697754 237.16860962 C225.579088 239.13737612 224.38117113 241.106126 223.18322754 243.07485962 C222.5863916 244.05583618 221.98955566 245.03681274 221.37463379 246.04751587 C219.6447316 248.89030919 217.91412403 251.73267161 216.18322754 254.57485962 C206.97136652 269.70181666 197.77887548 284.84050207 188.58947754 299.98110962 C185.69381747 304.75204814 182.79804792 309.52292015 179.90197754 314.29360962 C179.54679047 314.87871307 179.19160339 315.46381653 178.82565308 316.06665039 C173.53079594 324.78845212 168.22835723 333.50561324 162.92150879 342.22012329 C158.07592333 350.17863454 153.23790135 358.1417254 148.40197754 366.10610962 C148.03145264 366.71623901 147.66092773 367.32636841 147.2791748 367.95498657 C146.22230103 369.695373 145.16562005 371.43587631 144.10900879 373.17642212 C143.19792358 374.67713257 143.19792358 374.67713257 142.26843262 376.2081604 C140.70206255 378.79516509 139.14339228 381.38660845 137.58947754 383.98110962 C137.7970166 383.17415649 138.00455566 382.36720337 138.21838379 381.53579712 C140.58943304 372.19049001 142.79557212 362.81285881 144.96447754 353.41860962 C147.28067572 343.39199125 149.73647045 333.41569164 152.38757324 323.47207642 C154.58741595 315.15398985 156.50627543 306.78031657 158.41003418 298.39028931 C160.02862961 291.29707959 161.79565738 284.26422874 163.69519043 277.24185181 C165.78775399 269.41828086 167.56163967 261.5254961 169.34802246 253.62734985 C170.88363345 246.88609229 172.56821523 240.20931873 174.40197754 233.54360962 C176.18845562 227.01935035 177.3263758 220.76441216 177.58947754 213.98110962 C174.46005224 212.42474511 171.30902723 210.91804112 168.15197754 209.41860962 C167.27348145 208.9809729 166.39498535 208.54333618 165.48986816 208.09243774 C156.92642864 204.07931295 151.02205024 205.02911494 142.15197754 207.73110962 C140.3382666 208.27058228 140.3382666 208.27058228 138.48791504 208.82095337 C137.85208496 209.01157349 137.21625488 209.2021936 136.56115723 209.39859009 C133.14540984 210.40774973 129.71063532 211.34756256 126.27697754 212.29360962 C120.86686194 213.78918584 115.46049891 215.29725589 110.05822754 216.82095337 C108.93585693 217.13701538 107.81348633 217.45307739 106.65710449 217.77871704 C104.43906896 218.40367599 102.22144343 219.03009231 100.00427246 219.65811157 C98.98438232 219.94516968 97.96449219 220.23222778 96.91369629 220.52798462 C96.00708252 220.78418579 95.10046875 221.04038696 94.16638184 221.30435181 C91.65346927 221.96430383 89.14194257 222.49919778 86.58947754 222.98110962 C92.76564936 217.2588924 99.02049186 211.75107663 105.57385254 206.46157837 C109.13617733 203.53142779 112.61423765 200.51353809 116.08947754 197.48110962 C121.25786582 192.97259866 126.47633959 188.56010616 131.83166504 184.27407837 C132.74174316 183.51739868 133.65182129 182.76071899 134.58947754 181.98110962 C135.27646729 181.52526489 135.96345703 181.06942017 136.67126465 180.59976196 C145.32760225 174.2050559 147.3348738 165.0653932 150.40197754 155.23110962 C151.00430781 153.37635261 151.60949946 151.52252263 152.21740723 149.66958618 C153.44982372 145.90031633 154.66723194 142.12674365 155.87121582 138.34829712 C158.06080298 131.48583467 160.34688327 124.65671842 162.63778687 117.82757568 C163.34266063 115.72159938 164.04306913 113.61418997 164.74206543 111.5062561 C167.90105546 101.98544898 171.10971644 92.48204961 174.33947754 82.98501587 C174.75167542 81.77294464 175.16387329 80.56087341 175.58856201 79.31207275 C177.65613604 73.23500183 179.72649377 67.15888959 181.79943848 61.08364868 C182.55758813 58.85806671 183.31572668 56.63248095 184.07385254 54.40689087 C184.42947266 53.36706558 184.78509277 52.3272403 185.15148926 51.25590515 C185.47359375 50.30968796 185.79569824 49.36347076 186.12756348 48.38858032 C186.41113708 47.557845 186.69471069 46.72710968 186.98687744 45.87120056 C187.64010359 44.15295587 187.64010359 44.15295587 187.58947754 42.98110962 C186.65829102 42.9665271 185.72710449 42.95194458 184.7677002 42.93692017 C149.5986179 42.34960112 114.50906535 40.31154752 79.58947754 35.98110962 C78.40644043 35.83560669 77.22340332 35.69010376 76.0045166 35.54019165 C60.08208055 33.54830628 44.39126147 30.94535829 28.69396973 27.62661743 C25.46845515 26.95594579 22.23773412 26.31946363 19.00354004 25.69204712 C8.68654477 23.68662332 -1.52179913 21.61959869 -11.61755371 18.68032837 C-14.57737034 17.81920639 -14.57737034 17.81920639 -18.41052246 17.98110962 Z " fill="#FDFDFD" transform="translate(64.4105224609375,3.018890380859375)"/>
</svg>
