<?xml version="1.0" encoding="UTF-8"?>
<svg version="1.1" xmlns="http://www.w3.org/2000/svg" width="512" height="512">
<path d="M0 0 C1.93204123 0.00253999 3.86409114 0.00111107 5.79612732 -0.00398254 C11.03184692 -0.0065624 16.26570671 0.04630663 21.50099444 0.10918307 C26.97550672 0.16548792 32.4500628 0.17073498 37.92481995 0.18141174 C48.28770961 0.20937247 58.64974362 0.2832106 69.01225668 0.37355715 C83.01803646 0.49301419 97.02405063 0.5415545 111.03021145 0.59407711 C133.09182667 0.67867624 155.15163634 0.85798057 177.21313477 1.02172852 C177.21313477 43.92172852 177.21313477 86.82172852 177.21313477 131.02172852 C168.29159887 135.48249646 168.29159887 135.48249646 164.02563477 137.36157227 C134.02617978 150.73522883 106.28516742 167.04051326 80.21313477 187.02172852 C79.53718262 187.53928711 78.86123047 188.0568457 78.16479492 188.59008789 C71.32541495 193.84931765 64.5979786 199.2119172 58.21313477 205.02172852 C64.24182198 206.0431151 70.18223665 206.26452188 76.2890625 206.41064453 C77.38248459 206.44005127 78.47590668 206.46945801 79.60246277 206.49975586 C83.20046171 206.59556682 86.79857998 206.68563252 90.39672852 206.77563477 C92.89780085 206.8411117 95.3988638 206.90694821 97.8999176 206.97312927 C103.79991024 207.12838426 109.69998702 207.28002458 115.6001187 207.42989534 C124.16150831 207.64762426 132.72270518 207.87270714 141.28392792 208.09688568 C153.26021601 208.40981008 165.23667817 208.71503555 177.21313477 209.02172852 C177.21313477 230.80172852 177.21313477 252.58172852 177.21313477 275.02172852 C139.40207707 275.02172852 139.40207707 275.02172852 123.21310425 274.46614075 C120.11829423 274.36008672 117.02331263 274.26122343 113.92822266 274.16369629 C106.25581814 273.92062609 98.58379109 273.66644742 90.91174316 273.41241455 C57.97588578 272.28526497 57.97588578 272.28526497 25.02563477 271.86547852 C24.01265823 271.86285759 24.01265823 271.86285759 22.97921753 271.86018372 C16.63817769 271.85087069 10.45906937 271.86044734 4.21313477 273.02172852 C4.46512131 273.64432053 4.71710785 274.26691254 4.97673035 274.90837097 C7.62270663 281.44651125 10.26711129 287.98528563 12.91064453 294.52441406 C13.89462458 296.95784203 14.87899203 299.39111339 15.86376953 301.82421875 C17.28725888 305.34145676 18.70930818 308.85927418 20.13110352 312.37719727 C20.56464645 313.44753708 20.99818939 314.51787689 21.44487 315.62065125 C24.05985582 322.09556316 26.59069323 328.59533223 29.04170227 335.13423157 C34.84411792 349.4367693 46.04120091 360.91673862 58.21313477 370.02172852 C59.30977687 370.86770957 60.40611798 371.7140809 61.50219727 372.56079102 C71.91803019 380.49563041 83.04145921 387.21774092 94.21313477 394.02172852 C141.32073576 422.78432726 141.32073576 422.78432726 147.79907227 449.43188477 C150.20390269 464.47341845 146.14033822 477.32115523 138.21313477 490.02172852 C137.42229492 491.29209961 137.42229492 491.29209961 136.61547852 492.58813477 C130.7548292 498.52502017 122.02144115 501.06192632 114.21313477 503.52172852 C113.2854126 503.8157959 112.35769043 504.10986328 111.40185547 504.4128418 C94.01462739 509.70454431 75.68331597 513.13030384 57.48266602 513.22485352 C56.57793045 513.23186783 55.67319489 513.23888214 54.74104309 513.24610901 C51.83585587 513.26352808 48.9308723 513.26996159 46.02563477 513.27172852 C45.03448669 513.27240326 44.04333862 513.273078 43.02215576 513.27377319 C28.87051123 513.25843429 15.10948264 512.93452473 1.21313477 510.02172852 C0.32158691 509.84480469 -0.56996094 509.66788086 -1.48852539 509.4855957 C-57.94291998 498.15754356 -112.89119891 468.68790884 -146.78686523 421.02172852 C-147.45661377 420.08586914 -147.45661377 420.08586914 -148.13989258 419.13110352 C-154.26157775 410.4509402 -159.29848476 401.3988304 -163.91186523 391.83422852 C-164.3855957 390.85397705 -164.85932617 389.87372559 -165.34741211 388.86376953 C-167.50116605 384.26636383 -169.35584848 380.1508279 -169.78686523 375.02172852 C-170.90706055 375.44325195 -172.02725586 375.86477539 -173.18139648 376.29907227 C-174.65404181 376.85248675 -176.12669866 377.40587057 -177.59936523 377.95922852 C-178.33735352 378.23702148 -179.0753418 378.51481445 -179.83569336 378.80102539 C-180.54790039 379.06850586 -181.26010742 379.33598633 -181.99389648 379.61157227 C-182.64849854 379.85770264 -183.30310059 380.10383301 -183.97753906 380.35742188 C-190.44990508 382.7337959 -198.23573382 383.48226479 -204.78686523 380.83422852 C-210.61072509 377.43193201 -214.96761746 371.67756005 -219.36010742 366.64526367 C-221.31549498 364.42019056 -223.3375654 362.25827027 -225.34936523 360.08422852 C-230.81180148 353.97685347 -235.81301364 347.52658424 -240.78686523 341.02172852 C-241.36243164 340.27068848 -241.93799805 339.51964844 -242.53100586 338.74584961 C-249.62316887 329.46523693 -256.54693423 320.08709295 -263.16186523 310.45922852 C-263.71535645 309.65590088 -264.26884766 308.85257324 -264.83911133 308.02490234 C-265.34522949 307.28006592 -265.85134766 306.53522949 -266.37280273 305.76782227 C-266.81672363 305.11483154 -267.26064453 304.46184082 -267.71801758 303.7890625 C-270.94162639 298.45884226 -270.37999374 292.01018258 -269.78686523 286.02172852 C-267.54731137 279.24318581 -261.28787189 274.00222449 -256.48217773 268.89672852 C-254.36642191 266.63992231 -252.30656192 264.36340584 -250.28686523 262.02172852 C-247.38600745 258.67672025 -244.40853307 255.40575852 -241.41186523 252.14672852 C-237.85935149 248.28147629 -234.3108687 244.41305482 -230.78686523 240.52172852 C-229.73499023 239.36157227 -229.73499023 239.36157227 -228.66186523 238.17797852 C-226.94427173 236.20274598 -225.35740704 234.11578426 -223.78686523 232.02172852 C-260.41686523 231.69172852 -297.04686523 231.36172852 -334.78686523 231.02172852 C-334.78686523 211.55172852 -334.78686523 192.08172852 -334.78686523 172.02172852 C-329.7750708 172.04380371 -324.76327637 172.06587891 -319.59960938 172.08862305 C-303.0433078 172.15426557 -286.48729973 172.16551085 -269.93088627 172.14869881 C-259.89229997 172.13983395 -249.85438016 172.14956874 -239.81591797 172.20336914 C-231.06443755 172.25022456 -222.3137312 172.26189731 -213.5621652 172.23164642 C-208.92960569 172.21685353 -204.29855348 172.21945802 -199.66615486 172.26422501 C-195.30120546 172.30585076 -190.93880586 172.30025435 -186.57387543 172.25920677 C-184.97636553 172.25236628 -183.37867474 172.26244268 -181.78140831 172.29115868 C-172.81321071 172.54002169 -172.81321071 172.54002169 -164.88619804 168.83028793 C-162.61748681 166.33170725 -160.69146274 163.80271069 -158.78686523 161.02172852 C-157.79627399 159.89483816 -156.78601921 158.78458703 -155.74780273 157.70141602 C-151.32292759 152.90223119 -146.93736714 148.07999994 -142.66186523 143.14672852 C-140.24136415 140.40349396 -137.76484114 137.71289946 -135.28686523 135.02172852 C-131.6659639 131.0888801 -128.09727598 127.1195884 -124.59545898 123.08032227 C-122.35675273 120.53216202 -120.07276312 118.02762259 -117.78686523 115.52172852 C-114.92214708 112.38089295 -112.07500621 109.23072096 -109.28686523 106.02172852 C-106.49872426 102.81273607 -103.65158339 99.66256408 -100.78686523 96.52172852 C-95.78997545 91.03715429 -90.88373458 85.4890402 -86.07592773 79.83813477 C-81.17336219 74.08200828 -76.2462585 68.37402828 -71.09936523 62.83422852 C-66.87609678 58.28718864 -62.923578 53.57037165 -59.03295898 48.73657227 C-56.69855934 45.91499356 -54.26695925 43.2158214 -51.78686523 40.52172852 C-47.75299548 36.13411942 -43.95056235 31.61623079 -40.20874023 26.97875977 C-36.9495031 22.99933636 -33.58975394 19.10980977 -30.21118164 15.23144531 C-29.50227783 14.41220581 -29.50227783 14.41220581 -28.77905273 13.57641602 C-28.30763131 13.05183524 -27.83620989 12.52725447 -27.35050297 11.98677731 C-25.71143722 10.0607735 -25.71143722 10.0607735 -24.62388515 7.74176121 C-19.19465067 -1.82415746 -9.67692292 -0.17750949 0 0 Z " fill="#FDFDFD" transform="translate(334.786865234375,-1.021728515625)"/>
<path d="M0 0 C11.83038723 0.13360807 21.58277419 7.898775 31.3125 13.9375 C34.26117363 15.72477305 37.22070695 17.49298758 40.1875 19.25 C41.209646 19.85569824 41.209646 19.85569824 42.25244141 20.47363281 C62.69249111 32.437347 85.13609818 40.31476195 108.3125 44.9375 C109.10237305 45.10121094 109.89224609 45.26492188 110.70605469 45.43359375 C130.6351473 49.44427185 151.15174142 48.587191 171.3125 46.9375 C177.54932288 61.90119563 183.73216004 76.88425241 189.75 91.9375 C190.23307617 93.14486816 190.71615234 94.35223633 191.21386719 95.59619141 C193.50224815 101.33461236 195.74087699 107.08363431 197.90234375 112.87109375 C202.74464538 125.47884616 210.82436079 135.50126172 220.3125 144.9375 C221.22644531 145.85144531 222.14039063 146.76539063 223.08203125 147.70703125 C237.71937056 161.70361152 255.41177784 172.00351666 272.578125 182.5625 C310.01543797 205.64653563 310.01543797 205.64653563 315.3125 221.9375 C316.44321786 231.11472169 315.05532901 240.1211464 309.296875 247.53125 C305.25215005 250.79244184 301.18685806 252.03366159 296.25 253.5 C295.2791748 253.79737061 294.30834961 254.09474121 293.30810547 254.40112305 C283.75513795 257.24653934 274.13534824 259.29105669 264.3125 260.9375 C262.45625 261.27587891 262.45625 261.27587891 260.5625 261.62109375 C241.00529442 264.67690712 219.83375054 264.20862847 200.3125 260.9375 C199.40854492 260.7921582 198.50458984 260.64681641 197.57324219 260.49707031 C143.51506259 251.54987904 91.1267859 223.83597031 58.47729492 178.95361328 C45.22792423 160.29089516 37.50009804 140.85474286 31.3125 118.9375 C28.66595683 119.81039494 26.02027228 120.68576734 23.375 121.5625 C22.56973877 121.82812744 21.76447754 122.09375488 20.93481445 122.36743164 C16.76721546 123.75121585 12.62327882 125.17456827 8.5078125 126.70703125 C7.74976318 126.98659668 6.99171387 127.26616211 6.21069336 127.55419922 C4.76489647 128.09100421 3.32276881 128.6378248 1.88500977 129.19580078 C-4.81090417 131.66801238 -4.81090417 131.66801238 -8.6875 129.9375 C-11.15455605 127.83414917 -13.28572609 125.48265902 -15.4375 123.0625 C-16.05947266 122.37776611 -16.68144531 121.69303223 -17.32226562 120.98754883 C-22.30943667 115.45854729 -27.08739562 109.79286162 -31.6875 103.9375 C-32.75514833 102.60021251 -33.82286184 101.26297706 -34.890625 99.92578125 C-43.34258586 89.26762737 -51.14851039 78.25673685 -58.6875 66.9375 C-59.3475 65.9475 -60.0075 64.9575 -60.6875 63.9375 C-60.36338764 60.61760481 -59.04632606 58.90369189 -56.7734375 56.546875 C-55.88470947 55.61270752 -55.88470947 55.61270752 -54.97802734 54.65966797 C-54.34590332 54.00885254 -53.7137793 53.35803711 -53.0625 52.6875 C-51.76996742 51.33155406 -50.47828954 49.97479284 -49.1875 48.6171875 C-48.57261719 47.97362305 -47.95773438 47.33005859 -47.32421875 46.66699219 C-45.51790763 44.75829469 -43.77407808 42.80648847 -42.0625 40.8125 C-39.02010241 37.27590585 -35.85970224 33.8572133 -32.6875 30.4375 C-29.4758665 26.97466632 -26.27647047 23.51101485 -23.1875 19.9375 C-19.99192007 16.24236291 -16.68921331 12.650939 -13.375 9.0625 C-12.84648437 8.49015625 -12.31796875 7.9178125 -11.7734375 7.328125 C-5.43161037 0.47829621 -5.43161037 0.47829621 0 0 Z " fill="#000000" transform="translate(146.6875,229.0625)"/>
<path d="M0 0 C13.76896818 -0.03901604 27.5357101 0.00040301 41.3052597 0.0336628 C41.3052597 35.6736628 41.3052597 71.3136628 41.3052597 108.0336628 C32.0652597 111.9936628 22.8252597 115.9536628 13.3052597 120.0336628 C-8.64062407 130.59640125 -29.71115933 142.10176683 -49.6947403 156.0336628 C-50.281586 156.44181221 -50.8684317 156.84996162 -51.47306061 157.2704792 C-64.75842807 166.54851648 -77.42458721 176.45311635 -89.6947403 187.0336628 C-90.41145905 187.64854561 -91.1281778 188.26342842 -91.8666153 188.89694405 C-92.49052155 189.43706123 -93.1144278 189.97717842 -93.7572403 190.5336628 C-94.38501373 191.06217842 -95.01278717 191.59069405 -95.65958405 192.1352253 C-97.84775717 194.09910157 -97.84775717 194.09910157 -100.07364655 196.8696003 C-104.42282924 201.83484396 -107.99856218 205.16636522 -114.7963028 205.7836628 C-117.64940757 205.89782704 -120.48702681 205.90840625 -123.34220123 205.89108467 C-129.38626059 205.8623523 -134.36993398 206.38439913 -140.0697403 208.4086628 C-140.71564117 208.63239571 -141.36154205 208.85612862 -142.02701569 209.08664131 C-142.66373199 209.30763496 -143.3004483 209.52862862 -143.95645905 209.75631905 C-163.69295146 216.5001362 -187.68560063 216.60918905 -207.6947403 211.0336628 C-208.85618561 210.76682686 -210.01763092 210.49999092 -211.21427155 210.22506905 C-234.06880359 204.74874348 -264.58272214 192.92316338 -280.6947403 175.0336628 C-280.19845123 174.5489753 -279.70216217 174.0642878 -279.19083405 173.5649128 C-275.17929643 169.60665936 -271.34965774 165.57072929 -267.67520905 161.2992878 C-265.22868261 158.50050016 -262.71397308 155.76676463 -260.1947403 153.0336628 C-257.15567338 149.73354979 -254.13317515 146.42416456 -251.1947403 143.0336628 C-248.25629965 139.64315436 -245.23357727 136.33399297 -242.1947403 133.0336628 C-238.5530614 129.07777096 -234.9597453 125.08804656 -231.4369278 121.0258503 C-229.37973631 118.67345644 -227.28877115 116.35331314 -225.1947403 114.0336628 C-222.50490599 111.05303559 -219.83163666 108.06121047 -217.1947403 105.0336628 C-214.55784394 102.00611512 -211.8845746 99.01429 -209.1947403 96.0336628 C-204.36246753 90.67349469 -199.59655173 85.26356706 -194.90958405 79.7758503 C-193.87966551 78.57009603 -192.84971677 77.36436757 -191.8197403 76.1586628 C-191.04026031 75.2458857 -191.04026031 75.2458857 -190.24503326 74.31466866 C-187.21581497 70.77742422 -184.14325447 67.28973702 -181.0072403 63.8461628 C-177.15623025 59.60658236 -173.54630074 55.20434168 -169.9447403 50.7524128 C-167.7597246 48.1121855 -165.50302639 45.56636559 -163.1947403 43.0336628 C-158.96182191 38.37745258 -154.96674309 33.56418518 -151.01798248 28.66598701 C-149.51603727 26.81321844 -148.00044998 24.97207043 -146.4838028 23.13131905 C-145.34573237 21.744641 -144.20771137 20.35792238 -143.0697403 18.9711628 C-142.54348053 18.33484932 -142.01722076 17.69853584 -141.47501373 17.04294014 C-140.95713287 16.40952705 -140.43925201 15.77611397 -139.9056778 15.12350655 C-139.39200653 14.51595024 -138.87833527 13.90839394 -138.34909821 13.28242683 C-136.60408495 11.09016304 -136.60408495 11.09016304 -135.6088028 8.4887867 C-134.00580898 5.15008594 -132.63361273 3.32742834 -129.6947403 1.0336628 C-122.80484874 -0.95583891 -115.19991852 -0.26634372 -108.1088028 -0.1616497 C-105.91691674 -0.16549435 -103.72503453 -0.17376023 -101.53318024 -0.18617058 C-95.67108217 -0.20726526 -89.81082843 -0.16785034 -83.94897461 -0.1167469 C-77.91125066 -0.07447442 -71.873681 -0.08821179 -65.83585358 -0.09695244 C-56.24494315 -0.10419738 -46.65465304 -0.08059501 -37.06388092 -0.02932549 C-24.70891281 0.0365938 -12.35504485 0.0353209 0 0 Z " fill="#000000" transform="translate(470.69474029541016,-0.03366279602050781)"/>
<path d="M0 0 C20.86292189 -0.20887077 41.72558954 -0.36922032 62.58934879 -0.46630955 C72.27810964 -0.51260019 81.96620652 -0.5756427 91.65454102 -0.67895508 C100.1048101 -0.76902183 108.55459806 -0.82680885 117.00533384 -0.84679645 C121.47493219 -0.85846983 125.9431549 -0.88564959 130.41230965 -0.95157051 C134.63082853 -1.01328237 138.84742349 -1.03138251 143.06635094 -1.01796913 C144.60337459 -1.02041789 146.14047172 -1.03795322 147.67710114 -1.07284927 C158.9857196 -1.31676998 166.12215383 1.39136979 175.36439407 7.87732995 C177.88166965 9.60517273 180.51418137 11.12589847 183.15234375 12.66015625 C184.10455811 13.22202637 185.05677246 13.78389648 186.0378418 14.36279297 C207.96790109 27.2176446 229.87411373 38.0554277 255 43 C255.69496582 43.14276367 256.38993164 43.28552734 257.10595703 43.43261719 C281.06168832 48.35086421 307.84191004 49.89031328 331.38291931 42.03437805 C338.02140603 39.83570843 343.81532796 38.65914979 350.828125 38.80078125 C351.71458206 38.80977448 352.60103912 38.8187677 353.51435852 38.82803345 C356.67676987 38.86798525 359.83807367 38.93173951 363 39 C364.86590286 39.03856613 364.86590286 39.03856613 366.76950073 39.07791138 C376.42954192 39.28245634 386.08802265 39.53965517 395.74648666 39.80751419 C398.21180005 39.87567181 400.67713865 39.94283901 403.14248657 40.00973511 C425.65989398 40.62170957 448.17487898 41.29387703 470.6875 42.0625 C471.87540131 42.10252136 473.06330261 42.14254272 474.28720093 42.18377686 C486.87429577 42.61118208 499.43486831 43.13581261 512 44 C512 50.6 512 57.2 512 64 C493.00495189 64.18342858 474.04918385 63.94082246 455.0625 63.34375 C454.01129974 63.31078827 452.96009949 63.27782654 451.87704468 63.24386597 C443.1506104 62.96821063 434.42461117 62.67961691 425.6986084 62.39068604 C392.76275101 61.26353646 392.76275101 61.26353646 359.8125 60.84375 C359.13718231 60.84200272 358.46186462 60.84025543 357.76608276 60.8384552 C351.42504293 60.82914217 345.24593461 60.83871882 339 62 C339.25198654 62.62259201 339.50397308 63.24518402 339.76359558 63.88664246 C342.40957186 70.42478274 345.05397653 76.96355712 347.69750977 83.50268555 C348.68148982 85.93611352 349.66585727 88.36938487 350.65063477 90.80249023 C352.07412412 94.31972825 353.49617341 97.83754567 354.91796875 101.35546875 C355.35151169 102.42580856 355.78505463 103.49614838 356.23173523 104.59892273 C358.84672105 111.07383464 361.37755847 117.57360371 363.8285675 124.11250305 C369.63098315 138.41504079 380.82806614 149.89501011 393 159 C394.0966421 159.84598105 395.19298321 160.69235238 396.2890625 161.5390625 C406.70489543 169.47390189 417.82832445 176.19601241 429 183 C476.10760099 211.76259874 476.10760099 211.76259874 482.5859375 238.41015625 C484.99076792 253.45168994 480.92720346 266.29942672 473 279 C472.20916016 280.27037109 472.20916016 280.27037109 471.40234375 281.56640625 C465.54169443 287.50329166 456.80830638 290.0401978 449 292.5 C448.07227783 292.79406738 447.14455566 293.08813477 446.1887207 293.39111328 C428.80149263 298.68281579 410.4701812 302.10857533 392.26953125 302.203125 C391.36479568 302.21013931 390.46006012 302.21715363 389.52790833 302.22438049 C386.6227211 302.24179957 383.71773753 302.24823308 380.8125 302.25 C379.82135193 302.25067474 378.83020386 302.25134949 377.809021 302.25204468 C363.65737646 302.23670577 349.89634788 301.91279621 336 299 C335.10845215 298.82307617 334.2169043 298.64615234 333.29833984 298.46386719 C276.84394525 287.13581504 221.89566632 257.66618033 188 210 C187.33025146 209.06414062 187.33025146 209.06414062 186.64697266 208.109375 C180.52528748 199.42921169 175.48838047 190.37710188 170.875 180.8125 C170.40126953 179.83224854 169.92753906 178.85199707 169.43945312 177.84204102 C167.28569919 173.24463531 165.43101675 169.12909938 165 164 C163.87980469 164.42152344 162.75960937 164.84304688 161.60546875 165.27734375 C160.13282342 165.83075824 158.66016657 166.38414205 157.1875 166.9375 C156.44951172 167.21529297 155.71152344 167.49308594 154.95117188 167.77929688 C153.88286133 168.18051758 153.88286133 168.18051758 152.79296875 168.58984375 C152.1383667 168.83597412 151.48376465 169.08210449 150.80932617 169.33569336 C144.33696016 171.71206739 136.55113141 172.46053628 130 169.8125 C124.17614014 166.41020349 119.81924777 160.65583153 115.42675781 155.62353516 C113.47137025 153.39846204 111.44929983 151.23654175 109.4375 149.0625 C103.97506376 142.95512495 98.97385159 136.50485573 94 130 C93.42443359 129.24895996 92.84886719 128.49791992 92.25585938 127.72412109 C85.16369636 118.44350842 78.239931 109.06536443 71.625 99.4375 C71.07150879 98.63417236 70.51801758 97.83084473 69.94775391 97.00317383 C69.44163574 96.2583374 68.93551758 95.51350098 68.4140625 94.74609375 C67.9701416 94.09310303 67.5262207 93.4401123 67.06884766 92.76733398 C63.84523884 87.43711374 64.40687149 80.98845407 65 75 C67.23955386 68.2214573 73.49899334 62.98049597 78.3046875 57.875 C80.42044332 55.61819379 82.48030331 53.34167732 84.5 51 C87.40085779 47.65499174 90.37833216 44.38403 93.375 41.125 C96.92751374 37.25974777 100.47599654 33.3913263 104 29.5 C105.051875 28.33984375 105.051875 28.33984375 106.125 27.15625 C107.84259351 25.18101747 109.42945819 23.09405574 111 21 C74.37 20.67 37.74 20.34 0 20 C0 13.4 0 6.8 0 0 Z M131 30 C129.8800519 31.27528766 128.75544615 32.54650875 127.625 33.8125 C126.80902344 34.76576172 126.80902344 34.76576172 125.9765625 35.73828125 C123.37614994 38.71385214 120.68858467 41.60418915 118 44.5 C114.78820288 47.96267274 111.58896307 51.42649371 108.5 55 C105.41096282 58.57359203 102.21016302 62.03571751 99 65.5 C97.96477833 66.6249398 96.9296207 67.74993853 95.89453125 68.875 C94.16340237 70.75383226 92.4155556 72.60279885 90.63671875 74.4375 C89.67185547 75.4584375 89.67185547 75.4584375 88.6875 76.5 C88.13449219 77.0671875 87.58148438 77.634375 87.01171875 78.21875 C85.82380825 79.97736177 85.82380825 79.97736177 85.96875 82.19921875 C87.52538298 86.42689242 90.12532037 89.72512286 92.8125 93.3125 C93.39418945 94.10213135 93.97587891 94.8917627 94.57519531 95.70532227 C96.37506598 98.14323587 98.18703041 100.57181851 100 103 C101.07215003 104.4501251 102.14378916 105.90062812 103.21484375 107.3515625 C111.21179104 118.14495703 119.51382986 128.5433363 128.64453125 138.41015625 C131.32702483 141.35956462 133.8534839 144.41698486 136.33203125 147.5390625 C138.61459043 149.53830638 139.9592903 149.7362938 143 150 C145.74342089 149.26516485 148.27718837 148.4600987 150.92578125 147.47265625 C152.04716743 147.07100502 152.04716743 147.07100502 153.19120789 146.66123962 C155.56930696 145.8064808 157.94078508 144.93479689 160.3125 144.0625 C161.92732683 143.4786892 163.54255742 142.89599392 165.15820312 142.31445312 C169.11026415 140.88918628 173.05647631 139.44871241 177 138 C178.57529665 140.9582955 179.67192763 143.87923457 180.6640625 147.078125 C184.53404758 159.29158281 188.61259573 170.87178642 195 182 C195.37882324 182.66435059 195.75764648 183.32870117 196.14794922 184.01318359 C201.853842 193.87986669 208.40121776 202.52830905 216 211 C216.76183594 211.88300781 217.52367187 212.76601563 218.30859375 213.67578125 C231.55984757 228.86393848 247.64518037 240.88874646 265 251 C266.08410156 251.65484375 267.16820312 252.3096875 268.28515625 252.984375 C292.55854973 267.36447952 319.26290016 275.4309041 347 280 C347.77794922 280.13132324 348.55589844 280.26264648 349.35742188 280.39794922 C379.81784143 285.31158703 411.63362719 282.01029415 441 273 C441.6899707 272.79761719 442.37994141 272.59523438 443.09082031 272.38671875 C452.80662699 269.60802862 452.80662699 269.60802862 459 262 C462.59239453 254.68116638 463.65744971 246.1049451 461.12109375 238.29296875 C452.06751219 218.84121432 429.70698403 207.93312066 412.18359375 197.20776367 C381.15641614 178.18555207 352.41657469 157.19711653 340.3046875 121.3046875 C336.85939838 111.3348558 332.8527569 101.61538524 328.8125 91.875 C328.09401833 90.13297029 327.37591784 88.39078333 326.65820312 86.6484375 C323.81211128 79.74798594 320.9539598 72.85508558 318 66 C317.14962158 66.06856201 316.29924316 66.13712402 315.4230957 66.20776367 C293.23967434 67.90715889 271.81337301 67.62696305 250 63 C249.16355957 62.82339844 248.32711914 62.64679688 247.46533203 62.46484375 C221.87904889 56.84034023 198.27354939 45.71019078 175.9375 32.25 C175.05191406 31.71644897 175.05191406 31.71644897 174.1484375 31.17211914 C171.2170417 29.3905239 168.3296008 27.56076183 165.46875 25.66796875 C158.58516611 21.23460276 152.59677375 18.58191402 144.26171875 19.0859375 C138.14791656 20.7992665 134.83605849 25.17533841 131 30 Z " fill="#FDFDFD" transform="translate(0,210)"/>
<path d="M0 0 C10.88141343 -0.19817884 21.76254452 -0.3469541 32.64527893 -0.45020485 C38.68948622 -0.50921042 44.73169117 -0.58964835 50.77478027 -0.72167969 C56.55508 -0.84712534 62.33327686 -0.91295353 68.11485672 -0.93724632 C70.2534774 -0.95625962 72.39203893 -0.99584341 74.52982712 -1.05846596 C89.79836371 -1.48808309 99.21331522 1.54242358 111.43436813 10.76194191 C140.34445994 32.09396493 176.01765071 42.41946325 211.56347656 42.61572266 C212.35861664 42.62028473 213.15375671 42.6248468 213.97299194 42.62954712 C228.38035499 42.65907449 243.42203503 41.98778217 256.66366577 35.71221924 C260.24515201 34.17573702 263.24528907 33.87468875 267.17016602 33.8972168 C268.14726438 33.89758218 268.14726438 33.89758218 269.1441021 33.89795494 C271.34288681 33.90393297 273.54068092 33.93316315 275.73925781 33.96337891 C277.35215297 33.97510634 278.96505317 33.98615492 280.57795715 33.99659729 C304.31467553 34.19476473 328.04852546 34.91878465 351.77593994 35.57312012 C356.94582813 35.71425342 362.11585833 35.84972931 367.28589916 35.98513699 C372.33154427 36.1177526 377.37711355 36.25308715 382.42266273 36.38929939 C384.7997296 36.45331109 387.17681333 36.51669999 389.55391502 36.57940483 C402.86636359 36.93286651 416.14560836 37.42860691 429.43847656 38.24072266 C429.43847656 46.49072266 429.43847656 54.74072266 429.43847656 63.24072266 C418.33575311 63.30456834 407.27303319 63.10609706 396.17770767 62.71570015 C393.35055838 62.6162618 390.52330768 62.52028558 387.6960144 62.42503357 C381.65173042 62.22077107 375.60760033 62.01216372 369.56347656 61.80322266 C346.31296216 61.0010061 323.06318635 60.21450124 299.80566406 59.64306641 C298.97032261 59.62178743 298.13498116 59.60050846 297.27432632 59.57858467 C292.49384242 59.45810596 287.7135373 59.35611179 282.93212128 59.28074265 C281.18654757 59.25272829 279.44102838 59.22119784 277.69556427 59.18703079 C274.88218707 59.13541736 272.06905151 59.10127801 269.25537109 59.07104492 C268.39923155 59.05317649 267.543092 59.03530806 266.66100883 59.01689816 C261.07473009 58.98060191 256.29518034 59.79037822 251.00097656 61.55322266 C250.28298952 61.79148049 249.56500248 62.02973833 248.82525826 62.2752161 C247.85456304 62.59845435 247.85456304 62.59845435 246.86425781 62.92822266 C213.25394673 73.57339968 173.5702506 66.47199864 141.43847656 54.24072266 C140.4052124 53.84989502 140.4052124 53.84989502 139.35107422 53.45117188 C125.21648861 47.96120727 112.47532014 39.92496113 99.55175781 32.10400391 C94.70594527 29.20381246 89.78646744 26.44363315 84.84228516 23.71557617 C80.52570034 21.32794643 80.52570034 21.32794643 79.43847656 20.24072266 C77.35052755 20.1315937 75.25884395 20.09380572 73.16807556 20.08250427 C72.50568565 20.0775663 71.84329575 20.07262832 71.16083342 20.06754071 C68.92517741 20.05209396 66.68955027 20.04378581 64.45385742 20.03540039 C62.85766849 20.02582749 61.26148212 20.01581777 59.66529846 20.00540161 C55.31840523 19.97828269 50.97150107 19.95731109 46.62456965 19.93739963 C42.08681525 19.91558302 37.54909483 19.88817324 33.0113678 19.86134338 C24.41242279 19.81135782 15.81345899 19.76644083 7.21447712 19.72332102 C-2.57256484 19.67399864 -12.35957273 19.61906203 -22.14658177 19.56364143 C-42.28486412 19.44973141 -62.4231795 19.34311127 -82.56152344 19.24072266 C-82.56152344 13.30072266 -82.56152344 7.36072266 -82.56152344 1.24072266 C-65.31528034 0.89805792 -48.06951348 0.64199991 -30.82095337 0.45320129 C-20.54647195 0.33836084 -10.27341861 0.18787997 0 0 Z " fill="#050505" transform="translate(82.5615234375,190.75927734375)"/>
</svg>
