<?xml version="1.0" encoding="UTF-8"?>
<svg version="1.1" xmlns="http://www.w3.org/2000/svg" width="512" height="512">
<path d="M0 0 C20.24113507 15.38202466 31.59944547 35.99939567 35.5546875 60.94140625 C35.96454985 66.05454708 36.0324082 71.12608616 35.9921875 76.25390625 C35.98762543 77.26880127 35.98762543 77.26880127 35.98297119 78.30419922 C35.8719562 95.04427336 33.05241784 112.69481074 23.5546875 126.94140625 C24.27527344 127.05742187 24.99585938 127.1734375 25.73828125 127.29296875 C40.5167446 130.69549984 52.76485166 144.67532145 60.5546875 156.94140625 C63.52886659 162.13005563 66.09387082 167.49427128 68.5546875 172.94140625 C69.24691406 174.441875 69.24691406 174.441875 69.953125 175.97265625 C77.69311043 194.31198479 81.8528771 215.97767015 82.89692688 235.83909607 C83.05177576 238.73297722 83.24252367 241.62424393 83.43130493 244.51608276 C83.55229284 246.64918663 83.61401569 248.77876706 83.67456055 250.91430664 C83.99152993 258.28004997 83.99152993 258.28004997 87.9152832 264.25610352 C90.72659198 266.01320131 93.58229096 267.47854866 96.5546875 268.94140625 C100.88374292 272.18457448 104.66259723 276.19164277 108.5546875 279.94140625 C109.63556641 280.91013672 109.63556641 280.91013672 110.73828125 281.8984375 C127.34163172 297.23231651 138.51642929 322.80165325 139.73168945 345.2043457 C140.28917453 375.6838985 140.28917453 375.6838985 135.5546875 389.94140625 C135.34038086 390.59061035 135.12607422 391.23981445 134.90527344 391.90869141 C125.62269607 419.00652098 106.15008352 441.74256645 80.55932617 454.63793945 C66.269246 461.53369243 50.58143365 466.29888014 34.5546875 465.94140625 C34.58949219 466.85019531 34.58949219 466.85019531 34.625 467.77734375 C34.80971336 476.35332111 34.35471813 484.20850098 29.26171875 491.37109375 C23.4746078 496.69470611 17.2139774 497.91749057 9.6796875 499.12890625 C8.26623047 499.37543945 8.26623047 499.37543945 6.82421875 499.62695312 C-2.2058604 501.16943552 -11.0479253 502.09872379 -20.2109375 502.14453125 C-21.1250238 502.15023132 -22.03911011 502.1559314 -22.980896 502.1618042 C-24.91042954 502.17119895 -26.83997873 502.17776602 -28.76953125 502.18164062 C-31.64613952 502.19124212 -34.52199945 502.22227532 -37.3984375 502.25390625 C-80.67867522 502.49851653 -80.67867522 502.49851653 -93.046875 492.453125 C-98.76089565 486.27623675 -99.48744094 478.81164502 -99.4609375 470.71484375 C-99.45868164 469.81942871 -99.45642578 468.92401367 -99.45410156 468.00146484 C-99.45120117 467.32164551 -99.44830078 466.64182617 -99.4453125 465.94140625 C-100.31939412 465.94417163 -101.19347574 465.94693701 -102.09404469 465.94978619 C-123.4393679 466.01626542 -144.78467308 466.06579303 -166.13007832 466.09684277 C-176.45288644 466.11226029 -186.77562514 466.13325107 -197.09838867 466.16772461 C-206.10390292 466.19778457 -215.10936683 466.21701834 -224.11492985 466.22367173 C-228.87586562 466.2275561 -233.63665749 466.23657601 -238.39754677 466.25859642 C-242.89468943 466.27922495 -247.39163134 466.28518787 -251.88881683 466.28072929 C-253.52404312 466.28154288 -255.15927738 466.28734942 -256.7944622 466.29902267 C-289.93026604 466.52361761 -318.79815243 456.41886518 -342.6953125 433.12890625 C-362.67290909 412.89190247 -372.85966649 385.52953351 -372.8203125 357.37890625 C-372.81976868 356.72010468 -372.81922485 356.0613031 -372.81866455 355.38253784 C-372.70297827 324.81961117 -360.5257192 298.50608118 -338.90063477 276.96630859 C-333.23353995 271.50933257 -327.11794763 267.09918302 -320.4453125 262.94140625 C-319.53910156 262.36777344 -318.63289063 261.79414063 -317.69921875 261.203125 C-315.4453125 259.94140625 -315.4453125 259.94140625 -313.4453125 259.94140625 C-313.44273437 259.28398437 -313.44015625 258.6265625 -313.4375 257.94921875 C-312.4544358 233.76583942 -299.11953587 213.01209119 -282.1953125 196.69140625 C-262.10890471 179.14072938 -236.73359733 172.24930004 -210.4453125 173.94140625 C-206.07167608 174.37653844 -201.75409425 175.07500848 -197.4453125 175.94140625 C-196.95804688 175.16539062 -196.47078125 174.389375 -195.96875 173.58984375 C-181.67171817 151.80636616 -161.99647859 137.06324661 -136.34204102 131.05957031 C-127.03275246 129.27010632 -117.43140294 129.71068068 -107.99438477 130.00048828 C-106.70330811 130.03126465 -105.41223145 130.06204102 -104.08203125 130.09375 C-102.92405029 130.13491943 -101.76606934 130.17608887 -100.57299805 130.21850586 C-97.09078874 129.90999696 -95.26175103 128.95456129 -92.4453125 126.94140625 C-92.90421875 126.02101562 -93.363125 125.100625 -93.8359375 124.15234375 C-105.87201029 99.51283016 -108.97903496 70.3208936 -100.4453125 43.94140625 C-92.48703063 21.02474843 -78.33895232 3.79169859 -56.79296875 -7.44140625 C-38.74739088 -15.02001898 -15.66954797 -10.76409601 0 0 Z " fill="#FCFCFC" transform="translate(372.4453125,10.05859375)"/>
<path d="M0 0 C-1.45312754 3.25118939 -3.29849668 5.62914259 -5.625 8.3125 C-35.27343193 45.05077435 -35.40490913 102.64581035 -36.5625 147.5625 C-36.706875 152.986875 -36.85125 158.41125 -37 164 C-22.81 164 -8.62 164 6 164 C8.29729832 183.52703569 8.29729832 183.52703569 8.76196289 190.48217773 C8.81917007 191.28789719 8.87637726 192.09361664 8.93531799 192.92375183 C9.1181022 195.51012361 9.29540214 198.0968377 9.47265625 200.68359375 C9.60153344 202.5186686 9.73080906 204.3537155 9.86045837 206.18873596 C10.19718305 210.9667974 10.52943899 215.74515775 10.8604126 220.52362061 C11.39228933 228.19270162 11.93075588 235.86132146 12.46990776 243.52989388 C12.65588714 246.18514312 12.83971136 248.84053464 13.02320862 251.49595642 C13.13770469 253.13851603 13.25243756 254.78105916 13.36743164 256.42358398 C13.42162797 257.20312156 13.4758243 257.98265913 13.53166294 258.78581905 C13.80149169 262.573354 14.13229236 266.33970024 14.58374023 270.10961914 C15.08501659 274.6770934 15.04680261 279.21758118 15.02601624 283.8056488 C15.02413819 284.59440509 15.02226014 285.38316138 15.02032518 286.19581938 C15.01544751 288.13055197 15.00798263 290.06527773 15 292 C-9.77460901 292.07021821 -34.54920301 292.12305082 -59.32389164 292.15543652 C-70.82834776 292.17087638 -82.33274188 292.19191063 -93.8371582 292.22631836 C-103.86955431 292.25630911 -113.90190549 292.27559592 -123.93434519 292.28226548 C-129.24176405 292.28616139 -134.54905445 292.2952568 -139.85643196 292.31719017 C-144.86243787 292.33770846 -149.86826366 292.34380309 -154.87430763 292.33932304 C-156.70149467 292.34014143 -158.52868838 292.34601495 -160.35583878 292.35761642 C-186.89097853 292.51769028 -210.19952022 285.5924148 -230 267 C-237.53916521 259.11304592 -242.99412395 250.61593865 -248 241 C-248.40992188 240.24460937 -248.81984375 239.48921875 -249.2421875 238.7109375 C-259.50444415 218.10687182 -257.80210793 193.98226834 -250.9375 172.70703125 C-242.11107869 149.50702801 -224.28491463 133.00951599 -202.2734375 122.43359375 C-199 121 -199 121 -197 121 C-197.04640625 120.01902344 -197.0928125 119.03804688 -197.140625 118.02734375 C-197.82303244 97.26451352 -190.55460111 79.80321152 -176.72265625 64.4765625 C-164.62722288 51.75056151 -147.73907586 42.27655872 -129.87890625 41.734375 C-128.1067709 41.7291436 -126.33457479 41.73444411 -124.5625 41.75 C-123.24668945 41.73839844 -123.24668945 41.73839844 -121.90429688 41.7265625 C-113.0606016 41.75263087 -105.06241301 43.31519474 -96.875 46.625 C-95.20050781 47.29402344 -95.20050781 47.29402344 -93.4921875 47.9765625 C-92.66976562 48.31429687 -91.84734375 48.65203125 -91 49 C-90.73896484 48.47680176 -90.47792969 47.95360352 -90.20898438 47.41455078 C-79.03042821 25.1700071 -65.59211487 8.93451884 -41.75 0 C-29.35716713 -3.95796984 -12.29819135 -4.39347152 0 0 Z " fill="#000000" transform="translate(276,163)"/>
<path d="M0 0 C11.69308092 4.10222029 20.04400699 10.16539677 28.60546875 18.9140625 C29.34539062 19.62175781 30.0853125 20.32945312 30.84765625 21.05859375 C37.74159663 28.07324515 43.42680037 38.28797274 45.60546875 47.9140625 C46.7140625 47.49253906 47.82265625 47.07101563 48.96484375 46.63671875 C50.42834123 46.0832165 51.89188535 45.52983754 53.35546875 44.9765625 C54.08507812 44.69876953 54.8146875 44.42097656 55.56640625 44.13476562 C56.27539062 43.86728516 56.984375 43.59980469 57.71484375 43.32421875 C58.6888916 42.95502319 58.6888916 42.95502319 59.68261719 42.57836914 C73.80265561 37.70017913 93.40241572 39.03893828 106.98046875 45.08203125 C108.19514165 45.67999921 109.40370797 46.2905507 110.60546875 46.9140625 C111.1984375 47.21908691 111.79140625 47.52411133 112.40234375 47.83837891 C130.22297568 57.31544617 143.68364428 72.54325368 149.9296875 91.8046875 C152.6848535 101.20507351 153.07173711 110.17423444 152.60546875 119.9140625 C153.92546875 120.2440625 155.24546875 120.5740625 156.60546875 120.9140625 C156.60546875 134.7740625 156.60546875 148.6340625 156.60546875 162.9140625 C143.07546875 162.9140625 129.54546875 162.9140625 115.60546875 162.9140625 C115.60546875 167.5340625 115.60546875 172.1540625 115.60546875 176.9140625 C115.38747213 181.551112 115.13825934 186.17361517 114.8359375 190.8046875 C114.7148613 192.73734467 114.7148613 192.73734467 114.59133911 194.70904541 C114.37527148 198.15251345 114.15355833 201.59559421 113.93033218 205.03860474 C113.74568531 207.89569066 113.56413205 210.75297029 113.38243008 213.61024475 C112.28313632 230.88189734 111.14156492 248.15073806 109.91796875 265.4140625 C109.85757416 266.27229614 109.79717957 267.13052979 109.73495483 268.01477051 C109.56557598 270.40848748 109.39291262 272.80193934 109.21875 275.1953125 C109.12376221 276.50564453 109.02877441 277.81597656 108.9309082 279.16601562 C108.59000962 283.09210342 108.09427227 287.00363435 107.60546875 290.9140625 C75.92546875 290.9140625 44.24546875 290.9140625 11.60546875 290.9140625 C8.1629531 259.93142169 8.1629531 259.93142169 7.54296875 250.109375 C7.46645081 248.98130432 7.38993286 247.85323364 7.31109619 246.690979 C7.07092756 243.14065218 6.83820442 239.58988339 6.60546875 236.0390625 C6.27021664 231.05446195 5.93049067 226.07017199 5.58984375 221.0859375 C5.50716248 219.87050262 5.4244812 218.65506775 5.33929443 217.40280151 C4.50139595 205.18839061 3.51849284 192.98741417 2.46875 180.78955078 C2.40967468 180.09182556 2.35059937 179.39410034 2.28973389 178.67523193 C2.13489383 176.85015915 1.9763208 175.02540408 1.81738281 173.20068359 C1.59670795 169.7781893 1.60546875 166.34366373 1.60546875 162.9140625 C-12.58453125 162.9140625 -26.77453125 162.9140625 -41.39453125 162.9140625 C-41.55606553 142.39920863 -41.48293856 122.32768773 -39.39453125 101.9140625 C-39.28737793 100.81739258 -39.18022461 99.72072266 -39.06982422 98.59082031 C-37.75246889 85.28687382 -36.07452301 72.18743474 -32.94042969 59.18066406 C-32.56951925 57.64062271 -32.20853216 56.09816449 -31.85644531 54.55371094 C-27.31769644 34.6916281 -20.04350602 15.49937459 -4.82421875 1.3984375 C-2.39453125 -0.0859375 -2.39453125 -0.0859375 0 0 Z " fill="#FEFEFE" transform="translate(280.39453125,164.0859375)"/>
<path d="M0 0 C15.90197044 10.29107452 25.06961055 25.37305954 29.3359375 43.76171875 C33.01845428 64.87043102 30.07960969 86.2681574 18.578125 104.5703125 C16.61513274 107.30817013 14.56492588 109.943299 12.4609375 112.57421875 C11.54807157 113.75963701 10.63806371 114.94726003 9.73046875 116.13671875 C7.3210633 119.2933903 4.89516761 122.43665576 2.4609375 125.57421875 C3.23695313 125.61160156 4.01296875 125.64898437 4.8125 125.6875 C22.37207406 126.75616143 39.28255613 130.41143188 51.6015625 143.921875 C69.69848731 167.21328749 74.45776803 195.72818786 77.39624023 224.32299805 C77.64948282 226.77182686 77.91699723 229.21882345 78.18554688 231.66601562 C79.18156418 241.01631748 79.7107501 250.16078223 79.4609375 259.57421875 C78.1409375 259.24421875 76.8209375 258.91421875 75.4609375 258.57421875 C75.42226563 257.12015625 75.42226563 257.12015625 75.3828125 255.63671875 C74.51727691 232.58094191 67.29638965 213.65169158 50.2734375 197.38671875 C44.52360942 192.52377923 38.18801693 188.88169947 31.4609375 185.57421875 C29.8521875 184.77564453 29.8521875 184.77564453 28.2109375 183.9609375 C19.65447082 180.44525964 11.50609452 180.09354143 2.3359375 180.01171875 C1.16853027 179.99689453 0.00112305 179.98207031 -1.20166016 179.96679688 C-9.59795247 180.06603545 -16.64657186 181.81567182 -24.5390625 184.57421875 C-25.97287134 185.00341519 -27.40969261 185.4229351 -28.8515625 185.82421875 C-30.181875 186.19546875 -30.181875 186.19546875 -31.5390625 186.57421875 C-32.02375 185.46304688 -32.5084375 184.351875 -33.0078125 183.20703125 C-36.93915691 174.39891702 -40.89864567 166.69619252 -47.5390625 159.57421875 C-48.21453125 158.80851563 -48.89 158.0428125 -49.5859375 157.25390625 C-57.61748179 148.60680564 -67.68802386 142.98820057 -78.5390625 138.57421875 C-70.01492098 127.91904185 -54.10991432 126.77318526 -41.5390625 124.57421875 C-42.22871094 123.79820312 -42.91835938 123.0221875 -43.62890625 122.22265625 C-61.33213321 102.00487433 -71.21312626 80.44844267 -69.74169922 53.04638672 C-68.17780646 33.966895 -59.32320607 15.77594141 -44.7890625 3.26171875 C-30.85164783 -7.22857962 -15.35361603 -8.62164592 0 0 Z " fill="#010101" transform="translate(357.5390625,25.42578125)"/>
<path d="M0 0 C21.06898475 8.4275939 37.32766841 24.44295733 47 45 C56.48676794 67.82482876 56.63847216 91.30942896 47.6875 114.25 C37.91438372 136.12878902 21.72675076 154.24786897 -1 163 C-10.53412124 166.32441163 -20.10512883 169.14799441 -30.2734375 169.09765625 C-31.42714844 169.09443359 -32.58085937 169.09121094 -33.76953125 169.08789062 C-34.95933594 169.07951172 -36.14914062 169.07113281 -37.375 169.0625 C-38.58800781 169.05798828 -39.80101562 169.05347656 -41.05078125 169.04882812 C-44.03390507 169.03708354 -47.01692679 169.0206584 -50 169 C-49.42966835 153.52095222 -48.51396346 138.08622158 -47.38586426 122.63839722 C-46.93438624 116.44958851 -46.49405285 110.25999138 -46.0546875 104.0703125 C-45.92139038 102.193722 -45.92139038 102.193722 -45.78540039 100.27922058 C-44.39185826 80.52778483 -43.20877706 60.76350497 -42 41 C-28.14 41 -14.28 41 0 41 C0 27.47 0 13.94 0 0 Z " fill="#010101" transform="translate(438,286)"/>
<path d="M0 0 C31.35 0 62.7 0 95 0 C95 21 95 21 94 31 C64.52387542 37.35261306 31.2099844 40.24112299 2 31 C1.66080904 27.33385091 1.32971919 23.6670121 1 20 C0.90460938 18.97003906 0.80921875 17.94007813 0.7109375 16.87890625 C0.62070312 15.86699219 0.53046875 14.85507812 0.4375 13.8125 C0.35371094 12.89082031 0.26992188 11.96914063 0.18359375 11.01953125 C-0.03936227 7.35261624 0 3.67368685 0 0 Z " fill="#020202" transform="translate(292,456)"/>
</svg>
