<?xml version="1.0" encoding="UTF-8"?>
<svg version="1.1" xmlns="http://www.w3.org/2000/svg" width="512" height="512">
<path d="M0 0 C0.78944 -0.00570007 1.57888 -0.01140015 2.39224243 -0.01727295 C4.05786832 -0.02666461 5.7235123 -0.03323352 7.38916016 -0.03710938 C9.87307522 -0.04671647 12.35612559 -0.07775416 14.83984375 -0.109375 C26.03671935 -0.18345141 36.57001395 0.98781005 47.5390625 3.203125 C48.46412598 3.38601074 49.38918945 3.56889648 50.34228516 3.75732422 C95.75437945 13.39137825 136.49479577 43.60948002 161.77490234 82.08398438 C167.28170621 90.71836169 172.06032705 99.71181214 176.46484375 108.95117188 C177.20852234 110.51019264 177.95898485 112.0659887 178.71484375 113.61914062 C214.97013481 188.37409792 211.45430155 274.4117854 186.5390625 352.203125 C186.22662598 353.18394043 185.91418945 354.16475586 185.59228516 355.17529297 C173.87317266 391.2871283 155.47478289 426.18955282 129.50390625 454.0859375 C127.67599087 456.05557992 125.95127075 458.08090148 124.2265625 460.140625 C99.57126626 488.22964971 63.55971844 507.52744302 26.5390625 512.203125 C8.39950516 513.09539578 -9.910567 513.32783318 -27.4609375 508.203125 C-28.22212891 507.98881836 -28.98332031 507.77451172 -29.76757812 507.55371094 C-40.96659079 504.33458052 -51.26808017 499.81658266 -61.4609375 494.203125 C-62.08564941 493.86442383 -62.71036133 493.52572266 -63.35400391 493.17675781 C-119.89342047 462.19262789 -153.66665583 399.45295761 -171.33984375 339.81542969 C-195.39668626 255.58951136 -190.91893509 172.0374494 -148.87597656 94.74414062 C-140.83418949 80.3033332 -130.80677527 67.19948298 -119.4609375 55.203125 C-118.66558594 54.34332031 -117.87023437 53.48351563 -117.05078125 52.59765625 C-87.6952688 21.91384007 -42.80897724 0.24805213 0 0 Z " fill="#010101" transform="translate(246.4609375,-0.203125)"/>
<path d="M0 0 C25.31699326 21.44998323 43.68414183 52.1813087 46.60107422 85.70288086 C48.80373319 120.63502264 38.83790581 154.21880429 15.87060547 180.92553711 C-3.66995005 203.02912819 -27.33838494 216.3859546 -55.39892578 224.70288086 C-56.10355957 224.91203125 -56.80819336 225.12118164 -57.53417969 225.33666992 C-76.94691032 230.7106759 -104.10322245 230.21261222 -123.39892578 224.70288086 C-124.18380371 224.48776855 -124.96868164 224.27265625 -125.77734375 224.05102539 C-159.998635 214.41831719 -190.6052832 192.84578109 -208.39892578 161.70288086 C-224.36176749 133.16195094 -230.78034918 99.18289745 -222.13525391 67.19604492 C-211.64664917 31.68224137 -188.99212815 3.05442431 -156.74707031 -15.03344727 C-145.83648287 -20.90506305 -134.50088991 -25.55029176 -122.39892578 -28.29711914 C-121.14080078 -28.59489258 -119.88267578 -28.89266602 -118.58642578 -29.19946289 C-77.01208609 -38.06005605 -32.69940753 -26.88017168 0 0 Z " fill="#FDFDFD" transform="translate(347.39892578125,80.297119140625)"/>
<path d="M0 0 C0.78944 -0.00570007 1.57888 -0.01140015 2.39224243 -0.01727295 C4.05786832 -0.02666461 5.7235123 -0.03323352 7.38916016 -0.03710938 C9.87307522 -0.04671647 12.35612559 -0.07775416 14.83984375 -0.109375 C26.03671935 -0.18345141 36.57001395 0.98781005 47.5390625 3.203125 C48.46412598 3.38601074 49.38918945 3.56889648 50.34228516 3.75732422 C95.75437945 13.39137825 136.49479577 43.60948002 161.77490234 82.08398438 C167.28170621 90.71836169 172.06032705 99.71181214 176.46484375 108.95117188 C177.20852234 110.51019264 177.95898485 112.0659887 178.71484375 113.61914062 C214.97013481 188.37409792 211.45430155 274.4117854 186.5390625 352.203125 C186.22662598 353.18394043 185.91418945 354.16475586 185.59228516 355.17529297 C173.87317266 391.2871283 155.47478289 426.18955282 129.50390625 454.0859375 C127.67599087 456.05557992 125.95127075 458.08090148 124.2265625 460.140625 C99.57126626 488.22964971 63.55971844 507.52744302 26.5390625 512.203125 C8.39950516 513.09539578 -9.910567 513.32783318 -27.4609375 508.203125 C-28.22212891 507.98881836 -28.98332031 507.77451172 -29.76757812 507.55371094 C-40.96659079 504.33458052 -51.26808017 499.81658266 -61.4609375 494.203125 C-62.08564941 493.86442383 -62.71036133 493.52572266 -63.35400391 493.17675781 C-119.89342047 462.19262789 -153.66665583 399.45295761 -171.33984375 339.81542969 C-195.39668626 255.58951136 -190.91893509 172.0374494 -148.87597656 94.74414062 C-140.83418949 80.3033332 -130.80677527 67.19948298 -119.4609375 55.203125 C-118.66558594 54.34332031 -117.87023437 53.48351563 -117.05078125 52.59765625 C-87.6952688 21.91384007 -42.80897724 0.24805213 0 0 Z M-26.4609375 24.203125 C-27.22051758 24.38504395 -27.98009766 24.56696289 -28.76269531 24.75439453 C-68.22399496 34.52800992 -104.23001379 61.68039015 -125.4609375 96.203125 C-130.76474343 105.37507805 -135.65194182 114.76464704 -140.4609375 124.203125 C-140.93225098 125.12512695 -141.40356445 126.04712891 -141.88916016 126.99707031 C-150.44993457 143.90942114 -156.21199188 161.01965463 -160.2734375 179.515625 C-160.42073303 180.18322845 -160.56802856 180.85083191 -160.7197876 181.53866577 C-164.2887459 197.88620509 -165.84247545 213.52317887 -165.7734375 230.203125 C-165.77161469 231.11942688 -165.76979187 232.03572876 -165.76791382 232.97979736 C-165.59818305 283.98859278 -155.84786884 335.12359625 -133.4609375 381.203125 C-133.03474121 382.08145996 -132.60854492 382.95979492 -132.16943359 383.86474609 C-122.98856846 402.56003159 -112.31971044 420.56288408 -98.4609375 436.203125 C-97.74808594 437.02425781 -97.03523438 437.84539062 -96.30078125 438.69140625 C-86.86870698 449.38774444 -77.07971971 458.95808287 -65.4609375 467.203125 C-64.65148682 467.77909424 -64.65148682 467.77909424 -63.82568359 468.36669922 C-48.82092201 478.87944673 -32.36868653 486.30733567 -14.4609375 490.203125 C-13.6244165 490.38713867 -12.78789551 490.57115234 -11.92602539 490.76074219 C5.42871818 494.26763499 23.63185497 493.27179163 40.5390625 488.203125 C41.64338623 487.88964111 41.64338623 487.88964111 42.77001953 487.56982422 C60.20248512 482.57039531 75.21704067 474.22456158 89.5390625 463.203125 C90.45816406 462.50832031 91.37726563 461.81351562 92.32421875 461.09765625 C136.70542435 426.25939029 160.77107938 371.43121475 174.5390625 318.203125 C174.85399658 316.98906982 174.85399658 316.98906982 175.17529297 315.75048828 C176.40982706 310.9238246 177.53289485 306.08249716 178.5390625 301.203125 C178.6726416 300.55553223 178.8062207 299.90793945 178.94384766 299.24072266 C190.50050381 241.25794352 187.12076851 180.40977017 161.68310547 126.64404297 C160.55602701 124.23932029 159.4673658 121.82042313 158.38671875 119.39453125 C150.5184283 101.9318989 140.68419192 86.17190493 127.5390625 72.203125 C127.01699219 71.64399414 126.49492187 71.08486328 125.95703125 70.50878906 C114.80467848 58.67128566 102.64734541 49.35457735 88.5390625 41.203125 C87.44722656 40.54570313 86.35539063 39.88828125 85.23046875 39.2109375 C70.51378729 30.63315504 53.26499042 25.22560926 36.5390625 22.203125 C35.5696875 22.00074219 34.6003125 21.79835938 33.6015625 21.58984375 C13.73653971 18.01121832 -6.94941107 19.47105492 -26.4609375 24.203125 Z " fill="#FDFDFD" transform="translate(246.4609375,-0.203125)"/>
<path d="M0 0 C7.7605089 7.34592412 12.74176518 15.60171509 15.52734375 25.90234375 C15.79998047 26.77246094 15.79998047 26.77246094 16.078125 27.66015625 C18.27331896 38.61703742 16.96348503 49.17222917 11.52734375 58.90234375 C11.10453125 59.67707031 10.68171875 60.45179688 10.24609375 61.25 C4.56206423 70.6187347 -3.86696582 77.81005127 -12.47265625 84.40234375 C-26.28278465 94.96562685 -26.28278465 94.96562685 -34.47265625 109.90234375 C-34.80265625 113.20234375 -35.13265625 116.50234375 -35.47265625 119.90234375 C-52.30265625 119.90234375 -69.13265625 119.90234375 -86.47265625 119.90234375 C-86.47265625 98.86449118 -83.95065725 87.54580762 -69.47265625 72.90234375 C-66.88994008 70.46280588 -64.19923069 68.17903341 -61.47265625 65.90234375 C-60.39898425 64.99047194 -59.32613111 64.07763548 -58.25390625 63.1640625 C-49.27540237 55.52606836 -49.27540237 55.52606836 -45.72265625 52.765625 C-41.90338125 49.60278789 -39.87695109 46.26447378 -39.05078125 41.4375 C-38.8172038 37.12280542 -38.96127891 33.89551094 -41.66015625 30.40234375 C-46.58918455 26.02098526 -51.12509994 25.3931872 -57.55078125 25.5234375 C-63.78441216 26.33180942 -68.75901599 28.96900602 -72.91015625 33.65234375 C-75.91880001 39.91032278 -77.7386797 46.00296416 -78.47265625 52.90234375 C-89.64644268 52.2272795 -100.6922343 50.7978634 -111.78515625 49.33984375 C-113.6047776 49.10320701 -115.42443883 48.86687671 -117.24414062 48.63085938 C-121.65411285 48.05821396 -126.06352704 47.48144278 -130.47265625 46.90234375 C-130.49670494 45.48559905 -130.51371091 44.0687339 -130.52783203 42.65185547 C-130.54319504 41.46836014 -130.54319504 41.46836014 -130.55886841 40.26095581 C-130.42665459 36.64381983 -129.48891609 33.44131057 -128.34765625 30.02734375 C-128.12247314 29.33753418 -127.89729004 28.64772461 -127.6652832 27.93701172 C-122.41042412 12.46246953 -112.58709827 -1.42827324 -97.83984375 -9.04296875 C-68.38935394 -23.28776357 -25.517654 -21.64767804 0 0 Z " fill="#010101" transform="translate(313.47265625,96.09765625)"/>
<path d="M0 0 C17.82 0 35.64 0 54 0 C54 15.84 54 31.68 54 48 C36.18 48 18.36 48 0 48 C0 32.16 0 16.32 0 0 Z " fill="#000000" transform="translate(225,229)"/>
<path d="M0 0 C4.8171254 2.46964943 7.38457225 5.93436849 9.40234375 10.94116211 C10.55512505 14.91232417 10.5295813 18.89082017 10.5 23 C10.49427979 23.92409668 10.48855957 24.84819336 10.48266602 25.80029297 C10.13131337 39.44981087 5.34935312 51.97179097 -3.9453125 62.125 C-9.17102408 67.04331678 -14.72313984 70.34305484 -22.0625 70.1875 C-26.53932896 69.3767357 -28.82290347 66.7208124 -31.5234375 63.21875 C-37.30445317 54.53193281 -37.01070353 44.93174174 -35.53125 34.78515625 C-32.64063212 21.6913455 -25.89676027 9.10575165 -14.625 1.375 C-9.61944518 -0.52365872 -5.2784636 -1.01688049 0 0 Z " fill="#FCFCFC" transform="translate(376,291)"/>
<path d="M0 0 C15.80321736 -0.52489509 30.84385845 2.24763578 45.109375 9.1953125 C44.61324503 17.29876861 41.78929 24.60057183 39.109375 32.1953125 C37.82289063 32.0509375 36.53640625 31.9065625 35.2109375 31.7578125 C13.03143137 29.41830754 -8.74011719 29.70948397 -30.890625 32.1953125 C-31.89997629 29.3024396 -32.89831244 26.40652735 -33.890625 23.5078125 C-34.31988281 22.28288086 -34.31988281 22.28288086 -34.7578125 21.03320312 C-37.31329449 13.51886917 -37.31329449 13.51886917 -36.890625 9.1953125 C-24.77322626 3.75967086 -13.22538475 0.66392494 0 0 Z " fill="#FCFCFC" transform="translate(251.890625,421.8046875)"/>
<path d="M0 0 C7.57102691 3.42882374 11.02807524 8.40751791 15.0703125 15.4140625 C17.48372315 23.45876467 17.00224718 31.31286259 13.53125 38.96875 C10.85583138 43.36519814 7.23870589 45.94907184 2.8828125 48.5390625 C-3.31861641 49.98125527 -8.80407186 50.05458134 -14.5546875 47.1015625 C-22.12807398 42.31977703 -26.60468518 35.8528357 -28.8046875 27.1640625 C-29.62189522 20.70145046 -29.55264329 14.71675267 -26.21875 8.984375 C-19.22873918 -0.01381573 -11.21607048 -3.34295137 0 0 Z " fill="#FBFBFB" transform="translate(158.8046875,314.8359375)"/>
</svg>
