<?xml version="1.0" encoding="UTF-8"?>
<svg version="1.1" xmlns="http://www.w3.org/2000/svg" width="512" height="512">
<path d="M0 0 C1.04953857 0.00757324 2.09907715 0.01514648 3.18041992 0.02294922 C21.42754936 0.4088189 35.91626331 7.76925128 49.0859375 20.234375 C62.27686002 34.20123414 66.837034 50.98043071 66.328125 69.7734375 C66.28171875 70.98257813 66.2353125 72.19171875 66.1875 73.4375 C77.21948653 65.37397498 88.17646731 57.22661471 98.97924805 48.85742188 C115.37158894 36.24915968 115.37158894 36.24915968 126.1875 37.4375 C129.35533831 38.44404512 132.21844979 39.95297489 135.1875 41.4375 C138.07529789 41.59743958 140.96032295 41.69130008 143.8515625 41.765625 C151.87457269 43.38150059 156.75472291 48.66524176 161.5625 54.9375 C162.3975708 55.99590088 162.3975708 55.99590088 163.24951172 57.07568359 C164.90905971 59.18614919 166.55055717 61.30947432 168.1875 63.4375 C169.07796494 64.58606161 169.96857775 65.7345086 170.859375 66.8828125 C172.49072211 68.99308132 174.11210675 71.11012694 175.73046875 73.23046875 C179.69669233 78.42345822 183.75630095 83.54370961 187.80078125 88.67578125 C189.17167682 90.41739788 190.53949991 92.16137885 191.90625 93.90625 C192.81246459 95.06252775 193.71871456 96.21877778 194.625 97.375 C195.29184814 98.2263855 195.29184814 98.2263855 195.97216797 99.0949707 C198.45113865 102.25248527 200.95136809 105.39101531 203.4765625 108.51171875 C204.02256104 109.1879126 204.56855957 109.86410645 205.13110352 110.56079102 C206.1856409 111.86468968 207.24327219 113.1660941 208.30444336 114.46459961 C214.1875 121.74286321 214.1875 121.74286321 214.1875 127.4375 C214.85394531 127.51226562 215.52039063 127.58703125 216.20703125 127.6640625 C228.85153048 129.46789316 239.39190044 135.91675116 247.1953125 146.04296875 C255.84224476 158.86864861 257.27699522 172.94527627 254.53125 188.046875 C250.94591491 199.9773866 242.84937409 210.26077766 231.8984375 216.23046875 C218.56132667 222.56785437 204.19527487 223.75572168 190.12109375 218.765625 C185.29975144 216.58286017 181.25286222 213.80491508 177.1875 210.4375 C176.55199219 209.93734375 175.91648437 209.4371875 175.26171875 208.921875 C167.64454229 202.2336225 162.10412051 190.50303093 161.1875 180.4375 C160.78821252 173.85369317 160.97611118 167.82123071 162.84765625 161.47265625 C163.30868385 158.71178981 163.07794565 157.11668228 162.1875 154.4375 C160.5009673 152.07635422 158.80404498 149.89597166 156.9375 147.6875 C155.83676498 146.35041899 154.7378723 145.01181961 153.640625 143.671875 C153.07021484 142.97771484 152.49980469 142.28355469 151.91210938 141.56835938 C149.09226634 138.08427246 146.39247591 134.51101239 143.6875 130.9375 C137.65492049 122.99480147 131.45498818 115.19563402 125.1875 107.4375 C121.70820861 108.05264775 119.64030643 109.38147716 116.87109375 111.54296875 C115.61607056 112.51278687 115.61607056 112.51278687 114.33569336 113.50219727 C113.44116455 114.20272217 112.54663574 114.90324707 111.625 115.625 C109.7197359 117.09763058 107.81346589 118.56896057 105.90625 120.0390625 C104.94589844 120.7805957 103.98554688 121.52212891 102.99609375 122.28613281 C98.15820799 125.99192639 93.24026592 129.58651928 88.32226562 133.18481445 C84.06428481 136.30533424 79.83110953 139.45431643 75.625 142.64453125 C74.70662354 143.3398999 73.78824707 144.03526855 72.84204102 144.75170898 C71.06084402 146.10269145 69.28257233 147.45754139 67.50756836 148.81665039 C66.31079468 149.72338501 66.31079468 149.72338501 65.08984375 150.6484375 C64.38335693 151.18774902 63.67687012 151.72706055 62.94897461 152.28271484 C61.1875 153.4375 61.1875 153.4375 59.1875 153.4375 C59.21070313 154.03433594 59.23390625 154.63117188 59.2578125 155.24609375 C59.74325397 178.58195883 53.81342524 199.64112336 42.01025391 219.68603516 C40.97491141 221.56754094 40.97491141 221.56754094 41.1875 224.4375 C42.57914522 227.43085009 44.13225011 230.31891325 45.6796875 233.234375 C48.52468142 239.27814447 49.57701271 244.91720432 49.5625 251.5625 C49.56161377 252.29952148 49.56072754 253.03654297 49.55981445 253.79589844 C49.39382765 261.59138013 47.87196753 269.41388431 43.48828125 275.984375 C41.8026256 279.16332919 42.23345914 279.98349455 43.1875 283.4375 C44.28537329 286.44054222 45.50003643 289.39194408 46.71875 292.34765625 C49.70394156 299.6982042 52.60664166 307.07281829 55.40625 314.49609375 C55.7578418 315.42829742 56.10943359 316.3605011 56.47167969 317.32095337 C57.54512387 320.17173906 58.61644295 323.02331671 59.6875 325.875 C60.40214605 327.77416295 61.11698952 329.67325162 61.83203125 331.57226562 C62.18508331 332.51084915 62.53813538 333.44943268 62.90188599 334.41645813 C63.60907532 336.29213124 64.31890522 338.16681104 65.03146362 340.04045105 C66.83553812 344.79232552 68.58796481 349.5540652 70.25830078 354.35473633 C70.77003845 355.78820152 70.77003845 355.78820152 71.29211426 357.25062561 C71.93693068 359.0592125 72.56455187 360.87406262 73.17126465 362.69578552 C75.66677133 369.59639325 78.71799998 372.07228072 85.29272461 375.36791992 C85.94764893 375.63193604 86.60257324 375.89595215 87.27734375 376.16796875 C93.41773578 378.86963905 98.95884479 382.49507625 104.625 386.0625 C106.85785811 387.4503601 109.09225413 388.83574876 111.328125 390.21875 C111.88961746 390.56633865 112.45110992 390.91392731 113.02961731 391.27204895 C117.05212539 393.75540688 121.10333694 396.18666252 125.171875 398.59375 C126.2966626 399.26067871 127.4214502 399.92760742 128.58032227 400.61474609 C130.71809203 401.87855692 132.85903295 403.13702474 135.00366211 404.38916016 C140.54047787 407.66673481 145.54695686 410.95921362 150.1875 415.4375 C150.1875 416.0975 150.1875 416.7575 150.1875 417.4375 C151.156875 417.2725 152.12625 417.1075 153.125 416.9375 C167.18742981 415.02882689 179.56467086 418.21605762 191.1875 426.4375 C200.15106367 433.54480329 205.93281686 444.31694418 208.1875 455.4375 C209.73949 470.35165793 206.82566517 483.69755784 197.44140625 495.6640625 C188.23140493 505.58252547 176.65277024 510.41684864 163.34375 511.71484375 C151.010926 512.15783312 139.14289558 508.27873423 129.67578125 500.328125 C122.68485036 493.62607555 118.10705173 486.65713705 115.1875 477.4375 C115.1875 476.1175 115.1875 474.7975 115.1875 473.4375 C114.383125 473.39625 113.57875 473.355 112.75 473.3125 C103.28951919 470.98887313 95.62150437 462.80340096 88.2421875 456.7421875 C84.73124454 453.86569258 81.17099913 451.06522638 77.5625 448.3125 C72.60387907 444.52870952 67.68190126 440.70296795 62.78881836 436.8347168 C59.37382857 434.13946763 55.93692149 431.47667362 52.4765625 428.83984375 C51.67178467 428.22334961 50.86700684 427.60685547 50.0378418 426.97167969 C48.46799802 425.77019245 46.89413407 424.57393373 45.31567383 423.38378906 C35.05519152 415.50779308 35.05519152 415.50779308 33.375 409.5625 C33.313125 408.86125 33.25125 408.16 33.1875 407.4375 C32.65125 407.375625 32.115 407.31375 31.5625 407.25 C23.01778432 404.32680779 19.46272959 395.66154142 15.3125 388.3125 C14.57624627 387.02896002 13.83867757 385.74617351 13.09985352 384.46411133 C11.95577844 382.47813913 10.81272408 380.49164002 9.67402649 378.50257874 C5.91488197 371.93705319 2.0637822 365.42753981 -1.80401611 358.92559814 C-2.86583655 357.1404061 -3.92610998 355.35430482 -4.98583984 353.56787109 C-6.59392149 350.8572681 -8.20283018 348.14716003 -9.8125 345.4375 C-13.0080756 356.33517768 -16.07031021 367.24818619 -18.8125 378.26953125 C-19.31247021 380.26107519 -19.81247033 382.25261162 -20.3125 384.24414062 C-21.07164536 387.27207296 -21.82489471 390.30097084 -22.5625 393.33422852 C-23.29538528 396.33805616 -24.05184975 399.33513152 -24.8125 402.33203125 C-25.02519531 403.23105667 -25.23789063 404.13008209 -25.45703125 405.05635071 C-26.88091711 410.56359748 -28.86323536 414.41458799 -32.52955627 418.78031921 C-34.20720029 420.94733509 -34.56233993 422.72787172 -34.75 425.4375 C-35.70283676 431.93784637 -39.68839805 436.01836536 -44.78051758 439.96142578 C-46.90089328 441.3780726 -49.05629538 442.69987953 -51.25 444 C-52.94282095 445.03627439 -54.63552365 446.07274196 -56.328125 447.109375 C-57.21951172 447.64884766 -58.11089844 448.18832031 -59.02929688 448.74414062 C-62.87607101 451.084599 -66.68908785 453.477507 -70.50341797 455.87036133 C-73.51745663 457.76094986 -76.5356545 459.64474271 -79.5546875 461.52734375 C-83.33245855 463.88501251 -87.10597007 466.24920335 -90.87376404 468.62278748 C-92.54715218 469.67681807 -94.22144593 470.72941047 -95.89575195 471.78198242 C-98.01044328 473.11167833 -100.12362266 474.44378254 -102.23510742 475.77856445 C-103.65980347 476.67321411 -103.65980347 476.67321411 -105.11328125 477.5859375 C-105.95028564 478.11364746 -106.78729004 478.64135742 -107.6496582 479.18505859 C-111.76614267 481.56880002 -115.1406503 481.52564811 -119.8125 481.4375 C-119.9775 482.365625 -120.1425 483.29375 -120.3125 484.25 C-123.37623588 494.6878312 -131.80894996 502.01490736 -140.8125 507.4375 C-152.15170724 513.38366965 -166.28495397 514.86639618 -178.76953125 511.56640625 C-191.95096237 506.79732381 -201.67480281 497.52881745 -207.76953125 485.02734375 C-212.09448814 474.28784406 -212.96259317 460.33933618 -209.1875 449.25 C-206.97880466 444.26085486 -204.04970544 439.8130634 -200.8125 435.4375 C-200.235 434.57125 -199.6575 433.705 -199.0625 432.8125 C-190.91422966 424.21154797 -179.70816863 419.05840573 -167.90234375 418.234375 C-160.99141558 418.13161027 -155.08116093 418.83523529 -148.46875 420.87890625 C-143.97106707 421.82474251 -140.55437966 420.51701118 -136.63671875 418.3125 C-135.86228424 417.88207397 -135.08784973 417.45164795 -134.28994751 417.00817871 C-132.44741873 415.97087578 -130.61642303 414.91278245 -128.79838562 413.83312988 C-123.55777603 410.7920745 -118.62348675 408.2588545 -112.86883926 406.40653229 C-103.37200031 403.32862245 -93.13799531 399.55091561 -86.8125 391.4375 C-80.07164111 378.16846586 -80.74687922 360.81445422 -80.15447998 346.29284668 C-79.89679107 340.69577428 -79.4787475 335.1110471 -79.06835938 329.5234375 C-78.6104169 323.2367979 -78.16639402 316.95373213 -77.85624695 310.65783691 C-77.78106339 309.22369949 -77.78106339 309.22369949 -77.70436096 307.7605896 C-77.61400866 305.99447509 -77.53327916 304.22782572 -77.46490479 302.46072388 C-77.19563707 297.36273904 -76.23328921 293.10707555 -74.37102222 288.34542084 C-73.59300755 286.29224289 -73.59300755 286.29224289 -74.54296875 283.6171875 C-75.02378906 282.85664063 -75.50460938 282.09609375 -76 281.3125 C-82.29530625 271.01108978 -82.48391284 257.69959757 -80.125 246.0390625 C-79.20282013 243.35705604 -78.13916405 240.94250542 -76.8125 238.4375 C-76.37679687 237.591875 -75.94109375 236.74625 -75.4921875 235.875 C-72.0401909 229.68781483 -67.68319618 224.55543964 -62.8125 219.4375 C-63.81342318 216.37015476 -64.85188634 213.33363965 -65.99609375 210.31640625 C-66.40988281 209.22199219 -66.82367188 208.12757813 -67.25 207 C-67.66121094 205.92878906 -68.07242188 204.85757813 -68.49609375 203.75390625 C-72.32063958 192.1328306 -73.25518611 180.86285358 -73.0625 168.6875 C-73.05734375 167.36878906 -73.0521875 166.05007812 -73.046875 164.69140625 C-72.98744352 157.22532689 -72.64560552 149.85795151 -71.8125 142.4375 C-72.30838623 142.14206299 -72.80427246 141.84662598 -73.31518555 141.54223633 C-83.10768471 135.70213815 -92.87043334 129.81806867 -102.5625 123.8125 C-103.43003906 123.27512207 -104.29757813 122.73774414 -105.19140625 122.18408203 C-109.34609664 119.6053896 -113.4911782 117.0127322 -117.62109375 114.39453125 C-118.36327148 113.92547363 -119.10544922 113.45641602 -119.87011719 112.97314453 C-121.25484776 112.09665643 -122.63715594 111.2163254 -124.01660156 110.33154297 C-127.16691826 108.15306034 -127.16691826 108.15306034 -130.8125 107.4375 C-132.44886871 109.71650393 -133.95315504 111.9982778 -135.4375 114.375 C-135.9104248 115.11919189 -136.38334961 115.86338379 -136.87060547 116.63012695 C-137.93202591 118.30055636 -138.99060229 119.97279512 -140.046875 121.64648438 C-142.63099223 125.73133341 -145.24139122 129.79919653 -147.8515625 133.86743164 C-149.24156301 136.03816862 -150.62698995 138.21184106 -152.0078125 140.38842773 C-154.89335985 144.93156327 -157.77737628 149.45181608 -160.90625 153.83203125 C-165.13302754 159.40292489 -165.13302754 159.40292489 -166.97265625 165.95703125 C-166.4917592 168.28997809 -165.7587416 170.25577264 -164.8125 172.4375 C-161.16376232 185.08025985 -161.9303617 198.23529691 -167.9375 210.0625 C-175.4395066 222.4016213 -185.4895566 229.87303404 -199.32421875 233.7421875 C-212.63653249 236.3957058 -224.99483392 234.12891529 -236.625 227.25 C-247.04569733 220.08577058 -254.1521686 209.94544273 -256.8125 197.4375 C-258.05123853 182.74349813 -256.90690227 169.83989386 -247.7890625 157.75390625 C-241.5413802 150.43201771 -233.82896714 143.97103923 -224.203125 141.8671875 C-220.85377967 139.86414765 -220.77902475 137.69438264 -219.73828125 134.0546875 C-217.96492465 129.04140092 -214.77854478 124.81422462 -211.8125 120.4375 C-210.45283183 118.39342414 -209.09345889 116.34915188 -207.734375 114.3046875 C-207.06599609 113.30663086 -206.39761719 112.30857422 -205.70898438 111.28027344 C-203.12022018 107.39979322 -200.58704857 103.48493143 -198.0625 99.5625 C-197.17728132 98.19258038 -196.29186677 96.8227873 -195.40625 95.453125 C-194.54160964 94.11462017 -193.67702596 92.77607872 -192.8125 91.4375 C-190.16211764 87.33381131 -187.51011309 83.23121527 -184.8515625 79.1328125 C-182.54293457 75.57257509 -180.25066226 72.00210819 -177.9609375 68.4296875 C-176.61998068 66.34883651 -175.27883618 64.26810646 -173.9375 62.1875 C-173.30682617 61.19862793 -172.67615234 60.20975586 -172.02636719 59.19091797 C-167.88221075 52.78239445 -163.92593122 46.78499704 -156.8125 43.4375 C-153.69140625 43.03125 -153.69140625 43.03125 -150.375 42.9375 C-145.35792393 42.66691612 -142.22810462 41.90202351 -137.8125 39.4375 C-129.655663 37.53423803 -122.61056449 39.53803478 -115.48828125 43.86328125 C-114.02645139 44.81423689 -112.57227452 45.77703565 -111.125 46.75 C-109.47659545 47.82496665 -107.82678973 48.89778694 -106.17578125 49.96875 C-105.31162598 50.53207031 -104.4474707 51.09539063 -103.55712891 51.67578125 C-97.77604633 55.38653484 -91.87346067 58.9015477 -85.9934082 62.45239258 C-79.5415114 66.35843991 -73.15983719 70.36375567 -66.8125 74.4375 C-66.77511719 73.20515625 -66.73773438 71.9728125 -66.69921875 70.703125 C-65.90908478 49.14469066 -60.49942559 31.56766929 -44.5078125 16.2265625 C-31.7832092 5.33763967 -16.66249768 -0.1695997 0 0 Z " fill="#FDFDFD" transform="translate(256.8125,-0.4375)"/>
<path d="M0 0 C3.68536736 1.39789796 7.08885898 3.08016541 10.5625 4.9375 C19.90652483 9.57549291 28.32717378 11.2420695 38.6875 11.3125 C39.47133057 11.31813965 40.25516113 11.3237793 41.06274414 11.32958984 C48.74587507 11.23434775 55.72227636 9.67389186 62.875 6.875 C65.88630228 5.6996484 67.74820008 5 71 5 C71.62777573 6.99913047 72.25207153 8.99935382 72.875 11 C73.22304688 12.11375 73.57109375 13.2275 73.9296875 14.375 C76.13280332 21.83664773 77.36225984 28.16486804 77.3125 35.9375 C77.30512817 37.31349365 77.30512817 37.31349365 77.29760742 38.71728516 C76.92326879 60.87429273 70.61534649 83.22712035 55.0625 99.5625 C46.50958323 107.55675036 37.64141884 112.54208766 25.79296875 112.23828125 C15.87871531 111.39244984 7.39992535 106.06983879 0.921875 98.60546875 C-0.86686046 96.13623611 -2.45800579 93.62950592 -4 91 C-4.44859375 90.2884375 -4.8971875 89.576875 -5.359375 88.84375 C-16.17190262 69.88845467 -16.89582047 44.9165889 -11.34375 24.24609375 C-8.84306057 15.90853279 -5.58941189 6.76165936 0 0 Z " fill="#010101" transform="translate(218,119)"/>
<path d="M0 0 C9.93461351 6.61822716 17.0377231 16.6880824 20.10546875 28.27734375 C22.41537736 42.50015183 19.80224661 55.3492876 11.64453125 67.2734375 C4.36284892 76.49786116 -4.93741529 82.08018231 -16.33203125 84.77734375 C-31.20776025 86.24053021 -43.30822995 84.04719056 -55.33203125 74.77734375 C-64.8977477 66.00877034 -70.34828488 54.49483839 -71.65234375 41.61328125 C-72.10973106 28.83692896 -67.69731375 17.29154653 -59.44921875 7.5546875 C-43.12808938 -9.56649723 -20.21542582 -11.66164903 0 0 Z " fill="#010101" transform="translate(282.33203125,27.22265625)"/>
<path d="M0 0 C2.81313191 0.96450237 4.88473882 1.90449788 7.1875 3.8125 C17.22931196 11.62279819 28.45813542 14.30532282 41 13 C50.1861155 11.15517398 58.6543713 7.93771653 66 2 C69.82921989 3.64109424 71.46463618 5.54889576 73.23828125 9.390625 C75.30724691 16.47815865 75.22878074 25.36037711 72.08984375 32.14453125 C64.82950745 44.50531886 53.16460258 52.75912684 39.5 56.75 C25.63755024 59.91406483 11.41085564 58.83283839 -0.875 51.25 C-7.31442937 46.55063702 -12.75957884 40.77557933 -15 33 C-15.94471354 25.34782035 -14.95387105 18.66628918 -11 12 C-7.60805009 7.71638298 -3.85856582 3.85856582 0 0 Z " fill="#020202" transform="translate(211,232)"/>
<path d="M0 0 C2.73951305 0.86510939 5.43590833 1.74893647 8.0625 2.91796875 C15.79722374 6.32804121 23.71156756 7.64258923 32 9 C31.40235516 14.55311663 30.41257151 19.84330096 29 25.25 C28.55151329 27.00245838 28.10365152 28.75507676 27.65625 30.5078125 C27.39972656 31.50844727 27.14320313 32.50908203 26.87890625 33.54003906 C25.85193734 37.58287334 24.84649754 41.63079077 23.84375 45.6796875 C16.73228092 74.36674556 16.73228092 74.36674556 12.99609375 87.4609375 C11.54636027 92.61175528 10.25445421 97.79860451 9 103 C5.09353055 101.15527832 1.39616191 98.99599478 -2.25 96.6875 C-2.8996875 96.32849609 -3.549375 95.96949219 -4.21875 95.59960938 C-6.35060321 94.20897824 -7.55605522 93.10883543 -9 91 C-10.01588758 82.56943348 -8.73250424 73.76222967 -7.7578125 65.3671875 C-7.62937958 64.20986115 -7.50094666 63.05253479 -7.36862183 61.86013794 C-6.96075292 58.19764104 -6.54317501 54.53633298 -6.125 50.875 C-5.85219571 48.44538751 -5.58005556 46.01570035 -5.30859375 43.5859375 C-4.91133856 40.03148868 -4.51318643 36.47716206 -4.11090088 32.92327881 C-3.23554278 25.18329214 -2.39937561 17.44024749 -1.6399231 9.68795776 C-1.30567523 6.38478281 -0.94823501 3.18951776 0 0 Z " fill="#020202" transform="translate(201,300)"/>
<path d="M0 0 C2.93863816 3.43231629 4.40080138 7.20692699 5.93359375 11.39453125 C6.34494316 12.4926841 6.34494316 12.4926841 6.76460266 13.61302185 C7.66152679 16.0106717 8.54953738 18.4115185 9.4375 20.8125 C10.68861916 24.16901219 11.94391198 27.52395833 13.19921875 30.87890625 C13.51557281 31.72629364 13.83192688 32.57368103 14.15786743 33.44674683 C16.23251312 38.99208188 18.35438319 44.51675131 20.51953125 50.02734375 C20.93307106 51.08215691 20.93307106 51.08215691 21.35496521 52.15827942 C22.40517954 54.83496988 23.45592131 57.51135691 24.51950073 60.18276978 C27.26350011 67.07731317 29.65154429 73.69325162 31 81 C29.09134118 82.82162878 27.17393701 84.6321312 25.25 86.4375 C24.44175781 87.2119043 24.44175781 87.2119043 23.6171875 88.00195312 C20.79498049 90.63486577 18.79017234 92.28129751 15 93 C14.55309814 92.23671387 14.10619629 91.47342773 13.64575195 90.68701172 C4.66130148 75.34456474 -4.33914694 60.0120658 -13.39550781 44.71191406 C-15.12701924 41.78531197 -16.85668104 38.85762254 -18.5859375 35.9296875 C-19.17793945 34.92736084 -19.76994141 33.92503418 -20.37988281 32.89233398 C-21.51212228 30.97522511 -22.64428816 29.05807276 -23.77636719 27.14086914 C-24.28586914 26.27840576 -24.79537109 25.41594238 -25.3203125 24.52734375 C-25.78985352 23.73054199 -26.25939453 22.93374023 -26.74316406 22.11279297 C-27.7636772 20.39726835 -28.81143386 18.69797119 -29.8671875 17.00390625 C-31 15 -31 15 -31 13 C-29.93523437 12.731875 -28.87046875 12.46375 -27.7734375 12.1875 C-17.51044423 9.46408332 -8.94094407 5.71030184 0 0 Z " fill="#030303" transform="translate(281,294)"/>
<path d="M0 0 C5.30713638 3.14020872 9.61242866 7.75123828 12.2578125 13.3359375 C14.17692059 21.35024099 14.46868086 30.03411258 10.2578125 37.3359375 C5.46228291 44.25012699 0.13183904 47.71126199 -7.7421875 50.3359375 C-16.59286175 51.535257 -23.42378068 49.37536676 -30.7421875 44.3359375 C-33.25124812 41.89108513 -35.03524438 39.38447801 -36.7421875 36.3359375 C-37.3609375 35.2634375 -37.9796875 34.1909375 -38.6171875 33.0859375 C-40.7810731 25.87298549 -40.87191089 18.95958124 -37.7421875 12.0234375 C-29.77012983 -1.98396327 -14.63689188 -6.6360185 0 0 Z " fill="#020202" transform="translate(105.7421875,441.6640625)"/>
<path d="M0 0 C5.50529291 3.21012854 10.12075222 8.38167943 12.33203125 14.4453125 C14.00992183 22.70112809 13.91247127 30.64795575 9.19140625 37.7890625 C4.79105739 43.46223954 0.11371049 46.44705101 -6.2265625 49.6171875 C-8.30716675 49.7407593 -10.39232583 49.79279117 -12.4765625 49.8046875 C-13.59546875 49.81886719 -14.714375 49.83304688 -15.8671875 49.84765625 C-23.50878749 49.32340695 -29.27598118 45.93661392 -34.4140625 40.3671875 C-39.32255738 34.28632245 -40.8716028 28.21499774 -40.64453125 20.4296875 C-39.5854 13.30282301 -35.77935783 7.13690463 -30.2265625 2.6171875 C-19.94562031 -4.47242096 -11.56584021 -5.26260596 0 0 Z " fill="#020202" transform="translate(60.2265625,163.3828125)"/>
<path d="M0 0 C6.66117205 3.77108289 12.50214957 9.6281459 14.75 17.0625 C15.43398109 24.57740914 15.60400818 31.45562883 11.75 38.0625 C11.193125 39.09375 10.63625 40.125 10.0625 41.1875 C5.96367739 46.28333352 0.15703577 49.70716551 -6.25 51.0625 C-13.91643494 51.76833325 -19.78998052 51.409429 -26.25 47.0625 C-27.5803125 46.19625 -27.5803125 46.19625 -28.9375 45.3125 C-34.81703736 39.59186905 -37.80633467 32.85408553 -38.5625 24.6875 C-37.9340592 17.39758676 -35.55029166 10.28796402 -30.25 5.0625 C-20.94332897 -1.53406842 -11.01111728 -4.9678064 0 0 Z " fill="#020202" transform="translate(429.25,438.9375)"/>
<path d="M0 0 C6.63203126 4.97072721 10.14456956 11.32946627 11.37890625 19.51171875 C11.72994286 26.7249549 9.86936528 33.38269591 5.3515625 39.078125 C-1.17612538 45.86235957 -6.786817 48.12111392 -16.125 48.4375 C-23.44193618 48.49422731 -28.47924358 46.86032948 -34 42 C-39.64966907 36.16161547 -41.99882212 30.25553068 -42.3125 22.125 C-42.11647093 14.06330456 -39.83818683 7.70844934 -34 2 C-23.96688738 -5.37493736 -10.82980704 -7.14216237 0 0 Z " fill="#020202" transform="translate(481,152)"/>
<path d="M0 0 C1.94037118 1.04916399 3.84850707 2.15938715 5.7265625 3.31640625 C7.37893921 4.32755493 7.37893921 4.32755493 9.06469727 5.35913086 C10.25151606 6.09350447 11.43828239 6.82796289 12.625 7.5625 C13.85500236 8.31776605 15.08539633 9.07239466 16.31616211 9.82641602 C18.8908005 11.40434788 21.46370546 12.98505557 24.03564453 14.56738281 C28.00295682 17.00528096 31.982126 19.42330832 35.96484375 21.8359375 C36.60623291 22.22452438 37.24762207 22.61311127 37.90844727 23.01347351 C39.79302781 24.15498701 41.6777613 25.29624766 43.5625 26.4375 C45.89776285 27.85183646 48.23228152 29.26737753 50.56640625 30.68359375 C51.54552979 31.27712646 52.52465332 31.87065918 53.53344727 32.48217773 C55.3789064 33.61780274 57.19704788 34.79803192 59 36 C57.64019013 39.04624073 56.0859203 41.07527429 53.75 43.4375 C49.09668746 48.57858115 46.63972678 54.65692027 44 61 C27.16342213 48.45509885 10.6189521 35.49732037 -5.8515625 22.4765625 C-7.91541954 20.84600141 -9.99337073 19.24302636 -12.0859375 17.6484375 C-13.00632812 16.93945312 -13.92671875 16.23046875 -14.875 15.5 C-16.07769531 14.58734375 -16.07769531 14.58734375 -17.3046875 13.65625 C-17.86414063 13.1096875 -18.42359375 12.563125 -19 12 C-19 9 -19 9 -16.3671875 6.23046875 C-15.21151008 5.20660246 -14.04701168 4.19262741 -12.875 3.1875 C-12.02035156 2.39569336 -12.02035156 2.39569336 -11.1484375 1.58789062 C-10.58125 1.09869141 -10.0140625 0.60949219 -9.4296875 0.10546875 C-8.91647949 -0.34675049 -8.40327148 -0.79896973 -7.87451172 -1.26489258 C-4.83548458 -2.45667569 -2.92076961 -1.24398109 0 0 Z " fill="#020202" transform="translate(330,391)"/>
<path d="M0 0 C0.0933489 2.58783895 0.11548726 5.15243533 0.0625 7.7421875 C-0.04247787 10.9808749 -0.04247787 10.9808749 0.1875 14.1328125 C0.09790197 18.69111205 -0.3953971 22.22964691 -3.55517578 25.71582031 C-7.88943958 29.62515628 -12.65413359 32.94080926 -17.45800781 36.24267578 C-20.68936173 38.47656797 -23.83998661 40.80968934 -26.99291992 43.15234375 C-29.33539003 44.89199948 -31.68850502 46.61646594 -34.04296875 48.33984375 C-39.44814785 52.31408024 -44.79078985 56.36870639 -50.125 60.4375 C-50.97747314 61.0876709 -51.82994629 61.7378418 -52.70825195 62.40771484 C-53.93934692 63.3486499 -53.93934692 63.3486499 -55.1953125 64.30859375 C-55.98969727 64.91558105 -56.78408203 65.52256836 -57.60253906 66.14794922 C-59.26022991 67.42852384 -60.9074185 68.72276736 -62.54589844 70.02783203 C-63.35317383 70.66962402 -64.16044922 71.31141602 -64.9921875 71.97265625 C-66.07669189 72.84482788 -66.07669189 72.84482788 -67.18310547 73.73461914 C-69 75 -69 75 -71 75 C-71.86689178 72.42032203 -72.71873789 69.83723873 -73.5625 67.25 C-73.80935547 66.52039063 -74.05621094 65.79078125 -74.31054688 65.0390625 C-74.53935547 64.33007812 -74.76816406 63.62109375 -75.00390625 62.890625 C-75.21861572 62.24125977 -75.4333252 61.59189453 -75.65454102 60.92285156 C-76.0797217 58.55626282 -75.90041708 57.23094285 -75 55 C-73.47558594 53.51464844 -73.47558594 53.51464844 -71.484375 52.109375 C-70.73865234 51.573125 -69.99292969 51.036875 -69.22460938 50.484375 C-68.40798828 49.91203125 -67.59136719 49.3396875 -66.75 48.75 C-65.00394092 47.49655531 -63.25919574 46.24127874 -61.515625 44.984375 C-60.60619141 44.33146484 -59.69675781 43.67855469 -58.75976562 43.00585938 C-54.27942374 39.7494467 -49.89221151 36.37380483 -45.5 33 C-36.48923755 26.10349931 -27.38930886 19.33809462 -18.23242188 12.63720703 C-15.98903324 10.99195723 -13.75158019 9.33892821 -11.515625 7.68359375 C-10.46544189 6.90786011 -10.46544189 6.90786011 -9.39404297 6.11645508 C-8.07934111 5.14529261 -6.76580249 4.17255281 -5.45361328 3.19799805 C-1.11299528 0 -1.11299528 0 0 0 Z " fill="#030303" transform="translate(378,59)"/>
<path d="M0 0 C0.66 0 1.32 0 2 0 C3.03990993 2.84844895 4.05695271 5.70192978 5.0625 8.5625 C5.35705078 9.36236328 5.65160156 10.16222656 5.95507812 10.98632812 C7.70778267 16.03824123 8.50316446 19.69508208 7 25 C5.72246495 27.28855485 4.46454942 29.27171693 2.9375 31.375 C2.02319481 32.68943057 1.11196461 34.00600318 0.203125 35.32421875 C-0.55774414 36.4232251 -0.55774414 36.4232251 -1.33398438 37.54443359 C-4.59895479 42.35672439 -7.69218019 47.28073471 -10.8125 52.1875 C-17.81397871 63.16510658 -24.88299221 74.0969956 -32 85 C-36.05819183 84.34496718 -39.53971282 83.05440879 -43.3125 81.4375 C-44.38113281 80.98246094 -45.44976562 80.52742188 -46.55078125 80.05859375 C-47.76314453 79.53458984 -47.76314453 79.53458984 -49 79 C-48.35961271 75.6752754 -47.12544479 73.3368245 -45.296875 70.5 C-44.73508545 69.62279297 -44.1732959 68.74558594 -43.59448242 67.84179688 C-42.98580322 66.90400391 -42.37712402 65.96621094 -41.75 65 C-41.12391846 64.02611328 -40.49783691 63.05222656 -39.8527832 62.04882812 C-37.90828401 59.02834176 -35.9554541 56.01340364 -34 53 C-33.40944824 52.08863281 -32.81889648 51.17726562 -32.21044922 50.23828125 C-29.46481118 46.00291365 -26.7134331 41.77133819 -23.95703125 37.54296875 C-20.70661973 32.55471344 -17.48725387 27.54703717 -14.2734375 22.53515625 C-12.5364984 19.82950945 -10.78935998 17.13061763 -9.0390625 14.43359375 C-8.53455566 13.65588623 -8.03004883 12.87817871 -7.51025391 12.0769043 C-6.52121923 10.55306183 -5.53134207 9.02976575 -4.54052734 7.50708008 C-4.09402832 6.8189624 -3.6475293 6.13084473 -3.1875 5.421875 C-2.78917969 4.80924805 -2.39085937 4.19662109 -1.98046875 3.56542969 C-0.939857 1.95951189 -0.939857 1.95951189 0 0 Z " fill="#040404" transform="translate(106,64)"/>
<path d="M0 0 C3.27598741 1.23639686 6.20461269 2.61479355 9.16796875 4.4765625 C9.96509277 4.97406006 10.7622168 5.47155762 11.58349609 5.98413086 C12.87247803 6.79636108 12.87247803 6.79636108 14.1875 7.625 C16.07916259 8.80641319 17.97110239 9.9873826 19.86328125 11.16796875 C20.86182129 11.7923584 21.86036133 12.41674805 22.88916016 13.06005859 C28.20420639 16.37455847 33.53950785 19.65604895 38.875 22.9375 C39.95765137 23.60370361 41.04030273 24.26990723 42.15576172 24.95629883 C54.73670845 32.6920199 67.33093686 40.40918842 80 48 C79.30150228 51.9745504 77.37107231 55.26574098 75.4375 58.75 C75.10814453 59.35199219 74.77878906 59.95398438 74.43945312 60.57421875 C73.6303535 62.05170503 72.81572338 63.52616036 72 65 C63.95348693 60.73125832 56.17175798 56.12073549 48.4375 51.3125 C46.71934727 50.24845508 45.0006203 49.18534183 43.28187561 48.12225342 C41.58338474 47.07151371 39.8854389 46.01989315 38.1875 44.96826172 C33.09907825 41.82619247 27.98932487 38.71907374 22.87084961 35.6262207 C21.57111588 34.8361928 20.27838351 34.03451534 18.9934082 33.22070312 C16.97306952 31.95047302 16.97306952 31.95047302 14.66870117 30.79492188 C7.35400456 26.69442918 5.64957277 21.59238011 3.4375 13.75 C3.09654297 12.64914063 2.75558594 11.54828125 2.40429688 10.4140625 C0 2.53841801 0 2.53841801 0 0 Z " fill="#030303" transform="translate(126,60)"/>
<path d="M0 0 C3.4529351 2.01638873 6.67480162 4.26526672 9.89453125 6.6328125 C10.53970703 7.10074219 11.18488281 7.56867188 11.84960938 8.05078125 C13.43052019 9.1984054 15.00675426 10.35246727 16.58203125 11.5078125 C13.81133683 14.45510415 11.05123683 16.64112688 7.609375 18.7578125 C6.63661621 19.36028809 5.66385742 19.96276367 4.66162109 20.58349609 C3.10628662 21.53603271 3.10628662 21.53603271 1.51953125 22.5078125 C-0.65648881 23.85378065 -2.83226717 25.20013965 -5.0078125 26.546875 C-6.09046387 27.21493164 -7.17311523 27.88298828 -8.28857422 28.57128906 C-12.72335191 31.31560617 -17.1355418 34.09485021 -21.54296875 36.8828125 C-22.68862305 37.60549316 -22.68862305 37.60549316 -23.85742188 38.34277344 C-27.46472026 40.62197281 -31.05935237 42.91805914 -34.6328125 45.25 C-35.28556152 45.67490723 -35.93831055 46.09981445 -36.61083984 46.53759766 C-37.82093304 47.32736597 -39.02847493 48.12106318 -40.23291016 48.91943359 C-44.19738924 51.5078125 -44.19738924 51.5078125 -46.41796875 51.5078125 C-46.7325 50.49460937 -47.04703125 49.48140625 -47.37109375 48.4375 C-47.80289315 47.08578015 -48.23521263 45.73422636 -48.66796875 44.3828125 C-48.87292969 43.71765625 -49.07789063 43.0525 -49.2890625 42.3671875 C-50.74427886 37.86924601 -52.74758851 34.44491158 -55.41796875 30.5078125 C-55.41796875 29.5178125 -55.41796875 28.5278125 -55.41796875 27.5078125 C-54.56267578 27.07025635 -53.70738281 26.6327002 -52.82617188 26.18188477 C-31.93244627 15.54364068 -31.93244627 15.54364068 -11.4140625 4.20703125 C-10.42535156 3.64628906 -9.43664062 3.08554687 -8.41796875 2.5078125 C-7.39832031 1.89550781 -6.37867188 1.28320312 -5.328125 0.65234375 C-2.41796875 -0.4921875 -2.41796875 -0.4921875 0 0 Z " fill="#030303" transform="translate(184.41796875,408.4921875)"/>
<path d="M0 0 C4.07461164 3.91644741 7.64830669 8.09794988 11.1875 12.5 C12.04287354 13.55840088 12.04287354 13.55840088 12.91552734 14.63818359 C17.20412284 19.96381981 21.39456067 25.35781696 25.54296875 30.79296875 C28.14402847 34.19854473 30.78712072 37.570234 33.4375 40.9375 C33.89020264 41.51322754 34.34290527 42.08895508 34.80932617 42.68212891 C37.20052642 45.72100766 39.59769606 48.75504814 42 51.78515625 C42.49185791 52.40720947 42.98371582 53.0292627 43.49047852 53.67016602 C44.42393321 54.85056806 45.35918654 56.02955103 46.29663086 57.20678711 C49.05747475 60.70149322 51.57788647 64.26848403 54 68 C53.09636719 68.48210937 52.19273437 68.96421875 51.26171875 69.4609375 C50.07026983 70.09887865 48.87886594 70.7369039 47.6875 71.375 C47.09259766 71.69210938 46.49769531 72.00921875 45.88476562 72.3359375 C43.16634112 73.79386349 40.56932446 75.28711703 38 77 C31.17577589 69.07300204 24.62156012 61.01206636 18.29003906 52.68554688 C8.19291821 38.8504532 8.19291821 38.8504532 -3 26 C-2.77731972 17.33259835 -1.19240797 8.57839134 0 0 Z " fill="#030303" transform="translate(397,63)"/>
</svg>
