<?xml version="1.0" encoding="UTF-8"?>
<svg version="1.1" xmlns="http://www.w3.org/2000/svg" width="512" height="512">
<path d="M0 0 C0.78944 -0.00570007 1.57888 -0.01140015 2.39224243 -0.01727295 C4.05786832 -0.02666461 5.7235123 -0.03323352 7.38916016 -0.03710938 C9.87307522 -0.04671647 12.35612559 -0.07775416 14.83984375 -0.109375 C26.03671935 -0.18345141 36.57001395 0.98781005 47.5390625 3.203125 C48.46412598 3.38601074 49.38918945 3.56889648 50.34228516 3.75732422 C78.5995866 9.75203495 104.58352201 23.86931653 126.39453125 42.55078125 C128.35189958 44.40657105 128.35189958 44.40657105 130.5390625 44.203125 C131.46395251 42.98957505 132.32956128 41.73051793 133.1640625 40.453125 C136.39959831 36.06700486 139.33141014 33.840045 144.5390625 32.203125 C145.71597656 32.06390625 146.89289063 31.9246875 148.10546875 31.78125 C154.18748463 30.96991712 154.18748463 30.96991712 159.5390625 28.203125 C162.06910475 24.361209 163.47106601 20.12175997 164.75390625 15.72851562 C166.77493732 8.98332444 169.62069028 5.12484714 175.5390625 1.203125 C181.60723086 -0.81959779 188.81374193 -0.60437739 194.9140625 1.203125 C201.42699777 6.1653614 206.52065374 13.10835203 210.5390625 20.203125 C210.5390625 20.863125 210.5390625 21.523125 210.5390625 22.203125 C211.47588867 22.21714355 211.47588867 22.21714355 212.43164062 22.23144531 C215.3015388 22.28561437 218.16988735 22.36916695 221.0390625 22.453125 C222.51246094 22.47439453 222.51246094 22.47439453 224.015625 22.49609375 C231.57241867 22.74798687 237.39560841 24.05967091 242.8515625 29.515625 C246.68944134 35.62780241 248.75414435 41.01880609 247.5390625 48.203125 C245.42578667 54.50211625 242.0847138 58.6919813 237.4765625 63.390625 C235.00819088 66.0520068 235.00819088 66.0520068 233.5390625 69.203125 C233.88818964 73.19626668 234.99469234 76.66779923 236.3125 80.41796875 C238.34671999 86.69554573 239.02679402 93.38624003 236.5859375 99.6484375 C233.66401914 104.66008229 230.05964447 108.08286635 224.7265625 110.453125 C216.28740612 112.43880886 210.3557581 110.35338615 202.63085938 107.16015625 C198.36296836 105.4543171 198.36296836 105.4543171 193.8828125 105.796875 C192.72265625 106.49296875 192.72265625 106.49296875 191.5390625 107.203125 C190.58386719 107.77289063 189.62867188 108.34265625 188.64453125 108.9296875 C187.68160156 109.55617188 186.71867187 110.18265625 185.7265625 110.828125 C184.75074219 111.45976563 183.77492188 112.09140625 182.76953125 112.7421875 C182.03347656 113.22429687 181.29742187 113.70640625 180.5390625 114.203125 C181.1563835 117.81603054 182.14566404 120.9465903 183.578125 124.31640625 C214.06590279 197.40248395 210.45696513 277.52570841 186.5390625 352.203125 C186.22662598 353.18394043 185.91418945 354.16475586 185.59228516 355.17529297 C173.87317266 391.2871283 155.47478289 426.18955282 129.50390625 454.0859375 C127.67599087 456.05557992 125.95127075 458.08090148 124.2265625 460.140625 C99.57126626 488.22964971 63.55971844 507.52744302 26.5390625 512.203125 C8.39950516 513.09539578 -9.910567 513.32783318 -27.4609375 508.203125 C-28.22212891 507.98881836 -28.98332031 507.77451172 -29.76757812 507.55371094 C-40.96659079 504.33458052 -51.26808017 499.81658266 -61.4609375 494.203125 C-62.08564941 493.86442383 -62.71036133 493.52572266 -63.35400391 493.17675781 C-119.89342047 462.19262789 -153.66665583 399.45295761 -171.33984375 339.81542969 C-183.14918257 298.46950466 -190.36210614 252.26339232 -185.4609375 209.203125 C-186.2446875 208.97625 -187.0284375 208.749375 -187.8359375 208.515625 C-192.58395375 206.79651567 -196.98196302 204.52227779 -201.4609375 202.203125 C-201.4609375 201.543125 -201.4609375 200.883125 -201.4609375 200.203125 C-198.8383143 198.86493002 -196.21307151 197.5324099 -193.5859375 196.203125 C-192.83957031 195.8215625 -192.09320313 195.44 -191.32421875 195.046875 C-190.60878906 194.6859375 -189.89335937 194.325 -189.15625 193.953125 C-188.49641113 193.61796875 -187.83657227 193.2828125 -187.15673828 192.9375 C-185.4609375 192.203125 -185.4609375 192.203125 -183.4609375 192.203125 C-183.37457031 191.42453125 -183.28820312 190.6459375 -183.19921875 189.84375 C-181.84446726 179.05545371 -179.24005044 168.70023159 -176.4609375 158.203125 C-177.13640625 158.22415283 -177.811875 158.24518066 -178.5078125 158.2668457 C-179.39984375 158.28320068 -180.291875 158.29955566 -181.2109375 158.31640625 C-182.53351563 158.347948 -182.53351563 158.347948 -183.8828125 158.38012695 C-192.01367727 157.82189997 -197.18655717 150.52591506 -202.2265625 144.875 C-203.96247543 142.79918804 -205.42009941 140.76526992 -206.8984375 138.515625 C-209.89872199 135.80805119 -210.79041809 135.83069586 -214.7109375 135.765625 C-218.91691118 135.99678441 -223.09279233 136.46110023 -227.2734375 136.96875 C-234.20621844 137.71154796 -239.21708133 137.45513342 -245.4609375 134.203125 C-248.24828637 131.41577613 -246.78363402 121.69405879 -246.81103516 117.7590332 C-246.82751883 116.02582297 -246.85470767 114.29267856 -246.89306641 112.55981445 C-246.94824817 110.0538424 -246.9697777 107.54946923 -246.984375 105.04296875 C-247.00704437 104.27806625 -247.02971375 103.51316376 -247.05307007 102.7250824 C-247.03238785 97.37726657 -245.67285522 94.21113168 -242.54238892 89.88038635 C-241.24924567 88.19408597 -241.24924567 88.19408597 -241.3984375 85.765625 C-242.35733389 83.30801943 -242.35733389 83.30801943 -243.41113281 81.51806641 C-246.90469616 74.87517258 -247.23810068 68.4573232 -247.25708008 61.03637695 C-247.2735213 59.00527202 -247.35938376 56.98419451 -247.44726562 54.95507812 C-247.52704869 45.53598335 -247.52704869 45.53598335 -244.68115234 41.97802734 C-239.13859717 37.9799038 -233.44839547 36.57820348 -226.74414062 37.62890625 C-223.71204194 38.25015582 -220.71465575 38.95697843 -217.7109375 39.703125 C-215.67646459 40.20089441 -213.64005299 40.69082314 -211.6015625 41.171875 C-210.70985352 41.39294922 -209.81814453 41.61402344 -208.89941406 41.84179688 C-206.31232179 42.22514655 -204.88227291 42.15650609 -202.4609375 41.203125 C-200.83016561 39.99161259 -200.83016561 39.99161259 -199.359375 38.4375 C-198.79186523 37.87893311 -198.22435547 37.32036621 -197.63964844 36.74487305 C-197.04442383 36.15359619 -196.44919922 35.56231934 -195.8359375 34.953125 C-189.12070781 28.5384602 -183.00358862 23.16955424 -173.3359375 22.640625 C-167.66685437 22.9699124 -163.10348426 24.74885129 -158.92578125 28.62890625 C-153.50162818 34.74886905 -153.01659633 40.88744728 -152.3984375 48.703125 C-152.24325277 50.56790685 -152.08577376 52.43249948 -151.92578125 54.296875 C-151.82704712 55.52954102 -151.82704712 55.52954102 -151.72631836 56.78710938 C-151.44563418 59.34244571 -151.16015255 61.72533665 -150.4609375 64.203125 C-148.17308674 65.95230974 -146.14653593 67.28236244 -143.6484375 68.640625 C-143.01873047 69.01638672 -142.38902344 69.39214844 -141.74023438 69.77929688 C-138.19683407 71.82297407 -138.19683407 71.82297407 -134.25 71.71875 C-132.03335172 69.84089075 -130.40537963 67.83395692 -128.6484375 65.515625 C-99.78463715 29.49473223 -56.35047173 5.98199063 -10.61769104 0.4135437 C-7.07938187 0.0683367 -3.55305265 0.02058779 0 0 Z " fill="#010101" transform="translate(246.4609375,-0.203125)"/>
<path d="M0 0 C0.78944 -0.00570007 1.57888 -0.01140015 2.39224243 -0.01727295 C4.05786832 -0.02666461 5.7235123 -0.03323352 7.38916016 -0.03710938 C9.87307522 -0.04671647 12.35612559 -0.07775416 14.83984375 -0.109375 C26.03671935 -0.18345141 36.57001395 0.98781005 47.5390625 3.203125 C48.46412598 3.38601074 49.38918945 3.56889648 50.34228516 3.75732422 C78.5995866 9.75203495 104.58352201 23.86931653 126.39453125 42.55078125 C128.35189958 44.40657105 128.35189958 44.40657105 130.5390625 44.203125 C131.46395251 42.98957505 132.32956128 41.73051793 133.1640625 40.453125 C136.39959831 36.06700486 139.33141014 33.840045 144.5390625 32.203125 C145.71597656 32.06390625 146.89289063 31.9246875 148.10546875 31.78125 C154.18748463 30.96991712 154.18748463 30.96991712 159.5390625 28.203125 C162.06910475 24.361209 163.47106601 20.12175997 164.75390625 15.72851562 C166.77493732 8.98332444 169.62069028 5.12484714 175.5390625 1.203125 C181.60723086 -0.81959779 188.81374193 -0.60437739 194.9140625 1.203125 C201.42699777 6.1653614 206.52065374 13.10835203 210.5390625 20.203125 C210.5390625 20.863125 210.5390625 21.523125 210.5390625 22.203125 C211.47588867 22.21714355 211.47588867 22.21714355 212.43164062 22.23144531 C215.3015388 22.28561437 218.16988735 22.36916695 221.0390625 22.453125 C222.51246094 22.47439453 222.51246094 22.47439453 224.015625 22.49609375 C231.57241867 22.74798687 237.39560841 24.05967091 242.8515625 29.515625 C246.68944134 35.62780241 248.75414435 41.01880609 247.5390625 48.203125 C245.42578667 54.50211625 242.0847138 58.6919813 237.4765625 63.390625 C235.00819088 66.0520068 235.00819088 66.0520068 233.5390625 69.203125 C233.88818964 73.19626668 234.99469234 76.66779923 236.3125 80.41796875 C238.34671999 86.69554573 239.02679402 93.38624003 236.5859375 99.6484375 C233.66401914 104.66008229 230.05964447 108.08286635 224.7265625 110.453125 C216.28740612 112.43880886 210.3557581 110.35338615 202.63085938 107.16015625 C198.36296836 105.4543171 198.36296836 105.4543171 193.8828125 105.796875 C192.72265625 106.49296875 192.72265625 106.49296875 191.5390625 107.203125 C190.58386719 107.77289063 189.62867188 108.34265625 188.64453125 108.9296875 C187.68160156 109.55617188 186.71867187 110.18265625 185.7265625 110.828125 C184.75074219 111.45976563 183.77492188 112.09140625 182.76953125 112.7421875 C182.03347656 113.22429687 181.29742187 113.70640625 180.5390625 114.203125 C181.1563835 117.81603054 182.14566404 120.9465903 183.578125 124.31640625 C214.06590279 197.40248395 210.45696513 277.52570841 186.5390625 352.203125 C186.22662598 353.18394043 185.91418945 354.16475586 185.59228516 355.17529297 C173.87317266 391.2871283 155.47478289 426.18955282 129.50390625 454.0859375 C127.67599087 456.05557992 125.95127075 458.08090148 124.2265625 460.140625 C99.57126626 488.22964971 63.55971844 507.52744302 26.5390625 512.203125 C8.39950516 513.09539578 -9.910567 513.32783318 -27.4609375 508.203125 C-28.22212891 507.98881836 -28.98332031 507.77451172 -29.76757812 507.55371094 C-40.96659079 504.33458052 -51.26808017 499.81658266 -61.4609375 494.203125 C-62.08564941 493.86442383 -62.71036133 493.52572266 -63.35400391 493.17675781 C-119.89342047 462.19262789 -153.66665583 399.45295761 -171.33984375 339.81542969 C-183.14918257 298.46950466 -190.36210614 252.26339232 -185.4609375 209.203125 C-186.2446875 208.97625 -187.0284375 208.749375 -187.8359375 208.515625 C-192.58395375 206.79651567 -196.98196302 204.52227779 -201.4609375 202.203125 C-201.4609375 201.543125 -201.4609375 200.883125 -201.4609375 200.203125 C-198.8383143 198.86493002 -196.21307151 197.5324099 -193.5859375 196.203125 C-192.83957031 195.8215625 -192.09320313 195.44 -191.32421875 195.046875 C-190.60878906 194.6859375 -189.89335937 194.325 -189.15625 193.953125 C-188.49641113 193.61796875 -187.83657227 193.2828125 -187.15673828 192.9375 C-185.4609375 192.203125 -185.4609375 192.203125 -183.4609375 192.203125 C-183.37457031 191.42453125 -183.28820312 190.6459375 -183.19921875 189.84375 C-181.84446726 179.05545371 -179.24005044 168.70023159 -176.4609375 158.203125 C-177.13640625 158.22415283 -177.811875 158.24518066 -178.5078125 158.2668457 C-179.39984375 158.28320068 -180.291875 158.29955566 -181.2109375 158.31640625 C-182.53351563 158.347948 -182.53351563 158.347948 -183.8828125 158.38012695 C-192.01367727 157.82189997 -197.18655717 150.52591506 -202.2265625 144.875 C-203.96247543 142.79918804 -205.42009941 140.76526992 -206.8984375 138.515625 C-209.89872199 135.80805119 -210.79041809 135.83069586 -214.7109375 135.765625 C-218.91691118 135.99678441 -223.09279233 136.46110023 -227.2734375 136.96875 C-234.20621844 137.71154796 -239.21708133 137.45513342 -245.4609375 134.203125 C-248.24828637 131.41577613 -246.78363402 121.69405879 -246.81103516 117.7590332 C-246.82751883 116.02582297 -246.85470767 114.29267856 -246.89306641 112.55981445 C-246.94824817 110.0538424 -246.9697777 107.54946923 -246.984375 105.04296875 C-247.00704437 104.27806625 -247.02971375 103.51316376 -247.05307007 102.7250824 C-247.03238785 97.37726657 -245.67285522 94.21113168 -242.54238892 89.88038635 C-241.24924567 88.19408597 -241.24924567 88.19408597 -241.3984375 85.765625 C-242.35733389 83.30801943 -242.35733389 83.30801943 -243.41113281 81.51806641 C-246.90469616 74.87517258 -247.23810068 68.4573232 -247.25708008 61.03637695 C-247.2735213 59.00527202 -247.35938376 56.98419451 -247.44726562 54.95507812 C-247.52704869 45.53598335 -247.52704869 45.53598335 -244.68115234 41.97802734 C-239.13859717 37.9799038 -233.44839547 36.57820348 -226.74414062 37.62890625 C-223.71204194 38.25015582 -220.71465575 38.95697843 -217.7109375 39.703125 C-215.67646459 40.20089441 -213.64005299 40.69082314 -211.6015625 41.171875 C-210.70985352 41.39294922 -209.81814453 41.61402344 -208.89941406 41.84179688 C-206.31232179 42.22514655 -204.88227291 42.15650609 -202.4609375 41.203125 C-200.83016561 39.99161259 -200.83016561 39.99161259 -199.359375 38.4375 C-198.79186523 37.87893311 -198.22435547 37.32036621 -197.63964844 36.74487305 C-197.04442383 36.15359619 -196.44919922 35.56231934 -195.8359375 34.953125 C-189.12070781 28.5384602 -183.00358862 23.16955424 -173.3359375 22.640625 C-167.66685437 22.9699124 -163.10348426 24.74885129 -158.92578125 28.62890625 C-153.50162818 34.74886905 -153.01659633 40.88744728 -152.3984375 48.703125 C-152.24325277 50.56790685 -152.08577376 52.43249948 -151.92578125 54.296875 C-151.82704712 55.52954102 -151.82704712 55.52954102 -151.72631836 56.78710938 C-151.44563418 59.34244571 -151.16015255 61.72533665 -150.4609375 64.203125 C-148.17308674 65.95230974 -146.14653593 67.28236244 -143.6484375 68.640625 C-143.01873047 69.01638672 -142.38902344 69.39214844 -141.74023438 69.77929688 C-138.19683407 71.82297407 -138.19683407 71.82297407 -134.25 71.71875 C-132.03335172 69.84089075 -130.40537963 67.83395692 -128.6484375 65.515625 C-99.78463715 29.49473223 -56.35047173 5.98199063 -10.61769104 0.4135437 C-7.07938187 0.0683367 -3.55305265 0.02058779 0 0 Z M-26.4609375 24.203125 C-27.22051758 24.38504395 -27.98009766 24.56696289 -28.76269531 24.75439453 C-68.22399496 34.52800992 -104.23001379 61.68039015 -125.4609375 96.203125 C-142.90281121 122.71761286 -142.90281121 122.71761286 -151.40625 151.7109375 C-150.09905145 155.15718822 -147.86533645 157.48252449 -145.3359375 160.078125 C-144.31889834 161.13009999 -143.30197088 162.18218298 -142.28515625 163.234375 C-141.79321777 163.7396875 -141.3012793 164.245 -140.79443359 164.765625 C-139.4609375 166.203125 -139.4609375 166.203125 -137.66796875 168.609375 C-136.02314035 170.74046373 -134.8742699 171.9964588 -132.4609375 173.203125 C-128.3480195 173.31368731 -124.55086814 172.55374144 -120.54833984 171.65429688 C-116.71054665 170.82479491 -112.83348483 170.22084185 -108.9609375 169.578125 C-108.20772217 169.4435791 -107.45450684 169.3090332 -106.6784668 169.17041016 C-105.95699463 169.04456543 -105.23552246 168.9187207 -104.4921875 168.7890625 C-103.85861328 168.6761084 -103.22503906 168.5631543 -102.57226562 168.44677734 C-99.86009511 168.13378634 -97.1883849 168.16677842 -94.4609375 168.203125 C-96.35472104 171.85002653 -98.25134263 175.49544506 -100.1484375 179.140625 C-100.67888672 180.16220703 -101.20933594 181.18378906 -101.75585938 182.23632812 C-102.54379883 183.74936523 -102.54379883 183.74936523 -103.34765625 185.29296875 C-103.86634277 186.29312012 -104.3850293 187.29327148 -104.91943359 188.32373047 C-106.71815669 191.68358796 -108.66391954 194.94069321 -110.68676758 198.17016602 C-111.75191855 200.96723702 -111.3547109 202.35202176 -110.4609375 205.203125 C-109.39868481 207.50684156 -108.30468412 209.72856505 -107.1171875 211.96484375 C-106.78803345 212.59671097 -106.45887939 213.22857819 -106.11975098 213.8795929 C-105.07268331 215.88640536 -104.01700111 217.8885345 -102.9609375 219.890625 C-102.25072149 221.24774319 -101.54107994 222.60516218 -100.83203125 223.96289062 C-99.53677085 226.44159025 -98.23811524 228.91844391 -96.93554688 231.39331055 C-96.09768293 232.98982977 -95.26727361 234.59045278 -94.4609375 236.203125 C-95.53053711 236.01613037 -96.60013672 235.82913574 -97.70214844 235.63647461 C-101.67405744 234.94430366 -105.64775091 234.26289854 -109.62207031 233.5847168 C-111.34132586 233.28979735 -113.06008485 232.99196769 -114.77832031 232.69116211 C-117.24939934 232.25908037 -119.72208009 231.83752543 -122.1953125 231.41796875 C-122.96212341 231.28156479 -123.72893433 231.14516083 -124.51898193 231.00462341 C-128.14824804 230.39911158 -130.96706157 229.99743844 -134.4609375 231.203125 C-137.0930143 233.41994081 -137.0930143 233.41994081 -139.77734375 236.2265625 C-140.27507797 236.72854156 -140.77281219 237.23052063 -141.28562927 237.74771118 C-142.87209453 239.35093011 -144.44781851 240.96425232 -146.0234375 242.578125 C-147.0871942 243.65693715 -148.15164022 244.73507007 -149.21679688 245.8125 C-151.17304628 247.79322196 -153.12423283 249.77848261 -155.07250977 251.76708984 C-156.85908679 253.58927787 -158.65144924 255.40377919 -160.4609375 257.203125 C-160.54657959 256.54304443 -160.63222168 255.88296387 -160.72045898 255.20288086 C-161.11265872 252.18206901 -161.50554269 249.16134652 -161.8984375 246.140625 C-162.03314453 245.10228516 -162.16785156 244.06394531 -162.30664062 242.99414062 C-162.99241736 237.72536812 -163.6928311 232.46055229 -164.4609375 227.203125 C-164.7909375 227.203125 -165.1209375 227.203125 -165.4609375 227.203125 C-166.853591 279.94541274 -156.58357134 333.60928311 -133.4609375 381.203125 C-133.03474121 382.08145996 -132.60854492 382.95979492 -132.16943359 383.86474609 C-122.98856846 402.56003159 -112.31971044 420.56288408 -98.4609375 436.203125 C-97.74808594 437.02425781 -97.03523438 437.84539062 -96.30078125 438.69140625 C-86.86870698 449.38774444 -77.07971971 458.95808287 -65.4609375 467.203125 C-64.65148682 467.77909424 -64.65148682 467.77909424 -63.82568359 468.36669922 C-48.82092201 478.87944673 -32.36868653 486.30733567 -14.4609375 490.203125 C-13.6244165 490.38713867 -12.78789551 490.57115234 -11.92602539 490.76074219 C5.42871818 494.26763499 23.63185497 493.27179163 40.5390625 488.203125 C41.64338623 487.88964111 41.64338623 487.88964111 42.77001953 487.56982422 C60.20248512 482.57039531 75.21704067 474.22456158 89.5390625 463.203125 C90.45816406 462.50832031 91.37726563 461.81351562 92.32421875 461.09765625 C136.70542435 426.25939029 160.77107938 371.43121475 174.5390625 318.203125 C174.85399658 316.98906982 174.85399658 316.98906982 175.17529297 315.75048828 C176.40982706 310.9238246 177.53289485 306.08249716 178.5390625 301.203125 C178.6726416 300.55553223 178.8062207 299.90793945 178.94384766 299.24072266 C190.94422494 239.03167807 186.64452511 176.41405021 159.01953125 121.1640625 C158.53097656 120.51695313 158.04242188 119.86984375 157.5390625 119.203125 C154.57330564 118.92067197 152.41609827 118.81657509 149.5390625 119.203125 C148.50845703 119.27466797 148.50845703 119.27466797 147.45703125 119.34765625 C145.23459617 120.1063432 145.23459617 120.1063432 144.0546875 122.92578125 C143.63703125 124.02792969 143.219375 125.13007812 142.7890625 126.265625 C142.36109375 127.37035156 141.933125 128.47507812 141.4921875 129.61328125 C141.17765625 130.46792969 140.863125 131.32257813 140.5390625 132.203125 C140.20132812 131.66042969 139.86359375 131.11773437 139.515625 130.55859375 C139.06960938 129.84316406 138.62359375 129.12773437 138.1640625 128.390625 C137.72320312 127.68292969 137.28234375 126.97523437 136.828125 126.24609375 C134.69481929 122.36921635 134.69481929 122.36921635 130.9140625 120.515625 C127.08636125 120.16120822 123.38195714 120.1368682 119.5390625 120.203125 C119.5390625 119.543125 119.5390625 118.883125 119.5390625 118.203125 C120.1990625 118.203125 120.8590625 118.203125 121.5390625 118.203125 C124.94743743 115.42956935 128.29306411 112.35650222 128.80859375 107.84375 C128.54368972 105.55559347 128.11532984 103.43215907 127.5390625 101.203125 C127.20076094 99.53745968 126.8662145 97.87101602 126.5390625 96.203125 C127.53486328 96.76193359 127.53486328 96.76193359 128.55078125 97.33203125 C129.43378906 97.80511719 130.31679688 98.27820313 131.2265625 98.765625 C132.53173828 99.47912109 132.53173828 99.47912109 133.86328125 100.20703125 C136.9675183 101.36262314 138.42342344 101.21360253 141.5390625 100.203125 C143.80360323 98.73541229 143.80360323 98.73541229 145.5390625 97.203125 C141.60960942 85.98484184 131.61443158 76.66695936 123.5390625 68.203125 C122.79914063 67.41035156 122.05921875 66.61757812 121.296875 65.80078125 C111.70264399 55.80239765 100.49368288 48.110239 88.5390625 41.203125 C87.44722656 40.54570313 86.35539063 39.88828125 85.23046875 39.2109375 C70.51378729 30.63315504 53.26499042 25.22560926 36.5390625 22.203125 C35.5696875 22.00074219 34.6003125 21.79835938 33.6015625 21.58984375 C13.73653971 18.01121832 -6.94941107 19.47105492 -26.4609375 24.203125 Z " fill="#FDFDFD" transform="translate(246.4609375,-0.203125)"/>
<path d="M0 0 C2.3155323 1.20881404 4.28058752 2.55066133 6.33984375 4.15625 C7.07460937 4.69121094 7.809375 5.22617188 8.56640625 5.77734375 C23.46344873 17.67961996 31.98394028 39.26571127 34.13696289 57.77563477 C36.02944905 79.98217207 34.47585853 101.88415833 20.52734375 120.21875 C15.05718611 125.89043976 8.6486751 128.44093579 0.83984375 128.78125 C-7.87952785 128.42179416 -15.70353613 124.57682796 -21.66015625 118.15625 C-28.82095155 109.84602815 -33.48807035 101.21029306 -37.66015625 91.15625 C-37.98757812 90.39054687 -38.315 89.62484375 -38.65234375 88.8359375 C-46.78847214 67.44714636 -46.56941063 40.3586189 -37.33203125 19.45629883 C-30.08915876 4.28536165 -17.33356873 -5.49787202 0 0 Z " fill="#FAFAFA" transform="translate(167.66015625,243.84375)"/>
<path d="M0 0 C9.83850326 5.71524704 15.28311702 15.55518135 18.62890625 26.19140625 C25.35628979 52.15845671 22.44702232 79.57740258 9.89453125 103.265625 C3.80240026 113.24724008 -3.81474728 122.88293947 -15.33984375 126.640625 C-22.39164973 127.88585753 -29.11879606 127.65928909 -35.375 124 C-47.9126185 114.92866426 -53.1649358 101.5436635 -55.98242188 86.6887207 C-59.59969046 61.91448009 -54.01488026 34.50144151 -39.375 14 C-29.07831073 1.78654242 -16.28263186 -7.27521849 0 0 Z " fill="#FAFAFA" transform="translate(363.375,245)"/>
<path d="M0 0 C0.66 0 1.32 0 2 0 C2.10546143 0.67353516 2.21092285 1.34707031 2.31958008 2.04101562 C4.19562163 13.98742018 6.08424579 25.92044056 8.38671875 37.79296875 C9 41 9 41 9.0871582 43.95385742 C9.73912949 47.29902519 9.73912949 47.29902519 13.09179688 49.08642578 C14.45667487 49.72943731 15.83342875 50.34761626 17.21875 50.9453125 C17.95065552 51.28247284 18.68256104 51.61963318 19.43664551 51.9670105 C21.7819404 53.04131953 24.1400827 54.08326508 26.5 55.125 C28.05823837 55.8325542 29.61554283 56.54216898 31.171875 57.25390625 C35.43584322 59.1968726 39.71539909 61.10306703 44 63 C45.86458455 63.83072643 47.72916818 64.66145493 49.59375 65.4921875 C50.7178125 65.98976563 51.841875 66.48734375 53 67 C49.87770033 69.49587632 46.64465601 71.32431098 43.08984375 73.14453125 C41.93419922 73.73943359 40.77855469 74.33433594 39.58789062 74.94726562 C38.37120523 75.56922854 37.15440783 76.1909724 35.9375 76.8125 C32.39920585 78.62576125 28.86590644 80.44304662 25.36230469 82.32299805 C22 84 22 84 18.78613281 85.04614258 C15.33806382 86.3111735 13.47018482 87.25445032 11 90 C8.52442856 96.66572623 8.38591998 104.0385168 7.875 111.0625 C7.69747661 113.01671506 7.51523035 114.97050719 7.328125 116.92382812 C6.9883785 120.50488967 6.67973822 124.08607155 6.39794922 127.67211914 C6.13512892 130.84221482 5.73118486 133.89702927 5 137 C-0.35838125 133.4060432 -4.62548407 129.40046467 -8.94140625 124.65625 C-10.03125906 123.48117509 -11.12176627 122.30670681 -12.21289062 121.1328125 C-13.89934432 119.31682068 -15.56806057 117.4936408 -17.19946289 115.62792969 C-23.76797588 107.84433234 -23.76797588 107.84433234 -32.97436523 104.61743164 C-36.7772248 104.95375871 -40.34568848 105.90291671 -44 107 C-45.9782944 107.48275529 -47.95730129 107.96261637 -49.9375 108.4375 C-50.88625 108.69015625 -51.835 108.9428125 -52.8125 109.203125 C-56.66577191 110.16644298 -60.53622245 110.9466164 -64.4375 111.6875 C-65.11224365 111.81890381 -65.7869873 111.95030762 -66.48217773 112.08569336 C-70.03376459 112.74731138 -73.38720939 113.14618228 -77 113 C-75.73262359 110.29000501 -74.46143515 107.58191274 -73.1875 104.875 C-72.79385254 104.03565918 -72.40020508 103.19631836 -71.99462891 102.33154297 C-69.71879372 97.51363615 -67.37262893 92.74516743 -64.91796875 88.015625 C-64.41177002 87.03352051 -63.90557129 86.05141602 -63.3840332 85.03955078 C-62.39035801 83.12036385 -61.38524189 81.20705065 -60.36791992 79.30029297 C-59.91392822 78.42002441 -59.45993652 77.53975586 -58.9921875 76.6328125 C-58.37899658 75.47096436 -58.37899658 75.47096436 -57.75341797 74.28564453 C-56.47199661 70.3981958 -57.61930157 67.81651577 -59.3034668 64.2043457 C-59.84656494 63.20491943 -60.38966309 62.20549316 -60.94921875 61.17578125 C-61.55056641 60.06396484 -62.15191406 58.95214844 -62.77148438 57.80664062 C-63.40376953 56.65357422 -64.03605469 55.50050781 -64.6875 54.3125 C-65.30044922 53.17876953 -65.91339844 52.04503906 -66.54492188 50.87695312 C-69.85572968 44.78548807 -73.26760988 38.79324015 -76.94458008 32.91479492 C-78 31 -78 31 -78 29 C-69.2555012 28.60432132 -60.84658688 30.10802929 -52.25 31.5 C-50.00847333 31.85951289 -47.76667256 32.21695762 -45.52410889 32.56994629 C-43.50003739 32.88900319 -41.47703439 33.21481708 -39.45410156 33.54101562 C-33.91002908 34.51697834 -33.91002908 34.51697834 -29.0078125 32.53125 C-28.38648438 31.8609375 -27.76515625 31.190625 -27.125 30.5 C-26.20074219 29.52546875 -26.20074219 29.52546875 -25.2578125 28.53125 C-23.39986314 26.44828947 -21.56476548 24.34923479 -19.734375 22.2421875 C-15.32297101 17.18541363 -10.70179543 12.33456924 -6.078125 7.47265625 C-5.43617188 6.79332031 -4.79421875 6.11398438 -4.1328125 5.4140625 C-3.55418457 4.8051416 -2.97555664 4.1962207 -2.37939453 3.56884766 C-0.90962482 2.0315332 -0.90962482 2.0315332 0 0 Z " fill="#FCFCFC" transform="translate(245,102)"/>
<path d="M0 0 C3.63944827 3.1086954 7.27016971 6.22620245 10.875 9.375 C11.54789062 9.94863281 12.22078125 10.52226562 12.9140625 11.11328125 C15 13 15 13 17.0859375 15.29296875 C21.15738825 19.66167802 21.15738825 19.66167802 26.7109375 21.1640625 C29.88724879 20.64461213 32.89897743 19.86159713 36 19 C38.63788255 18.4171574 41.28736311 17.89872835 43.9375 17.375 C45.16339844 17.11460937 46.38929688 16.85421875 47.65234375 16.5859375 C50.53469086 16.08144267 53.08722801 15.87840421 56 16 C54.8598122 19.9243673 53.32070225 23.51896245 51.546875 27.1875 C51.093125 28.13367188 50.639375 29.07984375 50.171875 30.0546875 C49.22098542 32.02438733 48.25732487 33.98797087 47.28125 35.9453125 C44.64847337 41.27523689 44.64847337 41.27523689 44.328125 47.0546875 C44.87984375 48.02664062 45.4315625 48.99859375 46 50 C46.63180176 51.12003418 46.63180176 51.12003418 47.27636719 52.26269531 C48.80422737 54.9144288 50.39270313 57.52072418 52 60.125 C53.08458043 61.89767509 54.1679602 63.67108547 55.25 65.4453125 C55.72953125 66.22406738 56.2090625 67.00282227 56.703125 67.80517578 C57.90120611 69.83280176 58.97645894 71.87989401 60 74 C58.88625 73.86722656 57.7725 73.73445313 56.625 73.59765625 C53.42726337 73.21937622 50.22760443 72.88514211 47.0234375 72.56640625 C43.85670186 72.24221881 40.78240484 71.78772227 37.6640625 71.15234375 C30.71102471 69.84873208 30.71102471 69.84873208 24.27246094 72.19042969 C20.77653801 75.46772852 18.0150211 79.25961961 15.29003906 83.18359375 C13.48142987 85.73015931 11.45559013 88.04831856 9.375 90.375 C8.45847656 91.43847656 8.45847656 91.43847656 7.5234375 92.5234375 C6 94 6 94 4 94 C3.15743719 89.79346033 2.32758687 85.58450944 1.5 81.375 C1.26152344 80.18519531 1.02304687 78.99539062 0.77734375 77.76953125 C0.55175781 76.61582031 0.32617188 75.46210938 0.09375 74.2734375 C-0.11572266 73.21560059 -0.32519531 72.15776367 -0.54101562 71.06787109 C-1.00058707 67.99607597 -1.081281 65.10087004 -1 62 C-2.25683594 61.60167969 -3.51367188 61.20335937 -4.80859375 60.79296875 C-10.36389864 58.94120045 -15.69857819 56.65291682 -21.0625 54.3125 C-22.02349609 53.89677734 -22.98449219 53.48105469 -23.97460938 53.05273438 C-26.31787486 52.03848513 -28.65960887 51.02085998 -31 50 C-29.69826104 46.09478312 -28.33848318 45.80550188 -24.7578125 43.8984375 C-23.69175781 43.32609375 -22.62570312 42.75375 -21.52734375 42.1640625 C-20.40457031 41.57367188 -19.28179687 40.98328125 -18.125 40.375 C-17.00996094 39.776875 -15.89492188 39.17875 -14.74609375 38.5625 C-6.50378836 34.16792945 -6.50378836 34.16792945 -3 33 C-2.90912109 31.49373047 -2.90912109 31.49373047 -2.81640625 29.95703125 C-2.40586469 23.21951452 -1.98255432 16.48278173 -1.5 9.75 C-1.4278125 8.73421875 -1.355625 7.7184375 -1.28125 6.671875 C-1.03679068 4.3495115 -0.64016792 2.24058773 0 0 Z " fill="#FBFBFB" transform="translate(350,131)"/>
<path d="M0 0 C-0.71501033 11.36490103 -1.82647059 22.67487154 -3 34 C-2.40687012 34.27094482 -1.81374023 34.54188965 -1.20263672 34.82104492 C0.96888852 35.98334767 2.46622083 37.17169063 4.2421875 38.86328125 C4.83386719 39.42080078 5.42554688 39.97832031 6.03515625 40.55273438 C6.64230469 41.13345703 7.24945313 41.71417969 7.875 42.3125 C12.14076634 46.3626846 16.43902511 50.28287521 21 54 C17.83006951 56.11328699 15.86152659 56.58628867 12.16015625 57.2890625 C10.4421582 57.61777344 10.4421582 57.61777344 8.68945312 57.953125 C7.49255859 58.17484375 6.29566406 58.3965625 5.0625 58.625 C3.27295898 58.96917969 3.27295898 58.96917969 1.44726562 59.3203125 C-7.4460798 61 -7.4460798 61 -12 61 C-12.11335693 61.70213623 -12.22671387 62.40427246 -12.34350586 63.12768555 C-13.067026 66.29325432 -14.18109335 68.99210578 -15.50390625 71.95703125 C-16.24350586 73.62475586 -16.24350586 73.62475586 -16.99804688 75.32617188 C-17.51431641 76.47666016 -18.03058594 77.62714844 -18.5625 78.8125 C-19.08263672 79.98232422 -19.60277344 81.15214844 -20.13867188 82.35742188 C-21.42127112 85.24032843 -22.70852283 88.12106231 -24 91 C-26.95527275 88.49766303 -27.96929994 85.92654116 -29.3359375 82.34375 C-34.34646255 69.73265556 -34.34646255 69.73265556 -44.44775391 61.56689453 C-51.98753133 59.96299401 -59.53539754 59.80178472 -67.21948242 60.10571289 C-70 60 -70 60 -73 58 C-72.2265625 57.16597656 -71.453125 56.33195312 -70.65625 55.47265625 C-69.60406457 54.33603201 -68.55198873 53.1993063 -67.5 52.0625 C-66.95553223 51.47509033 -66.41106445 50.88768066 -65.85009766 50.2824707 C-61.98476423 46.10063388 -58.21440393 41.84899365 -54.5234375 37.51171875 C-53 36 -53 36 -51 36 C-51.17015625 35.34257813 -51.3403125 34.68515625 -51.515625 34.0078125 C-53.17189268 27.50608087 -54.71538924 20.98299424 -56.1875 14.4375 C-56.36635742 13.65197754 -56.54521484 12.86645508 -56.72949219 12.05712891 C-57.4151175 8.97983399 -58 6.1631349 -58 3 C-54.13159702 4.11538953 -50.62126585 5.62498223 -47.03125 7.41796875 C-45.67966797 8.09182617 -45.67966797 8.09182617 -44.30078125 8.77929688 C-42.42886725 9.72047539 -40.56165741 10.67106707 -38.69921875 11.63085938 C-37.79816406 12.07623047 -36.89710938 12.52160156 -35.96875 12.98046875 C-35.15857422 13.39192139 -34.34839844 13.80337402 -33.51367188 14.22729492 C-29.21483127 15.54876253 -26.09217864 14.53256374 -22.1315918 12.60131836 C-21.16390869 12.02003174 -20.19622559 11.43874512 -19.19921875 10.83984375 C-18.14025391 10.21142578 -17.08128906 9.58300781 -15.99023438 8.93554688 C-14.90033203 8.27619141 -13.81042969 7.61683594 -12.6875 6.9375 C-10.50487604 5.63249125 -8.32133417 4.32901601 -6.13671875 3.02734375 C-5.17467529 2.44718506 -4.21263184 1.86702637 -3.22143555 1.26928711 C-1 0 -1 0 0 0 Z " fill="#FCFCFC" transform="translate(324,65)"/>
<path d="M0 0 C7.79644394 5.80200479 11.56035668 15.37164222 13.5625 24.58984375 C16.64002365 48.57804146 12.40609854 72.85931798 -2.4375 92.375 C-6.38721432 96.42104882 -9.83595603 98.65830885 -15.5625 99.5625 C-20.77386085 98.70973186 -23.31927161 96.26214315 -26.34375 92.19140625 C-35.40930141 77.57044072 -36.36165608 57.97933123 -32.6171875 41.48828125 C-32.41351563 40.66714844 -32.20984375 39.84601563 -32 39 C-31.81695312 38.06542969 -31.63390625 37.13085938 -31.4453125 36.16796875 C-28.58925639 22.71629706 -22.06384509 9.24367038 -10.4765625 1.26171875 C-6.87649499 -0.57238505 -3.94420504 -0.83543243 0 0 Z " fill="#030303" transform="translate(356,258)"/>
<path d="M0 0 C11.79512881 5.38427727 17.59619829 17.42161556 22 29 C27.4853687 47.97468006 29.0215729 70.1005276 20.75 88.5 C18.28129084 92.96578433 15.53667998 96.53318026 11 99 C6.28734726 100.15884903 6.28734726 100.15884903 3 99 C-11.2324308 89.60122494 -17.06968374 73.86622969 -20.8125 57.9375 C-23.88936297 40.94402117 -23.70848796 21.91208881 -14.34375 6.80859375 C-10.4479145 1.56507097 -6.83226273 -1.27381169 0 0 Z " fill="#030303" transform="translate(161,258)"/>
<path d="M0 0 C0.33870183 3.99956416 0.66998725 7.99971026 1 12 C1.09539062 13.12535156 1.19078125 14.25070313 1.2890625 15.41015625 C1.77098607 21.29650845 2.11580219 27.0940881 2 33 C2.72018311 33.27183105 3.44036621 33.54366211 4.18237305 33.82373047 C6.96034577 34.98344562 9.47572536 36.31728947 12.08203125 37.8203125 C13.01337891 38.35527344 13.94472656 38.89023438 14.90429688 39.44140625 C15.86400391 39.99699219 16.82371094 40.55257812 17.8125 41.125 C18.79154297 41.68832031 19.77058594 42.25164062 20.77929688 42.83203125 C23.18789555 44.21844415 25.59471395 45.60785055 28 47 C26.98220266 49.75262102 26.26334218 50.84226974 23.70922852 52.37207031 C22.77522217 52.77006836 21.84121582 53.16806641 20.87890625 53.578125 C19.86119141 54.01640625 18.84347656 54.4546875 17.79492188 54.90625 C16.72822266 55.3496875 15.66152344 55.793125 14.5625 56.25 C12.96825195 56.93835938 12.96825195 56.93835938 11.34179688 57.640625 C3.4382673 61 3.4382673 61 0 61 C-0.06368774 61.88051025 -0.06368774 61.88051025 -0.12866211 62.77880859 C-0.70258891 69.55844328 -1.98684569 76.01343094 -3.5625 82.625 C-3.91344727 84.13126953 -3.91344727 84.13126953 -4.27148438 85.66796875 C-4.84207299 88.11334854 -5.41831433 90.55724069 -6 93 C-10.01186248 89.80664969 -13.30238251 86.66836415 -16.5 82.625 C-17.2734375 81.67238281 -18.046875 80.71976562 -18.84375 79.73828125 C-20.13391978 78.09985912 -21.39528022 76.43711321 -22.59375 74.73046875 C-23.95892175 72.86852617 -25.1625719 71.39774127 -27 70 C-30.45787382 69.4898219 -32.59746311 69.55459369 -36 70 C-37.37090699 70.15916898 -38.74201984 70.31657015 -40.11328125 70.47265625 C-42.34334947 70.72901102 -44.57070955 70.9928268 -46.79614258 71.28686523 C-51.24185715 71.86544872 -55.51623797 72.09414723 -60 72 C-57.33089879 66.96534242 -54.65291268 61.96664296 -51.5625 57.17578125 C-51.1492749 56.52488525 -50.7360498 55.87398926 -50.31030273 55.20336914 C-49.49227805 53.92279479 -48.65886313 52.65189427 -47.80883789 51.39233398 C-45.91948274 48.40831738 -45.00656004 46.30285537 -44.9296875 42.75390625 C-46.4380651 37.46357461 -48.69664065 32.64376381 -51.0625 27.6875 C-51.99409014 25.713749 -52.92263925 23.73855884 -53.84765625 21.76171875 C-54.26023682 20.89506592 -54.67281738 20.02841309 -55.09790039 19.13549805 C-56 17 -56 17 -56 15 C-48.60494396 15.74644932 -41.60849253 17.49167138 -34.42578125 19.359375 C-33.52730469 19.58367188 -32.62882812 19.80796875 -31.703125 20.0390625 C-30.89520508 20.24740723 -30.08728516 20.45575195 -29.25488281 20.67041016 C-26.81161393 21.02753586 -25.31236031 20.82655644 -23 20 C-21.29977773 18.62511233 -21.29977773 18.62511233 -19.75 16.875 C-16.03436714 12.99264002 -12.07760077 9.49508638 -8 6 C-6.99646484 5.12214844 -6.99646484 5.12214844 -5.97265625 4.2265625 C-1.12103873 0 -1.12103873 0 0 0 Z " fill="#020202" transform="translate(73,44)"/>
<path d="M0 0 C-0.97594854 3.45924983 -1.95630319 6.91723549 -2.9375 10.375 C-3.21529297 11.35984375 -3.49308594 12.3446875 -3.77929688 13.359375 C-4.04677734 14.30039062 -4.31425781 15.24140625 -4.58984375 16.2109375 C-4.83597412 17.08024902 -5.08210449 17.94956055 -5.33569336 18.84521484 C-6 21 -6 21 -7 23 C-7.66 23 -8.32 23 -9 23 C-12.0424073 34.7893283 -7.91085935 44.03764884 -2.75 54.625 C-0.53777417 59.56836884 0.51944692 64.57932006 0 70 C-1.60501653 73.22898994 -3.73568291 75.36784146 -7 77 C-16.92400011 78.03994013 -16.92400011 78.03994013 -21.08984375 75.953125 C-23.19923742 74.19959481 -24.7701996 72.4596008 -26 70 C-26.37791662 64.08560496 -25.64467536 60.20592266 -23.25 54.6875 C-22.69948824 53.37934031 -22.15001625 52.0707426 -21.6015625 50.76171875 C-21.32989258 50.12540527 -21.05822266 49.4890918 -20.77832031 48.83349609 C-15.8340377 37.32395716 -15.8340377 37.32395716 -17 25.125 C-17.99 23.578125 -17.99 23.578125 -19 22 C-26.27710523 20.46196447 -33.84304632 20.80878212 -41.25 20.8125 C-41.90808655 20.8117749 -42.5661731 20.8110498 -43.24420166 20.81030273 C-54.59620491 20.81168145 -65.74732974 21.51729521 -77 23 C-78.86711106 17.51196813 -80.61640974 12.0175792 -82.1875 6.4375 C-82.53167969 5.21933594 -82.87585938 4.00117188 -83.23046875 2.74609375 C-83.48441406 1.83988281 -83.73835937 0.93367188 -84 0 C-56.2062613 -13.06680586 -27.92976681 -11.66928613 0 0 Z " fill="#FBFBFB" transform="translate(298,395)"/>
<path d="M0 0 C3.19745276 2.79090378 5.16221704 4.9886105 6.7265625 8.953125 C8.74204316 13.72196464 10.67019826 17.94663623 15 21 C23.70947853 23.34190638 33.0820299 22.62318798 42 22 C39.84674932 25.43783055 37.62887983 28.49475943 34.87890625 31.48046875 C28.58489743 37.91670709 28.58489743 37.91670709 25.78125 46.0703125 C26.59156931 48.91453327 27.67545033 51.35892823 29 54 C29.59706744 55.80140861 30.16122741 57.61415153 30.6875 59.4375 C30.93886719 60.21996094 31.19023437 61.00242188 31.44921875 61.80859375 C32 64 32 64 32 68 C26.17069983 67.28844223 21.20438481 65.23999365 15.83398438 62.99609375 C11.81005502 61.39875047 9.10988943 60.40885664 5 62 C2.06263853 63.7011389 2.06263853 63.7011389 -0.875 65.8125 C-5.15141858 68.78812807 -9.45468661 71.46533276 -14 74 C-14.02721831 70.9999376 -14.04694378 68.00012744 -14.0625 65 C-14.07087891 64.16082031 -14.07925781 63.32164063 -14.08789062 62.45703125 C-14.10824033 57.20680661 -13.76368207 52.19544338 -13 47 C-13.86286621 46.599021 -13.86286621 46.599021 -14.74316406 46.18994141 C-17.07350499 44.96124369 -19.02607238 43.57076225 -21.109375 41.9609375 C-21.86347656 41.38085938 -22.61757813 40.80078125 -23.39453125 40.203125 C-24.17183594 39.59984375 -24.94914062 38.9965625 -25.75 38.375 C-26.54277344 37.76398437 -27.33554687 37.15296875 -28.15234375 36.5234375 C-30.10390608 35.01861835 -32.05300989 33.51072716 -34 32 C-31.22211365 30.14807577 -29.59339375 29.49294568 -26.4375 28.7109375 C-25.55835938 28.49179687 -24.67921875 28.27265625 -23.7734375 28.046875 C-22.40058594 27.71429688 -22.40058594 27.71429688 -21 27.375 C-19.62714844 27.03082031 -19.62714844 27.03082031 -18.2265625 26.6796875 C-11.4078311 25 -11.4078311 25 -8 25 C-7.79375 23.845 -7.5875 22.69 -7.375 21.5 C-5.75520409 14.07990551 -2.75349671 7.05691768 0 0 Z " fill="#040404" transform="translate(431,21)"/>
<path d="M0 0 C0.66 0 1.32 0 2 0 C2.81032274 1.5212064 3.61819291 3.04378022 4.41235352 4.57348633 C6.64599893 8.6349016 8.65903619 12.26776014 13.28222656 13.71386719 C18.85541175 14.5308674 24.39309427 14.34793616 30 14 C28.8782037 15.7936743 27.75245517 17.5848773 26.625 19.375 C25.99851562 20.37273437 25.37203125 21.37046875 24.7265625 22.3984375 C23 25 23 25 21 27 C21.35834425 33.56964462 23.1607356 39.70717087 25 46 C23.6875 45.70833333 22.375 45.41666667 21.0625 45.125 C20.23363281 44.95742187 19.40476562 44.78984375 18.55078125 44.6171875 C16 44 16 44 13.85546875 43.0703125 C11.26095175 42.05946172 9.79432727 41.68285243 7 42 C3.17834048 44.07856571 -0.09099361 46.91522339 -3.375 49.7421875 C-6 52 -6 52 -7 52 C-6.92136719 50.73285156 -6.84273438 49.46570313 -6.76171875 48.16015625 C-6.20812679 39.25358141 -6.20812679 39.25358141 -9.32324219 31.24902344 C-12.03818075 28.85463218 -14.98991877 27.15817461 -18.19140625 25.49609375 C-19.11824219 25.00238281 -20.04507812 24.50867188 -21 24 C-21 23.34 -21 22.68 -21 22 C-18.54285453 21.16301614 -16.08441143 20.33027576 -13.625 19.5 C-12.92632812 19.26152344 -12.22765625 19.02304688 -11.5078125 18.77734375 C-6.2265625 17 -6.2265625 17 -4 17 C-3.896875 16.236875 -3.79375 15.47375 -3.6875 14.6875 C-2.75866958 9.70559136 -1.37883557 4.87362005 0 0 Z " fill="#F8F8F8" transform="translate(302,197)"/>
<path d="M0 0 C4.19051142 3.95770523 5.74043887 8.5341693 6.3359375 14.19140625 C6.45963342 24.86636441 4.93352746 35.50083731 -2 44 C-2.6496875 44.928125 -2.6496875 44.928125 -3.3125 45.875 C-6.2845056 47.85633707 -8.56459502 47.54243236 -12 47 C-17.43146998 41.12814056 -18.44760148 33.42359196 -18.24609375 25.70703125 C-17.42812343 16.70935778 -14.95510114 8.91660184 -9 2 C-5.50434664 -0.33043558 -4.1134271 -0.58763244 0 0 Z " fill="#FAFAFA" transform="translate(352,284)"/>
<path d="M0 0 C4.88471974 0.80077373 6.31844008 2.54621543 9.3046875 6.3359375 C14.83114819 14.72584932 15.71638616 24.80277039 14.8125 34.625 C12.33431208 44.10318792 12.33431208 44.10318792 8.8125 47.625 C5.18994301 48.1080076 3.35019149 47.94505446 0.1875 46.0625 C-6.9594196 38.72750356 -9.28280255 29.08062545 -9.625 19.0625 C-9.46505132 12.00792152 -8.07057827 1.58246633 0 0 Z " fill="#FAFAFA" transform="translate(160.1875,283.375)"/>
<path d="M0 0 C3.0916909 2.52956528 3.90931332 5.22454612 5 9 C2.5 7.3125 2.5 7.3125 0 5 C-0.3125 2.25 -0.3125 2.25 0 0 Z " fill="#3C3C3C" transform="translate(396,104)"/>
</svg>
