<?xml version="1.0" encoding="UTF-8"?>
<svg version="1.1" xmlns="http://www.w3.org/2000/svg" width="512" height="512">
<path d="M0 0 C1.28224457 -0.01475876 1.28224457 -0.01475876 2.59039307 -0.02981567 C53.6629642 -0.49669944 93.59180987 12.79268779 130.546875 48.859375 C143.47340858 61.63041092 143.47340858 61.63041092 144.77734375 64.23828125 C148.57716885 62.66922114 150.94065471 60.29245864 153.80200195 57.37719727 C154.28877411 56.88429199 154.77554626 56.39138672 155.27706909 55.88354492 C156.33065679 54.81568241 157.3819879 53.74558977 158.43129921 52.67352486 C160.09572851 50.97421508 161.76723693 49.28217582 163.44096375 47.59202576 C168.19768623 42.78649128 172.94316561 37.96997122 177.67944336 33.14428711 C180.58026245 30.18972341 183.4908945 27.24512178 186.40767479 24.30631828 C187.51381994 23.18780316 188.6161619 22.06551299 189.71450233 20.93933296 C191.25534457 19.35979494 192.80836402 17.79321077 194.36450195 16.22875977 C195.24290237 15.33544449 196.1213028 14.44212921 197.02632141 13.52174377 C201.72335116 9.62301447 206.55040256 7.80447659 212.71484375 7.73828125 C213.67261719 7.70734375 214.63039063 7.67640625 215.6171875 7.64453125 C222.95200488 9.0226428 228.48017826 14.48756928 233.578125 19.640625 C234.48270699 20.54090172 234.48270699 20.54090172 235.40556335 21.45936584 C236.6670461 22.718823 237.92481251 23.98201276 239.17895508 25.2487793 C241.09196694 27.17792234 243.02055378 29.09044763 244.95117188 31.00195312 C246.18195306 32.23471591 247.41180375 33.46840854 248.640625 34.703125 C249.21251053 35.26893784 249.78439606 35.83475067 250.37361145 36.41770935 C255.24015554 41.37034801 258.20535542 45.95908187 258.21484375 53.11328125 C258.24384766 54.56347656 258.24384766 54.56347656 258.2734375 56.04296875 C257.00859384 64.18975702 252.05801285 69.52967755 246.34667969 75.12304688 C245.60482422 75.86548645 244.86296875 76.60792603 244.09863281 77.37286377 C241.66236212 79.80636432 239.21226663 82.22541578 236.76171875 84.64453125 C235.06262402 86.33615985 233.36441461 88.02867809 231.66705322 89.7220459 C227.21082107 94.16305133 222.74270552 98.59190959 218.27197266 103.01831055 C213.70660159 107.54266556 209.1526208 112.07845373 204.59765625 116.61328125 C195.66863875 125.49948005 186.72740151 134.37327684 177.77734375 143.23828125 C177.98921861 143.77400599 178.20109346 144.30973074 178.41938877 144.86168957 C178.69418033 145.5716977 178.96897188 146.28170584 179.25209045 147.01322937 C179.52584031 147.71395411 179.79959017 148.41467886 180.08163548 149.13663769 C181.12137201 152.27754557 181.18440517 155.21275983 181.2109375 158.5078125 C181.21790146 159.17787827 181.22486542 159.84794403 181.23204041 160.53831482 C181.24592819 162.70963678 181.233394 164.87950744 181.21484375 167.05078125 C181.21028168 168.17401794 181.21028168 168.17401794 181.20562744 169.31994629 C180.92998666 215.44873713 167.07663114 257.955087 134.77734375 291.23828125 C133.99359375 292.06199219 133.20984375 292.88570313 132.40234375 293.734375 C119.15455406 307.38432974 103.05136585 318.46608875 87.52734375 329.36328125 C61.70526927 347.49078389 61.70526927 347.49078389 48.77734375 375.23828125 C48.35816159 379.66911345 48.13862659 384.10698463 47.90234375 388.55078125 C45.78155888 421.90336937 34.95223237 450.74019344 11.77734375 475.23828125 C10.95621094 476.13546875 10.13507813 477.03265625 9.2890625 477.95703125 C-4.05626742 492.03388296 -21.27149006 501.42351121 -39.53515625 507.61328125 C-40.23938721 507.85208008 -40.94361816 508.09087891 -41.66918945 508.33691406 C-52.322261 511.75321407 -62.69165178 512.62812576 -73.84765625 512.61328125 C-74.50707214 512.61306976 -75.16648804 512.61285828 -75.84588623 512.61264038 C-86.52583317 512.57851036 -96.12236113 511.69573357 -106.22265625 508.23828125 C-107.29902344 507.87605469 -108.37539062 507.51382812 -109.484375 507.140625 C-127.14861573 500.46847261 -140.27773305 487.90460471 -150.22265625 472.23828125 C-154.63815472 475.84137762 -158.71245806 479.67290464 -162.69140625 483.75 C-163.17899414 484.2478299 -163.66658203 484.74565979 -164.16894531 485.25857544 C-166.20311434 487.337973 -168.23501669 489.41923067 -170.25244141 491.51489258 C-171.74366891 493.06093406 -173.24758306 494.59368112 -174.75390625 496.125 C-175.63626953 497.03467529 -176.51863281 497.94435059 -177.42773438 498.8815918 C-182.12964496 502.84626186 -186.94716934 504.67156461 -193.16015625 504.73828125 C-194.59681641 504.7846875 -194.59681641 504.7846875 -196.0625 504.83203125 C-203.39731738 503.4539197 -208.92549076 497.98899322 -214.0234375 492.8359375 C-214.62649216 492.23575302 -215.22954681 491.63556854 -215.85087585 491.01719666 C-217.1123586 489.7577395 -218.37012501 488.49454974 -219.62426758 487.2277832 C-221.53727944 485.29864016 -223.46586628 483.38611487 -225.39648438 481.47460938 C-226.62726556 480.24184659 -227.85711625 479.00815396 -229.0859375 477.7734375 C-229.94376579 476.92471825 -229.94376579 476.92471825 -230.81892395 476.05885315 C-235.68546804 471.10621449 -238.65066792 466.51748063 -238.66015625 459.36328125 C-238.67949219 458.39648438 -238.69882813 457.4296875 -238.71875 456.43359375 C-237.45390634 448.28680548 -232.50332535 442.94688495 -226.79199219 437.35351562 C-225.67920898 436.23985626 -225.67920898 436.23985626 -224.54394531 435.10369873 C-222.10767462 432.67019818 -219.65757913 430.25114672 -217.20703125 427.83203125 C-215.50793652 426.14040265 -213.80972711 424.44788441 -212.11236572 422.7545166 C-207.65613357 418.31351117 -203.18801802 413.88465291 -198.71728516 409.45825195 C-194.15191409 404.93389694 -189.5979333 400.39810877 -185.04296875 395.86328125 C-176.11395045 386.97708166 -167.17244929 378.10355372 -158.22265625 369.23828125 C-158.70979914 368.11295077 -159.19694202 366.9876203 -159.69884682 365.8281889 C-161.4674282 361.08259029 -161.6433579 356.82263707 -161.60360718 351.79975891 C-161.60828715 350.88077401 -161.61296712 349.96178911 -161.61778891 349.01495618 C-161.62970421 345.95163482 -161.62029471 342.88876372 -161.61083984 339.82543945 C-161.61490744 337.62190491 -161.62025038 335.4183724 -161.62677002 333.21484375 C-161.64043735 327.23677445 -161.63514451 321.25886065 -161.62563276 315.28078866 C-161.61802081 309.00588843 -161.62508719 302.73100124 -161.62979126 296.45610046 C-161.63559907 285.22960337 -161.62628051 274.00317003 -161.61101325 262.77668794 C-161.59765344 252.64039685 -161.59990315 242.50420907 -161.61376953 232.36791992 C-161.62990857 220.56501956 -161.6357523 208.76216948 -161.62693274 196.95925778 C-161.62228401 190.72400164 -161.62155238 184.48881627 -161.63154221 178.25356483 C-161.64030074 172.37574686 -161.63403009 166.49812074 -161.61685944 160.62032318 C-161.61293915 158.47960158 -161.6139506 156.33886344 -161.62064743 154.19814873 C-161.66942394 137.00085665 -160.84704485 119.42812282 -155.53515625 102.92578125 C-155.28096924 102.11222168 -155.02678223 101.29866211 -154.76489258 100.46044922 C-143.02218213 64.47665108 -115.77668529 37.37123108 -82.62304688 20.41113281 C-57.22967241 8.00371103 -28.32529526 0.26981591 0 0 Z " fill="#FCFCFC" transform="translate(246.22265625,-0.23828125)"/>
<path d="M0 0 C10.20457229 8.53350446 20.74897844 17.90129219 27.62207031 29.35644531 C-22.20792969 79.18644531 -72.03792969 129.01644531 -123.37792969 180.35644531 C-127.26589898 177.02390021 -130.99547693 173.78800743 -134.69042969 170.29394531 C-144.69616726 161.43557731 -157.61035503 157.364962 -170.80761719 156.74707031 C-171.90577759 156.68737061 -171.90577759 156.68737061 -173.02612305 156.62646484 C-174.80974088 156.53036788 -176.59380093 156.44253694 -178.37792969 156.35644531 C-178.55270199 151.84002183 -178.67878713 147.3254552 -178.76245117 142.80664062 C-178.79737021 141.2740648 -178.84492658 139.74171723 -178.90600586 138.20996094 C-179.25196833 129.30215423 -179.19472184 122.4727549 -173.18041992 115.29785156 C-172.58559814 114.6571875 -171.99077637 114.01652344 -171.37792969 113.35644531 C-170.27384766 111.94685547 -170.27384766 111.94685547 -169.14746094 110.50878906 C-158.26814439 98.19626914 -142.46870852 86.51468295 -125.58105469 85.02050781 C-116.92075037 84.93493168 -110.40076146 85.82227183 -102.37792969 89.35644531 C-100.38365921 90.04006049 -98.38480047 90.71075645 -96.37792969 91.35644531 C-95.0389457 89.40176779 -93.70663921 87.44308742 -92.37792969 85.48144531 C-91.26417969 83.845625 -91.26417969 83.845625 -90.12792969 82.17675781 C-88.20218113 79.62639699 -88.20218113 79.62639699 -88.37792969 77.35644531 C-104.41179587 69.04380568 -121.3991898 64.97027907 -139.28027344 70.18457031 C-148.92144674 73.83192465 -158.00430999 78.63656274 -166.26464844 84.81347656 C-168.55521899 86.48588944 -170.92912303 87.92833215 -173.37792969 89.35644531 C-172.86373847 83.76552109 -171.38729017 79.57346434 -168.81542969 74.60644531 C-168.27861572 73.56037109 -168.27861572 73.56037109 -167.73095703 72.49316406 C-159.02968675 55.93673914 -147.15377823 45.33677709 -129.19042969 39.54394531 C-104.89943423 33.04084417 -76.2849909 38.01254909 -54.62792969 50.29394531 C-48.98472574 53.73508758 -44.0600382 57.69910986 -39.37792969 62.35644531 C-35.81487146 61.07099874 -33.04948736 59.55799875 -30.06542969 57.23144531 C-29.36804688 56.69261719 -28.67066406 56.15378906 -27.95214844 55.59863281 C-27.43265625 55.18871094 -26.91316406 54.77878906 -26.37792969 54.35644531 C-27.20010076 48.27237937 -32.84981801 44.92725193 -37.37792969 41.35644531 C-51.46003125 31.63267605 -65.95943115 26.57551433 -82.37792969 22.35644531 C-83.42722656 22.08445313 -84.47652344 21.81246094 -85.55761719 21.53222656 C-108.51844225 16.72884921 -134.03180334 20.35881074 -154.31933594 32.05175781 C-156.78670317 33.71211448 -159.08269949 35.46625573 -161.37792969 37.35644531 C-162.61929688 38.33871094 -162.61929688 38.33871094 -163.88574219 39.34082031 C-184.49772964 56.61202692 -191.89800952 82.56759087 -194.37792969 108.35644531 C-194.91423285 117.07525424 -194.93115973 125.81162736 -195.00292969 134.54394531 C-195.0483942 138.17557668 -195.09866656 141.80712325 -195.14898682 145.43869019 C-195.18162198 147.82483842 -195.21268831 150.21100867 -195.24212646 152.59719849 C-195.32046152 158.86394707 -195.42507682 165.12736944 -195.62011719 171.39160156 C-195.65878906 172.68775391 -195.69746094 173.98390625 -195.73730469 175.31933594 C-195.83192057 177.86739419 -195.95483756 180.41454221 -196.10449219 182.95996094 C-196.52246569 190.80241329 -196.24214003 198.28466469 -195.38482666 206.10058594 C-191.04144822 247.48634233 -191.04144822 247.48634233 -203.39698601 263.33644581 C-215.07894745 277.5525489 -229.56093005 290.47290305 -244.37792969 301.35644531 C-244.70792969 301.35644531 -245.03792969 301.35644531 -245.37792969 301.35644531 C-245.47160195 272.36553544 -245.54202076 243.37464843 -245.58517838 214.3836174 C-245.5892574 211.69731382 -245.59342269 209.01101038 -245.59765625 206.32470703 C-245.59870549 205.65706492 -245.59975473 204.9894228 -245.60083577 204.30154911 C-245.6181775 193.53208165 -245.64968024 182.76270076 -245.68654087 171.99328443 C-245.72412482 160.9190707 -245.7459033 149.84490433 -245.75428367 138.77063012 C-245.759473 132.56037695 -245.77156622 126.35031926 -245.80084991 120.14012909 C-245.82825732 114.27965542 -245.8363241 108.4194554 -245.83036041 102.55892372 C-245.83144943 100.42260812 -245.83925078 98.28628215 -245.85475159 96.15002251 C-246.08451965 62.81316908 -236.34888741 33.43936954 -212.69042969 9.23144531 C-191.6229963 -11.49728335 -163.22160874 -24.26857397 -134.37792969 -29.64355469 C-133.41419434 -29.82547363 -132.45045898 -30.00739258 -131.45751953 -30.19482422 C-82.33278028 -39.17004685 -38.85268781 -31.66387643 0 0 Z " fill="#010101" transform="translate(351.3779296875,53.6435546875)"/>
<path d="M0 0 C0.66 0.33 1.32 0.66 2 1 C2.32925963 20.43391649 0.55285855 38.10680443 -4 57 C-4.23589844 57.99773437 -4.47179687 58.99546875 -4.71484375 60.0234375 C-11.76108786 87.79147641 -27.75656031 111.94356072 -50 130 C-50.50450684 130.41685059 -51.00901367 130.83370117 -51.52880859 131.26318359 C-59.29101639 137.67118125 -67.25406029 143.67416587 -75.51245117 149.42626953 C-83.53749045 155.03368946 -91.30568776 160.94887339 -99 167 C-99.91338135 167.70938721 -99.91338135 167.70938721 -100.84521484 168.43310547 C-115.01597704 179.50634739 -127.12246779 193.67644297 -130 212 C-130.43055382 216.51474595 -130.68253214 221.03491666 -130.9375 225.5625 C-133.17908971 259.54640512 -144.04478552 288.8617893 -170.05859375 311.65625 C-191.32460942 328.6012824 -216.89100902 336.84611352 -244 335 C-261.41216156 332.83139781 -275.88279073 323.96816437 -286.875 310.4375 C-294.20408149 300.48592726 -294.20408149 300.48592726 -293.80995178 295.68501282 C-292.76420907 292.21834647 -291.14174194 290.66023002 -288.57202148 288.11791992 C-288.11345764 287.65877197 -287.6548938 287.19962402 -287.18243408 286.7265625 C-285.67127801 285.21818298 -284.14647385 283.72445082 -282.62109375 282.23046875 C-281.56790063 281.18473954 -280.51558986 280.13812099 -279.46412659 279.09065247 C-276.69947327 276.3412436 -273.92301822 273.60406048 -271.1439209 270.8692627 C-268.3081127 268.07443262 -265.48364797 265.26819031 -262.65820312 262.46289062 C-257.11649942 256.96403682 -251.56227659 251.47805103 -246 246 C-243.88530454 249.1720432 -243.02186949 251.87493001 -241.875 255.5 C-238.52718687 265.2924808 -233.62198583 273.49204296 -224.078125 278.1953125 C-213.81780204 282.1682947 -203.1870808 280.14502333 -193.40234375 275.86328125 C-189.35655822 273.92887097 -185.62211854 271.83472121 -182 269.1875 C-179 267 -179 267 -177 267 C-181.95 260.07 -181.95 260.07 -187 253 C-188.65 253.9075 -190.3 254.815 -192 255.75 C-193.010625 256.29398437 -194.02125 256.83796875 -195.0625 257.3984375 C-196.76860967 258.32863027 -198.46358057 259.28121615 -200.125 260.2890625 C-205.50563255 263.40534552 -210.87675806 264.42784117 -217 263 C-223.96491653 258.87070615 -225.97045983 250.42227941 -228.0546875 243.09765625 C-228.19964395 242.46617989 -228.3446004 241.83470352 -228.49394947 241.18409151 C-228.82157624 239.77006899 -229.19254936 238.36511684 -229.61381143 236.97611099 C-230.4578501 233.27717002 -230.59252115 230.97433489 -228.58085072 227.66636741 C-226.29850013 225.03217177 -223.89359128 222.60977532 -221.38856506 220.1860199 C-220.43858264 219.23167515 -219.49080135 218.27513512 -218.54504198 217.31660515 C-215.94250765 214.69171974 -213.3098377 212.09902049 -210.67117798 209.51052177 C-207.83026888 206.71280147 -205.01832096 203.88623542 -202.20274353 201.06306458 C-197.32159702 196.17667471 -192.42247692 191.30892646 -187.5106678 186.45336723 C-180.40910492 179.4330786 -173.33532042 172.38533459 -166.26800781 165.33058716 C-154.80108772 153.88555288 -143.31201462 142.46302767 -131.80883789 131.05444336 C-120.63469596 119.97209299 -109.4711064 108.87928697 -98.3215332 97.7722168 C-97.6342615 97.08757233 -96.94698979 96.40292785 -96.23889167 95.69753658 C-92.79111293 92.26280823 -89.3435405 88.82787288 -85.8960706 85.39283454 C-57.29596304 56.89639271 -28.65981922 28.43637903 0 0 Z " fill="#010101" transform="translate(405,157)"/>
<path d="M0 0 C3.71713736 1.73760147 6.08741012 3.85676878 8.984375 6.7890625 C9.67506073 7.48399307 9.67506073 7.48399307 10.37969971 8.19296265 C11.84125078 9.66565898 13.29567168 11.14517403 14.75 12.625 C15.74302611 13.62806322 16.73651089 14.63067257 17.73046875 15.6328125 C20.15897941 18.08330835 22.58114675 20.5399667 25 23 C23.68347207 25.91003928 22.26889653 27.98082162 20.01366651 30.23473048 C19.39710278 30.8557888 18.78053905 31.47684712 18.14529157 32.11672539 C17.46549009 32.79127283 16.78568861 33.46582028 16.08528709 34.16080856 C15.00042222 35.24913497 15.00042222 35.24913497 13.89364088 36.35944778 C11.45013755 38.80827744 8.99951962 41.24986291 6.54891968 43.69158936 C4.78547636 45.4559042 3.02247235 47.22065821 1.25987208 48.98581529 C-2.58300944 52.83224588 -6.42899261 56.67553413 -10.27771187 60.51612282 C-16.00062032 66.22697491 -21.71779908 71.94353714 -27.43380352 77.66129844 C-37.04859106 87.27871564 -46.66803242 96.89146529 -56.29011917 106.50157928 C-65.81953288 116.01916588 -75.34688186 125.53881148 -84.87147141 135.06122589 C-85.463304 135.65292101 -86.0551366 136.24461612 -86.66490351 136.8542414 C-89.67041414 139.85907537 -92.67588783 142.86394629 -95.6813473 145.86883143 C-116.97855429 167.16183568 -138.2803962 188.45019754 -159.58496094 209.73583984 C-180.28424673 230.41676198 -200.98143456 251.09978003 -221.67578125 271.78564453 C-222.31348007 272.4230803 -222.95117889 273.06051607 -223.60820192 273.71726808 C-230.01213332 280.11856248 -236.41602205 286.51989957 -242.81987951 292.92126794 C-255.86570548 305.96202126 -268.91181632 319.00248959 -281.95809937 332.04278564 C-282.55796856 332.64238025 -283.15783775 333.24197487 -283.77588479 333.85973901 C-323.84581905 373.91126662 -363.92241414 413.95612915 -404 454 C-407.71713736 452.26239853 -410.08741012 450.14323122 -412.984375 447.2109375 C-413.67506073 446.51600693 -413.67506073 446.51600693 -414.37969971 445.80703735 C-415.84125078 444.33434102 -417.29567168 442.85482597 -418.75 441.375 C-419.74302611 440.37193678 -420.73651089 439.36932743 -421.73046875 438.3671875 C-424.15897941 435.91669165 -426.58114675 433.4600333 -429 431 C-427.68347207 428.08996072 -426.26889653 426.01917838 -424.01366651 423.76526952 C-423.08882091 422.83368204 -423.08882091 422.83368204 -422.14529157 421.88327461 C-421.46549009 421.20872717 -420.78568861 420.53417972 -420.08528709 419.83919144 C-419.36204384 419.1136405 -418.63880059 418.38808956 -417.89364088 417.64055222 C-415.45013755 415.19172256 -412.99951962 412.75013709 -410.54891968 410.30841064 C-408.78547636 408.5440958 -407.02247235 406.77934179 -405.25987208 405.01418471 C-401.41699056 401.16775412 -397.57100739 397.32446587 -393.72228813 393.48387718 C-387.99937968 387.77302509 -382.28220092 382.05646286 -376.56619648 376.33870156 C-366.95140894 366.72128436 -357.33196758 357.10853471 -347.70988083 347.49842072 C-338.18046712 337.98083412 -328.65311814 328.46118852 -319.12852859 318.93877411 C-318.536696 318.34707899 -317.9448634 317.75538388 -317.33509649 317.1457586 C-314.32958586 314.14092463 -311.32411217 311.13605371 -308.3186527 308.13116857 C-287.02144571 286.83816432 -265.7196038 265.54980246 -244.41503906 244.26416016 C-223.71575327 223.58323802 -203.01856544 202.90021997 -182.32421875 182.21435547 C-181.68651993 181.5769197 -181.04882111 180.93948393 -180.39179808 180.28273192 C-173.98786668 173.88143752 -167.58397795 167.48010043 -161.18012049 161.07873206 C-148.13429452 148.03797874 -135.08818368 134.99751041 -122.04190063 121.95721436 C-121.44203144 121.35761975 -120.84216225 120.75802513 -120.22411521 120.14026099 C-80.15418095 80.08873338 -40.07758586 40.04387085 0 0 Z " fill="#000000" transform="translate(458,29)"/>
<path d="M0 0 C1.72643615 -0.03237778 3.4530521 -0.05523689 5.1796875 -0.07421875 C6.14116699 -0.08799561 7.10264648 -0.10177246 8.09326172 -0.1159668 C20.03813305 0.36058401 29.42957915 7.15720242 38.03125 14.81640625 C40.08499506 17.09427032 40.78775141 17.98632081 41 21 C39.57046509 23.03753662 39.57046509 23.03753662 37.36572266 25.21777344 C36.54802399 26.03832214 35.73032532 26.85887085 34.8878479 27.70428467 C33.98899872 28.58046448 33.09014954 29.45664429 32.1640625 30.359375 C31.25498138 31.26375305 30.34590027 32.1681311 29.40927124 33.09991455 C27.484647 35.01385558 25.55229703 36.91948941 23.61328125 38.81884766 C21.12224032 41.25894914 18.64429679 43.71181399 16.17115211 46.17004013 C12.09032553 50.2252647 8.00095208 54.27199721 3.89306641 58.29980469 C3.16391022 59.01610046 2.43475403 59.73239624 1.6835022 60.47039795 C0 62 0 62 -1 62 C-1.11355404 41.30521233 -1.04544753 20.67539319 0 0 Z " fill="#020202" transform="translate(173,227)"/>
</svg>
