<?xml version="1.0" encoding="UTF-8"?>
<svg version="1.1" xmlns="http://www.w3.org/2000/svg" width="512" height="512">
<path d="M0 0 C35.78924377 31.36029047 55.60885949 75.55604365 59.375 122.6875 C59.69337745 129.17087335 59.6297858 135.66147277 59.60205078 142.15063477 C59.60148503 144.0348917 59.60180643 145.91914908 59.60293579 147.80340576 C59.60350389 152.86219483 59.59183858 157.92088686 59.57778788 162.9796536 C59.56518896 168.2873695 59.56410286 173.59508822 59.56173706 178.90281677 C59.55554899 188.92853216 59.53917477 198.95420333 59.51903808 208.97989935 C59.49659534 220.40449564 59.48566469 231.82909416 59.47564721 243.25370705 C59.45480584 266.73166243 59.41968247 290.20957873 59.375 313.6875 C60.27178467 313.67861755 61.16856934 313.66973511 62.0925293 313.6605835 C70.56648345 313.58025339 79.0403087 313.51944219 87.51455688 313.48025131 C91.87071041 313.45942508 96.22654787 313.43119901 100.58251953 313.38574219 C104.79060957 313.34210613 108.99839663 313.3183256 113.20669556 313.30799103 C114.80779791 313.30063137 116.4088847 313.2862598 118.00985718 313.26457977 C135.11047577 313.04233157 135.11047577 313.04233157 142.43359375 319.50390625 C142.88863281 320.08011719 143.34367187 320.65632813 143.8125 321.25 C144.28558594 321.82878906 144.75867188 322.40757812 145.24609375 323.00390625 C147.73205827 326.71134814 147.51257605 330.21482794 147.53613281 334.54223633 C147.54109772 335.23529373 147.54606262 335.92835114 147.55117798 336.64241028 C147.56578016 338.93479406 147.5725987 341.22710861 147.578125 343.51953125 C147.58387851 345.11512758 147.58963622 346.71072389 147.59539795 348.30632019 C147.60590272 351.65286582 147.61174866 354.99938747 147.61523438 358.34594727 C147.62071487 362.62651951 147.6447354 366.90677299 147.67320633 371.18724537 C147.69186491 374.48415542 147.69704004 377.78098923 147.69857025 381.07794762 C147.70159057 382.65555245 147.70959813 384.23315614 147.72275543 385.810709 C147.73988215 388.02224324 147.73791988 390.23300574 147.73144531 392.44458008 C147.73509094 393.70128006 147.73873657 394.95798004 147.74249268 396.25276184 C147.17155034 401.58902442 145.13582894 405.53152323 141 408.9375 C140.15308594 409.65679687 140.15308594 409.65679687 139.2890625 410.390625 C134.46402315 413.65983534 129.94862104 413.97565315 124.25453472 413.94476891 C123.43736616 413.94827498 122.62019759 413.95178105 121.77826634 413.95539337 C119.02843575 413.96472861 116.27881596 413.95977858 113.52897644 413.95492554 C111.54220717 413.95866072 109.55543937 413.96326172 107.56867391 413.96865618 C102.09984021 413.98091783 96.63106754 413.98062199 91.16222322 413.97826743 C85.26775119 413.97786006 79.37329893 413.98889073 73.47883606 413.99838257 C61.92703797 414.0150108 50.37525872 414.02051883 38.82344981 414.02160732 C29.43576184 414.02252613 20.04808049 414.02664132 10.66039467 414.03300858 C7.95894173 414.03480364 5.25748877 414.03658327 2.55603582 414.03835833 C1.54867403 414.03902148 1.54867403 414.03902148 0.52096151 414.03969802 C-18.37140768 414.05200788 -37.26377458 414.059899 -56.15614796 414.05901146 C-56.86855477 414.0589803 -57.58096159 414.05894914 -58.3149565 414.05891704 C-61.92579542 414.05875083 -65.53663433 414.05855274 -69.14747325 414.05834763 C-69.86460889 414.05830774 -70.58174454 414.05826785 -71.32061156 414.05822675 C-72.77083489 414.05814587 -74.22105822 414.05806228 -75.67128155 414.05797596 C-98.2353886 414.0567504 -120.79943554 414.07176401 -143.36352539 414.09912109 C-168.70960994 414.12983839 -194.05565499 414.1470538 -219.40175933 414.14519465 C-222.10415534 414.14504539 -224.80655135 414.14494797 -227.50894737 414.14488602 C-228.17435402 414.14486271 -228.83976066 414.1448394 -229.52533115 414.14481538 C-239.5727588 414.14475764 -249.6201372 414.15545877 -259.66755104 414.17155075 C-271.09452891 414.18973463 -282.52140828 414.19413285 -293.94839434 414.1805319 C-299.7802315 414.17398822 -305.61187954 414.17393564 -311.44369888 414.1912384 C-316.78127065 414.20691209 -322.11850243 414.20416383 -327.45606562 414.18667014 C-329.38807951 414.18358766 -331.32011843 414.18727933 -333.25210283 414.19839029 C-335.87748459 414.21249027 -338.50167028 414.20194202 -341.1270113 414.18527794 C-342.25328503 414.20018248 -342.25328503 414.20018248 -343.40231177 414.21538812 C-349.73954407 414.13029254 -354.91181086 412.08149041 -359.68359375 407.87109375 C-360.13863281 407.29488281 -360.59367187 406.71867187 -361.0625 406.125 C-361.53558594 405.54621094 -362.00867188 404.96742188 -362.49609375 404.37109375 C-364.98205827 400.66365186 -364.76257605 397.16017206 -364.78613281 392.83276367 C-364.79109772 392.13970627 -364.79606262 391.44664886 -364.80117798 390.73258972 C-364.81578016 388.44020594 -364.8225987 386.14789139 -364.828125 383.85546875 C-364.83387851 382.25987242 -364.83963622 380.66427611 -364.84539795 379.06867981 C-364.85590272 375.72213418 -364.86174866 372.37561253 -364.86523438 369.02905273 C-364.87071487 364.74848049 -364.8947354 360.46822701 -364.92320633 356.18775463 C-364.94186491 352.89084458 -364.94704004 349.59401077 -364.94857025 346.29705238 C-364.95159057 344.71944755 -364.95959813 343.14184386 -364.97275543 341.564291 C-364.98988215 339.35275676 -364.98791988 337.14199426 -364.98144531 334.93041992 C-364.98509094 333.67371994 -364.98873657 332.41701996 -364.99249268 331.12223816 C-364.42155034 325.78597558 -362.38582894 321.84347677 -358.25 318.4375 C-357.68539063 317.95796875 -357.12078125 317.4784375 -356.5390625 316.984375 C-351.90569638 313.84503305 -347.89265834 313.44132501 -342.35620117 313.46044922 C-341.28709 313.46001114 -341.28709 313.46001114 -340.19638062 313.45956421 C-337.85345044 313.46095143 -335.51084299 313.47648364 -333.16796875 313.4921875 C-331.53843866 313.4959198 -329.90890631 313.49876575 -328.27937317 313.50076294 C-324.00006871 313.50838233 -319.720901 313.5280162 -315.44165039 313.5501709 C-311.07114512 313.57066589 -306.70061765 313.57977246 -302.33007812 313.58984375 C-293.76165615 313.61126375 -285.19334511 313.64537915 -276.625 313.6875 C-276.62776538 312.72433837 -276.63053076 311.76117674 -276.63337994 310.76882839 C-276.70024472 287.23565891 -276.74940278 263.70250187 -276.78043652 240.16925716 C-276.79584653 228.78834068 -276.81682264 217.40748729 -276.85131836 206.02661133 C-276.88140164 196.09668368 -276.90061751 186.16680177 -276.90726548 176.23682982 C-276.91114597 170.98839973 -276.92014037 165.74010038 -276.94219017 160.49171257 C-277.17670346 102.35975637 -266.98659345 50.141274 -225.01904297 7.03808594 C-165.61934535 -52.0506185 -68.47513045 -56.13479919 0 0 Z " fill="#000000" transform="translate(364.625,69.3125)"/>
<path d="M0 0 C35.78924377 31.36029047 55.60885949 75.55604365 59.375 122.6875 C59.69337745 129.17087335 59.6297858 135.66147277 59.60205078 142.15063477 C59.60148503 144.0348917 59.60180643 145.91914908 59.60293579 147.80340576 C59.60350389 152.86219483 59.59183858 157.92088686 59.57778788 162.9796536 C59.56518896 168.2873695 59.56410286 173.59508822 59.56173706 178.90281677 C59.55554899 188.92853216 59.53917477 198.95420333 59.51903808 208.97989935 C59.49659534 220.40449564 59.48566469 231.82909416 59.47564721 243.25370705 C59.45480584 266.73166243 59.41968247 290.20957873 59.375 313.6875 C60.27178467 313.67861755 61.16856934 313.66973511 62.0925293 313.6605835 C70.56648345 313.58025339 79.0403087 313.51944219 87.51455688 313.48025131 C91.87071041 313.45942508 96.22654787 313.43119901 100.58251953 313.38574219 C104.79060957 313.34210613 108.99839663 313.3183256 113.20669556 313.30799103 C114.80779791 313.30063137 116.4088847 313.2862598 118.00985718 313.26457977 C135.11047577 313.04233157 135.11047577 313.04233157 142.43359375 319.50390625 C142.88863281 320.08011719 143.34367187 320.65632813 143.8125 321.25 C144.28558594 321.82878906 144.75867188 322.40757812 145.24609375 323.00390625 C147.73205827 326.71134814 147.51257605 330.21482794 147.53613281 334.54223633 C147.54109772 335.23529373 147.54606262 335.92835114 147.55117798 336.64241028 C147.56578016 338.93479406 147.5725987 341.22710861 147.578125 343.51953125 C147.58387851 345.11512758 147.58963622 346.71072389 147.59539795 348.30632019 C147.60590272 351.65286582 147.61174866 354.99938747 147.61523438 358.34594727 C147.62071487 362.62651951 147.6447354 366.90677299 147.67320633 371.18724537 C147.69186491 374.48415542 147.69704004 377.78098923 147.69857025 381.07794762 C147.70159057 382.65555245 147.70959813 384.23315614 147.72275543 385.810709 C147.73988215 388.02224324 147.73791988 390.23300574 147.73144531 392.44458008 C147.73509094 393.70128006 147.73873657 394.95798004 147.74249268 396.25276184 C147.17155034 401.58902442 145.13582894 405.53152323 141 408.9375 C140.15308594 409.65679687 140.15308594 409.65679687 139.2890625 410.390625 C134.46402315 413.65983534 129.94862104 413.97565315 124.25453472 413.94476891 C123.43736616 413.94827498 122.62019759 413.95178105 121.77826634 413.95539337 C119.02843575 413.96472861 116.27881596 413.95977858 113.52897644 413.95492554 C111.54220717 413.95866072 109.55543937 413.96326172 107.56867391 413.96865618 C102.09984021 413.98091783 96.63106754 413.98062199 91.16222322 413.97826743 C85.26775119 413.97786006 79.37329893 413.98889073 73.47883606 413.99838257 C61.92703797 414.0150108 50.37525872 414.02051883 38.82344981 414.02160732 C29.43576184 414.02252613 20.04808049 414.02664132 10.66039467 414.03300858 C7.95894173 414.03480364 5.25748877 414.03658327 2.55603582 414.03835833 C1.54867403 414.03902148 1.54867403 414.03902148 0.52096151 414.03969802 C-18.37140768 414.05200788 -37.26377458 414.059899 -56.15614796 414.05901146 C-56.86855477 414.0589803 -57.58096159 414.05894914 -58.3149565 414.05891704 C-61.92579542 414.05875083 -65.53663433 414.05855274 -69.14747325 414.05834763 C-69.86460889 414.05830774 -70.58174454 414.05826785 -71.32061156 414.05822675 C-72.77083489 414.05814587 -74.22105822 414.05806228 -75.67128155 414.05797596 C-98.2353886 414.0567504 -120.79943554 414.07176401 -143.36352539 414.09912109 C-168.70960994 414.12983839 -194.05565499 414.1470538 -219.40175933 414.14519465 C-222.10415534 414.14504539 -224.80655135 414.14494797 -227.50894737 414.14488602 C-228.17435402 414.14486271 -228.83976066 414.1448394 -229.52533115 414.14481538 C-239.5727588 414.14475764 -249.6201372 414.15545877 -259.66755104 414.17155075 C-271.09452891 414.18973463 -282.52140828 414.19413285 -293.94839434 414.1805319 C-299.7802315 414.17398822 -305.61187954 414.17393564 -311.44369888 414.1912384 C-316.78127065 414.20691209 -322.11850243 414.20416383 -327.45606562 414.18667014 C-329.38807951 414.18358766 -331.32011843 414.18727933 -333.25210283 414.19839029 C-335.87748459 414.21249027 -338.50167028 414.20194202 -341.1270113 414.18527794 C-342.25328503 414.20018248 -342.25328503 414.20018248 -343.40231177 414.21538812 C-349.73954407 414.13029254 -354.91181086 412.08149041 -359.68359375 407.87109375 C-360.13863281 407.29488281 -360.59367187 406.71867187 -361.0625 406.125 C-361.53558594 405.54621094 -362.00867188 404.96742188 -362.49609375 404.37109375 C-364.98205827 400.66365186 -364.76257605 397.16017206 -364.78613281 392.83276367 C-364.79109772 392.13970627 -364.79606262 391.44664886 -364.80117798 390.73258972 C-364.81578016 388.44020594 -364.8225987 386.14789139 -364.828125 383.85546875 C-364.83387851 382.25987242 -364.83963622 380.66427611 -364.84539795 379.06867981 C-364.85590272 375.72213418 -364.86174866 372.37561253 -364.86523438 369.02905273 C-364.87071487 364.74848049 -364.8947354 360.46822701 -364.92320633 356.18775463 C-364.94186491 352.89084458 -364.94704004 349.59401077 -364.94857025 346.29705238 C-364.95159057 344.71944755 -364.95959813 343.14184386 -364.97275543 341.564291 C-364.98988215 339.35275676 -364.98791988 337.14199426 -364.98144531 334.93041992 C-364.98509094 333.67371994 -364.98873657 332.41701996 -364.99249268 331.12223816 C-364.42155034 325.78597558 -362.38582894 321.84347677 -358.25 318.4375 C-357.68539063 317.95796875 -357.12078125 317.4784375 -356.5390625 316.984375 C-351.90569638 313.84503305 -347.89265834 313.44132501 -342.35620117 313.46044922 C-341.28709 313.46001114 -341.28709 313.46001114 -340.19638062 313.45956421 C-337.85345044 313.46095143 -335.51084299 313.47648364 -333.16796875 313.4921875 C-331.53843866 313.4959198 -329.90890631 313.49876575 -328.27937317 313.50076294 C-324.00006871 313.50838233 -319.720901 313.5280162 -315.44165039 313.5501709 C-311.07114512 313.57066589 -306.70061765 313.57977246 -302.33007812 313.58984375 C-293.76165615 313.61126375 -285.19334511 313.64537915 -276.625 313.6875 C-276.62776538 312.72433837 -276.63053076 311.76117674 -276.63337994 310.76882839 C-276.70024472 287.23565891 -276.74940278 263.70250187 -276.78043652 240.16925716 C-276.79584653 228.78834068 -276.81682264 217.40748729 -276.85131836 206.02661133 C-276.88140164 196.09668368 -276.90061751 186.16680177 -276.90726548 176.23682982 C-276.91114597 170.98839973 -276.92014037 165.74010038 -276.94219017 160.49171257 C-277.17670346 102.35975637 -266.98659345 50.141274 -225.01904297 7.03808594 C-165.61934535 -52.0506185 -68.47513045 -56.13479919 0 0 Z M-142.625 -16.3125 C-143.84219727 -15.96590332 -143.84219727 -15.96590332 -145.08398438 -15.61230469 C-185.28039614 -3.83774781 -217.36517363 22.13861754 -237.609375 58.76513672 C-251.12017421 84.33822157 -255.79795569 110.94025192 -255.73852539 139.53955078 C-255.73821869 141.47314387 -255.73835317 143.40673708 -255.73889065 145.34033012 C-255.73911548 150.49662601 -255.73333916 155.65289846 -255.72628021 160.80918884 C-255.72056567 165.65591502 -255.72031603 170.50263563 -255.71960449 175.34936523 C-255.71436685 189.50374657 -255.70040562 203.65812358 -255.6875 217.8125 C-255.666875 249.45125 -255.64625 281.09 -255.625 313.6875 C-158.605 313.6875 -61.585 313.6875 38.375 313.6875 C38.41625 282.1725 38.4575 250.6575 38.5 218.1875 C38.51820801 208.25720703 38.53641602 198.32691406 38.55517578 188.09570312 C38.56186697 179.15057442 38.56186697 179.15057442 38.56588745 170.20544434 C38.56774162 166.23862444 38.57520008 162.27185873 38.58615112 158.30505371 C38.59997856 153.2282332 38.60396226 148.15149027 38.60114455 143.07465267 C38.60173282 141.22203098 38.6056335 139.36940626 38.61343026 137.51680088 C38.67350347 122.53360012 37.69229062 108.05553695 33.8125 93.5 C33.55637939 92.53513672 33.30025879 91.57027344 33.03637695 90.57617188 C25.9136874 64.98207145 12.54803066 42.9464411 -5.625 23.6875 C-6.61693359 22.59888672 -6.61693359 22.59888672 -7.62890625 21.48828125 C-25.53559396 2.5622375 -49.71376804 -9.56235973 -74.625 -16.3125 C-75.28967285 -16.50166992 -75.9543457 -16.69083984 -76.63916016 -16.88574219 C-96.14511766 -22.20416737 -123.2412052 -21.91288006 -142.625 -16.3125 Z " fill="#F9F9F9" transform="translate(364.625,69.3125)"/>
<path d="M0 0 C155.76 0 311.52 0 472 0 C472 19.14 472 38.28 472 58 C316.24 58 160.48 58 0 58 C0 38.86 0 19.72 0 0 Z " fill="#000000" transform="translate(20,404)"/>
</svg>
