<?xml version="1.0" encoding="UTF-8"?>
<svg version="1.1" xmlns="http://www.w3.org/2000/svg" width="512" height="512">
<path d="M0 0 C2.33303692 2.08045743 4.56412869 4.20472569 6.7421875 6.4453125 C10.73084109 4.83469229 13.4078532 2.02070974 16.4296875 -0.9296875 C48.64437434 -31.29893299 88.67971566 -42.66833985 132.06835938 -41.68212891 C167.0257975 -40.4694905 199.54650805 -21.86438227 223.7421875 2.4453125 C242.58300455 22.77574027 254.67230504 48.54898889 260.7421875 75.4453125 C261.19271484 77.35763672 261.19271484 77.35763672 261.65234375 79.30859375 C263.97666447 90.45378379 264.06105425 101.67087978 264.1171875 113.0078125 C264.12504272 113.78360657 264.13289795 114.55940063 264.14099121 115.35870361 C264.26007586 130.49404287 262.40253528 145.20773905 258.1171875 159.7578125 C257.86412842 160.6233374 257.61106934 161.4888623 257.3503418 162.38061523 C245.48712228 201.37685833 220.83932569 233.75426022 193.7421875 263.4453125 C192.93652344 264.34378906 192.13085938 265.24226563 191.30078125 266.16796875 C185.8678475 272.18387005 180.2757416 278.01482847 174.5546875 283.7578125 C173.90169678 284.41539551 173.24870605 285.07297852 172.57592773 285.75048828 C168.7584907 289.55591022 164.82815967 293.16614717 160.7487793 296.68823242 C157.32857209 299.68315045 154.04221916 302.81930594 150.7421875 305.9453125 C143.31720427 312.97874388 135.65075437 319.68870906 127.8671875 326.3203125 C123.71012061 329.86932583 119.59643248 333.45205272 115.5546875 337.1328125 C112.30548351 340.08663431 108.98344065 342.88980998 105.5546875 345.6328125 C100.21066212 349.95206028 95.20588665 354.58348728 90.2199707 359.30932617 C87.19615955 362.17254472 84.1470992 364.9773389 80.98828125 367.69140625 C68.75807322 378.3302244 56.42068229 390.20133549 46.6171875 403.1328125 C46.17600586 403.70572021 45.73482422 404.27862793 45.28027344 404.86889648 C37.43641992 415.76365502 34.79882466 429.15422398 31.76538086 441.97460938 C29.34292512 452.1325186 27.03825026 460.12199596 18.6796875 466.9453125 C13.42239209 469.55059445 7.41729569 469.25804404 1.7421875 468.4453125 C-3.602874 466.38822258 -6.98046404 463.09874845 -10.2578125 458.4453125 C-11.4609375 455.44140625 -11.4609375 455.44140625 -12.5078125 451.8828125 C-12.70906738 451.21733398 -12.91032227 450.55185547 -13.11767578 449.86621094 C-14.53231874 445.12991554 -15.82416202 440.36265146 -17.109375 435.58984375 C-17.44291992 434.37304932 -17.77646484 433.15625488 -18.12011719 431.90258789 C-18.77968648 429.48803636 -19.42435326 427.06934863 -20.05175781 424.64624023 C-25.98772471 402.94572684 -42.29171223 387.218946 -57.8203125 371.7578125 C-58.71427734 370.85998047 -59.60824219 369.96214844 -60.52929688 369.03710938 C-65.61102189 363.96281922 -70.80623055 359.11709842 -76.2578125 354.4453125 C-77.86549623 352.99085733 -79.47020965 351.53310355 -81.0703125 350.0703125 C-84.51159455 346.96002399 -88.02102548 343.98052938 -91.6328125 341.0703125 C-96.18882609 337.38700011 -100.49858741 333.51378944 -104.78344727 329.52514648 C-107.95097106 326.59410395 -111.19860853 323.82518056 -114.5703125 321.1328125 C-119.88129968 316.86093151 -124.83693427 312.26659358 -129.78051758 307.58081055 C-133.53398372 304.02674253 -137.36277908 300.58634748 -141.2644043 297.19580078 C-154.67094642 285.42300139 -168.15468351 272.95968112 -179.671875 259.30859375 C-181.55972657 257.09060065 -183.53484042 254.96289095 -185.5078125 252.8203125 C-214.88327721 220.16433904 -237.89270837 180.82788599 -246.2578125 137.4453125 C-246.53709595 136.04116089 -246.53709595 136.04116089 -246.82202148 134.60864258 C-248.41436098 125.66137969 -248.59711099 116.84951723 -248.57348633 107.79077148 C-248.57033866 105.27868674 -248.59383203 102.76779862 -248.61914062 100.25585938 C-248.67489518 86.04236315 -246.99701389 72.14809858 -243.0703125 58.4453125 C-242.86237061 57.71586426 -242.65442871 56.98641602 -242.44018555 56.23486328 C-231.92052801 21.05893509 -207.37144838 -7.68652309 -175.48510742 -25.36352539 C-117.59088462 -56.22253098 -48.10774715 -41.47166241 0 0 Z " fill="#010101" transform="translate(248.2578125,42.5546875)"/>
<path d="M0 0 C1.04671875 0.52335937 2.0934375 1.04671875 3.171875 1.5859375 C27.335507 14.69055274 43.49676111 38.28915547 52 64 C61.95492919 98.51716376 57.51015252 133.04323293 42 165 C41.68160156 165.65742188 41.36320312 166.31484375 41.03515625 166.9921875 C36.34409495 176.53002999 30.777493 185.45986997 24.416682 193.97963983 C22.96609349 195.95594334 22.96609349 195.95594334 21.91155934 198.0796954 C20.48678682 200.53578327 19.2017156 202.19031709 17 204 C12.40251634 205.21612373 7.81911949 205.10313293 3.09637451 205.04951477 C1.65873385 205.06231747 0.22112061 205.07858821 -1.21644568 205.09802312 C-5.16315919 205.14112325 -9.10844499 205.13428247 -13.05530667 205.11909258 C-17.31327396 205.11128719 -21.57086928 205.14935874 -25.82868958 205.18132019 C-34.16932851 205.23619428 -42.50946805 205.2470491 -50.8502644 205.24114416 C-57.6307029 205.23674629 -64.41098664 205.24610178 -71.19139862 205.26521873 C-73.1443754 205.27062181 -75.09735218 205.276023 -77.05032897 205.28142232 C-78.02238728 205.28411262 -78.99444559 205.28680293 -79.99596021 205.28957476 C-98.38298338 205.33826362 -116.76972043 205.33398971 -135.15677807 205.31425127 C-151.9727358 205.29793567 -168.78764991 205.35081744 -185.60337248 205.43607042 C-202.8725523 205.52294399 -220.14123378 205.56151262 -237.41063571 205.54851311 C-247.10503873 205.54211297 -256.79849584 205.55506226 -266.49271393 205.61901283 C-274.74739246 205.67298404 -283.00059246 205.68151609 -291.25532255 205.63162348 C-295.4660905 205.60743051 -299.67411548 205.60397737 -303.88467598 205.65733719 C-307.74420479 205.70570025 -311.59874254 205.69345378 -315.45807251 205.63398387 C-316.84972254 205.62298184 -318.24175936 205.63368424 -319.63300696 205.66891161 C-329.69474048 205.90614589 -329.69474048 205.90614589 -333.51150197 202.75018702 C-336.40945599 199.68644995 -338.73073589 196.29352687 -340.9384658 192.71136072 C-342.03807267 190.93862084 -343.19829085 189.22180856 -344.38445497 187.50596601 C-355.04552047 172.07593715 -363.53704224 154.92590884 -369 137 C-369.38671875 135.8140625 -369.7734375 134.628125 -370.171875 133.40625 C-379.58049102 103.13505063 -377.54784805 68.18641401 -362.96484375 39.921875 C-357.93068257 30.77159446 -351.4011342 23.3093846 -344 16 C-343.31164062 15.31292969 -342.62328125 14.62585938 -341.9140625 13.91796875 C-319.97477623 -6.58646968 -292.08689948 -10.75134533 -263.34521484 -10.12744141 C-233.63110217 -8.9954339 -206.55983996 7.46883485 -186 28 C-179.23187882 35.39164993 -173.60023695 43.6702706 -167.89453125 51.88671875 C-165.02804531 55.99958867 -162.03359699 60.00933958 -159 64 C-156.2505867 61.36905735 -153.97343708 58.72599196 -151.828125 55.5859375 C-151.25070557 54.74764404 -150.67328613 53.90935059 -150.07836914 53.0456543 C-149.47500732 52.16433838 -148.87164551 51.28302246 -148.25 50.375 C-127.48959905 20.49457642 -101.65945969 -3.38008616 -64.65966797 -10.17333984 C-41.82303888 -13.69787749 -20.4952256 -10.33720941 0 0 Z " fill="#FEFEFE" transform="translate(415,52)"/>
<path d="M0 0 C2.33303692 2.08045743 4.56412869 4.20472569 6.7421875 6.4453125 C10.73084109 4.83469229 13.4078532 2.02070974 16.4296875 -0.9296875 C48.64437434 -31.29893299 88.67971566 -42.66833985 132.06835938 -41.68212891 C167.0257975 -40.4694905 199.54650805 -21.86438227 223.7421875 2.4453125 C242.58300455 22.77574027 254.67230504 48.54898889 260.7421875 75.4453125 C261.19271484 77.35763672 261.19271484 77.35763672 261.65234375 79.30859375 C263.97666447 90.45378379 264.06105425 101.67087978 264.1171875 113.0078125 C264.12504272 113.78360657 264.13289795 114.55940063 264.14099121 115.35870361 C264.26007586 130.49404287 262.40253528 145.20773905 258.1171875 159.7578125 C257.86412842 160.6233374 257.61106934 161.4888623 257.3503418 162.38061523 C245.48712228 201.37685833 220.83932569 233.75426022 193.7421875 263.4453125 C192.93652344 264.34378906 192.13085938 265.24226563 191.30078125 266.16796875 C185.8678475 272.18387005 180.2757416 278.01482847 174.5546875 283.7578125 C173.90169678 284.41539551 173.24870605 285.07297852 172.57592773 285.75048828 C168.7584907 289.55591022 164.82815967 293.16614717 160.7487793 296.68823242 C157.32857209 299.68315045 154.04221916 302.81930594 150.7421875 305.9453125 C143.31720427 312.97874388 135.65075437 319.68870906 127.8671875 326.3203125 C123.71012061 329.86932583 119.59643248 333.45205272 115.5546875 337.1328125 C112.30548351 340.08663431 108.98344065 342.88980998 105.5546875 345.6328125 C100.21066212 349.95206028 95.20588665 354.58348728 90.2199707 359.30932617 C87.19615955 362.17254472 84.1470992 364.9773389 80.98828125 367.69140625 C68.75807322 378.3302244 56.42068229 390.20133549 46.6171875 403.1328125 C46.17600586 403.70572021 45.73482422 404.27862793 45.28027344 404.86889648 C37.43641992 415.76365502 34.79882466 429.15422398 31.76538086 441.97460938 C29.34292512 452.1325186 27.03825026 460.12199596 18.6796875 466.9453125 C13.42239209 469.55059445 7.41729569 469.25804404 1.7421875 468.4453125 C-3.602874 466.38822258 -6.98046404 463.09874845 -10.2578125 458.4453125 C-11.4609375 455.44140625 -11.4609375 455.44140625 -12.5078125 451.8828125 C-12.70906738 451.21733398 -12.91032227 450.55185547 -13.11767578 449.86621094 C-14.53231874 445.12991554 -15.82416202 440.36265146 -17.109375 435.58984375 C-17.44291992 434.37304932 -17.77646484 433.15625488 -18.12011719 431.90258789 C-18.77968648 429.48803636 -19.42435326 427.06934863 -20.05175781 424.64624023 C-25.98772471 402.94572684 -42.29171223 387.218946 -57.8203125 371.7578125 C-58.71427734 370.85998047 -59.60824219 369.96214844 -60.52929688 369.03710938 C-65.61102189 363.96281922 -70.80623055 359.11709842 -76.2578125 354.4453125 C-77.86549623 352.99085733 -79.47020965 351.53310355 -81.0703125 350.0703125 C-84.51159455 346.96002399 -88.02102548 343.98052938 -91.6328125 341.0703125 C-96.18882609 337.38700011 -100.49858741 333.51378944 -104.78344727 329.52514648 C-107.95097106 326.59410395 -111.19860853 323.82518056 -114.5703125 321.1328125 C-119.88129968 316.86093151 -124.83693427 312.26659358 -129.78051758 307.58081055 C-133.53398372 304.02674253 -137.36277908 300.58634748 -141.2644043 297.19580078 C-154.67094642 285.42300139 -168.15468351 272.95968112 -179.671875 259.30859375 C-181.55972657 257.09060065 -183.53484042 254.96289095 -185.5078125 252.8203125 C-214.88327721 220.16433904 -237.89270837 180.82788599 -246.2578125 137.4453125 C-246.53709595 136.04116089 -246.53709595 136.04116089 -246.82202148 134.60864258 C-248.41436098 125.66137969 -248.59711099 116.84951723 -248.57348633 107.79077148 C-248.57033866 105.27868674 -248.59383203 102.76779862 -248.61914062 100.25585938 C-248.67489518 86.04236315 -246.99701389 72.14809858 -243.0703125 58.4453125 C-242.86237061 57.71586426 -242.65442871 56.98641602 -242.44018555 56.23486328 C-231.92052801 21.05893509 -207.37144838 -7.68652309 -175.48510742 -25.36352539 C-117.59088462 -56.22253098 -48.10774715 -41.47166241 0 0 Z M91.7421875 -18.5546875 C91.04528809 -18.38839844 90.34838867 -18.22210937 89.63037109 -18.05078125 C57.77899866 -10.15193344 29.2347542 10.43427304 10.4140625 37.21484375 C8.7421875 39.4453125 8.7421875 39.4453125 6.7421875 40.4453125 C6.46632812 39.86265625 6.19046875 39.28 5.90625 38.6796875 C-2.01551079 23.47416008 -17.92264773 10.42618321 -32.2578125 1.4453125 C-32.83241211 1.08501953 -33.40701172 0.72472656 -33.99902344 0.35351562 C-63.5062952 -17.84784666 -99.2372471 -25.96363761 -133.49609375 -18.453125 C-135.35814453 -18.00839844 -135.35814453 -18.00839844 -137.2578125 -17.5546875 C-138.40636719 -17.29945312 -139.55492187 -17.04421875 -140.73828125 -16.78125 C-156.71518985 -12.7732338 -171.53553934 -4.93750206 -184.2578125 5.4453125 C-184.77923828 5.87038086 -185.30066406 6.29544922 -185.83789062 6.73339844 C-204.79534135 22.49963875 -217.30609244 43.91815754 -224.0078125 67.5078125 C-224.20656982 68.20293945 -224.40532715 68.89806641 -224.61010742 69.61425781 C-236.31940878 113.11885453 -223.49451651 157.88454759 -201.7578125 195.90625 C-192.28094561 211.83437751 -180.69189942 226.73144057 -168.2578125 240.4453125 C-167.41476563 241.37520996 -166.57171875 242.30510742 -165.703125 243.26318359 C-158.74284931 250.89315674 -151.5720142 258.28817391 -144.25634766 265.57714844 C-142.49132706 267.3367473 -140.73180117 269.10171647 -138.97265625 270.8671875 C-133.76166174 276.08124388 -128.54910468 281.22833433 -122.93505859 286.01318359 C-120.36639173 288.20645868 -117.91680999 290.51819036 -115.4453125 292.8203125 C-111.67040123 296.31298741 -107.83222965 299.66041257 -103.8203125 302.8828125 C-99.04159622 306.72641307 -94.56623563 310.81491414 -90.09399414 315.00366211 C-86.74681923 318.12085195 -83.32776227 321.08105048 -79.7578125 323.9453125 C-74.35406842 328.28408512 -69.30913055 332.94717956 -64.24609375 337.671875 C-61.9542284 339.80885564 -59.63022493 341.89754598 -57.2578125 343.9453125 C-43.95458608 355.48411099 -31.08320409 367.5131686 -20.2578125 381.4453125 C-19.48308594 382.43789063 -18.70835937 383.43046875 -17.91015625 384.453125 C-9.95515227 394.83845574 -3.47199347 404.95186795 -0.28515625 417.734375 C-0.11657608 418.40068939 0.05200409 419.06700378 0.22569275 419.75350952 C0.75747444 421.85778551 1.28169531 423.96383634 1.8046875 426.0703125 C2.33206969 428.18370309 2.86118404 430.2966107 3.39439392 432.40853882 C3.87639922 434.31903991 4.35255156 436.23101485 4.82836914 438.14306641 C5.62561685 441.0240636 6.5642483 443.7020952 7.7421875 446.4453125 C9.84278348 442.71627285 10.94383177 438.72100196 12.1171875 434.6328125 C12.33705322 433.88233643 12.55691895 433.13186035 12.78344727 432.35864258 C13.83853923 428.72528676 14.84821738 425.08960116 15.74609375 421.4140625 C19.1244385 407.73105949 24.87090419 397.34325435 33.7421875 386.4453125 C34.17241211 385.91212402 34.60263672 385.37893555 35.04589844 384.82958984 C45.25069383 372.2792478 56.64687154 360.62394644 68.88916016 350.05541992 C71.50128958 347.7857238 74.02251916 345.42894763 76.5546875 343.0703125 C81.20742257 338.76594211 86.02135138 334.73219213 90.9609375 330.7578125 C94.51562331 327.80223104 97.88564115 324.6735549 101.26831055 321.5246582 C104.43570172 318.59381451 107.68316451 315.82503604 111.0546875 313.1328125 C117.0925155 308.27629868 122.67440359 302.97518634 128.30859375 297.6640625 C131.32778472 294.82094367 134.41363937 292.07305947 137.55493164 289.36572266 C147.14973334 280.94148891 156.29133596 272.05821734 165.30126953 263.01660156 C167.13329745 261.1791549 168.97069355 259.347196 170.80859375 257.515625 C176.66493963 251.66317891 182.42522127 245.79982076 187.7421875 239.4453125 C188.27392578 238.8255957 188.80566406 238.20587891 189.35351562 237.56738281 C204.49501312 219.87829686 217.2520227 201.24985211 227.7421875 180.4453125 C228.09893555 179.74519043 228.45568359 179.04506836 228.82324219 178.32373047 C238.81316395 158.36893689 244.15636741 135.50066106 244.0546875 113.2578125 C244.04977295 111.97986816 244.0448584 110.70192383 244.03979492 109.38525391 C243.9202891 99.72060346 243.05425868 90.82668228 240.7421875 81.4453125 C240.57058105 80.69137207 240.39897461 79.93743164 240.22216797 79.16064453 C232.70242598 46.14501237 214.35394533 16.12799226 185.53808594 -2.43017578 C157.66495418 -19.88309107 123.84810905 -26.22447736 91.7421875 -18.5546875 Z " fill="#FDFDFD" transform="translate(248.2578125,42.5546875)"/>
</svg>
