<?xml version="1.0" encoding="UTF-8"?>
<svg version="1.1" xmlns="http://www.w3.org/2000/svg" width="512" height="512">
<path d="M0 0 C3.07344483 0.00314853 6.14591221 -0.02035842 9.21923828 -0.0456543 C27.66470758 -0.1053439 45.78446262 1.83636935 63.78564453 5.94067383 C64.90116699 6.19445801 66.01668945 6.44824219 67.16601562 6.7097168 C118.5528567 18.90479542 166.7806353 47.66789207 198.47314453 90.31567383 C199.09705078 91.14454102 199.72095703 91.9734082 200.36376953 92.82739258 C227.08862811 129.60529376 238.43199738 175.32981982 231.47314453 220.31567383 C227.36406548 243.24397607 219.46397966 265.82942114 206.47314453 285.31567383 C206.78655069 288.71294627 208.1443937 290.33969705 210.55249023 292.65625 C211.52403801 293.6032502 211.52403801 293.6032502 212.51521301 294.56938171 C213.21933823 295.2423378 213.92346344 295.91529388 214.64892578 296.60864258 C216.13161316 298.05824086 217.61402628 299.50811969 219.09619141 300.95825195 C221.43536361 303.22933811 223.77839662 305.49619645 226.12719727 307.75732422 C228.39554989 309.94665686 230.64780477 312.15161487 232.89892578 314.35864258 C233.94600456 315.35289497 233.94600456 315.35289497 235.01423645 316.36723328 C240.55907397 321.82718198 244.50780797 327.80307973 245.03564453 335.75317383 C244.42854236 344.87226714 238.6744282 351.8580688 232.39135742 357.99682617 C231.69800797 358.69411835 231.00465851 359.39141052 230.29029846 360.10983276 C228.02072202 362.38606154 225.73384424 364.64395884 223.44580078 366.90161133 C221.85211342 368.49104272 220.2593908 370.08144197 218.66758728 371.67276001 C215.3405978 374.99360498 212.00554816 378.3060501 208.66381836 381.61206055 C204.38704628 385.84347061 200.12577299 390.09007341 195.86977482 394.34236717 C192.58570381 397.62200444 189.29622573 400.89617089 186.00481987 404.16844559 C184.43174892 405.73265902 182.85973241 407.29793361 181.28880501 408.86429977 C179.09236709 411.05166674 176.88939376 413.23222573 174.68432617 415.41088867 C174.04049988 416.05405029 173.39667358 416.69721191 172.7333374 417.35986328 C166.69044227 423.30342658 161.59292044 427.41391231 152.78564453 427.62817383 C145.16718877 427.54546442 140.6553329 425.5783109 135.35351562 420.22436523 C134.81391205 419.68067291 134.27430847 419.13698059 133.71835327 418.57681274 C133.30743439 418.1606369 132.8965155 417.74446106 132.47314453 417.31567383 C132.4694989 418.30015503 132.46585327 419.28463623 132.46209717 420.2989502 C132.42508342 429.59725707 132.3672412 438.89523472 132.28924179 448.19329071 C132.24980861 452.97303092 132.21759976 457.75258804 132.20214844 462.5324707 C132.18695441 467.14925496 132.15246031 471.76553574 132.10483551 476.38209534 C132.09004998 478.13940544 132.08210514 479.89678744 132.08126068 481.65415955 C132.07888067 484.12455307 132.05172008 486.59356677 132.01904297 489.0637207 C132.02407333 489.78301758 132.0291037 490.50231445 132.0342865 491.2434082 C131.90713131 497.49596446 129.80826407 502.66920502 125.65673828 507.37426758 C125.08052734 507.82930664 124.50431641 508.2843457 123.91064453 508.75317383 C123.33185547 509.22625977 122.75306641 509.6993457 122.15673828 510.18676758 C118.54879913 512.60601216 115.19679924 512.45250576 110.9855957 512.47680664 C110.33155258 512.48177155 109.67750946 512.48673645 109.00364685 512.49185181 C106.84112492 512.50644932 104.67867638 512.51327179 102.51611328 512.51879883 C101.01019794 512.5245528 99.50428262 512.5303105 97.99836731 512.53607178 C94.84013529 512.54657527 91.68192867 512.55242202 88.52368164 512.5559082 C84.48523762 512.56138791 80.4471316 512.5854072 76.40879345 512.61388016 C73.29717543 512.63254488 70.18563815 512.63771419 67.07396889 512.63924408 C65.58567777 512.64226311 64.09738781 512.65026629 62.60915184 512.66342926 C60.52213546 512.68056881 58.43593601 512.67859074 56.34887695 512.67211914 C55.16323654 512.67576477 53.97759613 512.6794104 52.75602722 512.6831665 C49.47314453 512.31567383 49.47314453 512.31567383 46.35591125 510.605896 C44.92894173 509.96723602 44.92894173 509.96723602 43.47314453 509.31567383 C40.96024805 510.58853732 40.96024805 510.58853732 38.47314453 512.31567383 C35.24131775 512.68989563 35.24131775 512.68989563 31.54321289 512.68798828 C30.86615799 512.69163895 30.18910309 512.69528961 29.49153137 512.6990509 C27.26509107 512.70712286 25.03938624 512.69357648 22.81298828 512.67895508 C21.26029969 512.67843612 19.70761043 512.67895519 18.15492249 512.6804657 C14.90599721 512.68037613 11.65732088 512.66997713 8.40844727 512.65185547 C4.24659525 512.62914983 0.08510613 512.62862924 -4.07679081 512.63537312 C-7.28099283 512.63871606 -10.48511228 512.63207721 -13.68929863 512.62224388 C-15.22387701 512.61839862 -16.75846458 512.61724087 -18.29304695 512.61882973 C-20.43764854 512.61920105 -22.58178651 512.60656262 -24.72631836 512.59033203 C-25.94589737 512.58572464 -27.16547638 512.58111725 -28.42201233 512.57637024 C-31.41886484 512.3247412 -32.95375454 511.74420385 -35.52685547 510.31567383 C-38.38103766 510.66374483 -40.79564888 511.40527163 -43.52685547 512.31567383 C-45.67670308 512.4302194 -47.82989748 512.48502726 -49.98266602 512.50854492 C-50.63349655 512.51672241 -51.28432709 512.5248999 -51.95487976 512.5333252 C-54.10776871 512.55812529 -56.26059179 512.57468416 -58.41357422 512.58911133 C-59.15105204 512.59443501 -59.88852985 512.59975868 -60.64835548 512.60524368 C-64.5543781 512.63195608 -68.46036901 512.65133419 -72.36645508 512.66577148 C-75.5897268 512.67909112 -78.81236248 512.7069085 -82.03540039 512.74780273 C-85.93578406 512.79728476 -89.83559252 512.82191155 -93.73627663 512.82899857 C-95.21737767 512.83568579 -96.69846714 512.85084175 -98.17938805 512.87488937 C-113.47827533 513.10907879 -113.47827533 513.10907879 -119.52685547 507.31567383 C-123.88684537 501.72594319 -124.67896092 497.44307078 -124.73217773 490.53955078 C-124.74207733 489.74907349 -124.75197693 488.95859619 -124.76217651 488.14416504 C-124.7937694 485.53079221 -124.81854021 482.9174012 -124.84326172 480.30395508 C-124.86383315 478.49219795 -124.88482968 476.68044559 -124.90623474 474.86869812 C-124.96143582 470.09955719 -125.01085378 465.33037309 -125.05908203 460.56115723 C-125.10931137 455.69478512 -125.16498996 450.82847573 -125.22021484 445.9621582 C-125.32777241 436.41338365 -125.42922275 426.86455465 -125.52685547 417.31567383 C-126.11853516 417.8699707 -126.71021484 418.42426758 -127.31982422 418.99536133 C-128.11001953 419.71981445 -128.90021484 420.44426758 -129.71435547 421.19067383 C-130.49166016 421.9099707 -131.26896484 422.62926758 -132.06982422 423.37036133 C-136.35969442 426.76679274 -140.06021643 427.60730843 -145.46435547 427.62817383 C-146.46337891 427.64493164 -147.46240234 427.66168945 -148.49169922 427.67895508 C-161.53956926 426.1172409 -173.44678358 409.57410598 -182.32763672 400.71801758 C-183.01830923 400.03017244 -183.70898174 399.34232731 -184.42058372 398.63363838 C-188.06652052 395.00258178 -191.70965922 391.36874638 -195.3503418 387.73242188 C-199.09356914 383.99470303 -202.84600742 380.26637491 -206.60062885 376.54010677 C-209.50626274 373.65313857 -212.40512617 370.75944326 -215.30220604 367.86389351 C-216.68272359 366.48638751 -218.06572382 365.11136468 -219.45131874 363.73896599 C-221.38905575 361.81839301 -223.31698645 359.88845449 -225.24291992 357.95605469 C-225.80768036 357.40050903 -226.3724408 356.84496338 -226.95431519 356.27258301 C-232.46478439 350.70431186 -237.51983159 344.34914149 -237.90185547 336.25317383 C-237.70212578 327.6845544 -232.85113335 321.05367243 -226.90335083 315.25393677 C-226.20418549 314.59626312 -225.50502014 313.93858948 -224.78466797 313.26098633 C-224.05690155 312.55215302 -223.32913513 311.8433197 -222.57931519 311.11300659 C-220.28202834 308.87622097 -217.96921295 306.65664692 -215.65185547 304.44067383 C-212.57773302 301.49922004 -209.5203736 298.54176132 -206.47216797 295.57348633 C-205.76085724 294.9036673 -205.04954651 294.23384827 -204.31668091 293.54373169 C-203.34974808 292.60157303 -203.34974808 292.60157303 -202.36328125 291.64038086 C-201.78990021 291.0931839 -201.21651917 290.54598694 -200.62576294 289.98220825 C-199.30677219 288.36554206 -199.30677219 288.36554206 -199.73800659 286.30709839 C-200.72191402 283.82325455 -202.04073319 281.58225737 -203.40869141 279.29248047 C-226.05431114 241.37652039 -232.1557971 195.06874149 -221.75537109 152.34765625 C-210.8287948 110.29187966 -183.83193214 72.5375322 -148.52685547 47.31567383 C-147.86524414 46.84210449 -147.20363281 46.36853516 -146.52197266 45.88061523 C-113.93741399 22.83466631 -77.02191286 8.16517944 -37.52685547 2.31567383 C-36.34687988 2.13834717 -35.1669043 1.96102051 -33.95117188 1.77832031 C-22.64203734 0.20215616 -11.40649436 -0.02430745 0 0 Z " fill="#000000" transform="translate(252.52685546875,-0.315673828125)"/>
<path d="M0 0 C3.07344483 0.00314853 6.14591221 -0.02035842 9.21923828 -0.0456543 C27.66470758 -0.1053439 45.78446262 1.83636935 63.78564453 5.94067383 C64.90116699 6.19445801 66.01668945 6.44824219 67.16601562 6.7097168 C118.5528567 18.90479542 166.7806353 47.66789207 198.47314453 90.31567383 C199.09705078 91.14454102 199.72095703 91.9734082 200.36376953 92.82739258 C227.08862811 129.60529376 238.43199738 175.32981982 231.47314453 220.31567383 C227.36406548 243.24397607 219.46397966 265.82942114 206.47314453 285.31567383 C206.78655069 288.71294627 208.1443937 290.33969705 210.55249023 292.65625 C211.52403801 293.6032502 211.52403801 293.6032502 212.51521301 294.56938171 C213.21933823 295.2423378 213.92346344 295.91529388 214.64892578 296.60864258 C216.13161316 298.05824086 217.61402628 299.50811969 219.09619141 300.95825195 C221.43536361 303.22933811 223.77839662 305.49619645 226.12719727 307.75732422 C228.39554989 309.94665686 230.64780477 312.15161487 232.89892578 314.35864258 C233.94600456 315.35289497 233.94600456 315.35289497 235.01423645 316.36723328 C240.55907397 321.82718198 244.50780797 327.80307973 245.03564453 335.75317383 C244.42854236 344.87226714 238.6744282 351.8580688 232.39135742 357.99682617 C231.69800797 358.69411835 231.00465851 359.39141052 230.29029846 360.10983276 C228.02072202 362.38606154 225.73384424 364.64395884 223.44580078 366.90161133 C221.85211342 368.49104272 220.2593908 370.08144197 218.66758728 371.67276001 C215.3405978 374.99360498 212.00554816 378.3060501 208.66381836 381.61206055 C204.38704628 385.84347061 200.12577299 390.09007341 195.86977482 394.34236717 C192.58570381 397.62200444 189.29622573 400.89617089 186.00481987 404.16844559 C184.43174892 405.73265902 182.85973241 407.29793361 181.28880501 408.86429977 C179.09236709 411.05166674 176.88939376 413.23222573 174.68432617 415.41088867 C174.04049988 416.05405029 173.39667358 416.69721191 172.7333374 417.35986328 C166.69044227 423.30342658 161.59292044 427.41391231 152.78564453 427.62817383 C145.16718877 427.54546442 140.6553329 425.5783109 135.35351562 420.22436523 C134.81391205 419.68067291 134.27430847 419.13698059 133.71835327 418.57681274 C133.30743439 418.1606369 132.8965155 417.74446106 132.47314453 417.31567383 C132.4694989 418.30015503 132.46585327 419.28463623 132.46209717 420.2989502 C132.42508342 429.59725707 132.3672412 438.89523472 132.28924179 448.19329071 C132.24980861 452.97303092 132.21759976 457.75258804 132.20214844 462.5324707 C132.18695441 467.14925496 132.15246031 471.76553574 132.10483551 476.38209534 C132.09004998 478.13940544 132.08210514 479.89678744 132.08126068 481.65415955 C132.07888067 484.12455307 132.05172008 486.59356677 132.01904297 489.0637207 C132.02407333 489.78301758 132.0291037 490.50231445 132.0342865 491.2434082 C131.90713131 497.49596446 129.80826407 502.66920502 125.65673828 507.37426758 C125.08052734 507.82930664 124.50431641 508.2843457 123.91064453 508.75317383 C123.33185547 509.22625977 122.75306641 509.6993457 122.15673828 510.18676758 C118.54879913 512.60601216 115.19679924 512.45250576 110.9855957 512.47680664 C110.33155258 512.48177155 109.67750946 512.48673645 109.00364685 512.49185181 C106.84112492 512.50644932 104.67867638 512.51327179 102.51611328 512.51879883 C101.01019794 512.5245528 99.50428262 512.5303105 97.99836731 512.53607178 C94.84013529 512.54657527 91.68192867 512.55242202 88.52368164 512.5559082 C84.48523762 512.56138791 80.4471316 512.5854072 76.40879345 512.61388016 C73.29717543 512.63254488 70.18563815 512.63771419 67.07396889 512.63924408 C65.58567777 512.64226311 64.09738781 512.65026629 62.60915184 512.66342926 C60.52213546 512.68056881 58.43593601 512.67859074 56.34887695 512.67211914 C55.16323654 512.67576477 53.97759613 512.6794104 52.75602722 512.6831665 C49.47314453 512.31567383 49.47314453 512.31567383 46.35591125 510.605896 C44.92894173 509.96723602 44.92894173 509.96723602 43.47314453 509.31567383 C40.96024805 510.58853732 40.96024805 510.58853732 38.47314453 512.31567383 C35.24131775 512.68989563 35.24131775 512.68989563 31.54321289 512.68798828 C30.86615799 512.69163895 30.18910309 512.69528961 29.49153137 512.6990509 C27.26509107 512.70712286 25.03938624 512.69357648 22.81298828 512.67895508 C21.26029969 512.67843612 19.70761043 512.67895519 18.15492249 512.6804657 C14.90599721 512.68037613 11.65732088 512.66997713 8.40844727 512.65185547 C4.24659525 512.62914983 0.08510613 512.62862924 -4.07679081 512.63537312 C-7.28099283 512.63871606 -10.48511228 512.63207721 -13.68929863 512.62224388 C-15.22387701 512.61839862 -16.75846458 512.61724087 -18.29304695 512.61882973 C-20.43764854 512.61920105 -22.58178651 512.60656262 -24.72631836 512.59033203 C-25.94589737 512.58572464 -27.16547638 512.58111725 -28.42201233 512.57637024 C-31.41886484 512.3247412 -32.95375454 511.74420385 -35.52685547 510.31567383 C-38.38103766 510.66374483 -40.79564888 511.40527163 -43.52685547 512.31567383 C-45.67670308 512.4302194 -47.82989748 512.48502726 -49.98266602 512.50854492 C-50.63349655 512.51672241 -51.28432709 512.5248999 -51.95487976 512.5333252 C-54.10776871 512.55812529 -56.26059179 512.57468416 -58.41357422 512.58911133 C-59.15105204 512.59443501 -59.88852985 512.59975868 -60.64835548 512.60524368 C-64.5543781 512.63195608 -68.46036901 512.65133419 -72.36645508 512.66577148 C-75.5897268 512.67909112 -78.81236248 512.7069085 -82.03540039 512.74780273 C-85.93578406 512.79728476 -89.83559252 512.82191155 -93.73627663 512.82899857 C-95.21737767 512.83568579 -96.69846714 512.85084175 -98.17938805 512.87488937 C-113.47827533 513.10907879 -113.47827533 513.10907879 -119.52685547 507.31567383 C-123.88684537 501.72594319 -124.67896092 497.44307078 -124.73217773 490.53955078 C-124.74207733 489.74907349 -124.75197693 488.95859619 -124.76217651 488.14416504 C-124.7937694 485.53079221 -124.81854021 482.9174012 -124.84326172 480.30395508 C-124.86383315 478.49219795 -124.88482968 476.68044559 -124.90623474 474.86869812 C-124.96143582 470.09955719 -125.01085378 465.33037309 -125.05908203 460.56115723 C-125.10931137 455.69478512 -125.16498996 450.82847573 -125.22021484 445.9621582 C-125.32777241 436.41338365 -125.42922275 426.86455465 -125.52685547 417.31567383 C-126.11853516 417.8699707 -126.71021484 418.42426758 -127.31982422 418.99536133 C-128.11001953 419.71981445 -128.90021484 420.44426758 -129.71435547 421.19067383 C-130.49166016 421.9099707 -131.26896484 422.62926758 -132.06982422 423.37036133 C-136.35969442 426.76679274 -140.06021643 427.60730843 -145.46435547 427.62817383 C-146.46337891 427.64493164 -147.46240234 427.66168945 -148.49169922 427.67895508 C-161.53956926 426.1172409 -173.44678358 409.57410598 -182.32763672 400.71801758 C-183.01830923 400.03017244 -183.70898174 399.34232731 -184.42058372 398.63363838 C-188.06652052 395.00258178 -191.70965922 391.36874638 -195.3503418 387.73242188 C-199.09356914 383.99470303 -202.84600742 380.26637491 -206.60062885 376.54010677 C-209.50626274 373.65313857 -212.40512617 370.75944326 -215.30220604 367.86389351 C-216.68272359 366.48638751 -218.06572382 365.11136468 -219.45131874 363.73896599 C-221.38905575 361.81839301 -223.31698645 359.88845449 -225.24291992 357.95605469 C-225.80768036 357.40050903 -226.3724408 356.84496338 -226.95431519 356.27258301 C-232.46478439 350.70431186 -237.51983159 344.34914149 -237.90185547 336.25317383 C-237.70212578 327.6845544 -232.85113335 321.05367243 -226.90335083 315.25393677 C-226.20418549 314.59626312 -225.50502014 313.93858948 -224.78466797 313.26098633 C-224.05690155 312.55215302 -223.32913513 311.8433197 -222.57931519 311.11300659 C-220.28202834 308.87622097 -217.96921295 306.65664692 -215.65185547 304.44067383 C-212.57773302 301.49922004 -209.5203736 298.54176132 -206.47216797 295.57348633 C-205.76085724 294.9036673 -205.04954651 294.23384827 -204.31668091 293.54373169 C-203.34974808 292.60157303 -203.34974808 292.60157303 -202.36328125 291.64038086 C-201.78990021 291.0931839 -201.21651917 290.54598694 -200.62576294 289.98220825 C-199.30677219 288.36554206 -199.30677219 288.36554206 -199.73800659 286.30709839 C-200.72191402 283.82325455 -202.04073319 281.58225737 -203.40869141 279.29248047 C-226.05431114 241.37652039 -232.1557971 195.06874149 -221.75537109 152.34765625 C-210.8287948 110.29187966 -183.83193214 72.5375322 -148.52685547 47.31567383 C-147.86524414 46.84210449 -147.20363281 46.36853516 -146.52197266 45.88061523 C-113.93741399 22.83466631 -77.02191286 8.16517944 -37.52685547 2.31567383 C-36.34687988 2.13834717 -35.1669043 1.96102051 -33.95117188 1.77832031 C-22.64203734 0.20215616 -11.40649436 -0.02430745 0 0 Z M-103.52685547 44.31567383 C-104.58694824 44.82735107 -104.58694824 44.82735107 -105.66845703 45.34936523 C-121.2955073 52.97812306 -135.42185519 62.89916553 -148.52685547 74.31567383 C-149.0313623 74.75314941 -149.53586914 75.190625 -150.05566406 75.64135742 C-168.80062859 92.01829728 -183.28949905 111.61086791 -193.52685547 134.31567383 C-194.06955078 135.49000977 -194.61224609 136.6643457 -195.17138672 137.87426758 C-209.15561521 170.1973071 -209.9108605 209.94613535 -197.71435547 242.94067383 C-191.13093479 259.49069181 -182.26970429 275.14069409 -171.52685547 289.31567383 C-176.27821821 295.03267921 -181.37300134 300.29256806 -186.64404297 305.53051758 C-187.50119904 306.3862587 -188.3583551 307.24199982 -189.2414856 308.12367249 C-191.95925501 310.83587848 -194.68049438 313.54457213 -197.40185547 316.25317383 C-199.25364889 318.09994752 -201.10521381 319.94695036 -202.95654297 321.79418945 C-207.47733982 326.30400584 -212.00098492 330.81094952 -216.52685547 335.31567383 C-212.54150606 340.09204082 -208.38203602 344.60151152 -203.97070312 348.98535156 C-203.34559845 349.61060226 -202.72049377 350.23585297 -202.07644653 350.88005066 C-200.03363467 352.92217234 -197.9873164 354.96074055 -195.94091797 356.99926758 C-194.51437864 358.42393954 -193.08806163 359.84883415 -191.66195679 361.27394104 C-187.92581702 365.0062807 -184.18668285 368.7356062 -180.44689941 372.46429443 C-176.6240685 376.27685712 -172.8041016 380.09228705 -168.98388672 383.9074707 C-161.5009968 391.37966754 -154.0149377 398.84868061 -146.52685547 406.31567383 C-129.65610498 397.88029858 -118.86435482 380.65317318 -105.52685547 367.31567383 C-105.19685547 408.56567383 -104.86685547 449.81567383 -104.52685547 492.31567383 C-86.70685547 492.31567383 -68.88685547 492.31567383 -50.52685547 492.31567383 C-50.03185547 453.70567383 -50.03185547 453.70567383 -49.52685547 414.31567383 C-41.27685547 413.98567383 -33.02685547 413.65567383 -24.52685547 413.31567383 C-24.52685547 439.38567383 -24.52685547 465.45567383 -24.52685547 492.31567383 C-6.04685547 492.31567383 12.43314453 492.31567383 31.47314453 492.31567383 C31.47314453 466.24567383 31.47314453 440.17567383 31.47314453 413.31567383 C39.72314453 413.31567383 47.97314453 413.31567383 56.47314453 413.31567383 C56.47314453 439.38567383 56.47314453 465.45567383 56.47314453 492.31567383 C74.62314453 492.31567383 92.77314453 492.31567383 111.47314453 492.31567383 C111.80314453 451.06567383 112.13314453 409.81567383 112.47314453 367.31567383 C125.34314453 380.18567383 138.21314453 393.05567383 151.47314453 406.31567383 C154.6795566 404.71246779 156.15910772 403.87902189 158.53570557 401.49362183 C159.1133667 400.91871002 159.69102783 400.34379822 160.28619385 399.75146484 C160.90766296 399.12280518 161.52913208 398.49414551 162.16943359 397.84643555 C162.8332605 397.1829007 163.4970874 396.51936584 164.18103027 395.83572388 C166.37171786 393.64364413 168.55523817 391.44456758 170.73876953 389.24536133 C172.2571929 387.72320744 173.77605874 386.20149481 175.29534912 384.6802063 C179.29134084 380.67658128 183.28128982 376.66698624 187.27001953 372.65612793 C191.34191508 368.56376754 195.41948379 364.47706854 199.49658203 360.38989258 C207.49433924 352.37069077 215.48572556 344.34517202 223.47314453 336.31567383 C220.16751273 332.39946391 216.84426347 328.56139696 213.21191406 324.94091797 C212.43155792 324.16063736 211.65120178 323.38035675 210.84719849 322.57643127 C210.02508881 321.75948288 209.20297913 320.94253448 208.35595703 320.10083008 C207.49880096 319.24508896 206.6416449 318.38934784 205.7585144 317.50767517 C203.04074499 314.79546918 200.31950562 312.08677553 197.59814453 309.37817383 C195.74635111 307.53140014 193.89478619 305.6843973 192.04345703 303.8371582 C187.52266018 299.32734181 182.99901508 294.82039813 178.47314453 290.31567383 C179.9558556 287.23816949 181.6857351 284.50188143 183.64550781 281.70092773 C207.49808528 247.33517255 217.57580327 207.44989435 210.30981445 166.06176758 C204.49624671 135.81454209 189.15184417 109.01594787 167.953125 86.86303711 C166.95489411 85.81935724 165.96182384 84.77072019 164.97363281 83.7175293 C147.63081333 65.27727349 126.30190688 51.98530843 103.47314453 41.31567383 C101.8740625 40.5519043 101.8740625 40.5519043 100.24267578 39.77270508 C70.82459002 26.40736283 37.85194563 19.83960136 5.59814453 20.00317383 C4.84368042 20.00499664 4.08921631 20.00681946 3.31188965 20.00869751 C-33.93405164 20.15884332 -69.98273098 27.94719661 -103.52685547 44.31567383 Z " fill="#FDFDFD" transform="translate(252.52685546875,-0.315673828125)"/>
<path d="M0 0 C1.06734375 0.90685547 1.06734375 0.90685547 2.15625 1.83203125 C2.7646875 2.34378906 3.373125 2.85554688 4 3.3828125 C14.77495071 13.25168781 21.72327082 27.93488927 22.59765625 42.44140625 C22.94594075 53.17155153 22.52155158 62.89918109 18.15625 72.83203125 C17.79402344 73.70601563 17.43179688 74.58 17.05859375 75.48046875 C9.11453784 92.98432076 -5.44294144 103.3372285 -22.89453125 109.99609375 C-39.72675073 114.76708046 -57.33442128 112.07089628 -72.515625 103.84765625 C-77.60725547 100.76399272 -81.70022105 97.07697525 -85.84375 92.83203125 C-86.53984375 92.17976563 -87.2359375 91.5275 -87.953125 90.85546875 C-99.71671452 79.04628392 -104.24042036 62.65287028 -104.21533203 46.43505859 C-103.7642657 29.51447932 -96.4930003 14.91008831 -84.84375 2.83203125 C-77.84566908 -3.32475032 -70.52384478 -7.81204304 -61.84375 -11.16796875 C-60.791875 -11.58046875 -59.74 -11.99296875 -58.65625 -12.41796875 C-38.12639368 -17.8925971 -16.41995426 -13.35527102 0 0 Z " fill="#FDFDFD" transform="translate(190.84375,167.16796875)"/>
<path d="M0 0 C12.49121013 10.28642939 22.71450333 23.43959266 25.42822266 39.79882812 C26.91273649 59.29293768 24.8792638 75.72020953 12.36181641 91.38476562 C5.50136305 99.3309603 -1.62449044 105.10170088 -11.07177734 109.61132812 C-11.97887451 110.04674927 -11.97887451 110.04674927 -12.90429688 110.4909668 C-27.54473779 117.13306241 -45.17828036 116.87419095 -60.08740234 111.27539062 C-69.36471345 107.34397403 -76.40425203 101.84170082 -83.57177734 94.79882812 C-84.13767578 94.24582031 -84.70357422 93.6928125 -85.28662109 93.12304688 C-95.65620424 82.03832006 -100.53044545 66.57482471 -101.00927734 51.61132812 C-100.21001949 33.80967591 -93.44913161 18.10436382 -80.57177734 5.79882812 C-79.95947266 5.1671875 -79.34716797 4.53554687 -78.71630859 3.88476562 C-58.43987937 -15.74316373 -22.25225469 -17.00545093 0 0 Z " fill="#FEFEFE" transform="translate(398.57177734375,164.201171875)"/>
<path d="M0 0 C0.66 0 1.32 0 2 0 C2.4125 1.21171875 2.825 2.4234375 3.25 3.671875 C6.57787217 13.35872613 10.06035008 22.94345885 13.98242188 32.40722656 C16.01134783 37.35139876 17.84201626 42.34772992 19.59765625 47.39453125 C23.9412702 59.85452397 28.69217449 72.16463085 33.375 84.5 C34.76235416 88.15556047 36.14912913 91.81133441 37.53384399 95.46789551 C38.38918789 97.72654708 39.2460542 99.98462282 40.10458374 102.24206543 C40.48563263 103.24821899 40.86668152 104.25437256 41.25927734 105.29101562 C41.59647797 106.17905884 41.93367859 107.06710205 42.28109741 107.98205566 C43 110 43 110 43 111 C15.28 111 -12.44 111 -41 111 C-39.23050352 105.10167838 -37.56699278 99.60770751 -35.328125 93.9453125 C-34.82713411 92.66838127 -34.3261581 91.39144421 -33.82519531 90.11450195 C-33.56790649 89.46309235 -33.31061768 88.81168274 -33.04553223 88.14053345 C-29.275694 78.58939928 -25.56368182 69.03329477 -22.25 59.3125 C-19.73668053 51.94121056 -16.9289875 44.72983639 -13.98828125 37.51928711 C-11.22791207 30.69959097 -8.77047222 23.79710749 -6.37866211 16.84082031 C-4.42067805 11.15505883 -2.34677672 5.53897612 0 0 Z " fill="#FCFCFC" transform="translate(255,251)"/>
</svg>
