<?xml version="1.0" encoding="UTF-8"?>
<svg version="1.1" xmlns="http://www.w3.org/2000/svg" width="512" height="512">
<path d="M0 0 C21.51253115 18.15596601 35.45405285 42.03405708 39.09375 70.13671875 C40.72553457 90.37538015 38.74939847 111.30130102 29.375 129.625 C30.67646973 129.63958252 31.97793945 129.65416504 33.31884766 129.66918945 C38.16091992 129.72728934 43.00253285 129.80452191 47.84423828 129.88745117 C49.93726124 129.92064549 52.03037253 129.94869445 54.12353516 129.97143555 C57.13742612 130.00508231 60.15051163 130.05740393 63.1640625 130.11328125 C64.09554108 130.11967117 65.02701965 130.1260611 65.98672485 130.13264465 C72.05603439 130.26909252 76.36015932 130.86007465 81.0138908 135.12803489 C86.41273456 140.83011777 88.68684692 146.72471708 91.08909607 154.11650085 C91.72285104 155.98734595 91.72285104 155.98734595 92.36940914 157.8959859 C93.53407992 161.33600955 94.67448843 164.78364915 95.8108443 168.23311222 C97.04347562 171.9605228 98.29860485 175.68035525 99.55079651 179.40122986 C101.9974825 186.68357582 104.42309729 193.97277116 106.84115409 201.26466694 C108.80777413 207.19392857 110.78202378 213.12059826 112.7617054 219.04551125 C113.18491302 220.31214608 113.18491302 220.31214608 113.6166703 221.6043695 C114.18993618 223.32001053 114.7632195 225.03564573 115.33652008 226.75127516 C120.70786297 242.82825988 126.05529794 258.91311746 131.39455409 275.00078193 C135.97124687 288.7889134 140.56832572 302.57010713 145.18041992 316.34643555 C150.54159123 332.36028986 155.89001377 348.37830924 161.21833092 364.40312797 C161.78720597 366.11389404 162.35609725 367.82465472 162.92500496 369.53540993 C163.20487929 370.37703851 163.48475363 371.21866709 163.773109 372.08579957 C165.74121211 378.00130836 167.71831912 383.91376201 169.6989727 389.82507896 C172.11487257 397.03621753 174.51669614 404.25186447 176.90091109 411.47354379 C178.11652265 415.15441267 179.33813186 418.83297665 180.57691574 422.50611877 C181.7130875 425.87559883 182.83075235 429.25066186 183.93459535 432.63086579 C184.52279986 434.41664121 185.12994637 436.19614404 185.73797697 437.97526664 C188.49762684 446.52076017 190.01946898 455.30465918 187.3125 464.0625 C183.5462257 469.04370149 179.36444385 472.68577872 173.375 474.625 C170.63316535 474.81236117 167.99485821 474.89713219 165.25453472 474.88226891 C164.43736616 474.88577498 163.62019759 474.88928105 162.77826634 474.89289337 C160.02843575 474.90222861 157.27881596 474.89727858 154.52897644 474.89242554 C152.54220717 474.89616072 150.55543937 474.90076172 148.56867391 474.90615618 C143.09984021 474.91841783 137.63106754 474.91812199 132.16222322 474.91576743 C126.26775119 474.91536006 120.37329893 474.92639073 114.47883606 474.93588257 C102.92703797 474.9525108 91.37525872 474.95801883 79.82344981 474.95910732 C70.43576184 474.96002613 61.04808049 474.96414132 51.66039467 474.97050858 C48.95894173 474.97230364 46.25748877 474.97408327 43.55603582 474.97585833 C42.54867403 474.97652148 42.54867403 474.97652148 41.52096151 474.97719802 C22.62859232 474.98950788 3.73622542 474.997399 -15.15614796 474.99651146 C-15.86855477 474.9964803 -16.58096159 474.99644914 -17.3149565 474.99641704 C-20.92579542 474.99625083 -24.53663433 474.99605274 -28.14747325 474.99584763 C-28.86460889 474.99580774 -29.58174454 474.99576785 -30.32061156 474.99572675 C-31.77083489 474.99564587 -33.22105822 474.99556228 -34.67128155 474.99547596 C-57.2353886 474.9942504 -79.79943554 475.00926401 -102.36352539 475.03662109 C-127.70960994 475.06733839 -153.05565499 475.0845538 -178.40175933 475.08269465 C-181.10415534 475.08254539 -183.80655135 475.08244797 -186.50894737 475.08238602 C-187.17435402 475.08236271 -187.83976066 475.0823394 -188.52533115 475.08231538 C-198.5727588 475.08225764 -208.6201372 475.09295877 -218.66755104 475.10905075 C-230.09452891 475.12723463 -241.52140828 475.13163285 -252.94839434 475.1180319 C-258.7802315 475.11148822 -264.61187954 475.11143564 -270.44369888 475.1287384 C-275.78127065 475.14441209 -281.11850243 475.14166383 -286.45606562 475.12417014 C-288.38807951 475.12108766 -290.32011843 475.12477933 -292.25210283 475.13589029 C-294.87748459 475.14999027 -297.50167028 475.13944202 -300.1270113 475.12277794 C-301.25328503 475.13768248 -301.25328503 475.13768248 -302.40231177 475.15288812 C-308.73954407 475.06779254 -313.91181086 473.01899041 -318.68359375 468.80859375 C-319.13863281 468.23238281 -319.59367187 467.65617187 -320.0625 467.0625 C-320.53558594 466.48371094 -321.00867188 465.90492188 -321.49609375 465.30859375 C-324.93294834 460.18304243 -324.06280713 453.50167008 -323.625 447.625 C-322.69018496 443.12435731 -321.28518674 438.84491466 -319.79978943 434.49858093 C-319.3824058 433.23141379 -318.96672048 431.96368623 -318.55256706 430.69545966 C-317.42050183 427.24544333 -316.26458218 423.80385203 -315.10422838 420.36326444 C-313.85280533 416.63858045 -312.62397806 412.90644227 -311.39213562 409.17524719 C-308.97989602 401.8808969 -306.54674977 394.59369008 -304.10588955 387.30887332 C-302.12201592 381.38667504 -300.14581651 375.46196744 -298.17500496 369.53540993 C-297.89393917 368.69022054 -297.61287339 367.84503115 -297.32329046 366.97422997 C-296.75225919 365.25697954 -296.18124537 363.53972331 -295.61024881 361.82246134 C-290.26267111 345.74271073 -284.89127004 329.67099781 -279.51161224 313.6019564 C-274.89982812 299.8247054 -270.3085579 286.04075875 -265.73217773 272.25170898 C-260.41161995 256.22041664 -255.07839658 240.19343061 -249.72498089 224.17307788 C-249.15387276 222.46389445 -248.58278087 220.75470559 -248.0117054 219.04551125 C-247.73075114 218.20465404 -247.44979687 217.36379684 -247.16032885 216.49745911 C-245.18471768 210.58183344 -243.21815284 204.66324607 -241.25509453 198.74344444 C-238.86199188 191.52762294 -236.45498081 184.31662145 -234.03019094 177.11138334 C-232.79423569 173.43760743 -231.56452409 169.76205652 -230.35173035 166.08056259 C-229.03531433 162.08523422 -227.68876331 158.10071943 -226.33909607 154.11650085 C-225.77436582 152.37881102 -225.77436582 152.37881102 -225.19822687 150.60601634 C-222.42691927 142.54653069 -218.87258314 136.61119987 -211.82568359 131.65698242 C-207.32891457 130.20710884 -203.11363286 130.1455202 -198.4140625 130.11328125 C-197.44592621 130.09533005 -196.47778992 130.07737885 -195.48031616 130.05888367 C-192.40358773 130.00492205 -189.3270132 129.97093011 -186.25 129.9375 C-184.15753074 129.90431447 -182.06508174 129.86982367 -179.97265625 129.83398438 C-174.85688211 129.74920354 -169.74115249 129.68232472 -164.625 129.625 C-165.03709717 128.62847412 -165.44919434 127.63194824 -165.8737793 126.60522461 C-166.42003217 125.26687574 -166.96599656 123.9284091 -167.51171875 122.58984375 C-167.78270386 121.93673218 -168.05368896 121.28362061 -168.33288574 120.61071777 C-178.52244358 95.49713835 -176.48165261 66.4402582 -166.625 41.625 C-154.94082445 14.8570966 -133.39080627 -6.2718174 -106.24804688 -17.09838867 C-70.07463444 -30.52479164 -30.04396023 -23.87791329 0 0 Z M-90.625 66.625 C-95.09899725 73.54288592 -96.46759644 80.4564956 -95.625 88.625 C-93.19875747 97.61792068 -88.82583873 103.89713618 -80.71875 108.5859375 C-73.79664707 112.02116022 -67.16142543 112.14328717 -59.625 110.625 C-51.99761539 107.97313823 -46.46826704 103.6861935 -42.8125 96.5 C-39.30186612 89.02428126 -38.4117691 82.13511783 -40.625 74.0625 C-43.23675226 67.14687431 -48.36922123 61.48185096 -54.9375 58.125 C-68.49504599 52.61006604 -80.91791164 55.75393951 -90.625 66.625 Z " fill="#000000" transform="translate(323.625,30.375)"/>
<path d="M0 0 C21.51253115 18.15596601 35.45405285 42.03405708 39.09375 70.13671875 C40.72553457 90.37538015 38.74939847 111.30130102 29.375 129.625 C30.67646973 129.63958252 31.97793945 129.65416504 33.31884766 129.66918945 C38.16091992 129.72728934 43.00253285 129.80452191 47.84423828 129.88745117 C49.93726124 129.92064549 52.03037253 129.94869445 54.12353516 129.97143555 C57.13742612 130.00508231 60.15051163 130.05740393 63.1640625 130.11328125 C64.09554108 130.11967117 65.02701965 130.1260611 65.98672485 130.13264465 C72.05603439 130.26909252 76.36015932 130.86007465 81.0138908 135.12803489 C86.41273456 140.83011777 88.68684692 146.72471708 91.08909607 154.11650085 C91.72285104 155.98734595 91.72285104 155.98734595 92.36940914 157.8959859 C93.53407992 161.33600955 94.67448843 164.78364915 95.8108443 168.23311222 C97.04347562 171.9605228 98.29860485 175.68035525 99.55079651 179.40122986 C101.9974825 186.68357582 104.42309729 193.97277116 106.84115409 201.26466694 C108.80777413 207.19392857 110.78202378 213.12059826 112.7617054 219.04551125 C113.18491302 220.31214608 113.18491302 220.31214608 113.6166703 221.6043695 C114.18993618 223.32001053 114.7632195 225.03564573 115.33652008 226.75127516 C120.70786297 242.82825988 126.05529794 258.91311746 131.39455409 275.00078193 C135.97124687 288.7889134 140.56832572 302.57010713 145.18041992 316.34643555 C150.54159123 332.36028986 155.89001377 348.37830924 161.21833092 364.40312797 C161.78720597 366.11389404 162.35609725 367.82465472 162.92500496 369.53540993 C163.20487929 370.37703851 163.48475363 371.21866709 163.773109 372.08579957 C165.74121211 378.00130836 167.71831912 383.91376201 169.6989727 389.82507896 C172.11487257 397.03621753 174.51669614 404.25186447 176.90091109 411.47354379 C178.11652265 415.15441267 179.33813186 418.83297665 180.57691574 422.50611877 C181.7130875 425.87559883 182.83075235 429.25066186 183.93459535 432.63086579 C184.52279986 434.41664121 185.12994637 436.19614404 185.73797697 437.97526664 C188.49762684 446.52076017 190.01946898 455.30465918 187.3125 464.0625 C183.5462257 469.04370149 179.36444385 472.68577872 173.375 474.625 C170.63316535 474.81236117 167.99485821 474.89713219 165.25453472 474.88226891 C164.43736616 474.88577498 163.62019759 474.88928105 162.77826634 474.89289337 C160.02843575 474.90222861 157.27881596 474.89727858 154.52897644 474.89242554 C152.54220717 474.89616072 150.55543937 474.90076172 148.56867391 474.90615618 C143.09984021 474.91841783 137.63106754 474.91812199 132.16222322 474.91576743 C126.26775119 474.91536006 120.37329893 474.92639073 114.47883606 474.93588257 C102.92703797 474.9525108 91.37525872 474.95801883 79.82344981 474.95910732 C70.43576184 474.96002613 61.04808049 474.96414132 51.66039467 474.97050858 C48.95894173 474.97230364 46.25748877 474.97408327 43.55603582 474.97585833 C42.54867403 474.97652148 42.54867403 474.97652148 41.52096151 474.97719802 C22.62859232 474.98950788 3.73622542 474.997399 -15.15614796 474.99651146 C-15.86855477 474.9964803 -16.58096159 474.99644914 -17.3149565 474.99641704 C-20.92579542 474.99625083 -24.53663433 474.99605274 -28.14747325 474.99584763 C-28.86460889 474.99580774 -29.58174454 474.99576785 -30.32061156 474.99572675 C-31.77083489 474.99564587 -33.22105822 474.99556228 -34.67128155 474.99547596 C-57.2353886 474.9942504 -79.79943554 475.00926401 -102.36352539 475.03662109 C-127.70960994 475.06733839 -153.05565499 475.0845538 -178.40175933 475.08269465 C-181.10415534 475.08254539 -183.80655135 475.08244797 -186.50894737 475.08238602 C-187.17435402 475.08236271 -187.83976066 475.0823394 -188.52533115 475.08231538 C-198.5727588 475.08225764 -208.6201372 475.09295877 -218.66755104 475.10905075 C-230.09452891 475.12723463 -241.52140828 475.13163285 -252.94839434 475.1180319 C-258.7802315 475.11148822 -264.61187954 475.11143564 -270.44369888 475.1287384 C-275.78127065 475.14441209 -281.11850243 475.14166383 -286.45606562 475.12417014 C-288.38807951 475.12108766 -290.32011843 475.12477933 -292.25210283 475.13589029 C-294.87748459 475.14999027 -297.50167028 475.13944202 -300.1270113 475.12277794 C-301.25328503 475.13768248 -301.25328503 475.13768248 -302.40231177 475.15288812 C-308.73954407 475.06779254 -313.91181086 473.01899041 -318.68359375 468.80859375 C-319.13863281 468.23238281 -319.59367187 467.65617187 -320.0625 467.0625 C-320.53558594 466.48371094 -321.00867188 465.90492188 -321.49609375 465.30859375 C-324.93294834 460.18304243 -324.06280713 453.50167008 -323.625 447.625 C-322.69018496 443.12435731 -321.28518674 438.84491466 -319.79978943 434.49858093 C-319.3824058 433.23141379 -318.96672048 431.96368623 -318.55256706 430.69545966 C-317.42050183 427.24544333 -316.26458218 423.80385203 -315.10422838 420.36326444 C-313.85280533 416.63858045 -312.62397806 412.90644227 -311.39213562 409.17524719 C-308.97989602 401.8808969 -306.54674977 394.59369008 -304.10588955 387.30887332 C-302.12201592 381.38667504 -300.14581651 375.46196744 -298.17500496 369.53540993 C-297.89393917 368.69022054 -297.61287339 367.84503115 -297.32329046 366.97422997 C-296.75225919 365.25697954 -296.18124537 363.53972331 -295.61024881 361.82246134 C-290.26267111 345.74271073 -284.89127004 329.67099781 -279.51161224 313.6019564 C-274.89982812 299.8247054 -270.3085579 286.04075875 -265.73217773 272.25170898 C-260.41161995 256.22041664 -255.07839658 240.19343061 -249.72498089 224.17307788 C-249.15387276 222.46389445 -248.58278087 220.75470559 -248.0117054 219.04551125 C-247.73075114 218.20465404 -247.44979687 217.36379684 -247.16032885 216.49745911 C-245.18471768 210.58183344 -243.21815284 204.66324607 -241.25509453 198.74344444 C-238.86199188 191.52762294 -236.45498081 184.31662145 -234.03019094 177.11138334 C-232.79423569 173.43760743 -231.56452409 169.76205652 -230.35173035 166.08056259 C-229.03531433 162.08523422 -227.68876331 158.10071943 -226.33909607 154.11650085 C-225.77436582 152.37881102 -225.77436582 152.37881102 -225.19822687 150.60601634 C-222.42691927 142.54653069 -218.87258314 136.61119987 -211.82568359 131.65698242 C-207.32891457 130.20710884 -203.11363286 130.1455202 -198.4140625 130.11328125 C-197.44592621 130.09533005 -196.47778992 130.07737885 -195.48031616 130.05888367 C-192.40358773 130.00492205 -189.3270132 129.97093011 -186.25 129.9375 C-184.15753074 129.90431447 -182.06508174 129.86982367 -179.97265625 129.83398438 C-174.85688211 129.74920354 -169.74115249 129.68232472 -164.625 129.625 C-165.03709717 128.62847412 -165.44919434 127.63194824 -165.8737793 126.60522461 C-166.42003217 125.26687574 -166.96599656 123.9284091 -167.51171875 122.58984375 C-167.78270386 121.93673218 -168.05368896 121.28362061 -168.33288574 120.61071777 C-178.52244358 95.49713835 -176.48165261 66.4402582 -166.625 41.625 C-154.94082445 14.8570966 -133.39080627 -6.2718174 -106.24804688 -17.09838867 C-70.07463444 -30.52479164 -30.04396023 -23.87791329 0 0 Z M-134.22460938 27.97460938 C-150.64649196 47.32815301 -155.31323288 70.85948213 -153.625 95.625 C-153.02135456 99.82864689 -152.04803853 103.63190481 -150.625 107.625 C-150.20734375 108.96111328 -150.20734375 108.96111328 -149.78125 110.32421875 C-144.52453849 126.20764448 -135.32461234 137.92538766 -123.625 149.625 C-162.73 150.12 -162.73 150.12 -202.625 150.625 C-213.94889732 183.63946471 -225.05644235 216.72377755 -236.10551757 249.83091024 C-237.04574557 252.64804568 -237.98615048 255.46512205 -238.92655971 258.282197 C-243.09031054 270.75509426 -247.25328279 283.22825108 -251.41386223 295.70220661 C-252.4173409 298.71073416 -253.42082322 301.71926049 -254.42431641 304.7277832 C-254.67359226 305.47512701 -254.9228681 306.22247082 -255.17969777 306.99246141 C-259.25508835 319.21025802 -263.33561666 331.42633252 -267.41816221 343.64173994 C-271.63577029 356.26154305 -275.84888662 368.8828385 -280.05755055 381.50562733 C-282.41072602 388.56299212 -284.76586078 395.61968956 -287.1260643 402.67470741 C-289.33301482 409.27167295 -291.53389555 415.87063555 -293.73058319 422.47102547 C-294.53799415 424.89375612 -295.34747206 427.31579902 -296.1591301 429.73711014 C-297.26305527 433.0313277 -298.35962485 436.32790265 -299.45431519 439.62519836 C-299.77938706 440.58944475 -300.10445894 441.55369114 -300.43938148 442.54715711 C-300.73031972 443.42855271 -301.02125795 444.30994831 -301.3210125 445.21805286 C-301.57467107 445.97805177 -301.82832964 446.73805067 -302.08967483 447.52107984 C-302.78938994 449.90925467 -302.78938994 449.90925467 -302.625 453.625 C-147.525 453.625 7.575 453.625 167.375 453.625 C166.7099934 448.96995377 166.15940575 445.47850899 164.72424316 441.17774487 C164.38149605 440.14092262 164.03874893 439.10410038 163.68561554 438.03585929 C163.11903858 436.35258228 163.11903858 436.35258228 162.54101562 434.63529968 C162.14067863 433.43016545 161.74034164 432.22503121 161.32787323 430.98337775 C160.22009257 427.64917885 159.10486667 424.31751191 157.98838043 420.98621976 C156.78429908 417.38921691 155.58716202 413.78990338 154.38916016 410.19087219 C152.04303106 403.14626383 149.69054971 396.10379255 147.33596325 389.06200709 C144.59532559 380.86479016 141.86122516 372.66539774 139.12745571 364.46588824 C134.25124389 349.84112802 129.36945884 335.21823441 124.484375 320.59643555 C119.74120756 306.39938768 115.00140879 292.20122161 110.265625 278.00170898 C109.97372756 277.12650216 109.68183012 276.25129533 109.3810873 275.34956708 C108.20788942 271.83190204 107.03469648 268.31423535 105.86151457 264.79656498 C101.35121433 251.27319017 96.83848376 237.75062625 92.3252387 224.22823399 C90.96086124 220.14034129 89.5965758 216.05241793 88.23251343 211.96442008 C85.36460806 203.36961493 82.49585014 194.77509621 79.62434864 186.18149175 C78.43667956 182.62709643 77.24947112 179.07254913 76.0635376 175.51757431 C74.78032831 171.67109366 73.49479164 167.82539508 72.20898438 163.9797821 C71.8312664 162.84644383 71.45354843 161.71310555 71.06438446 160.54542369 C70.72163734 159.52164018 70.37889023 158.49785668 70.02575684 157.44304943 C69.72897789 156.55450116 69.43219894 155.6659529 69.1264267 154.75047892 C68.41881319 152.60969911 68.41881319 152.60969911 67.375 150.625 C41.305 150.295 15.235 149.965 -11.625 149.625 C-8.325 146.325 -5.025 143.025 -1.625 139.625 C14.65376218 119.39282415 20.22554395 96.82722686 18.18896484 71.29248047 C15.67545471 49.1828058 3.16710507 29.77264209 -13.625 15.625 C-51.58348761 -13.52076245 -102.67274658 -6.95630165 -134.22460938 27.97460938 Z " fill="#FCFCFC" transform="translate(323.625,30.375)"/>
<path d="M0 0 C9.48995117 7.60905995 15.18088408 16.85515225 19 28.3125 C20.32962828 43.05117705 19.70798823 56.84677496 10.75 69.1875 C2.24141861 79.09879763 -8.12003419 86.84045203 -21.37646484 88.6340332 C-23.82200654 88.78497094 -26.23742129 88.83143711 -28.6875 88.8125 C-29.99134644 88.80391968 -29.99134644 88.80391968 -31.3215332 88.79516602 C-45.84455487 88.39736675 -56.38169233 82.40024247 -66.25 72 C-76.66450309 59.82208504 -77.9791553 46.30410925 -77.23388672 30.87890625 C-76.72966493 25.34615108 -74.89400343 20.99067059 -72 16.3125 C-71.40703125 15.35085937 -70.8140625 14.38921875 -70.203125 13.3984375 C-63.05716388 2.7938312 -52.160479 -5.78257744 -39.36328125 -8.3984375 C-25.22219144 -10.12809146 -11.91088436 -8.11058839 0 0 Z M-52 23.3125 C-56.47399725 30.23038592 -57.84259644 37.1439956 -57 45.3125 C-54.57375747 54.30542068 -50.20083873 60.58463618 -42.09375 65.2734375 C-35.17164707 68.70866022 -28.53642543 68.83078717 -21 67.3125 C-13.37261539 64.66063823 -7.84326704 60.3736935 -4.1875 53.1875 C-0.67686612 45.71178126 0.2132309 38.82261783 -2 30.75 C-4.61175226 23.83437431 -9.74422123 18.16935096 -16.3125 14.8125 C-29.87004599 9.29756604 -42.29291164 12.44143951 -52 23.3125 Z " fill="#FDFDFD" transform="translate(285,73.6875)"/>
</svg>
