<?xml version="1.0" encoding="UTF-8"?>
<svg version="1.1" xmlns="http://www.w3.org/2000/svg" width="512" height="512">
<path d="M0 0 C1.05832031 0.474375 2.11664063 0.94875 3.20703125 1.4375 C23.57444721 11.48832449 37.0546959 29.18936071 46.6875 49.375 C46.98422607 49.99608643 47.28095215 50.61717285 47.58666992 51.25708008 C49.05631143 54.47173971 50.20207572 57.55322778 50.984375 61.00390625 C52.82972371 68.9365749 52.82972371 68.9365749 58.4453125 74.47265625 C61.8632969 76.27028136 65.40452176 77.73733199 68.99023438 79.16455078 C78.4312744 83.08914249 86.36186416 89.33909624 94 96 C94.8559375 96.73347656 95.711875 97.46695313 96.59375 98.22265625 C121.83943934 120.31263443 136.4869458 150.50349264 143.25 183 C143.47695557 184.08196655 143.47695557 184.08196655 143.70849609 185.18579102 C146.57726603 200.13418936 147.39002924 215.51103512 148.125 230.6875 C148.16669312 231.53361847 148.20838623 232.37973694 148.25134277 233.25149536 C154.08343694 354.40242543 154.08343694 354.40242543 134.6875 379 C130.18754592 383.71531712 123.88476483 385.15692164 117.59716797 385.37231445 C115.56221327 385.38523437 113.52710243 385.38141349 111.4921875 385.36328125 C109.86580856 385.36402901 109.86580856 385.36402901 108.20657349 385.36479187 C105.92562009 385.36246141 103.64466362 385.35279401 101.36376953 385.33618164 C97.87899746 385.31252713 94.39498861 385.31563673 90.91015625 385.32226562 C88.68749546 385.3166901 86.46483787 385.30958102 84.2421875 385.30078125 C83.20456268 385.30169266 82.16693787 385.30260406 81.09786987 385.30354309 C76.00816703 385.2537719 71.76186946 385.03378888 67 383 C67.60008024 389.14574804 68.53030387 395.06615067 69.85766602 401.09301758 C70.04312988 401.95287766 70.22859375 402.81273773 70.41967773 403.69865417 C70.81941849 405.55031013 71.22106608 407.40155528 71.62445259 409.25242043 C72.26413948 412.19154921 72.89686166 415.13209865 73.52757263 418.07316589 C75.32036264 426.43003296 77.12071284 434.78522472 78.93725586 443.13696289 C80.051225 448.26092276 81.15307849 453.38736618 82.24748039 458.51553917 C82.66436183 460.45757786 83.08572823 462.39865989 83.51184273 464.33869362 C88.84824937 488.64980445 88.84824937 488.64980445 85.8125 497.4375 C82.24752037 502.47764361 78.71690638 505.63250216 73 508 C70.24657157 508.2838848 67.72270143 508.41860171 64.9740448 508.40113831 C64.18305919 508.40793498 63.39207357 508.41473164 62.57711869 508.42173427 C59.93563627 508.44067322 57.29461883 508.43827161 54.65307617 508.43579102 C52.75548203 508.44477064 50.85789337 508.45497935 48.96031189 508.46632385 C43.81143741 508.49280782 38.66271254 508.49985666 33.51377654 508.50177121 C30.29512654 508.50390482 27.07651448 508.51031175 23.85787392 508.51826286 C12.62389336 508.54601143 1.39001955 508.55826904 -9.84399414 508.5559082 C-20.30737994 508.5541062 -30.77030157 508.58575735 -41.23356992 508.63313919 C-50.22401286 508.67239726 -59.21430428 508.68845857 -68.20483226 508.68654197 C-73.57132489 508.68577791 -78.93740495 508.6942815 -84.30381203 508.72607613 C-89.3527706 508.7551737 -94.40092374 508.75532108 -99.44991112 508.73352623 C-101.29897618 508.7303953 -103.14809187 508.73743855 -104.99707031 508.7556076 C-121.84188806 508.91036396 -121.84188806 508.91036396 -128.43966198 503.63477993 C-133.79893549 498.01982172 -134.42650831 492.69447287 -134.33029175 485.11819458 C-133.79973567 476.17651354 -131.38917556 467.36505646 -129.44140625 458.65234375 C-128.97181424 456.50599639 -128.5034045 454.35939006 -128.03611755 452.21253967 C-126.81053578 446.59734525 -125.56874232 440.98585925 -124.32348633 435.375 C-123.05639 429.65131815 -121.80541617 423.924116 -120.55273438 418.19726562 C-118.7237221 409.84707138 -116.88906931 401.49815589 -115.04125977 393.15209961 C-114.84848953 392.27988266 -114.6557193 391.40766571 -114.45710754 390.50901794 C-114.18999969 389.30469116 -114.18999969 389.30469116 -113.91749573 388.07603455 C-113.7635563 387.381295 -113.60961687 386.68655546 -113.45101261 385.97076321 C-112.99388447 383.97327735 -112.50376759 381.98618853 -112 380 C-113.0725 380.639375 -114.145 381.27875 -115.25 381.9375 C-119.45667636 384.44532629 -123.03692663 385.12217136 -127.91699219 385.16113281 C-128.89190613 385.17074036 -129.86682007 385.1803479 -130.87127686 385.19024658 C-131.91922424 385.19449646 -132.96717163 385.19874634 -134.046875 385.203125 C-135.13204407 385.20882507 -136.21721313 385.21452515 -137.33526611 385.22039795 C-139.63170397 385.22984084 -141.92815534 385.23637911 -144.22460938 385.24023438 C-147.72289944 385.24992493 -151.22059814 385.28094959 -154.71875 385.3125 C-156.95312152 385.31903196 -159.18749724 385.32428167 -161.421875 385.328125 C-162.46172546 385.3404718 -163.50157593 385.3528186 -164.57293701 385.36553955 C-171.58381281 385.34423337 -177.11837671 384.49786362 -183.13671875 380.625 C-206.97186209 355.64913191 -199.72202624 287.37629927 -199.06182861 254.59527588 C-197.2865625 180.07791114 -197.2865625 180.07791114 -182 147 C-181.70367676 146.3512793 -181.40735352 145.70255859 -181.10205078 145.03417969 C-165.84006104 111.94675559 -139.65255492 86.93119997 -106 73 C-105.34 73 -104.68 73 -104 73 C-103.92523438 72.45214844 -103.85046875 71.90429688 -103.7734375 71.33984375 C-100.86720548 53.81697419 -91.64140805 36.26845524 -80 23 C-79.38640625 22.24332031 -78.7728125 21.48664062 -78.140625 20.70703125 C-59.90196844 -1.18689326 -26.87378655 -12.31867978 0 0 Z " fill="#FDFDFD" transform="translate(281,4)"/>
<path d="M0 0 C1.63483269 20.442954 1.63483269 20.442954 -1.98046875 26.09765625 C-4.56191362 28.06205378 -7.09853748 29.55782763 -10 31 C-31.1331273 45.79318911 -41.40583221 74.13091364 -45.75 98.4375 C-50.39058067 128.24165398 -49.5812788 158.92866898 -50 189 C-44.72 189 -39.44 189 -34 189 C-33.7215625 186.1228125 -33.7215625 186.1228125 -33.4375 183.1875 C-32.50092428 175.32136796 -30.55191948 167.71884469 -28.5625 160.0625 C-28.26206787 158.90194092 -27.96163574 157.74138184 -27.65209961 156.5456543 C-26.06180154 150.55145386 -24.30963467 144.75642892 -22 139 C-9.33062708 139.62156631 3.33576703 140.28113653 16 141 C18.03376287 145.50333206 18.97226068 150.06455813 19.9453125 154.87890625 C20.12005096 155.72799057 20.29478943 156.57707489 20.474823 157.45188904 C20.84177157 159.24081727 21.20640029 161.03022273 21.56884766 162.82006836 C22.12405644 165.55784721 22.68844606 168.29361913 23.25390625 171.02929688 C23.60992487 172.77072101 23.96541179 174.51225394 24.3203125 176.25390625 C24.48902863 177.07065323 24.65774475 177.88740021 24.83157349 178.72889709 C24.98528412 179.49326584 25.13899475 180.25763458 25.29736328 181.04516602 C25.43345001 181.71403336 25.56953674 182.3829007 25.70974731 183.07203674 C26 185 26 185 26 189 C63.95 189 101.9 189 141 189 C141.33 186.03 141.66 183.06 142 180 C142.65097285 175.49726637 143.37465022 171.00681696 144.10180664 166.51586914 C144.43726475 164.43895648 144.76665365 162.36113955 145.09570312 160.28320312 C146.13784198 153.77589763 147.24118426 147.35627827 149 141 C161.97501752 139.06033845 174.89745221 138.42366282 188 138 C198.1020206 171.57309826 198.1020206 171.57309826 200 189 C205.28 189 210.56 189 216 189 C217.23093826 111.42928267 217.23093826 111.42928267 187 42 C186.46117187 41.27554688 185.92234375 40.55109375 185.3671875 39.8046875 C182.6856007 36.4762858 180.15168896 34.02295955 176.453125 31.87890625 C168.48079037 27.01267602 168.48079037 27.01267602 166 23 C164.26968413 15.49350228 165.12979434 7.5860896 166 0 C195.20043907 13.9154946 214.98610949 40.20012782 225.69897461 70.16723633 C242.78420226 119.50737843 240.52976759 186.63254441 233 238 C232.86658203 238.93714844 232.73316406 239.87429688 232.59570312 240.83984375 C231.85447561 245.92149307 230.98355703 250.95996482 230 256 C229.80277344 257.07636719 229.60554688 258.15273438 229.40234375 259.26171875 C228.16462629 265.83537371 228.16462629 265.83537371 227 267 C223.89748799 267.08874135 220.8173188 267.11518455 217.71484375 267.09765625 C216.78402481 267.0962413 215.85320587 267.09482635 214.8941803 267.09336853 C211.90858809 267.08775172 208.92306971 267.0751964 205.9375 267.0625 C203.91862087 267.05748716 201.89974057 267.05292388 199.88085938 267.04882812 C194.92054428 267.03777683 189.96028468 267.02050095 185 267 C184.97812622 265.31148926 184.97812622 265.31148926 184.95581055 263.58886719 C184.41788962 225.02572446 182.32050881 186.8066572 170.25733948 149.85179138 C169.90383596 148.76820422 169.90383596 148.76820422 169.54319096 147.6627264 C169.27431143 146.83967683 169.27431143 146.83967683 169 146 C166.18063576 159.81622512 163.56704448 173.65808381 161.109375 187.54296875 C160.93652229 188.51735712 160.76366959 189.49174549 160.58557892 190.49566078 C159.67528014 195.62792704 158.76763132 200.76065324 157.86230469 205.89379883 C156.93216261 211.16453559 155.9926737 216.43356294 155.05117416 221.702281 C154.3219709 225.79271271 153.59963849 229.88433639 152.87915802 233.97631264 C152.53565973 235.92030425 152.18961045 237.86384703 151.84087372 239.80690575 C151.35504939 242.51742097 150.87903161 245.2294921 150.40527344 247.94213867 C150.2619458 248.7292775 150.11861816 249.51641632 149.97094727 250.32740784 C148.51698557 258.78127347 148.80949879 266.45640417 150.6171875 274.81640625 C150.8760247 276.06646706 150.8760247 276.06646706 151.14009094 277.34178162 C151.70997238 280.08385661 152.29242362 282.82309665 152.875 285.5625 C153.28117677 287.50438555 153.68651475 289.44644671 154.09106445 291.38867188 C154.94582319 295.48553921 155.80569806 299.58128557 156.66943359 303.67626953 C157.99755856 309.97801117 159.30724 316.2834935 160.61328125 322.58984375 C165.21326136 344.84806338 165.21326136 344.84806338 169.96484375 367.07421875 C170.11050278 367.74421906 170.2561618 368.41421936 170.40623474 369.10452271 C171.0554088 372.08764714 171.71027042 375.06928964 172.37573242 378.04882812 C172.59463135 379.04720703 172.81353027 380.04558594 173.0390625 381.07421875 C173.22678223 381.91557373 173.41450195 382.75692871 173.60791016 383.6237793 C174 386 174 386 174 391 C114.93 391 55.86 391 -5 391 C-4.3375892 384.37589196 -3.56356584 378.16225171 -2.1796875 371.70703125 C-1.91087265 370.42368393 -1.91087265 370.42368393 -1.6366272 369.1144104 C-1.0549123 366.34591483 -0.4652611 363.57918496 0.125 360.8125 C0.53600884 358.86796251 0.94681388 356.92338193 1.35742188 354.97875977 C3.65915759 344.11331294 6.03174628 333.26639422 8.5 322.4375 C9.49935528 318.03687217 10.49749362 313.63597174 11.49365234 309.23461914 C11.85397085 307.64445746 12.21505478 306.05446914 12.57666016 304.46459961 C13.85969711 298.81933891 15.12508864 293.17051124 16.37182617 287.51712036 C16.78573405 285.65266484 17.20503981 283.78939823 17.63012695 281.92745972 C20.90197216 268.56042734 20.90197216 268.56042734 20 255 C19.7527417 253.69712036 19.7527417 253.69712036 19.50048828 252.36791992 C18.90239996 249.31662479 18.23836121 246.28499941 17.5625 243.25 C17.30662109 242.07824219 17.05074219 240.90648437 16.78710938 239.69921875 C16.20029638 237.01316017 15.61144341 234.32761882 15.02001953 231.64257812 C13.86742024 226.40434347 12.72839461 221.16317825 11.58984375 215.921875 C11.27393532 214.46809196 11.27393532 214.46809196 10.9516449 212.98493958 C9.86588219 207.98772179 8.78082758 202.99035054 7.69604492 197.99291992 C7.26876208 196.02521817 6.84143513 194.057526 6.4140625 192.08984375 C6.20628677 191.13301193 5.99851105 190.17618011 5.78443909 189.19035339 C4.69337482 184.17111154 3.59473864 179.1536842 2.48260498 174.1390686 C2.0407706 172.14464712 1.60182882 170.14961479 1.1640625 168.15429688 C0.65690151 165.84571009 0.1443301 163.53830163 -0.375 161.23242188 C-1.51018818 156.03392775 -2.28448065 151.32278274 -2 146 C-2.66 146 -3.32 146 -4 146 C-4.11754639 146.54817383 -4.23509277 147.09634766 -4.35620117 147.66113281 C-5.20133749 151.54090774 -6.08263763 155.3993384 -7.11328125 159.234375 C-16.69576041 195.05601889 -18.29789229 230.13934546 -19 267 C-32.86 267 -46.72 267 -61 267 C-64.68674026 255.93977921 -66.1576855 244.47068284 -67.625 232.9375 C-67.7480249 231.98182129 -67.8710498 231.02614258 -67.99780273 230.04150391 C-69.56263485 217.26150169 -70.1552332 204.52794007 -70.16796875 191.66015625 C-70.1721582 190.34638 -70.17634766 189.03260376 -70.18066406 187.67901611 C-70.19200184 183.47349667 -70.19059972 179.26802981 -70.1875 175.0625 C-70.18738041 174.3475021 -70.18726082 173.6325042 -70.1871376 172.89583969 C-70.18268187 151.88542369 -70.16763698 130.923294 -68 110 C-67.90348145 109.02417969 -67.80696289 108.04835938 -67.70751953 107.04296875 C-63.98866263 71.33217208 -49.37098248 37.85207472 -22 14 C-4.6088683 0 -4.6088683 0 0 0 Z " fill="#010101" transform="translate(173,101)"/>
<path d="M0 0 C1.73247852 1.36574949 3.44284998 2.7602212 5.125 4.1875 C5.81980469 4.77015625 6.51460938 5.3528125 7.23046875 5.953125 C22.54824736 20.01735287 30.04464391 40.30014841 34.125 60.1875 C34.30232666 60.98164307 34.47965332 61.77578613 34.66235352 62.59399414 C36.26979723 70.36509386 36.47200573 77.95618533 36.4375 85.875 C36.43567719 86.5376889 36.43385437 87.20037781 36.43197632 87.88314819 C36.38498495 98.03404821 35.77693187 107.35594769 33.125 117.1875 C32.80380104 118.54145668 32.48352488 119.89563253 32.1640625 121.25 C28.31304599 136.61502349 20.9399438 151.53384627 10.125 163.1875 C9.51398438 163.88875 8.90296875 164.59 8.2734375 165.3125 C0.0301073 174.26821676 -11.0320948 180.35326366 -23.1875 181.5 C-38.86738028 182.05017124 -51.02371724 175.87292392 -62.375 165.375 C-73.24478 154.02315537 -80.17724772 140.0529901 -84.875 125.1875 C-85.18953125 124.20265625 -85.5040625 123.2178125 -85.828125 122.203125 C-89.29159924 110.45447708 -90.24154163 98.63837808 -90.1875 86.4375 C-90.18258545 85.11927246 -90.1776709 83.80104492 -90.17260742 82.44287109 C-90.05535846 72.674529 -89.33327325 63.65383448 -86.875 54.1875 C-86.62556641 53.20450928 -86.62556641 53.20450928 -86.37109375 52.20166016 C-80.79402097 30.77640555 -69.45099608 10.10216492 -50.5 -2.125 C-33.75915336 -11.90811245 -16.10239866 -11.26057396 0 0 Z " fill="#000000" transform="translate(282.875,28.8125)"/>
</svg>
