<?xml version="1.0" encoding="UTF-8"?>
<svg version="1.1" xmlns="http://www.w3.org/2000/svg" width="512" height="512">
<path d="M0 0 C0.64807617 0.17660156 1.29615234 0.35320313 1.96386719 0.53515625 C38.4812666 10.65285542 70.05534976 36.6911322 92 67 C92.44118164 67.60215332 92.88236328 68.20430664 93.33691406 68.82470703 C142.20907144 135.98439706 156.41142833 224.59351713 144.46386719 305.63671875 C136.65092708 354.70036336 119.43286502 403.00815097 88 442 C87.55479004 442.55945313 87.10958008 443.11890625 86.65087891 443.6953125 C64.14398181 471.82685067 35.02198943 494.20328557 0 504 C-0.6796582 504.19754883 -1.35931641 504.39509766 -2.05957031 504.59863281 C-24.51518499 510.87224076 -51.65509935 510.45448111 -74 504 C-74.64807617 503.82339844 -75.29615234 503.64679688 -75.96386719 503.46484375 C-111.70096844 493.56333802 -142.79379286 468.0885329 -164.69726562 438.74267578 C-165.9351735 437.0867188 -167.19300348 435.44766486 -168.453125 433.80859375 C-216.93803948 369.55972563 -229.53796054 280.02575036 -219 202 C-210.43584622 143.90727019 -188.38156465 89.18674604 -148 46 C-146.69482422 44.59621094 -146.69482422 44.59621094 -145.36328125 43.1640625 C-126.03273551 22.85220254 -101.01954494 7.55818758 -74 0 C-72.9805127 -0.29632324 -72.9805127 -0.29632324 -71.94042969 -0.59863281 C-49.48481501 -6.87224076 -22.34490065 -6.45448111 0 0 Z " fill="#010101" transform="translate(293,4)"/>
<path d="M0 0 C0.64807617 0.17660156 1.29615234 0.35320313 1.96386719 0.53515625 C38.4812666 10.65285542 70.05534976 36.6911322 92 67 C92.44118164 67.60215332 92.88236328 68.20430664 93.33691406 68.82470703 C142.20907144 135.98439706 156.41142833 224.59351713 144.46386719 305.63671875 C136.65092708 354.70036336 119.43286502 403.00815097 88 442 C87.55479004 442.55945313 87.10958008 443.11890625 86.65087891 443.6953125 C64.14398181 471.82685067 35.02198943 494.20328557 0 504 C-0.6796582 504.19754883 -1.35931641 504.39509766 -2.05957031 504.59863281 C-24.51518499 510.87224076 -51.65509935 510.45448111 -74 504 C-74.64807617 503.82339844 -75.29615234 503.64679688 -75.96386719 503.46484375 C-111.70096844 493.56333802 -142.79379286 468.0885329 -164.69726562 438.74267578 C-165.9351735 437.0867188 -167.19300348 435.44766486 -168.453125 433.80859375 C-216.93803948 369.55972563 -229.53796054 280.02575036 -219 202 C-210.43584622 143.90727019 -188.38156465 89.18674604 -148 46 C-146.69482422 44.59621094 -146.69482422 44.59621094 -145.36328125 43.1640625 C-126.03273551 22.85220254 -101.01954494 7.55818758 -74 0 C-72.9805127 -0.29632324 -72.9805127 -0.29632324 -71.94042969 -0.59863281 C-49.48481501 -6.87224076 -22.34490065 -6.45448111 0 0 Z M-140.1875 67.875 C-145.88359933 74.62335726 -151.06730611 81.67993825 -156 89 C-156.59047119 89.85972412 -156.59047119 89.85972412 -157.19287109 90.73681641 C-181.69110527 126.6775796 -196.40650483 172.67260029 -200 216 C-200.08991211 217.06436279 -200.17982422 218.12872559 -200.27246094 219.2253418 C-205.86003178 292.98227116 -192.08760712 372.52142178 -144 431 C-143.31236572 431.84788086 -143.31236572 431.84788086 -142.61083984 432.71289062 C-119.56189632 461.01122129 -87.1866468 484.09560544 -50 488 C-34.85256525 489.07954992 -20.56521318 488.30516733 -6 484 C-4.78054688 483.67257812 -3.56109375 483.34515625 -2.3046875 483.0078125 C13.78086949 478.24815525 29.17316266 469.76315754 42 459 C43.1364889 458.07653997 44.2732203 457.15337833 45.41015625 456.23046875 C64.47531093 440.53787869 78.76362263 421.3353385 91 400 C91.42522949 399.26475098 91.85045898 398.52950195 92.28857422 397.77197266 C104.2210903 376.9026856 111.8796449 354.16590503 118 331 C118.23557617 330.14148438 118.47115234 329.28296875 118.71386719 328.3984375 C138.65243363 254.90163908 127.74062856 168.09697586 90.27734375 102.12109375 C67.6195727 63.48088271 35.12423578 31.06871283 -9 19 C-10.16789063 18.66226562 -11.33578125 18.32453125 -12.5390625 17.9765625 C-60.90464294 6.07622781 -109.23786692 32.03727416 -140.1875 67.875 Z " fill="#FDFDFD" transform="translate(293,4)"/>
<path d="M0 0 C2.29724648 3.40881736 2.69221928 4.84983052 1.9375 8.875 C-0.20426245 12.35999124 -1.45676143 13.67806387 -5.390625 14.95703125 C-7.33195312 15.31861328 -7.33195312 15.31861328 -9.3125 15.6875 C-26.7978544 19.49609156 -41.63891576 28.93304763 -51.53125 44.0625 C-59.31000645 58.35001185 -63.08809516 74.93855195 -59.19140625 91.06640625 C-54.01943883 107.59974472 -44.93483629 118.39226004 -30.0625 126.875 C-22.59046232 130.78050293 -14.95889006 132.23774817 -6.625 132.125 C-5.87637695 132.11605713 -5.12775391 132.10711426 -4.35644531 132.09790039 C8.53194866 131.82717117 20.74204325 127.28939619 29.9375 117.875 C39.96490653 105.49603353 44.2490858 91.77797777 42.9375 75.875 C40.42778768 64.55277512 33.39438625 54.08208566 23.87890625 47.4375 C13.95848656 41.49585826 2.51331421 38.98380103 -8.87890625 41.49609375 C-19.16246982 44.78741922 -27.82749889 50.73111062 -32.9140625 60.375 C-37.54044744 70.44604206 -38.76955793 79.82734537 -35.08984375 90.52734375 C-31.00036303 99.87250692 -23.92525874 104.48646866 -14.6875 108.25 C-6.12994914 109.7254398 3.02274858 109.87462527 10.9375 105.875 C16.27294693 101.49152078 18.58869574 96.37115437 19.2734375 89.5078125 C19.35184024 82.46724633 19.37985642 76.60520567 14.9375 70.875 C10.61833123 66.55583123 5.97617795 64.84506731 -0.0625 64.5 C-4.31901706 64.61394118 -6.78598886 66.13187439 -10.0625 68.875 C-13.68758161 72.84532747 -13.57221662 76.11522174 -13.40625 81.30859375 C-13.22076322 84.00233005 -13.22076322 84.00233005 -11.5 86.4375 C-8.9978981 88.05974184 -8.9978981 88.05974184 -5.5625 88.8125 C-1.42595571 90.06823666 -0.18123309 91.14602975 1.9375 94.875 C2.68562849 98.86501861 2.28653824 100.33980804 0.0625 103.75 C-4.39874889 106.78364924 -7.82183919 106.80295445 -13.0625 105.875 C-21.44039422 103.19308966 -25.99906523 98.55924399 -30.08984375 90.96875 C-33.60272752 83.06880861 -32.83274568 74.24982568 -30.09765625 66.22265625 C-26.35472236 57.73396466 -19.48704232 51.39118883 -10.875 48 C-0.76667956 45.0720727 10.11178035 46.21836447 19.34375 51.1640625 C28.16297356 56.66137852 33.62449992 63.72090934 36.47241211 73.76074219 C39.09102889 85.66479536 37.38537229 100.51234811 30.9375 110.875 C25.77826029 118.65404056 18.48889491 122.5823312 9.9375 125.875 C-6.30017078 129.05273421 -22.05106924 126.83792568 -36.0625 117.875 C-45.98938682 109.86610176 -52.17138475 100.30809203 -55.0625 87.875 C-56.6906083 71.31925276 -53.74452361 57.60823503 -44.0625 43.875 C-34.71245947 32.54800116 -21.77514198 24.34311091 -6.99072266 22.63574219 C10.72167216 21.22191 27.51251209 26.47432744 41.125 38.0625 C52.59683387 48.93342829 60.3945063 62.58809705 61.30859375 78.53125 C61.80072824 98.0585864 56.91419622 115.09824532 43.31347656 129.59350586 C31.35950248 141.79768871 16.51862573 149.58469047 -0.68359375 150.17578125 C-2.62234644 150.19016175 -4.56120482 150.19398426 -6.5 150.1875 C-7.93956055 150.21166992 -7.93956055 150.21166992 -9.40820312 150.23632812 C-25.46055931 150.24713779 -39.70268761 143.78959448 -52.0625 133.875 C-52.78308594 133.31941406 -53.50367188 132.76382813 -54.24609375 132.19140625 C-66.98955317 121.83268778 -75.93955562 105.10791897 -78.0625 88.875 C-79.98442582 64.63646339 -75.3529939 43.927392 -59.65625 24.84375 C-48.9124042 12.5465771 -17.489636 -12.1356658 0 0 Z " fill="#FBFBFB" transform="translate(345.0625,174.125)"/>
<path d="M0 0 C12.8822975 2.85128185 24.03244171 8.21612881 34.2421875 16.5234375 C35.01046875 17.11640625 35.77875 17.709375 36.5703125 18.3203125 C50.47785359 29.69920975 61.21638768 48.64978779 63.2421875 66.5234375 C64.98566022 90.43075175 60.60918791 110.47231517 44.60546875 129.03125 C32.26079972 142.04926462 14.98902044 151.04238566 -2.99609375 151.8984375 C-5.29135545 151.95469472 -7.58702275 151.9962243 -9.8828125 152.0234375 C-10.96731689 152.04212891 -12.05182129 152.06082031 -13.16918945 152.08007812 C-28.50510633 151.9592039 -42.29970011 145.46859491 -53.7578125 135.5234375 C-54.88703125 134.55470703 -54.88703125 134.55470703 -56.0390625 133.56640625 C-66.62928912 123.79220737 -74.90016205 108.58141134 -75.93481445 94.03491211 C-76.47277886 71.12963065 -76.47277886 71.12963065 -71.7578125 61.5234375 C-71.33371094 60.59789062 -70.90960938 59.67234375 -70.47265625 58.71875 C-62.05317973 41.78598664 -47.901454 31.7996141 -30.42578125 25.7109375 C-16.7021351 21.93234277 -1.61602286 24.37041689 10.8671875 30.6484375 C24.49535223 38.42431618 33.93474525 49.69956659 38.92578125 64.55859375 C42.82777207 78.95559436 40.55797207 93.66007794 33.28515625 106.40625 C25.82854799 117.78363698 14.89101612 124.16134428 1.96484375 127.828125 C-10.65801903 130.18580556 -24.1080492 129.82880474 -35.2734375 122.98046875 C-43.61326618 116.94651985 -48.81109079 109.35875611 -51.7578125 99.5234375 C-52.30800563 95.71236816 -52.37903975 91.99459097 -52.3203125 88.1484375 C-52.31008057 87.13837646 -52.29984863 86.12831543 -52.28930664 85.08764648 C-51.98394728 74.35508686 -49.16924594 66.03192009 -41.6328125 58.203125 C-33.33189523 50.76688662 -23.77739331 47.90168117 -12.7109375 48.2421875 C-4.48402633 49.02570285 2.32796551 51.6472899 8.2421875 57.5234375 C13.89055099 64.64037549 16.62283402 70.66822654 16.5546875 79.8359375 C16.55049805 80.59487305 16.54630859 81.35380859 16.54199219 82.13574219 C16.38484943 89.89591952 14.8441664 95.76140206 9.2421875 101.5234375 C3.11669668 106.08497322 -1.7431036 108.0732071 -9.375 107.90234375 C-11.7578125 107.5234375 -11.7578125 107.5234375 -14.8828125 105.3984375 C-17.13104302 101.95115071 -17.58050152 100.55461371 -16.7578125 96.5234375 C-13.42435421 91.10656777 -13.42435421 91.10656777 -9.71484375 89.80859375 C-7.73109322 89.37137369 -5.74455758 88.94684219 -3.7578125 88.5234375 C-0.91780646 84.26342845 -1.12689813 80.52401803 -1.7578125 75.5234375 C-3.92084279 71.11726469 -6.16896174 68.3589778 -10.7578125 66.5234375 C-16.73525439 65.71293691 -21.43641553 66.55573535 -26.7578125 69.5234375 C-31.8417668 73.7035777 -33.44376249 77.54822692 -34.12890625 84.0390625 C-34.27225433 92.10028379 -34.107122 99.09914714 -28.7578125 105.5234375 C-26.2209264 107.36934295 -23.72523823 108.53636492 -20.7578125 109.5234375 C-19.7678125 109.8534375 -18.7778125 110.1834375 -17.7578125 110.5234375 C-6.63460987 111.40381275 3.36957836 109.56033441 12.2421875 102.5234375 C17.77792695 97.39775282 21.67951683 91.20182282 22.58984375 83.6328125 C22.94536775 71.57591155 19.33353511 62.2084837 11.23828125 53.32421875 C5.84609397 48.10566183 0.42709804 45.5261606 -6.7578125 43.5234375 C-7.41910156 43.33136719 -8.08039063 43.13929688 -8.76171875 42.94140625 C-20.01663168 40.58470237 -30.09070715 43.97797486 -39.5078125 49.99609375 C-49.02088276 56.45375082 -55.07891027 64.97522401 -57.3125 76.34765625 C-59.53848034 92.22241078 -55.56326465 104.32976657 -46.54296875 117.265625 C-39.9804567 125.79468107 -29.30792196 131.65599112 -18.7578125 133.5234375 C-1.19969975 134.49062168 14.12797747 131.66937392 27.9921875 120.0234375 C38.3409775 110.06291379 45.10469343 96.04630815 45.65966797 81.62744141 C45.84760107 62.46284914 39.25231075 47.25763075 26.22265625 33.37109375 C17.04625204 24.50113718 4.04046299 18.51679118 -8.6328125 17.0859375 C-12.30325145 16.42525849 -13.48189224 15.41210552 -15.7578125 12.5234375 C-17.20212105 9.63482041 -17.13469756 7.72696049 -16.7578125 4.5234375 C-12.26323464 -2.14593609 -7.13598717 -1.23313093 0 0 Z " fill="#FBFBFB" transform="translate(182.7578125,172.4765625)"/>
<path d="M0 0 C0.67675781 0.53238281 1.35351562 1.06476563 2.05078125 1.61328125 C3.38273781 2.61511432 4.71564178 3.61569397 6.05078125 4.61328125 C4.65773184 12.02102634 2.93178502 19.31498662 1.05078125 26.61328125 C0.11878906 26.2265625 -0.81320312 25.83984375 -1.7734375 25.44140625 C-27.56772916 14.85607721 -50.82306166 11.76234235 -77.2421875 22.4296875 C-79.8900508 23.54720624 -79.8900508 23.54720624 -82.125 24.765625 C-83.94921875 25.61328125 -83.94921875 25.61328125 -86.94921875 25.61328125 C-87.78728491 22.67705661 -88.61984319 19.73946058 -89.44921875 16.80078125 C-89.68769531 15.96740234 -89.92617187 15.13402344 -90.171875 14.27539062 C-90.39746094 13.47294922 -90.62304688 12.67050781 -90.85546875 11.84375 C-91.06494141 11.10535889 -91.27441406 10.36696777 -91.49023438 9.60620117 C-91.94921875 7.61328125 -91.94921875 7.61328125 -91.94921875 4.61328125 C-67.78881632 -18.61787493 -26.41871996 -19.84826111 0 0 Z " fill="#FCFCFC" transform="translate(298.94921875,413.38671875)"/>
</svg>
