<?xml version="1.0" encoding="UTF-8"?>
<svg version="1.1" xmlns="http://www.w3.org/2000/svg" width="512" height="512">
<path d="M0 0 C0.74027284 -0.00295142 1.48054568 -0.00590285 2.24325103 -0.00894371 C4.74349915 -0.01766037 7.24370115 -0.01921768 9.74396324 -0.02082157 C11.54680185 -0.0255508 13.3496394 -0.03070147 15.15247571 -0.03623921 C20.12220905 -0.05016908 25.09193504 -0.05773561 30.06168294 -0.0642122 C34.32049677 -0.07057655 38.5792985 -0.08064757 42.8381048 -0.09077286 C56.87096788 -0.12412051 70.90383832 -0.14562226 84.93672806 -0.16397271 C88.58970365 -0.16876643 92.24267893 -0.17374991 95.8956542 -0.17877793 C118.5704296 -0.20974694 141.24520754 -0.23643796 163.91999817 -0.25319672 C169.17376904 -0.25714635 174.42753987 -0.26114932 179.68131065 -0.2652216 C181.64005861 -0.26673414 181.64005861 -0.26673414 183.63837723 -0.26827724 C204.7971055 -0.28528801 225.95571688 -0.3264009 247.11438806 -0.37724458 C268.82771443 -0.42899275 290.54098066 -0.45813527 312.25436819 -0.4653936 C324.44962928 -0.47005929 336.64469895 -0.48484678 348.83989906 -0.5251379 C359.22498483 -0.55940663 369.60984467 -0.57338994 379.99498375 -0.56071376 C385.29440012 -0.55487961 390.59333846 -0.55880442 395.89268303 -0.5888834 C400.74511008 -0.6162011 405.59671846 -0.61578085 410.44916336 -0.59337295 C412.20360844 -0.59014456 413.9581079 -0.59705015 415.71246238 -0.61517017 C431.89929598 -0.77220834 431.89929598 -0.77220834 438.16985011 4.39466685 C442.82818497 9.33436626 444.41265462 14.01580785 444.29419518 20.82944393 C444.29909696 21.94446816 444.29909696 21.94446816 444.30409777 23.08201814 C444.31031708 25.55838187 444.28822423 28.03366312 444.26627159 30.50992489 C444.26518218 32.29338213 444.26593778 34.07684131 444.26839256 35.8602972 C444.27018029 39.70112705 444.2598226 43.54166534 444.24031258 47.38244534 C444.2102389 53.5025889 444.2130346 59.62245557 444.22101402 65.74265194 C444.23607895 80.97700767 444.21494686 96.21129015 444.17319298 111.44559383 C444.14090723 123.23065969 444.12237589 135.01539336 444.14470541 146.8004992 C444.15312521 151.86407626 444.15053241 156.92704434 444.11827278 161.9905386 C443.97637503 184.95323855 445.0097911 207.13164471 448.71502304 229.8274107 C453.25680211 257.81558213 449.10590402 283.41733799 432.5445919 306.94547176 C414.70130663 331.37634388 391.3599704 347.66866325 361.534338 353.5929327 C355.69879275 354.50174712 349.70356535 354.22812736 343.815588 354.1398077 C345.05614975 361.24649531 346.86811685 367.95971386 349.253088 374.7648077 C349.77153282 376.24436947 349.77153282 376.24436947 350.30045128 377.75382137 C362.66039158 412.10838119 381.63980066 442.62014446 405.331213 470.22965145 C407.55615866 472.83591642 409.74178038 475.46059546 411.878088 478.1398077 C412.40531456 478.7998077 412.93254112 479.4598077 413.47574425 480.1398077 C417.10890505 485.56306814 417.58262034 490.78023574 416.815588 497.1398077 C414.99034444 503.33689211 411.12598131 507.57901033 405.815588 511.1398077 C402.31848129 512.30550994 399.51607586 512.30279201 395.82486534 512.34854794 C395.11711967 512.35833172 394.40937401 512.3681155 393.6801815 512.37819576 C391.33731514 512.40811225 388.99450594 512.42952926 386.6515255 512.44840145 C385.84910046 512.45497328 385.04667542 512.4615451 384.21993446 512.46831608 C379.96912206 512.50089951 375.71833455 512.52534813 371.46744347 512.544837 C367.95990778 512.56261743 364.45318102 512.5973851 360.94595909 512.64737606 C356.70190554 512.70779167 352.45859919 512.73834203 348.21413612 512.74800968 C346.60265595 512.7565323 344.99119402 512.77527129 343.37996101 512.8047533 C334.13006717 512.96483813 326.94425487 512.80317208 319.815588 506.1398077 C318.95449425 505.36121395 318.0934005 504.5826202 317.206213 503.7804327 C283.81445913 466.48891195 266.99444199 418.65696872 250.815588 372.1398077 C248.05441158 373.73198588 245.29332843 375.32432534 242.53238487 376.91690731 C240.17079744 378.27907906 237.80876471 379.64047448 235.44644737 381.00137997 C229.93112719 384.17991269 224.42009563 387.36504453 218.92886925 390.5851202 C218.05786583 391.09454159 217.18686241 391.60396297 216.28946495 392.12882137 C214.66742068 393.07854886 213.04738675 394.03172 211.42960167 394.98868465 C206.03864754 398.1398077 206.03864754 398.1398077 203.815588 398.1398077 C209.87920416 405.67624019 216.13709481 413.01731599 222.487463 420.3116827 C225.63500379 423.92715058 228.76095329 427.56061327 231.878088 431.2023077 C232.36897911 431.77569881 232.85987022 432.34908993 233.36563683 432.93985653 C234.35444003 434.09511288 235.34312849 435.25046746 236.33170128 436.40592098 C238.82454324 439.31874816 241.32021566 442.22914831 243.815588 445.1398077 C244.8156014 446.30646288 245.8156014 447.47312954 246.815588 448.6398077 C247.310588 449.2173077 247.805588 449.7948077 248.315588 450.3898077 C249.815588 452.1398077 251.315588 453.8898077 252.815588 455.6398077 C253.3113131 456.2177911 253.80703819 456.7957745 254.31778526 457.39127254 C255.31191141 458.55181558 256.30460168 459.71359021 257.29581261 460.87662411 C259.87493495 463.89896021 262.47965744 466.89233973 265.13199425 469.8507452 C265.94700401 470.77113583 265.94700401 470.77113583 266.77847862 471.7101202 C267.8083262 472.87199952 268.84678434 474.02633215 269.89566612 475.1710577 C274.70290071 480.63112661 277.46434389 486.75945153 277.0890255 494.13590145 C276.10800512 501.32537939 273.29931428 505.18080043 267.753088 509.79215145 C264.61095434 511.97770813 261.98109619 512.26584553 258.264925 512.27402878 C257.32623534 512.27848662 256.38754568 512.28294447 255.42041087 512.2875374 C253.87068328 512.28726085 253.87068328 512.28726085 252.28964806 512.28697872 C251.19354816 512.29065541 250.09744826 512.2943321 248.96813321 512.2981202 C245.27632961 512.30917867 241.58455414 512.31300454 237.89273643 512.31680965 C235.25343723 512.32307261 232.61414106 512.32970629 229.97484398 512.33672237 C222.04125454 512.35648424 214.10766383 512.36655238 206.17405593 512.37545016 C202.43822514 512.37983329 198.70239576 512.38520002 194.96656609 512.39043903 C182.54842867 512.40745061 170.13029213 512.42194509 157.71214485 512.42918777 C154.48962719 512.43109767 151.26710954 512.43301801 148.0445919 512.43497372 C146.84317786 512.43569933 146.84317786 512.43569933 145.61749282 512.4364396 C132.64081652 512.44474109 119.66423236 512.47008032 106.68759629 512.50255439 C93.36574947 512.53562068 80.04394948 512.55363612 66.7220614 512.55683202 C59.24188476 512.55899746 51.76184251 512.56775104 44.28170586 512.59329319 C37.91172055 512.61499431 31.54190229 512.62305356 25.17188421 512.61332641 C21.92231887 512.60877996 18.67317038 512.61286717 15.42363739 512.63008785 C11.89862019 512.64772456 8.37447963 512.6407401 4.84946251 512.62755489 C3.82523367 512.63852414 2.80100482 512.64949339 1.74573874 512.66079503 C-5.05656078 512.59929621 -9.54652586 511.57869775 -14.64057851 506.76329499 C-20.48161997 500.31006911 -20.56565473 493.29938188 -20.7993412 485.04744625 C-20.85568391 483.29601733 -20.85568391 483.29601733 -20.91316485 481.509206 C-21.41873018 463.62042454 -21.34182936 445.7195696 -21.34445477 427.82533395 C-21.34633167 422.30208274 -21.35389056 416.77883847 -21.36058998 411.25559139 C-21.37405613 399.23431024 -21.38017671 387.21303247 -21.38460064 375.19174504 C-21.38737751 367.67822307 -21.39161683 360.16470234 -21.39610481 352.65118122 C-21.4082716 331.81584193 -21.41861808 310.98050343 -21.4219799 290.14516068 C-21.42220153 288.80388073 -21.42242331 287.46260079 -21.42264526 286.12132085 C-21.42286589 284.77706928 -21.42308637 283.4328177 -21.4233067 282.08856612 C-21.42374922 279.39234912 -21.42419635 276.69613212 -21.42464638 273.99991512 C-21.42481046 272.99719552 -21.42481046 272.99719552 -21.42497787 271.97421895 C-21.4286184 250.23924454 -21.44458996 228.50430327 -21.46783674 206.76934157 C-21.49242805 183.73500945 -21.50614527 160.70069266 -21.50734782 137.6663453 C-21.50826439 125.12892469 -21.5140143 112.59154772 -21.53216743 100.05413914 C-21.54754417 89.39809234 -21.55270242 78.74210275 -21.54442933 68.08604697 C-21.54051713 62.65103494 -21.54148111 57.21613824 -21.55548668 51.78114033 C-21.56818774 46.80717782 -21.56706164 41.8334178 -21.55489597 36.85945573 C-21.55293267 35.05999582 -21.55604649 33.26052175 -21.56474033 31.46108178 C-21.57581133 29.01495532 -21.5683598 26.56954638 -21.5563488 24.12343979 C-21.56394399 23.4254053 -21.57153919 22.7273708 -21.57936454 22.00818375 C-21.51588931 16.01814334 -20.19220544 10.49977458 -16.246912 5.86246395 C-15.2259745 5.04068661 -15.2259745 5.04068661 -14.184412 4.2023077 C-13.503787 3.63640926 -12.823162 3.07051083 -12.121912 2.48746395 C-8.26569753 -0.194782 -4.50217891 -0.0059309 0 0 Z " fill="#FDFDFD" transform="translate(41.18441200256348,-0.13980770111083984)"/>
<path d="M0 0 C7.05943238 5.59845713 11.11262148 13.01754447 13.359375 21.68359375 C13.42125 23.47796875 13.42125 23.47796875 13.484375 25.30859375 C13.52175781 26.34757812 13.55914062 27.3865625 13.59765625 28.45703125 C14.04864025 50.34162315 5.66531607 69.02505531 -9.265625 84.96484375 C-10.379375 86.125 -10.379375 86.125 -11.515625 87.30859375 C-12.175625 88.02015625 -12.835625 88.73171875 -13.515625 89.46484375 C-25.49079956 102.01946224 -43.51892029 112.52682292 -61.15234375 113.51171875 C-73.29177744 113.74772595 -82.83686753 112.26627197 -92.515625 104.30859375 C-95.91123328 100.94934102 -98.48291368 97.63874159 -100.515625 93.30859375 C-100.40521176 127.37107768 -88.68019169 163.11184944 -73.515625 193.30859375 C-72.82533203 194.69546387 -72.82533203 194.69546387 -72.12109375 196.11035156 C-60.29684798 219.71984493 -46.44314791 241.44606368 -29.015625 261.3515625 C-27.03902181 263.68951347 -25.18691921 266.04156811 -23.359375 268.4934082 C-22.82505859 269.20922562 -22.29074219 269.92504303 -21.74023438 270.66255188 C-21.33611328 271.2057457 -20.93199219 271.74893951 -20.515625 272.30859375 C-28.19998503 272.49459752 -35.88410956 272.6364223 -43.57021332 272.72309113 C-47.14007004 272.76470716 -50.70837826 272.82107061 -54.27734375 272.91210938 C-57.72694407 272.99954466 -61.17506316 273.0469699 -64.62568665 273.06761169 C-66.57139018 273.08941804 -68.51650374 273.15179295 -70.46130371 273.21496582 C-76.74446153 273.21812795 -80.61381439 273.00188778 -85.21191406 268.46972656 C-86.35091553 267.11352217 -87.4559918 265.72767521 -88.515625 264.30859375 C-89.01456772 263.70264374 -89.51351044 263.09669373 -90.02757263 262.47238159 C-91.3412447 260.87632783 -92.55885343 259.23677893 -93.765625 257.55859375 C-94.22541748 256.92066895 -94.68520996 256.28274414 -95.15893555 255.62548828 C-122.3635588 217.1946534 -138.41837365 171.17843867 -151.515625 126.30859375 C-158.95478059 126.05210185 -165.71224725 126.59670354 -172.953125 128.30859375 C-173.89905518 128.5300708 -174.84498535 128.75154785 -175.81958008 128.97973633 C-200.22793723 135.00506018 -233.03973673 148.59476134 -247.515625 170.30859375 C-246.97035156 170.90285156 -246.42507812 171.49710938 -245.86328125 172.109375 C-241.79176816 176.58455948 -237.82088567 181.10402986 -234.015625 185.80859375 C-231.1074912 189.40337025 -228.13021168 192.89120003 -225.015625 196.30859375 C-221.09671248 200.60851166 -217.42391631 205.06778922 -213.765625 209.58984375 C-211.58060931 212.23007104 -209.32391109 214.77589095 -207.015625 217.30859375 C-203.09671248 221.60851166 -199.42391631 226.06778922 -195.765625 230.58984375 C-193.58060931 233.23007104 -191.32391109 235.77589095 -189.015625 238.30859375 C-185.10038504 242.60448204 -181.43002237 247.05849298 -177.77734375 251.578125 C-174.88465944 255.07032938 -171.84145327 258.4064319 -168.75390625 261.7265625 C-165.82581029 265.10434859 -163.19777834 268.7323893 -160.515625 272.30859375 C-244.665625 272.30859375 -328.815625 272.30859375 -415.515625 272.30859375 C-410.40670703 262.09075782 -405.26952434 252.01594972 -399.703125 242.05859375 C-399.04208193 240.86471385 -398.38127443 239.67070349 -397.72070312 238.4765625 C-391.75064825 227.75607582 -391.75064825 227.75607582 -389.515625 225.30859375 C-387.30363178 224.80078506 -387.30363178 224.80078506 -384.67512512 224.78961182 C-383.67813095 224.77569901 -382.68113678 224.76178619 -381.65393066 224.74745178 C-380.56132935 224.75248215 -379.46872803 224.75751251 -378.34301758 224.76269531 C-376.61597847 224.7471888 -376.61597847 224.7471888 -374.85404968 224.73136902 C-371.0392779 224.70181473 -367.22503379 224.70043912 -363.41015625 224.69921875 C-360.7688444 224.68424571 -358.12754195 224.66752043 -355.48625183 224.64910889 C-349.23897748 224.60852303 -342.99180757 224.58820222 -336.74442166 224.57513499 C-329.63193901 224.5592736 -322.51963432 224.52086173 -315.40725482 224.48054171 C-300.77678189 224.3981076 -286.14628623 224.34403748 -271.515625 224.30859375 C-272.12914825 223.83382599 -272.74267151 223.35905823 -273.37478638 222.86990356 C-274.58556351 221.93100784 -274.58556351 221.93100784 -275.82080078 220.97314453 C-276.61994904 220.35400177 -277.41909729 219.73485901 -278.24246216 219.09695435 C-298.48353425 203.1727385 -314.77704941 182.14035169 -319.515625 156.30859375 C-321.9096943 130.77625382 -312.94346336 109.58508315 -297.265625 89.87109375 C-288.7205787 79.6483179 -279.21418262 71.17197626 -268.515625 63.30859375 C-267.94779297 62.89109863 -267.37996094 62.47360352 -266.79492188 62.04345703 C-241.26859281 43.57276944 -210.53082541 30.73294841 -179.515625 25.30859375 C-178.04971924 25.05154663 -178.04971924 25.05154663 -176.55419922 24.78930664 C-167.92737976 23.40977885 -159.52463623 22.9664348 -150.81201172 22.99291992 C-148.64890084 22.99608165 -146.48716245 22.97249589 -144.32421875 22.94726562 C-131.47060207 22.88780704 -119.04142371 24.4837764 -107.015625 29.24609375 C-106.35691406 29.50406738 -105.69820313 29.76204102 -105.01953125 30.02783203 C-100.37657322 31.87467202 -95.90714089 33.92985598 -91.515625 36.30859375 C-91.26167969 35.75816406 -91.00773437 35.20773438 -90.74609375 34.640625 C-86.71085368 26.9928843 -81.02455006 19.98083279 -74.515625 14.30859375 C-73.63777344 13.53902344 -72.75992187 12.76945312 -71.85546875 11.9765625 C-65.62586169 6.75464127 -59.10065227 2.80959796 -51.765625 -0.69140625 C-50.98606445 -1.06507324 -50.20650391 -1.43874023 -49.40332031 -1.82373047 C-33.60179199 -9.04299109 -14.72446589 -9.90014554 0 0 Z " fill="#000000" transform="translate(457.515625,219.69140625)"/>
<path d="M0 0 C5.94 0 11.88 0 18 0 C18.27397532 51.79762728 18.48623126 103.59516224 18.61278395 155.39337262 C18.62779175 161.51387721 18.64332368 167.63438036 18.65917969 173.75488281 C18.66232741 174.97332267 18.66547514 176.19176252 18.66871825 177.44712479 C18.72088017 197.15486088 18.81546486 216.86217529 18.92583355 236.56966154 C19.03820295 256.80372419 19.10473713 277.03756658 19.12906194 297.27192843 C19.14549654 309.74965163 19.19732883 322.22618281 19.2949976 334.70353891 C19.35861662 343.26929718 19.37755943 351.83444266 19.36201653 360.40041982 C19.35435848 365.33701587 19.36577464 370.27153494 19.4304657 375.20775795 C19.89650128 412.60195149 19.89650128 412.60195149 7.51174021 425.37276196 C5.88118991 427.12788725 4.5378626 428.96782896 3.17329025 430.93520164 C2.45610447 431.9465851 1.73891869 432.95796856 1 434 C0.67 434 0.34 434 0 434 C0 290.78 0 147.56 0 0 Z " fill="#000000" transform="translate(41,20)"/>
<path d="M0 0 C5.94 0 11.88 0 18 0 C18 133.65 18 267.3 18 405 C12.06 405 6.12 405 0 405 C0 271.35 0 137.7 0 0 Z " fill="#000000" transform="translate(91,20)"/>
<path d="M0 0 C6.27 0 12.54 0 19 0 C19.20535922 32.73139721 19.36461004 65.46260864 19.45958797 98.1945031 C19.47084419 102.05968281 19.4824931 105.92486125 19.49438477 109.79003906 C19.49674556 110.55951919 19.49910635 111.32899932 19.50153869 112.12179703 C19.54068978 124.5775877 19.61164449 137.03300415 19.69437516 149.4885729 C19.77857 162.27128845 19.82853541 175.05380815 19.84679645 187.83678961 C19.85913962 195.72341822 19.89810607 203.60898906 19.9712482 211.49529201 C20.02449439 217.54493223 20.03008942 223.59366463 20.01796913 229.64356613 C20.02044572 232.12361029 20.03835695 234.60369438 20.07284927 237.08349991 C20.11766437 240.47156593 20.10686123 243.85511471 20.08229065 247.24328613 C20.10850622 248.22384806 20.1347218 249.20440999 20.16173178 250.21468592 C20.07857586 254.45913331 19.85056238 257.00127789 17.04044139 260.30089474 C14.63938808 262.42229462 14.63938808 262.42229462 12.25418705 264.23754072 C9.45742166 266.42422045 7.49114689 268.9188174 5.38671875 271.75 C4 273 4 273 0 273 C0 182.91 0 92.82 0 0 Z " fill="#0A0A0A" transform="translate(144,20)"/>
<path d="M0 0 C6.27 0 12.54 0 19 0 C19 74.58 19 149.16 19 226 C2 235 2 235 0 235 C0 157.45 0 79.9 0 0 Z " fill="#0A0A0A" transform="translate(194,20)"/>
<path d="M0 0 C6.27 0 12.54 0 19 0 C19 69.3 19 138.6 19 210 C4 214 4 214 0 214 C0 143.38 0 72.76 0 0 Z " fill="#070707" transform="translate(244,20)"/>
<path d="M0 0 C5.94 0 11.88 0 18 0 C18.13884442 26.88575754 18.24594219 53.77142884 18.31087303 80.65747261 C18.34182181 93.14091312 18.38402225 105.62412689 18.45263672 118.10742188 C18.51240696 128.98683188 18.5511417 139.86607769 18.56453097 150.74564731 C18.57235866 156.50732614 18.59077739 162.26853523 18.63438034 168.03006363 C18.67508339 173.45230256 18.68767349 178.87387792 18.67864609 184.29625511 C18.68029774 186.28689237 18.69224617 188.27755165 18.71523285 190.26805687 C18.7450843 192.98617132 18.7379129 195.7017801 18.7215271 198.41995239 C18.73900415 199.20790164 18.7564812 199.99585089 18.77448785 200.80767739 C18.70486774 205.07947888 18.1157508 207.37882145 15.12384987 210.52477837 C12 213 12 213 9.296875 213.18359375 C8.45640625 212.93738281 7.6159375 212.69117188 6.75 212.4375 C5.89921875 212.20933594 5.0484375 211.98117188 4.171875 211.74609375 C2 211 2 211 0 210 C0 140.7 0 71.4 0 0 Z " fill="#000000" transform="translate(347,20)"/>
<path d="M0 0 C5.94 0 11.88 0 18 0 C18 67.65 18 135.3 18 205 C12.06 205.33 6.12 205.66 0 206 C0 138.02 0 70.04 0 0 Z " fill="#000000" transform="translate(293,20)"/>
<path d="M0 0 C6.27 0 12.54 0 19 0 C19 60.06 19 120.12 19 182 C12.59687576 179.86562525 6.29960271 177.42292412 0 175 C0 117.25 0 59.5 0 0 Z " fill="#0A0A0A" transform="translate(446,20)"/>
<path d="M0 0 C5.94 0 11.88 0 18 0 C18 58.08 18 116.16 18 176 C2 182 2 182 0 182 C0 121.94 0 61.88 0 0 Z " fill="#000000" transform="translate(397,20)"/>
</svg>
