<?xml version="1.0" encoding="UTF-8"?>
<svg version="1.1" xmlns="http://www.w3.org/2000/svg" width="512" height="512">
<path d="M0 0 C14.75891808 12.03942454 21.81899777 31.93970383 23.84765625 50.41015625 C25.51886393 83.11854696 17.38376421 114.14845711 -3.8671875 139.5546875 C-5.69275055 141.83586115 -7.02278396 143.74439514 -8.15234375 146.41015625 C-4.94350371 150.45287249 -1.94096909 153.12043074 3.26025391 153.9629364 C4.5394873 154.01085831 5.8187207 154.05878021 7.13671875 154.1081543 C8.18709824 154.153429 8.18709824 154.153429 9.25869751 154.19961834 C11.45482894 154.28852321 13.65050822 154.35220504 15.84765625 154.41015625 C16.52179565 154.43117527 17.19593506 154.45219429 17.89050293 154.47385025 C21.95108054 154.60016768 26.01157278 154.68999751 30.07333374 154.76401711 C33.84602401 154.83540556 37.6182739 154.92643799 41.390625 155.01367188 C46.14128937 155.12234989 50.89188763 155.22527171 55.64306641 155.30883789 C59.5329029 155.37777066 63.42193539 155.46537381 67.31109619 155.56522179 C68.7780333 155.59949713 70.24514518 155.627043 71.71234131 155.64740944 C80.65408726 155.77516913 87.89081554 156.03647327 94.90625 162.2265625 C95.36128906 162.80277344 95.81632812 163.37898437 96.28515625 163.97265625 C96.75824219 164.55144531 97.23132813 165.13023437 97.71875 165.7265625 C99.84647547 168.89974478 99.98057201 171.71032642 100.00878906 175.41308594 C100.01839661 176.4313446 100.02800415 177.44960327 100.03790283 178.49871826 C100.04427765 180.14870819 100.04427765 180.14870819 100.05078125 181.83203125 C100.05648132 182.96537903 100.0621814 184.09872681 100.0680542 185.26641846 C100.07750653 187.66718614 100.0840391 190.0679668 100.08789062 192.46875 C100.09758108 196.13174266 100.12859687 199.79417067 100.16015625 203.45703125 C100.16668792 205.79036125 100.17193775 208.12369527 100.17578125 210.45703125 C100.18812805 211.54892761 100.20047485 212.64082397 100.2131958 213.76580811 C100.18862756 222.20491632 98.8268958 228.07919673 92.84765625 234.41015625 C87.89130305 237.87960349 83.95247535 238.53655807 77.98046875 238.54296875 C76.73201172 238.54498291 75.48355469 238.54699707 74.19726562 238.54907227 C72.78906092 238.54494001 71.38085769 238.54028126 69.97265625 238.53515625 C69.25021729 238.53393768 68.52777832 238.53271912 67.78344727 238.53146362 C51.33581167 238.49994883 34.88933434 238.25307526 18.44380951 238.00399017 C16.35694165 237.97279505 14.27005817 237.94294623 12.1831665 237.91339111 C8.20665374 237.85658358 4.23028612 237.79203987 0.25390625 237.7265625 C-0.93457916 237.70983994 -2.12306458 237.69311737 -3.3475647 237.67588806 C-31.23473186 237.18330195 -50.23892184 221.90474497 -69.25 202.3828125 C-69.87777344 201.73183594 -70.50554687 201.08085937 -71.15234375 200.41015625 C-72.48336026 199.07451011 -73.81603756 197.74051008 -75.15234375 196.41015625 C-86.61914486 207.93795098 -92.29413389 221.20984813 -97.15234375 236.41015625 C-96.46011719 237.18875 -95.76789063 237.96734375 -95.0546875 238.76953125 C-40.4465013 300.91053535 -13.91296721 375.02000515 4.29830933 454.24975586 C4.70142921 456.00258041 5.10754585 457.75471886 5.51687622 459.50610352 C11.00743975 483.10627852 11.00743975 483.10627852 6.19140625 491.5859375 C3.18797172 495.66327449 -0.33728082 498.80513527 -5.15234375 500.41015625 C-7.39405518 500.52506556 -9.6390129 500.57956921 -11.88354492 500.60302734 C-12.56363617 500.61120483 -13.24372742 500.61938232 -13.94442749 500.62780762 C-16.19471367 500.6526135 -18.44493682 500.66916785 -20.6953125 500.68359375 C-21.85117576 500.69157927 -21.85117576 500.69157927 -23.03038979 500.6997261 C-27.11147694 500.72644064 -31.19253373 500.74581833 -35.27368164 500.76025391 C-38.64244852 500.77357561 -42.01060714 500.80139684 -45.37915039 500.84228516 C-49.45459421 500.89174848 -53.52948775 500.91639175 -57.60521889 500.92348099 C-59.15330323 500.93017107 -60.70137638 500.94533454 -62.24928856 500.9693718 C-77.1796345 501.18793948 -77.1796345 501.18793948 -82.6164856 496.93544006 C-87.93234196 491.65618322 -89.95320878 486.94919132 -91.109375 479.59375 C-91.25790421 478.75281296 -91.40643341 477.91187592 -91.5594635 477.04545593 C-91.87668793 475.24745891 -92.18665738 473.44816908 -92.4899292 471.64776611 C-93.29700129 466.88924583 -94.17478203 462.14394858 -95.0546875 457.3984375 C-95.22969788 456.45212463 -95.40470825 455.50581177 -95.58502197 454.53082275 C-103.0114221 414.94081852 -117.49353114 376.44306677 -139.15234375 342.41015625 C-139.64460449 341.63591309 -140.13686523 340.86166992 -140.64404297 340.06396484 C-143.77744447 335.15539228 -146.95025717 330.2741623 -150.15234375 325.41015625 C-150.37784912 326.51750122 -150.37784912 326.51750122 -150.60791016 327.6472168 C-166.27032291 404.01183773 -166.27032291 404.01183773 -184.15234375 416.41015625 C-187.0081846 417.97325337 -189.93961913 419.21328492 -192.96484375 420.41015625 C-194.20935303 420.91542847 -194.20935303 420.91542847 -195.47900391 421.4309082 C-255.22102236 445.32205283 -320.09955622 445.52756981 -380.15234375 422.41015625 C-380.9604248 422.10432617 -381.76850586 421.79849609 -382.60107422 421.48339844 C-391.57202754 418.04099026 -398.15893908 415.13243185 -403.25024414 406.56201172 C-405.74698649 400.60631833 -405.0669793 393.52549468 -402.88330078 387.56542969 C-401.17199497 383.3869792 -399.2016963 379.33783923 -397.21484375 375.28515625 C-396.5187184 373.82404655 -395.82464032 372.36195977 -395.13256836 370.89892578 C-393.77190658 368.02971333 -392.39855921 365.16713075 -391.015625 362.30859375 C-389.4204309 358.99586977 -387.90696257 355.65416782 -386.43359375 352.28515625 C-379.00388027 335.40016142 -379.00388027 335.40016142 -370.15625 331.5390625 C-362.42915744 329.11399057 -355.50610988 331.35550016 -348.52734375 334.72265625 C-320.76448245 347.43661133 -292.04447036 346.59542942 -263.4609375 337.3984375 C-260.15234375 336.41015625 -260.15234375 336.41015625 -257.15234375 336.41015625 C-251.45568697 311.00976895 -247.38724212 285.35349663 -243.66827393 259.60232544 C-235.79486106 205.16512226 -235.79486106 205.16512226 -227.15234375 183.41015625 C-226.83958496 182.6227002 -226.52682617 181.83524414 -226.20458984 181.02392578 C-221.16081693 168.60604462 -214.80328532 157.40785402 -207.33813477 146.29101562 C-206.13576209 144.38385501 -205.12629783 142.44206971 -204.15234375 140.41015625 C-206.27984531 140.63788881 -208.40442431 140.89306443 -210.52734375 141.16015625 C-211.71070313 141.299375 -212.8940625 141.43859375 -214.11328125 141.58203125 C-217.21084586 142.06679468 -217.21084586 142.06679468 -218.34375 144.21484375 C-218.61058594 144.93929687 -218.87742188 145.66375 -219.15234375 146.41015625 C-220.30983934 147.89241679 -221.50125361 149.34846166 -222.71484375 150.78515625 C-235.31957818 166.39861572 -243.21375016 183.56270116 -249.36352539 202.56811523 C-253.67276655 215.65430832 -253.67276655 215.65430832 -259.71484375 218.72265625 C-265.39181789 221.50953447 -269.89913042 222.26557774 -276.15234375 221.41015625 C-280.8754982 219.78598278 -285.31041097 217.62752105 -289.77734375 215.41015625 C-291.02301446 214.80696983 -292.26935838 214.20517181 -293.51635742 213.60473633 C-295.96224599 212.42343121 -298.40226782 211.23111403 -300.83837891 210.02978516 C-303.63916357 208.66096201 -306.45217562 207.33847047 -309.2890625 206.046875 C-316.49763576 202.7181652 -322.8916523 199.44888095 -327.15234375 192.41015625 C-333.50299433 173.35820452 -319.56253703 147.3297848 -311.32421875 130.56640625 C-305.65269037 119.31996054 -299.50867624 108.62913396 -292.15234375 98.41015625 C-291.61851074 97.65750488 -291.08467773 96.90485352 -290.53466797 96.12939453 C-268.93822943 65.7432116 -268.93822943 65.7432116 -250.39819336 62.46948242 C-249.16206299 62.26427979 -247.92593262 62.05907715 -246.65234375 61.84765625 C-245.35498291 61.63149658 -244.05762207 61.41533691 -242.72094727 61.19262695 C-199.61633791 54.15511943 -157.01031264 57.45462944 -114.15234375 64.41015625 C-113.97348633 63.70818115 -113.79462891 63.00620605 -113.61035156 62.28295898 C-112.08477708 56.4692966 -110.3752152 50.95016904 -107.90234375 45.47265625 C-107.5993335 44.79444824 -107.29632324 44.11624023 -106.98413086 43.41748047 C-96.60358329 20.63980777 -79.7210379 0.77194987 -56.08984375 -8.58984375 C-36.60284984 -15.66708744 -16.48817561 -12.17910612 0 0 Z " fill="#FDFDFD" transform="translate(408.15234375,11.58984375)"/>
<path d="M0 0 C2.70652719 0.01072568 5.41238901 0.00001703 8.11889648 -0.01269531 C24.54569598 -0.02604697 40.76254539 1.47015555 57.02319336 3.76074219 C57.90233398 3.87804687 58.78147461 3.99535156 59.68725586 4.11621094 C65.29619585 4.89014479 70.76082641 5.96634023 76.27319336 7.26074219 C76.2930127 7.83405273 76.31283203 8.40736328 76.33325195 8.99804688 C77.17878029 32.28978314 79.95937611 55.06660684 96.52319336 73.01074219 C107.26677332 82.96645962 119.76397777 87.89845729 134.38989258 87.66552734 C144.11427926 87.2596603 152.30780986 84.59995864 160.89819336 80.15136719 C163.27319336 79.26074219 163.27319336 79.26074219 165.32397461 79.36230469 C167.96484058 80.5795375 169.48240029 82.25970774 171.46069336 84.38574219 C173.0179871 86.05571581 174.63156421 87.67359713 176.27319336 89.26074219 C176.82037018 89.83779907 177.367547 90.41485596 177.93130493 91.00939941 C185.00065623 97.57467258 192.50832581 97.32301416 201.62866211 97.34667969 C203.21899789 97.37604778 204.8092786 97.40854659 206.39949036 97.44400024 C210.57133393 97.52917165 214.7426394 97.57437861 218.91516113 97.61022949 C223.94878951 97.66067923 228.98168242 97.75791316 234.01472187 97.84826088 C237.93907567 97.91782473 241.86312402 97.98089586 245.78788757 98.02206421 C254.65529272 98.12421028 263.43200493 98.51234726 272.27319336 99.26074219 C272.3832098 109.16222223 272.25413694 119.01758069 271.76928711 128.90917969 C271.72187378 129.91166748 271.67446045 130.91415527 271.62561035 131.94702148 C271.51003413 134.38502559 271.39253558 136.82292004 271.27319336 139.26074219 C255.14720213 139.31422746 239.02218831 139.32597141 222.89622498 139.27502441 C216.00790232 139.25541342 209.12220606 139.27025822 202.23439026 139.36051941 C198.89228277 139.39716612 195.55107585 139.39542308 192.20883179 139.38180542 C190.73752315 139.38438186 189.26612152 139.4039985 187.7953186 139.44265747 C175.5442539 139.75170333 168.54249892 135.55825138 159.27319336 128.26074219 C158.26780518 127.49810059 157.26241699 126.73545898 156.2265625 125.94970703 C143.79706147 116.37036718 131.37170808 104.45777162 124.27319336 90.26074219 C103.79698589 97.63678691 90.78125848 115.06046463 81.68334961 133.99121094 C79.08838871 140.00778233 76.90330569 146.12884633 74.9128418 152.36914062 C74.27319336 154.26074219 74.27319336 154.26074219 73.03100586 157.11230469 C72.00378521 159.9030723 71.65015856 161.33763157 72.27319336 164.26074219 C75.31683593 168.45736246 78.88177564 171.93194555 82.58618164 175.54003906 C85.25890141 178.26613587 87.57803838 181.23397931 89.89819336 184.26074219 C90.35323242 184.85161621 90.80827148 185.44249023 91.27709961 186.05126953 C92.18110603 187.22809218 93.08331959 188.40629447 93.98364258 189.5859375 C95.17690876 191.13569252 96.39775528 192.66410565 97.62084961 194.19042969 C110.46317164 210.35589014 121.87294881 227.88027192 131.27319336 246.26074219 C131.95212646 247.57389404 131.95212646 247.57389404 132.64477539 248.91357422 C139.23636396 261.77819874 144.90155849 274.90550691 150.08569336 288.38574219 C150.34637604 289.05806885 150.60705872 289.73039551 150.87564087 290.4230957 C158.26703861 309.58500209 163.74495736 329.31573731 168.65356445 349.24023438 C169.39848592 352.26192894 170.15349424 355.28096978 170.90991211 358.29980469 C173.45877341 368.52750611 175.88290085 378.77709666 178.14038086 389.07324219 C178.35622833 390.05236572 178.57207581 391.03148926 178.79446411 392.0402832 C178.98966644 392.94447998 179.18486877 393.84867676 179.38598633 394.78027344 C179.5580661 395.5753833 179.73014587 396.37049316 179.90744019 397.18969727 C180.27319336 399.26074219 180.27319336 399.26074219 180.27319336 402.26074219 C161.46319336 402.26074219 142.65319336 402.26074219 123.27319336 402.26074219 C118.27319336 378.26074219 118.27319336 378.26074219 116.39819336 368.38574219 C110.55735398 339.32061291 101.33545054 310.89803111 88.27319336 284.26074219 C87.86520508 283.42559082 87.4572168 282.59043945 87.03686523 281.72998047 C76.99601774 261.39918049 64.60120608 242.5685889 51.27319336 224.26074219 C50.42990479 223.09865234 50.42990479 223.09865234 49.56958008 221.91308594 C42.68739876 212.44557512 35.67927315 203.10044706 28.38256836 193.94824219 C26.27319336 191.26074219 26.27319336 191.26074219 24.27319336 188.26074219 C24.25861084 189.32172119 24.24402832 190.3827002 24.22900391 191.47583008 C23.62364387 232.32542098 23.62364387 232.32542098 20.27319336 250.26074219 C19.99330566 251.78755615 19.99330566 251.78755615 19.70776367 253.34521484 C17.13996083 266.92109459 13.60656724 280.09368215 9.27319336 293.19824219 C8.87028076 294.42357666 8.46736816 295.64891113 8.05224609 296.91137695 C0.72565743 318.37653206 0.72565743 318.37653206 -6.53930664 322.51074219 C-8.93052149 323.51647647 -11.28013615 324.41347944 -13.72680664 325.26074219 C-15.04213379 325.72407959 -15.04213379 325.72407959 -16.3840332 326.19677734 C-27.3532043 330.00051478 -38.45014061 333.3684426 -49.72680664 336.13574219 C-50.48856201 336.326604 -51.25031738 336.51746582 -52.03515625 336.71411133 C-65.75764647 339.90575807 -79.64955939 340.59338746 -93.68310547 340.52148438 C-96.15951076 340.51076295 -98.63518864 340.52145896 -101.11157227 340.53417969 C-116.42795569 340.54971873 -131.34488439 339.28400647 -146.22680664 335.51074219 C-147.28359619 335.2490625 -148.34038574 334.98738281 -149.42919922 334.71777344 C-163.71104687 331.10052747 -177.31395776 326.34180872 -190.72680664 320.26074219 C-190.16055668 314.71547403 -188.12671203 310.37627681 -185.72680664 305.43261719 C-185.33106445 304.60240051 -184.93532227 303.77218384 -184.52758789 302.91680908 C-183.26771142 300.27801122 -181.99742276 297.64438287 -180.72680664 295.01074219 C-179.87195156 293.22461317 -179.01777745 291.43815807 -178.16430664 289.65136719 C-172.51276693 277.83266277 -172.51276693 277.83266277 -170.72680664 274.26074219 C-166.47034677 274.92606454 -162.86652571 276.38188083 -158.91430664 278.07324219 C-133.24544434 288.70223028 -102.42293166 289.73191886 -75.72680664 282.26074219 C-74.42549805 281.89940186 -74.42549805 281.89940186 -73.09790039 281.53076172 C-64.22367977 279.02650773 -55.46384285 276.20427737 -46.72680664 273.26074219 C-46.60563477 272.10832031 -46.48446289 270.95589844 -46.35961914 269.76855469 C-45.9140362 266.21786412 -45.16467461 262.83757993 -44.21704102 259.38232422 C-36.70470915 231.95038857 -33.02000334 203.50726014 -29.49830627 175.34368896 C-28.4450919 166.947361 -27.26716389 158.5823052 -25.72680664 150.26074219 C-25.59483887 149.54756836 -25.46287109 148.83439453 -25.3269043 148.09960938 C-17.51756791 107.21067893 1.92704924 77.15999071 31.27319336 48.26074219 C13.3902524 39.9449728 -10.80724718 39.45024598 -29.81665039 44.18652344 C-34.65409067 45.97215575 -37.42991811 48.34528849 -40.72680664 52.26074219 C-41.17620605 52.78249023 -41.62560547 53.30423828 -42.08862305 53.84179688 C-59.09376246 73.71707202 -71.04006867 97.00803341 -77.72680664 122.26074219 C-85.14085219 120.03972423 -91.93909087 116.93148927 -98.88647461 113.53515625 C-100.74837669 112.62520039 -102.61416667 111.72362784 -104.48071289 110.82324219 C-113.57826919 106.40927963 -113.57826919 106.40927963 -114.72680664 105.26074219 C-114.60795999 99.28972234 -113.21566019 93.68707573 -111.28930664 88.07324219 C-111.02980225 87.31205078 -110.77029785 86.55085938 -110.50292969 85.76660156 C-102.46074643 62.94785468 -90.52417222 42.71022265 -76.19018555 23.33203125 C-74.73562695 21.27322659 -73.4387777 19.16539994 -72.14477539 17.00292969 C-68.1825243 10.75763557 -64.70366045 6.46527609 -57.33618164 4.51074219 C-52.36564521 3.52727348 -47.39911992 2.95078551 -42.35009766 2.55810547 C-39.63576666 2.33534048 -36.9463538 2.0682563 -34.2421875 1.75634766 C-22.80209218 0.45825255 -11.51136884 -0.05394171 0 0 Z " fill="#010101" transform="translate(215.726806640625,89.7392578125)"/>
<path d="M0 0 C10.92890641 8.74312513 16.29406365 20.69059269 18.8125 34.25 C19.24659262 38.61430039 19.33694551 42.92849897 19.3125 47.3125 C19.30822998 48.48627197 19.30395996 49.66004395 19.29956055 50.86938477 C19.09921739 61.23838187 17.31279177 70.51694636 13.8125 80.25 C13.40515625 81.38566406 12.9978125 82.52132812 12.578125 83.69140625 C8.2543549 94.68332828 2.62610885 104.38617491 -5.1875 113.25 C-5.92742187 114.09691406 -6.66734375 114.94382812 -7.4296875 115.81640625 C-16.03606041 125.05767552 -26.95709487 132.19160735 -39.73046875 133.65625 C-50.56624014 133.93498367 -58.62949162 131.46674589 -66.9375 124.375 C-80.18504368 109.66633018 -82.14851848 89.68122941 -81.34277344 70.80615234 C-79.90700804 47.17020311 -67.58804262 23.664694 -50.5 7.5625 C-46.95905248 4.61882074 -43.09532117 2.2517346 -39.125 -0.0625 C-38.25838745 -0.56946411 -38.25838745 -0.56946411 -37.37426758 -1.08666992 C-24.40748158 -8.34681991 -12.55309618 -6.89189594 0 0 Z " fill="#010101" transform="translate(392.1875,25.75)"/>
</svg>
