<?xml version="1.0" encoding="UTF-8"?>
<svg version="1.1" xmlns="http://www.w3.org/2000/svg" width="512" height="512">
<path d="M0 0 C1.1088707 -0.01058945 1.1088707 -0.01058945 2.24014282 -0.02139282 C32.9284484 -0.24805157 32.9284484 -0.24805157 45.9765625 3.203125 C46.75773438 3.40180176 47.53890625 3.60047852 48.34375 3.80517578 C77.20004103 11.30578881 102.87697218 25.58481558 124.59375 45.97265625 C126.71257377 47.95601424 128.88133801 49.8355244 131.1015625 51.703125 C150.55774925 68.71248908 165.17972713 92.49040276 176.9765625 115.203125 C177.35377441 115.92483887 177.73098633 116.64655273 178.11962891 117.39013672 C193.81779653 147.82702609 202.57360834 181.37443029 206.9765625 215.203125 C207.09370605 216.06373535 207.21084961 216.9243457 207.33154297 217.81103516 C217.10417741 292.31829718 199.23531808 374.58069697 153.5859375 434.8203125 C143.87550653 447.45804857 133.47096518 460.19428733 120.9765625 470.203125 C120.24880615 470.79939697 120.24880615 470.79939697 119.50634766 471.40771484 C111.05625329 478.3237222 102.38147697 484.64623759 92.9765625 490.203125 C92.34443848 490.57679199 91.71231445 490.95045898 91.06103516 491.33544922 C69.69018167 503.7492841 44.8417333 512.24728825 19.953125 512.40625 C19.21387787 512.41330963 18.47463074 512.42036926 17.71298218 512.42764282 C-12.9753234 512.65430157 -12.9753234 512.65430157 -26.0234375 509.203125 C-27.19519531 508.90510986 -27.19519531 508.90510986 -28.390625 508.60107422 C-57.24691603 501.10046119 -82.92384718 486.82143442 -104.640625 466.43359375 C-106.75944877 464.45023576 -108.92821301 462.5707256 -111.1484375 460.703125 C-130.60462425 443.69376092 -145.22660213 419.91584724 -157.0234375 397.203125 C-157.40064941 396.48141113 -157.77786133 395.75969727 -158.16650391 395.01611328 C-173.86467153 364.57922391 -182.62048334 331.03181971 -187.0234375 297.203125 C-187.19915283 295.91220947 -187.19915283 295.91220947 -187.37841797 294.59521484 C-197.15105241 220.08795282 -179.28219308 137.82555303 -133.6328125 77.5859375 C-123.92238153 64.94820143 -113.51784018 52.21196267 -101.0234375 42.203125 C-100.29568115 41.60685303 -100.29568115 41.60685303 -99.55322266 40.99853516 C-91.10312829 34.0825278 -82.42835197 27.76001241 -73.0234375 22.203125 C-72.39131348 21.82945801 -71.75918945 21.45579102 -71.10791016 21.07080078 C-49.73705667 8.6569659 -24.8886083 0.15896175 0 0 Z " fill="#000000" transform="translate(246.0234375,-0.203125)"/>
<path d="M0 0 C1.1088707 -0.01058945 1.1088707 -0.01058945 2.24014282 -0.02139282 C32.9284484 -0.24805157 32.9284484 -0.24805157 45.9765625 3.203125 C46.75773438 3.40180176 47.53890625 3.60047852 48.34375 3.80517578 C77.20004103 11.30578881 102.87697218 25.58481558 124.59375 45.97265625 C126.71257377 47.95601424 128.88133801 49.8355244 131.1015625 51.703125 C150.55774925 68.71248908 165.17972713 92.49040276 176.9765625 115.203125 C177.35377441 115.92483887 177.73098633 116.64655273 178.11962891 117.39013672 C193.81779653 147.82702609 202.57360834 181.37443029 206.9765625 215.203125 C207.09370605 216.06373535 207.21084961 216.9243457 207.33154297 217.81103516 C217.10417741 292.31829718 199.23531808 374.58069697 153.5859375 434.8203125 C143.87550653 447.45804857 133.47096518 460.19428733 120.9765625 470.203125 C120.24880615 470.79939697 120.24880615 470.79939697 119.50634766 471.40771484 C111.05625329 478.3237222 102.38147697 484.64623759 92.9765625 490.203125 C92.34443848 490.57679199 91.71231445 490.95045898 91.06103516 491.33544922 C69.69018167 503.7492841 44.8417333 512.24728825 19.953125 512.40625 C19.21387787 512.41330963 18.47463074 512.42036926 17.71298218 512.42764282 C-12.9753234 512.65430157 -12.9753234 512.65430157 -26.0234375 509.203125 C-27.19519531 508.90510986 -27.19519531 508.90510986 -28.390625 508.60107422 C-57.24691603 501.10046119 -82.92384718 486.82143442 -104.640625 466.43359375 C-106.75944877 464.45023576 -108.92821301 462.5707256 -111.1484375 460.703125 C-130.60462425 443.69376092 -145.22660213 419.91584724 -157.0234375 397.203125 C-157.40064941 396.48141113 -157.77786133 395.75969727 -158.16650391 395.01611328 C-173.86467153 364.57922391 -182.62048334 331.03181971 -187.0234375 297.203125 C-187.19915283 295.91220947 -187.19915283 295.91220947 -187.37841797 294.59521484 C-197.15105241 220.08795282 -179.28219308 137.82555303 -133.6328125 77.5859375 C-123.92238153 64.94820143 -113.51784018 52.21196267 -101.0234375 42.203125 C-100.29568115 41.60685303 -100.29568115 41.60685303 -99.55322266 40.99853516 C-91.10312829 34.0825278 -82.42835197 27.76001241 -73.0234375 22.203125 C-72.39131348 21.82945801 -71.75918945 21.45579102 -71.10791016 21.07080078 C-49.73705667 8.6569659 -24.8886083 0.15896175 0 0 Z M-80.0234375 52.203125 C-80.60770508 52.66187012 -81.19197266 53.12061523 -81.79394531 53.59326172 C-94.63157758 63.79649721 -105.95881907 75.32872238 -115.74121094 88.48535156 C-116.95471097 90.11105343 -118.19536136 91.71638591 -119.4375 93.3203125 C-131.45603889 109.33198157 -141.03840099 127.41276319 -148.20605469 146.08007812 C-148.98966483 148.11540482 -149.80334016 150.13604073 -150.625 152.15625 C-174.97828442 213.1434033 -175.25882486 287.18435249 -154.2734375 349.140625 C-153.94712845 350.10934036 -153.94712845 350.10934036 -153.61422729 351.09762573 C-150.00859052 361.76828405 -146.04400136 372.117469 -141.0234375 382.203125 C-140.60980957 383.04133789 -140.19618164 383.87955078 -139.77001953 384.74316406 C-128.72837883 406.93940343 -115.09626532 426.25608612 -98.0234375 444.203125 C-97.3325 444.95851563 -96.6415625 445.71390625 -95.9296875 446.4921875 C-76.37320703 467.17692646 -48.67977836 482.7624246 -21.0234375 489.203125 C-20.37052734 489.36393555 -19.71761719 489.52474609 -19.04492188 489.69042969 C17.48878741 498.45346085 55.51125534 488.7142707 86.95898438 469.49365234 C97.87415415 462.51185328 107.67052858 454.18167385 116.9765625 445.203125 C117.75257813 444.47867187 118.52859375 443.75421875 119.328125 443.0078125 C125.9598925 436.65725069 131.4698602 429.52108693 136.9765625 422.203125 C137.62093262 421.35790283 137.62093262 421.35790283 138.27832031 420.49560547 C173.31132613 374.33779988 188.75225188 313.93602282 188.4140625 256.703125 C188.40999893 255.07751648 188.40999893 255.07751648 188.40585327 253.41906738 C188.30899571 227.74780765 185.60289696 203.07251065 178.9765625 178.203125 C178.65631104 176.97456787 178.65631104 176.97456787 178.32958984 175.72119141 C173.03011721 155.72250938 164.86778747 136.36322916 154.9765625 118.203125 C154.60595703 117.52233887 154.23535156 116.84155273 153.85351562 116.14013672 C147.78058543 105.12852993 140.81669055 95.02655721 132.9765625 85.203125 C132.51636719 84.62578613 132.05617188 84.04844727 131.58203125 83.45361328 C105.06257996 50.50491461 68.35965635 25.94013447 25.765625 20.64453125 C-12.6962951 16.63146742 -49.76372487 28.33440375 -80.0234375 52.203125 Z " fill="#FDFDFD" transform="translate(246.0234375,-0.203125)"/>
<path d="M0 0 C3.28834617 2.79042625 5.12735689 6.47328176 7.1875 10.1875 C7.55552734 10.84169922 7.92355469 11.49589844 8.30273438 12.16992188 C9.2062466 13.77746961 10.1037241 15.38840651 11 17 C-19.48446807 41.7543049 -68.85729687 46.6598118 -106.22802734 43.53540039 C-132.68281912 40.78884309 -157.13227571 31.22223545 -180 18 C-178.52869627 13.6426774 -176.16919385 10.28065866 -173.375 6.6875 C-172.95476562 6.13771484 -172.53453125 5.58792969 -172.1015625 5.02148438 C-171.07279961 3.67707832 -170.0370991 2.33798587 -169 1 C-165.3812901 2.35701621 -161.96942839 3.99588018 -158.53564453 5.76611328 C-146.55143067 11.9263844 -134.99863656 16.16543959 -121.875 19.25 C-120.22975342 19.63792725 -120.22975342 19.63792725 -118.55126953 20.03369141 C-79.60031395 28.81508446 -36.39513463 21.17613058 -1.95703125 1.23828125 C-0.98830078 0.62533203 -0.98830078 0.62533203 0 0 Z " fill="#FBFBFB" transform="translate(344,370)"/>
<path d="M0 0 C10.04321265 4.4354266 14.88321133 13.68324973 19.0078125 23.38671875 C24.92667108 39.36993998 25.1249435 58.00521764 18.3203125 73.76171875 C15.45980071 78.86513183 11.33067381 83.22200448 5.734375 85.18359375 C1.1919823 85.95874609 -2.30739296 85.53424777 -6.23828125 82.87109375 C-18.49420546 72.49859665 -23.88727581 58.37815414 -25.22412109 42.65966797 C-25.94326757 29.46775397 -25.85653974 16.07608469 -16.9921875 5.38671875 C-11.71010744 0.40413808 -7.46852666 -2.29913468 0 0 Z " fill="#FCFCFC" transform="translate(185.9921875,207.61328125)"/>
<path d="M0 0 C7.61645887 5.02362181 11.19617845 12.00643197 13.125 20.8125 C16.06000444 38.94485791 13.89589269 59.11504558 3 74.375 C-1.61738541 80.06977534 -6.44472583 84.21917957 -13.875 85.375 C-19.13865003 84.65253823 -23.14761198 82.20772807 -26.578125 78.140625 C-35.33708026 64.94942732 -35.85358454 47.75351694 -32.875 32.625 C-29.52526242 19.03908759 -24.07425423 7.61200282 -12.1875 -0.3125 C-7.92311853 -1.81757581 -4.21992475 -1.46405552 0 0 Z " fill="#FCFCFC" transform="translate(336.0625,208.0625)"/>
<path d="M0 0 C3.00024947 -0.05444001 5.99949039 -0.0938836 9 -0.125 C9.83917969 -0.14175781 10.67835938 -0.15851563 11.54296875 -0.17578125 C28.15077648 -0.30452395 42.15245903 7.57524381 54.125 18.625 C61.27466351 26.08296522 68.7966317 37.16897315 72 47 C71.6171875 49.2734375 71.6171875 49.2734375 71 51 C68.75023648 51.64665663 66.50018033 52.29229523 64.25 52.9375 C62.37054688 53.47697266 62.37054688 53.47697266 60.453125 54.02734375 C57.97438281 54.72554149 55.50339838 55.39943726 53 56 C52.67128906 55.27296875 52.34257812 54.5459375 52.00390625 53.796875 C46.35127609 41.84822588 39.75794601 31.55661164 28 25 C27.25492187 24.57976562 26.50984375 24.15953125 25.7421875 23.7265625 C17.95548848 20.00478432 9.46882874 20.19649255 1 20 C0.82778565 18.35473791 0.66259169 16.70874089 0.5 15.0625 C0.4071875 14.14597656 0.314375 13.22945312 0.21875 12.28515625 C-0.0542903 8.18467607 -0.04112845 4.10770366 0 0 Z " fill="#FAFAFA" transform="translate(315,132)"/>
<path d="M0 0 C0.93457031 0.00322266 1.86914062 0.00644531 2.83203125 0.00976562 C3.80011719 0.01814453 4.76820313 0.02652344 5.765625 0.03515625 C6.74917969 0.03966797 7.73273438 0.04417969 8.74609375 0.04882812 C11.16933291 0.06059142 13.59244773 0.07702941 16.015625 0.09765625 C16.10242992 5.0889391 15.91200007 9.66759337 15.015625 14.59765625 C14.7371875 16.16 14.7371875 16.16 14.453125 17.75390625 C14.30875 18.52734375 14.164375 19.30078125 14.015625 20.09765625 C12.97664063 20.1234375 11.93765625 20.14921875 10.8671875 20.17578125 C-2.75670104 20.66182268 -12.5692218 23.77723448 -22.984375 33.09765625 C-29.21055151 40.01884781 -33.59747962 47.45171227 -36.984375 56.09765625 C-43.36169815 54.22040664 -49.69132959 52.24093983 -55.984375 50.09765625 C-54.25476039 38.55247871 -46.6221794 28.48829084 -38.984375 20.09765625 C-38.12199219 19.11345703 -38.12199219 19.11345703 -37.2421875 18.109375 C-28.20948264 8.36356186 -13.53989206 -0.08256032 0 0 Z " fill="#FAFAFA" transform="translate(179.984375,131.90234375)"/>
</svg>
