<?xml version="1.0" encoding="UTF-8"?>
<svg version="1.1" xmlns="http://www.w3.org/2000/svg" width="512" height="512">
<path d="M0 0 C6.67879518 5.08860585 10.22896173 9.67400621 11.43359375 18.09375 C11.49675781 18.7228125 11.55992187 19.351875 11.625 20 C12.615 19.67 13.605 19.34 14.625 19 C51.08673975 16.14602132 87.01123773 28.87773408 114.78125 52.44140625 C130.36899227 66.46609195 141.78672067 81.51375167 151.625 100 C151.84671875 99.38253906 152.0684375 98.76507813 152.296875 98.12890625 C158.67932015 82.93591183 177.39698521 75.30164604 191.8046875 69.17578125 C226.26875972 55.26239798 264.39593556 55.73300113 298.59570312 70.09326172 C330.52904753 84.36184222 353.30303135 110.6123748 365.875 142.8125 C370.67150296 155.7534329 376.01846593 172.99820568 371.4375 186.5 C368.11554372 191.08200866 364.60090237 194.29879586 359.625 197 C360.058125 198.0209375 360.058125 198.0209375 360.5 199.0625 C368.45543623 219.83502794 359.8638088 248.22246874 351.625 268 C345.97439122 280.53253088 339.1624221 292.22786083 330.625 303 C329.820625 304.02609375 329.01625 305.0521875 328.1875 306.109375 C316.89661328 320.12187914 303.86395678 333.09733117 289.34472656 343.73779297 C287.55782574 345.04930308 285.79015327 346.3841059 284.0234375 347.72265625 C274.86387267 354.60958351 265.3759591 360.98009129 255.625 367 C254.99118408 367.3913916 254.35736816 367.7827832 253.7043457 368.18603516 C250.56562987 370.05985808 248.49424316 371.01714844 244.8125 371.5 C243.760625 371.665 242.70875 371.83 241.625 372 C241.34567627 372.59321045 241.06635254 373.1864209 240.77856445 373.79760742 C239.14351316 376.91925772 236.99023781 377.94070593 233.98046875 379.73828125 C233.11992134 380.2527758 233.11992134 380.2527758 232.24198914 380.77766418 C225.29616241 384.87352648 218.12405811 388.53729304 210.9375 392.1875 C209.4825245 392.93079401 208.02769278 393.67436953 206.57299805 394.41821289 C202.94030861 396.27337789 199.30378147 398.12086365 195.66552734 399.96508789 C193.75007954 400.93656231 191.83576972 401.91023588 189.921875 402.88476562 C178.53008834 408.67730873 167.08748842 414.35789929 155.5 419.75 C154.61739502 420.16886475 153.73479004 420.58772949 152.82543945 421.01928711 C147.6706287 423.37627128 143.28808769 424.60763827 137.625 425 C137.91375 425.70125 138.2025 426.4025 138.5 427.125 C141.95379918 435.95137569 142.87506018 441.77531307 139.28125 450.7265625 C134.80463579 456.87134898 127.59501377 460.25428226 120.9375 463.5625 C106.02956245 471.2106752 91.01307839 479.5975915 78.625 491 C77.94308594 491.62519531 77.26117188 492.25039063 76.55859375 492.89453125 C73.84726163 495.49265535 71.68697321 497.90510353 69.625 501.0625 C66.56445477 505.5576758 62.8360591 509.2629803 57.625 511 C49.91726173 511.63536761 43.82480403 511.90817819 37.625 507 C31.75479484 501.3973377 30.53279846 495.42246015 29.8125 487.5625 C28.28967704 473.91699734 23.10283132 462.02385977 16.70654297 450.03613281 C15.66954995 448.08387057 14.66389599 446.11794575 13.66015625 444.1484375 C5.72033441 428.94172292 -4.26773712 414.9120818 -13.86132812 400.72216797 C-16.92930388 396.18339214 -19.96802108 391.62537975 -23 387.0625 C-25.89555961 382.71057227 -28.80069417 378.36550763 -31.72265625 374.03125 C-32.28065918 373.20101318 -32.83866211 372.37077637 -33.41357422 371.51538086 C-34.48395526 369.92312171 -35.55704241 368.33267715 -36.63330078 366.74438477 C-37.34655518 365.68175415 -37.34655518 365.68175415 -38.07421875 364.59765625 C-38.70589966 363.66191772 -38.70589966 363.66191772 -39.3503418 362.70727539 C-42.44394891 357.55273773 -42.22748304 351.76160949 -41.375 346 C-39.24213285 339.46290069 -36.31003644 333.20963163 -33.375 327 C-34.22771484 326.61521484 -34.22771484 326.61521484 -35.09765625 326.22265625 C-45.24258311 321.19253392 -50.04773855 312.33407357 -55.5625 302.8125 C-56.39551636 301.38562866 -56.39551636 301.38562866 -57.24536133 299.92993164 C-87.37143635 248.02977605 -115.28335533 186.42720737 -100.375 125 C-100.06900879 123.73373779 -100.06900879 123.73373779 -99.75683594 122.44189453 C-95.43325552 105.11925245 -89.50348383 86.51459627 -77.375 73 C-77.84550781 72.5875 -78.31601563 72.175 -78.80078125 71.75 C-84.40796472 66.54913417 -87.3713684 61.73922998 -87.75 54 C-87.30895411 46.31504922 -84.03670096 40.8814179 -78.75 35.5 C-78.21221924 34.93885498 -77.67443848 34.37770996 -77.12036133 33.79956055 C-75.55495555 32.18241738 -73.97063311 30.58726532 -72.375 29 C-71.25544922 27.88044922 -71.25544922 27.88044922 -70.11328125 26.73828125 C-53.64816188 11.2767501 -23.38982387 -6.93031818 0 0 Z " fill="#FDFDFD" transform="translate(121.375,1)"/>
<path d="M0 0 C1.60811533 1.33775483 3.20000363 2.69145189 4.78295898 4.05883789 C5.53061523 4.70336914 6.27827148 5.34790039 7.04858398 6.01196289 C21.24922193 19.28898211 30.54323542 37.17273676 35.84545898 55.68383789 C36.04961426 56.3932251 36.25376953 57.1026123 36.46411133 57.83349609 C37.8110981 62.99977946 37.94536785 67.72554045 37.78295898 73.05883789 C31.69877607 76.2142375 25.52364016 78.86536577 19.15112305 81.38085938 C17.59820557 81.99879364 17.59820557 81.99879364 16.01391602 82.62921143 C12.61010198 83.98274108 9.20434853 85.3313183 5.79858398 86.67993164 C3.41724497 87.62597051 1.03604184 88.57235148 -1.34503174 89.51905823 C-6.96768914 91.75379185 -12.59152615 93.9855288 -18.21601129 96.21565634 C-28.864024 100.4377919 -39.5091559 104.66718268 -50.15436554 108.89637947 C-53.63457581 110.27838905 -57.11541592 111.65880171 -60.59637451 113.03892517 C-62.7534691 113.89506444 -64.91055376 114.75122872 -67.06762695 115.60742188 C-68.02179504 115.98524307 -68.97596313 116.36306427 -69.95904541 116.75233459 C-71.32954041 117.29668655 -71.32954041 117.29668655 -72.72772217 117.85203552 C-73.61692541 118.20517224 -74.50612865 118.55830896 -75.42227745 118.9221468 C-77.43862183 119.74223789 -79.44508574 120.58676986 -81.44486427 121.4464674 C-82.51206388 121.90504289 -83.5792635 122.36361837 -84.67880249 122.83609009 C-85.6483103 123.25980707 -86.61781811 123.68352406 -87.61670494 124.12008095 C-93.85090913 126.37071406 -99.38050622 123.39941009 -105.03735352 120.81274414 C-105.7707193 120.4856395 -106.50408508 120.15853485 -107.25967407 119.82151794 C-109.6245512 118.76363696 -111.98334387 117.69291809 -114.34204102 116.62133789 C-115.96323092 115.89231199 -117.58465118 115.16379814 -119.20629883 114.43579102 C-130.95814627 109.14551194 -142.62581902 103.69256832 -154.21704102 98.05883789 C-152.76305127 83.21283731 -150.8022817 68.48459302 -148.58618164 53.73486328 C-147.23200949 44.64044456 -146.0279633 35.58100282 -145.20532227 26.42211914 C-144.95544368 23.91324895 -144.70013714 21.40499969 -144.4425354 18.89691162 C-144.29413861 17.31710541 -144.16847833 15.73497092 -144.06747437 14.15142822 C-143.30585208 2.31655049 -143.30585208 2.31655049 -139.81344604 -1.45825195 C-135.95727959 -4.62691638 -131.69924325 -6.79054734 -127.21704102 -8.94116211 C-125.48550781 -9.84910522 -125.48550781 -9.84910522 -123.71899414 -10.77539062 C-120.91432577 -12.24551206 -118.09618933 -13.62338272 -115.21704102 -14.94116211 C-114.15356445 -15.43616211 -113.09008789 -15.93116211 -111.99438477 -16.44116211 C-107.54004425 -18.33132434 -102.90983249 -19.43148715 -98.21704102 -20.56616211 C-96.9215332 -20.89100586 -96.9215332 -20.89100586 -95.59985352 -21.22241211 C-62.53263358 -29.36358176 -26.44929509 -21.41997378 0 0 Z " fill="#000000" transform="translate(435.217041015625,104.941162109375)"/>
<path d="M0 0 C4.82498431 1.49378284 9.29271449 3.42806134 13.8515625 5.5703125 C15.42170264 6.30072051 16.99185282 7.03110692 18.56201172 7.76147461 C19.38570251 8.14608856 20.20939331 8.53070251 21.05804443 8.92697144 C34.93626092 15.40409944 48.86043455 21.76121323 62.875 27.9375 C77.80997375 34.52293961 92.6355912 41.329281 107.41210938 48.26293945 C114.89961195 51.76841671 122.37989734 55.22548114 130.04296875 58.33203125 C131.21641846 58.81502686 132.38986816 59.29802246 133.59887695 59.7956543 C135.69910842 60.64786089 137.81041959 61.47353356 139.93432617 62.26489258 C141.29328003 62.81826294 141.29328003 62.81826294 142.6796875 63.3828125 C143.45038574 63.67559082 144.22108398 63.96836914 145.01513672 64.27001953 C150.57422743 69.11524915 151.1836422 79.75448786 152.671875 86.63671875 C152.91534164 87.74262863 153.15880829 88.84853851 153.40965271 89.98796082 C154.19398858 93.55356225 154.97198629 97.12051432 155.75 100.6875 C156.82162422 105.56958287 157.89674299 110.450892 158.97265625 115.33203125 C159.23496536 116.52368896 159.49727448 117.71534668 159.76753235 118.94311523 C162.08465325 129.44390928 164.50582983 139.9174542 167.03222656 150.36987305 C167.28327148 151.42086182 167.53431641 152.47185059 167.79296875 153.5546875 C168.0046167 154.42593262 168.21626465 155.29717773 168.43432617 156.19482422 C169.15793721 159.78321044 169.57815897 163.36377403 170 167 C154.14227671 175.85280454 138.03156952 184.14356649 121.77978516 192.24047852 C118.47551914 193.88680146 115.17502114 195.54053355 111.8754406 197.19622326 C109.30155516 198.48677191 106.72578469 199.77352002 104.14941788 201.05910683 C102.34250208 201.96158203 100.53718448 202.86725484 98.73190308 203.772995 C97.09706467 204.58568596 97.09706467 204.58568596 95.42919922 205.41479492 C94.4740744 205.89156174 93.51894958 206.36832855 92.53488159 206.85954285 C90.33850838 207.84770322 88.35140253 208.52081375 86 209 C81.26459487 199.09705723 77.0654549 189.01562388 72.9418335 178.84701538 C70.96631933 173.97613393 68.98049553 169.10945326 66.99609375 164.2421875 C66.58518494 163.23361191 66.17427612 162.22503632 65.75091553 161.18589783 C61.32863191 150.33805963 56.85378026 139.5121051 52.375 128.6875 C46.56221698 114.63359306 40.76583977 100.57323208 35 86.5 C29.43250466 72.91339631 23.84676395 59.33440865 18.24365234 45.76245117 C17.43125309 43.79460775 16.61906916 41.82667542 15.80712891 39.85864258 C14.66381523 37.08775155 13.51962122 34.31722613 12.375 31.546875 C12.01164551 30.66676758 11.64829102 29.78666016 11.27392578 28.87988281 C9.4238154 24.40747088 7.55609116 19.94343092 5.66015625 15.49023438 C5.28648926 14.61103333 4.91282227 13.73183228 4.52783203 12.82598877 C3.8171987 11.15724953 3.10348002 9.48981977 2.38623047 7.82391357 C0 2.22052218 0 2.22052218 0 0 Z " fill="#000000" transform="translate(176,195)"/>
<path d="M0 0 C3.17921434 1.58960717 3.76942413 4.85098732 5.02734375 8.01171875 C5.47787865 9.11940361 5.47787865 9.11940361 5.93751526 10.24946594 C6.59511856 11.86847013 7.24958753 13.48874998 7.90136719 15.11010742 C9.31808536 18.63421058 10.74949696 22.15228904 12.17971802 25.67092896 C12.94132811 27.54533682 13.70211257 29.42008035 14.46212769 31.2951355 C18.36294114 40.91558218 22.32833887 50.50896497 26.29968262 60.10046387 C32.62049041 75.36926764 38.91839358 90.64739872 45.1875 105.9375 C45.67601944 107.12894119 45.67601944 107.12894119 46.17440796 108.3444519 C48.77357479 114.684176 51.37126404 121.02450526 53.96887207 127.36486816 C55.92201995 132.13204403 57.87567926 136.89900977 59.82998657 141.66571045 C60.48102826 143.25389223 61.13188908 144.84214816 61.78256226 146.43048096 C65.9079371 156.50011001 70.05782765 166.55923478 74.23046875 176.609375 C75.11553003 178.74338684 76.0005401 180.87741992 76.88549805 183.01147461 C78.60576317 187.15973795 80.33062291 191.30605216 82.05786133 195.45141602 C82.84083612 197.33863035 83.62364112 199.22591515 84.40625 201.11328125 C84.77102951 201.98527161 85.13580902 202.85726196 85.51164246 203.75567627 C85.8410231 204.55213562 86.17040375 205.34859497 86.50976562 206.16918945 C86.79903931 206.8643013 87.08831299 207.55941315 87.38635254 208.27558899 C88 210 88 210 88 212 C87.37246826 212.3309668 86.74493652 212.66193359 86.09838867 213.00292969 C58.7111143 227.47497715 58.7111143 227.47497715 34 246 C33.26523438 246.60328125 32.53046875 247.2065625 31.7734375 247.828125 C27.5545737 251.33594434 24.26671187 254.99030748 21.12890625 259.49609375 C20.75636719 259.99238281 20.38382812 260.48867188 20 261 C19.67 261 19.34 261 19 261 C18.8040625 259.78828125 18.608125 258.5765625 18.40625 257.328125 C13.18543449 227.22648118 -2.32981406 201.18262131 -19 176 C-19.47308594 175.28199219 -19.94617188 174.56398438 -20.43359375 173.82421875 C-21.78483934 171.77580877 -23.14109852 169.73083835 -24.5 167.6875 C-25.17808716 166.66740845 -25.17808716 166.66740845 -25.86987305 165.62670898 C-28.92855664 161.04697747 -32.03007581 156.49863119 -35.15567017 151.96443176 C-37.20428857 148.98535787 -39.23842074 145.99653616 -41.27099609 143.00650024 C-42.29412706 141.50881005 -43.3235491 140.01539716 -44.359375 138.52645874 C-45.82469656 136.4187903 -47.2676911 134.29733977 -48.70703125 132.171875 C-49.37947624 131.22127953 -49.37947624 131.22127953 -50.06550598 130.2514801 C-51.97557856 127.3890373 -53.0058517 125.4934797 -52.96459961 122.01464844 C-51.8168095 118.42747752 -50.42839454 115.01164854 -48.859375 111.59375 C-48.38217766 110.53114204 -48.38217766 110.53114204 -47.89533997 109.44706726 C-47.21043768 107.92374849 -46.52241448 106.40182978 -45.83157349 104.88119507 C-44.35722665 101.63526915 -42.89855357 98.38238327 -41.43922424 95.12968445 C-40.69404429 93.46880801 -39.94814012 91.80825632 -39.20152283 90.14802551 C-35.92434795 82.8549633 -32.72790708 75.529746 -29.5625 68.1875 C-28.52100027 65.77466752 -27.47932896 63.36190909 -26.4375 60.94921875 C-26.03800896 60.02373734 -26.03800896 60.02373734 -25.63044739 59.07955933 C-21.43887062 49.37637638 -17.20291295 39.69240541 -12.97341919 30.00570679 C-8.61301119 20.01894165 -4.27609319 10.02320302 0 0 Z " fill="#010101" transform="translate(154,229)"/>
<path d="M0 0 C29.47608357 -1.26778854 57.24062302 8.11903733 80 27 C80.51771973 27.42732422 81.03543945 27.85464844 81.56884766 28.29492188 C99.76597421 43.53384038 117.33749641 67.3010867 122 91 C122.4365568 100.12633431 121.57235281 108.9420217 120.28515625 117.96484375 C120.10995956 119.24178604 119.93476288 120.51872833 119.7542572 121.83436584 C119.29387587 125.18838195 118.82297869 128.5408363 118.34979248 131.89306641 C117.87019029 135.30601624 117.40162868 138.72048124 116.93164062 142.13476562 C116.24230714 147.12695683 115.54944787 152.11863988 114.84790039 157.10913086 C114.70800186 158.10472519 114.56810333 159.10031952 114.42396545 160.12608337 C113.98657975 163.09097126 113.50182998 166.04539567 113 169 C103.93293855 166.32109548 95.54787922 162.23336432 87 158.25 C84.5338144 157.10704751 82.06683566 155.96581991 79.59977722 154.82475281 C77.91562804 154.0457408 76.23172039 153.26620641 74.54804993 152.48616028 C68.87982339 149.86181382 63.20075458 147.26250423 57.51171875 144.68359375 C56.38577805 144.17317032 56.38577805 144.17317032 55.23709106 143.6524353 C52.35718505 142.34772715 49.47682774 141.04402854 46.59545898 139.74255371 C45.58817749 139.28749451 45.58817749 139.28749451 44.56054688 138.82324219 C43.58711838 138.38399918 43.58711838 138.38399918 42.59402466 137.93588257 C40.77259287 137.10758566 38.95909617 136.26190648 37.14599609 135.41552734 C34.12987076 133.99930651 34.12987076 133.99930651 31.42041016 133.11962891 C29.14563513 132.28666361 27.79129057 131.63167142 26 130 C25.1106596 127.56082916 25.1106596 127.56082916 24.44889832 124.58947754 C24.20328848 123.5090921 23.95767864 122.42870667 23.70462608 121.31558228 C23.35583617 119.67436905 23.35583617 119.67436905 23 118 C22.79163828 117.04048431 22.58327656 116.08096863 22.36860085 115.09237671 C21.74228512 112.14402706 21.14192649 109.19138608 20.5480957 106.23632812 C20.3233255 105.12909393 20.0985553 104.02185974 19.86697388 102.881073 C19.13374671 99.26503149 18.40456946 95.64818855 17.67578125 92.03125 C17.16453358 89.50204885 16.6531535 86.97287447 16.14164734 84.44372559 C15.07489892 79.16565908 14.01021468 73.88718208 12.94702148 68.60839844 C11.7189451 62.51122678 10.48596219 56.41506169 9.25061542 50.3193593 C8.0580816 44.43393246 6.86986329 38.5476436 5.68337059 32.66099548 C5.17940254 30.16324155 4.67422099 27.66573216 4.16781044 25.16847229 C3.46274141 21.68922142 2.76259102 18.20901612 2.0637207 14.72851562 C1.85336685 13.69576508 1.643013 12.66301453 1.42628479 11.59896851 C1.23709473 10.65159821 1.04790466 9.70422791 0.85298157 8.72814941 C0.68726811 7.90674721 0.52155466 7.085345 0.35081959 6.23905182 C0 4 0 4 0 0 Z " fill="#010101" transform="translate(141,41)"/>
<path d="M0 0 C4.09892237 1.61029093 6.76205641 4.57816083 9.75 7.6875 C13.72154492 11.74573622 17.74723363 15.61100005 22.07421875 19.29296875 C25.11661695 21.98978013 27.92325809 24.91534396 30.77734375 27.80859375 C33.4270144 30.42101068 36.21172803 32.83302621 39.03515625 35.25390625 C41.81699148 37.72603418 44.39375951 40.38430547 47.00390625 43.03515625 C48.92107177 44.92230744 50.89575322 46.68685375 52.9375 48.4375 C56.74824063 51.71130653 60.25078165 55.23363971 63.77734375 58.80859375 C66.4270144 61.42101068 69.21172803 63.83302621 72.03515625 66.25390625 C74.80875233 68.71871231 77.37829728 71.36848738 79.98046875 74.01171875 C82.62898478 76.61925194 85.4127748 79.04417483 88.23828125 81.45703125 C89.89815811 82.91080366 91.45933981 84.42141586 93 86 C91.5136964 90.71707996 89.67484129 95.22511081 87.68359375 99.74609375 C87.35561798 100.49652451 87.02764221 101.24695526 86.68972778 102.02012634 C85.60805296 104.49364288 84.52276438 106.96555655 83.4375 109.4375 C82.67087268 111.18884672 81.90452001 112.9403137 81.13842773 114.69189453 C79.54741391 118.32906403 77.95521882 121.96571316 76.36230469 125.60205078 C73.79389358 131.46781728 71.23676268 137.33846288 68.68148804 143.20996094 C65.89667538 149.60879265 63.10689192 156.0054427 60.31484985 162.40112305 C58.38530499 166.82195061 56.45843417 171.24392249 54.53515625 175.66748047 C52.45179437 180.45914998 50.36384075 185.24879534 48.2729187 190.03717041 C47.47040718 191.87722292 46.66954568 193.717996 45.87039185 195.55950928 C44.76299946 198.11060782 43.64979117 200.65909056 42.53515625 203.20703125 C42.2057605 203.96962753 41.87636475 204.73222382 41.5369873 205.51792908 C39.22805938 210.77194062 39.22805938 210.77194062 37 213 C17.30177672 182.18884102 -0.1370633 150.202786 -10.4375 114.9375 C-10.66034668 114.17864502 -10.88319336 113.41979004 -11.11279297 112.63793945 C-14.81878826 99.1897769 -16.48919372 86.02089873 -16.33618164 72.10571289 C-16.31239718 69.80254375 -16.31568139 67.50052855 -16.32226562 65.19726562 C-16.30012808 52.99117819 -15.22458247 41.03871666 -11.875 29.25 C-11.66907227 28.51265625 -11.46314453 27.7753125 -11.25097656 27.015625 C-8.48922303 17.6327952 -4.36731905 8.73463809 0 0 Z " fill="#010101" transform="translate(55,93)"/>
<path d="M0 0 C-1.16371611 39.44997621 -19.98757367 73.03905706 -47.96875 100.16015625 C-52.16288872 103.95907805 -56.58281298 107.46625038 -61 111 C-62.11344484 111.92532252 -63.22536742 112.85247916 -64.3359375 113.78125 C-75.94397715 123.40075695 -88.42615488 132.3682523 -102 139 C-102.18473877 138.16605713 -102.36947754 137.33211426 -102.55981445 136.47290039 C-103.47669167 132.33594814 -104.39444804 128.19919169 -105.3125 124.0625 C-105.57052902 122.89941315 -105.57052902 122.89941315 -105.83377075 121.71282959 C-108.18719868 111.10807099 -110.55784173 100.50730426 -112.9453125 89.91015625 C-113.19353256 88.80767044 -113.44175262 87.70518463 -113.69749451 86.56929016 C-114.93148312 81.08878508 -116.16717583 75.6086735 -117.40551758 70.12915039 C-117.86286555 68.09913744 -118.32014418 66.06910887 -118.77734375 64.0390625 C-118.98743073 63.11235245 -119.1975177 62.1856424 -119.41397095 61.23085022 C-120.40239768 56.83433854 -121.32156177 52.45778412 -122 48 C-118.42039434 46.50803123 -114.83954309 45.01908695 -111.2578125 43.53222656 C-109.48641155 42.79628664 -107.71583393 42.05836585 -105.9453125 41.3203125 C-95.68880229 37.06495188 -85.38125341 32.93937579 -75.0684967 28.82263184 C-66.3843684 25.35576557 -57.70698637 21.87260275 -49.03431702 18.37717438 C-45.09907195 16.79189662 -41.16246052 15.21001519 -37.22583771 13.62816238 C-33.88719872 12.28632386 -30.5494155 10.94241893 -27.21313477 9.59472656 C-23.89301867 8.25368727 -20.5709313 6.91764875 -17.24739647 5.5851059 C-15.40295333 4.84406405 -13.56061981 4.09777827 -11.71833801 3.35137939 C-10.61415024 2.90961365 -9.50996246 2.4678479 -8.37231445 2.01269531 C-6.91919609 1.42745087 -6.91919609 1.42745087 -5.4367218 0.8303833 C-3 0 -3 0 0 0 Z " fill="#010101" transform="translate(464,213)"/>
<path d="M0 0 C2.76470574 13.50620032 5.52050058 27.01419222 8.26599216 40.52431202 C9.54100006 46.7970798 10.81888094 53.06923396 12.10327148 59.34008789 C13.34192777 65.38818319 14.57311041 71.43775531 15.7990551 77.48843956 C16.26885262 79.80032593 16.74137227 82.11166082 17.21661568 84.42243385 C17.88015318 87.65106859 18.53411474 90.88150234 19.18579102 94.11254883 C19.48573219 95.5550853 19.48573219 95.5550853 19.79173279 97.02676392 C19.96705536 97.90595993 20.14237793 98.78515594 20.32301331 99.69099426 C20.55668783 100.83724384 20.55668783 100.83724384 20.79508305 102.00664997 C21 104 21 104 20 107 C19.5153125 106.50371094 19.030625 106.00742188 18.53125 105.49609375 C15.11886318 102.03777095 11.68622389 98.66693442 8 95.5 C5.21103607 93.10323412 2.58009215 90.62040609 0 88 C-2.55990134 85.40017817 -5.1677954 82.93731602 -7.9375 80.5625 C-11.74824063 77.28869347 -15.25078165 73.76636029 -18.77734375 70.19140625 C-21.4270144 67.57898932 -24.21172803 65.16697379 -27.03515625 62.74609375 C-29.81699148 60.27396582 -32.39375951 57.61569453 -35.00390625 54.96484375 C-36.92107177 53.07769256 -38.89575322 51.31314625 -40.9375 49.5625 C-44.84246478 46.21318239 -48.43422273 42.60480813 -52.01953125 38.91796875 C-54.04935277 36.83682933 -54.04935277 36.83682933 -57 35 C-50.57794172 19.18896762 -29.65522994 9.06850352 -14.93847656 2.77001953 C-9.81708172 0.73565186 -5.48040767 -0.09544907 0 0 Z " fill="#020202" transform="translate(112,21)"/>
</svg>
