<?xml version="1.0" encoding="UTF-8"?>
<svg version="1.1" xmlns="http://www.w3.org/2000/svg" width="512" height="512">
<path d="M0 0 C1.10988281 -0.02578125 2.21976563 -0.0515625 3.36328125 -0.078125 C10.62799332 0.63895586 16.0182455 5.50646414 21.6875 9.75 C22.94880737 10.68767212 22.94880737 10.68767212 24.2355957 11.64428711 C31.48662158 17.05546955 38.63389335 22.58446817 45.6875 28.25 C46.32252441 28.75885742 46.95754883 29.26771484 47.61181641 29.79199219 C60.82777684 40.3995818 73.73605857 51.29742746 86.15478516 62.83056641 C87.77872467 64.33448236 89.41008325 65.8300231 91.04296875 67.32421875 C118.87757238 92.82363765 118.87757238 92.82363765 119.890625 103.36328125 C120.00642722 108.79633548 119.16079727 112.40645952 116.6875 117.25 C135.43583815 118.10076492 154.15620167 114.78675963 171.7734375 108.4375 C172.6595874 108.1187793 173.5457373 107.80005859 174.45874023 107.47167969 C176.19006532 106.84072338 177.91655359 106.19627237 179.63696289 105.53613281 C187.03362835 102.80088038 193.26732632 102.06606946 200.73632812 105.18847656 C204.29912772 107.12679646 207.06356608 109.79532189 209.9375 112.625 C210.90574707 113.55711304 210.90574707 113.55711304 211.89355469 114.50805664 C213.84419027 116.40365334 215.77049655 118.32043757 217.6875 120.25 C218.24050781 120.80574707 218.79351562 121.36149414 219.36328125 121.93408203 C236.02410658 138.8791336 248.41078215 159.21887917 259.53564453 180.09228516 C260.28311281 181.49248115 261.03884002 182.88831122 261.80419922 184.27880859 C266.46934699 192.81271964 270.10125176 201.34568527 267.6875 211.25 C263.92577462 219.5384842 257.86389803 223.10685181 250.0625 227.25 C248.32298555 228.21360172 246.58352019 229.17730208 244.84664917 230.1456604 C243.63955019 230.81821768 242.43113593 231.48841935 241.22146606 232.15634155 C234.47900437 235.88714874 227.89047832 239.86318898 221.3125 243.875 C220.72487885 244.23256378 220.13725769 244.59012756 219.53182983 244.95852661 C208.77560867 251.50958659 198.18591937 258.29455549 187.6875 265.25 C186.43775442 266.07070006 185.18776857 266.8910344 183.9375 267.7109375 C174.22755555 274.10490419 164.70083596 280.76407211 155.16796875 287.41796875 C154.25958252 288.0519458 153.35119629 288.68592285 152.4152832 289.33911133 C150.5639464 290.63602471 148.7162371 291.93812877 146.87182617 293.24487305 C145.98342041 293.87304932 145.09501465 294.50122559 144.1796875 295.1484375 C142.99221924 295.99220947 142.99221924 295.99220947 141.78076172 296.85302734 C136.48267878 300.38879018 130.90772253 301.08571017 124.6875 300.25 C113.54850613 296.80516301 107.17389054 286.20739646 100.6875 277.25 C72.87233041 302.91327968 52.77137454 340.68107408 42.98828125 376.8671875 C40.19676041 384.12681827 34.77765211 388.01986505 28.625 392.375 C27.85003174 392.92978027 27.07506348 393.48456055 26.27661133 394.05615234 C18.02927894 399.86686634 9.4026852 405.01990083 0.68505859 410.08691406 C-1.66073863 411.45276324 -3.98947173 412.84581658 -6.3125 414.25 C-6.15394531 414.82363281 -5.99539062 415.39726562 -5.83203125 415.98828125 C-5.32063199 417.85022663 -4.81482887 419.71371208 -4.3125 421.578125 C-3.55910264 424.34450593 -2.78581768 427.10223882 -2 429.859375 C3.71315324 450.21374872 3.71315324 450.21374872 0.0625 458.5625 C-6.15024666 469.33705365 -19.1396201 471.14278007 -30.1875 474.375 C-49.93243836 480.22950909 -69.28737226 486.88513678 -88.375 494.625 C-89.0504184 494.89875458 -89.72583679 495.17250916 -90.42172241 495.45455933 C-97.49992841 498.33445353 -104.51562142 501.30506651 -111.4453125 504.52734375 C-112.55640381 505.0392627 -113.66749512 505.55118164 -114.81225586 506.07861328 C-116.85504921 507.02952835 -118.88829832 508.00139229 -120.90844727 508.99951172 C-128.89255349 512.72230816 -137.06788665 513.8332795 -145.625 511.25 C-169.02831552 493.83357915 -183.82618003 461.76728941 -196.36132812 436.17578125 C-197.33561072 434.20320909 -198.32879912 432.24124312 -199.328125 430.28125 C-199.65143799 429.64477539 -199.97475098 429.00830078 -200.30786133 428.35253906 C-201.19183308 426.61437434 -202.07825258 424.87745508 -202.96484375 423.140625 C-207.02140851 414.43958754 -205.23323172 406.83341244 -202.375 398.0625 C-201.82225791 396.31963108 -201.271415 394.57615847 -200.72265625 392.83203125 C-200.35346069 391.69084839 -200.35346069 391.69084839 -199.97680664 390.52661133 C-198.63079144 385.91375144 -198.19721 381.74138991 -198.25 376.9375 C-198.25902344 375.86886719 -198.26804688 374.80023438 -198.27734375 373.69921875 C-198.28894531 372.89097656 -198.30054688 372.08273437 -198.3125 371.25 C-199.7975 371.41048828 -199.7975 371.41048828 -201.3125 371.57421875 C-210.19744406 372.42581443 -216.10284116 372.27887142 -224 367.6875 C-242.16849613 348.536923 -244.32501403 304.58297872 -244.8125 279.75 C-244.84311523 278.90832275 -244.87373047 278.06664551 -244.90527344 277.19946289 C-244.90776492 271.02992658 -243.1198751 267.07501453 -239.3125 262.25 C-238.6525 261.59 -237.9925 260.93 -237.3125 260.25 C-236.99821791 258.48943831 -236.76025339 256.71492631 -236.5625 254.9375 C-235.8339332 250.05901668 -234.53900993 246.17954131 -232.375 241.75 C-224.06161583 224.67714763 -223.48027918 205.52285256 -229 187.4375 C-231.7133078 177.73493859 -229.24539257 171.13259838 -224.51635742 162.48291016 C-215.80575512 147.10499488 -206.62247609 131.86661595 -195.3125 118.25 C-194.4579312 117.19303333 -193.60377686 116.13573147 -192.75 115.078125 C-187.82088362 109.04280428 -182.60731105 103.28538218 -177.1875 97.6875 C-176.63803711 97.10363525 -176.08857422 96.51977051 -175.52246094 95.91821289 C-170.3299923 90.67290054 -164.46933083 87.15801964 -156.95703125 86.75390625 C-151.27964059 87.04029552 -146.23340343 89.10614888 -141 91.1875 C-139.96488281 91.58702881 -138.92976563 91.98655762 -137.86328125 92.39819336 C-127.84891567 96.31655874 -118.05030887 100.69348103 -108.3125 105.25 C-108.20180176 104.14599854 -108.09110352 103.04199707 -107.97705078 101.90454102 C-107.56124888 97.77214353 -107.13833821 93.64049816 -106.71337891 89.5090332 C-106.53112807 87.72765229 -106.35075399 85.94607825 -106.17236328 84.16430664 C-105.91423005 81.5894637 -105.64914549 79.01541244 -105.3828125 76.44140625 C-105.26705368 75.26427818 -105.26705368 75.26427818 -105.1489563 74.06336975 C-103.2412882 55.92249643 -103.2412882 55.92249643 -97.3125 50.25 C-94.90808188 48.88303749 -92.55866844 47.65538213 -90.06640625 46.4765625 C-89.00364723 45.95963585 -89.00364723 45.95963585 -87.91941833 45.43226624 C-86.44374707 44.71526978 -84.96618497 44.00215266 -83.48681641 43.29281616 C-80.19174649 41.71247939 -76.91052068 40.10413662 -73.62890625 38.49609375 C-72.99951645 38.18815384 -72.37012665 37.88021393 -71.72166443 37.5629425 C-51.57222937 27.68922581 -32.12435598 16.90327884 -13.63452148 4.12939453 C-8.93970892 0.89241886 -5.67434708 0.07853768 0 0 Z " fill="#010101" transform="translate(244.3125,-0.25)"/>
<path d="M0 0 C1.10988281 -0.02578125 2.21976563 -0.0515625 3.36328125 -0.078125 C10.62799332 0.63895586 16.0182455 5.50646414 21.6875 9.75 C22.94880737 10.68767212 22.94880737 10.68767212 24.2355957 11.64428711 C31.48662158 17.05546955 38.63389335 22.58446817 45.6875 28.25 C46.32252441 28.75885742 46.95754883 29.26771484 47.61181641 29.79199219 C60.82777684 40.3995818 73.73605857 51.29742746 86.15478516 62.83056641 C87.77872467 64.33448236 89.41008325 65.8300231 91.04296875 67.32421875 C118.87757238 92.82363765 118.87757238 92.82363765 119.890625 103.36328125 C120.00642722 108.79633548 119.16079727 112.40645952 116.6875 117.25 C135.43583815 118.10076492 154.15620167 114.78675963 171.7734375 108.4375 C172.6595874 108.1187793 173.5457373 107.80005859 174.45874023 107.47167969 C176.19006532 106.84072338 177.91655359 106.19627237 179.63696289 105.53613281 C187.03362835 102.80088038 193.26732632 102.06606946 200.73632812 105.18847656 C204.29912772 107.12679646 207.06356608 109.79532189 209.9375 112.625 C210.90574707 113.55711304 210.90574707 113.55711304 211.89355469 114.50805664 C213.84419027 116.40365334 215.77049655 118.32043757 217.6875 120.25 C218.24050781 120.80574707 218.79351562 121.36149414 219.36328125 121.93408203 C236.02410658 138.8791336 248.41078215 159.21887917 259.53564453 180.09228516 C260.28311281 181.49248115 261.03884002 182.88831122 261.80419922 184.27880859 C266.46934699 192.81271964 270.10125176 201.34568527 267.6875 211.25 C263.92577462 219.5384842 257.86389803 223.10685181 250.0625 227.25 C248.32298555 228.21360172 246.58352019 229.17730208 244.84664917 230.1456604 C243.63955019 230.81821768 242.43113593 231.48841935 241.22146606 232.15634155 C234.47900437 235.88714874 227.89047832 239.86318898 221.3125 243.875 C220.72487885 244.23256378 220.13725769 244.59012756 219.53182983 244.95852661 C208.77560867 251.50958659 198.18591937 258.29455549 187.6875 265.25 C186.43775442 266.07070006 185.18776857 266.8910344 183.9375 267.7109375 C174.22755555 274.10490419 164.70083596 280.76407211 155.16796875 287.41796875 C154.25958252 288.0519458 153.35119629 288.68592285 152.4152832 289.33911133 C150.5639464 290.63602471 148.7162371 291.93812877 146.87182617 293.24487305 C145.98342041 293.87304932 145.09501465 294.50122559 144.1796875 295.1484375 C142.99221924 295.99220947 142.99221924 295.99220947 141.78076172 296.85302734 C136.48267878 300.38879018 130.90772253 301.08571017 124.6875 300.25 C113.54850613 296.80516301 107.17389054 286.20739646 100.6875 277.25 C72.87233041 302.91327968 52.77137454 340.68107408 42.98828125 376.8671875 C40.19676041 384.12681827 34.77765211 388.01986505 28.625 392.375 C27.85003174 392.92978027 27.07506348 393.48456055 26.27661133 394.05615234 C18.02927894 399.86686634 9.4026852 405.01990083 0.68505859 410.08691406 C-1.66073863 411.45276324 -3.98947173 412.84581658 -6.3125 414.25 C-6.15394531 414.82363281 -5.99539062 415.39726562 -5.83203125 415.98828125 C-5.32063199 417.85022663 -4.81482887 419.71371208 -4.3125 421.578125 C-3.55910264 424.34450593 -2.78581768 427.10223882 -2 429.859375 C3.71315324 450.21374872 3.71315324 450.21374872 0.0625 458.5625 C-6.15024666 469.33705365 -19.1396201 471.14278007 -30.1875 474.375 C-49.93243836 480.22950909 -69.28737226 486.88513678 -88.375 494.625 C-89.0504184 494.89875458 -89.72583679 495.17250916 -90.42172241 495.45455933 C-97.49992841 498.33445353 -104.51562142 501.30506651 -111.4453125 504.52734375 C-112.55640381 505.0392627 -113.66749512 505.55118164 -114.81225586 506.07861328 C-116.85504921 507.02952835 -118.88829832 508.00139229 -120.90844727 508.99951172 C-128.89255349 512.72230816 -137.06788665 513.8332795 -145.625 511.25 C-169.02831552 493.83357915 -183.82618003 461.76728941 -196.36132812 436.17578125 C-197.33561072 434.20320909 -198.32879912 432.24124312 -199.328125 430.28125 C-199.65143799 429.64477539 -199.97475098 429.00830078 -200.30786133 428.35253906 C-201.19183308 426.61437434 -202.07825258 424.87745508 -202.96484375 423.140625 C-207.02140851 414.43958754 -205.23323172 406.83341244 -202.375 398.0625 C-201.82225791 396.31963108 -201.271415 394.57615847 -200.72265625 392.83203125 C-200.35346069 391.69084839 -200.35346069 391.69084839 -199.97680664 390.52661133 C-198.63079144 385.91375144 -198.19721 381.74138991 -198.25 376.9375 C-198.25902344 375.86886719 -198.26804688 374.80023438 -198.27734375 373.69921875 C-198.28894531 372.89097656 -198.30054688 372.08273437 -198.3125 371.25 C-199.7975 371.41048828 -199.7975 371.41048828 -201.3125 371.57421875 C-210.19744406 372.42581443 -216.10284116 372.27887142 -224 367.6875 C-242.16849613 348.536923 -244.32501403 304.58297872 -244.8125 279.75 C-244.84311523 278.90832275 -244.87373047 278.06664551 -244.90527344 277.19946289 C-244.90776492 271.02992658 -243.1198751 267.07501453 -239.3125 262.25 C-238.6525 261.59 -237.9925 260.93 -237.3125 260.25 C-236.99821791 258.48943831 -236.76025339 256.71492631 -236.5625 254.9375 C-235.8339332 250.05901668 -234.53900993 246.17954131 -232.375 241.75 C-224.06161583 224.67714763 -223.48027918 205.52285256 -229 187.4375 C-231.7133078 177.73493859 -229.24539257 171.13259838 -224.51635742 162.48291016 C-215.80575512 147.10499488 -206.62247609 131.86661595 -195.3125 118.25 C-194.4579312 117.19303333 -193.60377686 116.13573147 -192.75 115.078125 C-187.82088362 109.04280428 -182.60731105 103.28538218 -177.1875 97.6875 C-176.63803711 97.10363525 -176.08857422 96.51977051 -175.52246094 95.91821289 C-170.3299923 90.67290054 -164.46933083 87.15801964 -156.95703125 86.75390625 C-151.27964059 87.04029552 -146.23340343 89.10614888 -141 91.1875 C-139.96488281 91.58702881 -138.92976563 91.98655762 -137.86328125 92.39819336 C-127.84891567 96.31655874 -118.05030887 100.69348103 -108.3125 105.25 C-108.20180176 104.14599854 -108.09110352 103.04199707 -107.97705078 101.90454102 C-107.56124888 97.77214353 -107.13833821 93.64049816 -106.71337891 89.5090332 C-106.53112807 87.72765229 -106.35075399 85.94607825 -106.17236328 84.16430664 C-105.91423005 81.5894637 -105.64914549 79.01541244 -105.3828125 76.44140625 C-105.26705368 75.26427818 -105.26705368 75.26427818 -105.1489563 74.06336975 C-103.2412882 55.92249643 -103.2412882 55.92249643 -97.3125 50.25 C-94.90808188 48.88303749 -92.55866844 47.65538213 -90.06640625 46.4765625 C-89.00364723 45.95963585 -89.00364723 45.95963585 -87.91941833 45.43226624 C-86.44374707 44.71526978 -84.96618497 44.00215266 -83.48681641 43.29281616 C-80.19174649 41.71247939 -76.91052068 40.10413662 -73.62890625 38.49609375 C-72.99951645 38.18815384 -72.37012665 37.88021393 -71.72166443 37.5629425 C-51.57222937 27.68922581 -32.12435598 16.90327884 -13.63452148 4.12939453 C-8.93970892 0.89241886 -5.67434708 0.07853768 0 0 Z M-4.61132812 23.14306641 C-20.16119706 33.80043522 -36.51261889 42.98754359 -53.25 51.625 C-54.20966675 52.12099701 -54.20966675 52.12099701 -55.1887207 52.62701416 C-56.44898732 53.27662903 -57.71038913 53.92404657 -58.97294617 54.56919861 C-60.21252369 55.20279152 -61.4497137 55.84107841 -62.68440247 56.48414612 C-65.90511311 58.13666332 -69.10372635 59.58250553 -72.50463867 60.82739258 C-79.82253978 63.40492988 -79.82253978 63.40492988 -84.77270508 69.03613281 C-85.48956934 72.48407248 -85.69887576 75.66688789 -85.75 79.1875 C-85.82323486 80.40920898 -85.89646973 81.63091797 -85.97192383 82.88964844 C-86.17246907 86.67919444 -86.25945383 90.45572515 -86.3125 94.25 C-86.33763672 95.45479004 -86.36277344 96.65958008 -86.38867188 97.90087891 C-86.5127875 104.68868697 -86.49619599 111.46361082 -86.3125 118.25 C-85.79155762 118.54543701 -85.27061523 118.84087402 -84.73388672 119.14526367 C-58.17427509 134.22425032 -31.95253002 149.85925983 -6.10205078 166.12548828 C-2.84291245 168.17345433 0.42260331 170.21123099 3.6875 172.25 C-4.57662442 191.64346102 -13.6815836 210.29893099 -26.3125 227.25 C-26.75561523 227.8486084 -27.19873047 228.4472168 -27.65527344 229.06396484 C-34.59807786 238.36752563 -42.29647743 246.86439928 -50.3125 255.25 C-53.91033468 253.89349235 -57.17810002 252.28348886 -60.51171875 250.37109375 C-95.91510215 230.26962016 -132.53143562 213.37843468 -170.3125 198.25 C-170.3125 193.94466315 -169.39950718 191.46751795 -167.8125 187.5 C-167.3484375 186.32953125 -166.884375 185.1590625 -166.40625 183.953125 C-166.0453125 183.06109375 -165.684375 182.1690625 -165.3125 181.25 C-131.08149775 193.22538258 -97.72012208 209.39021376 -66.12792969 227.13647461 C-64.65888184 227.95257202 -64.65888184 227.95257202 -63.16015625 228.78515625 C-62.31461182 229.263479 -61.46906738 229.74180176 -60.59790039 230.23461914 C-58.12005917 231.52068047 -58.12005917 231.52068047 -54.3125 231.25 C-52.24084966 229.10848462 -50.48049409 227.04609461 -48.6875 224.6875 C-48.15970947 224.0071167 -47.63191895 223.3267334 -47.08813477 222.62573242 C-39.24947169 212.39857011 -32.4508874 201.75914842 -26.1875 190.5 C-25.45841431 189.19446167 -25.45841431 189.19446167 -24.71459961 187.86254883 C-24.04763062 186.63894653 -24.04763062 186.63894653 -23.3671875 185.390625 C-22.77139893 184.30056152 -22.77139893 184.30056152 -22.16357422 183.18847656 C-21.11149789 181.1450274 -21.11149789 181.1450274 -21.3125 178.25 C-23.5344315 176.72004146 -25.70524447 175.42030219 -28.0625 174.125 C-29.63171464 173.23441975 -31.19930654 172.34097664 -32.765625 171.4453125 C-33.64412109 170.94418945 -34.52261719 170.44306641 -35.42773438 169.92675781 C-40.34427883 167.06903716 -45.17632589 164.07252243 -50.02224731 161.09732056 C-63.58606208 152.78349263 -77.33166656 144.84593997 -91.3125 137.25 C-92.75568604 136.46351074 -92.75568604 136.46351074 -94.22802734 135.66113281 C-108.90939944 127.70384408 -123.90488252 120.68538502 -139.3125 114.25 C-140.16682617 113.8905127 -141.02115234 113.53102539 -141.90136719 113.16064453 C-144.13455112 112.23098303 -146.37560893 111.32710761 -148.625 110.4375 C-149.83800781 109.95667969 -151.05101562 109.47585937 -152.30078125 108.98046875 C-155.19316843 108.00452744 -155.19316843 108.00452744 -157.51171875 108.94140625 C-158.40310547 109.58916016 -158.40310547 109.58916016 -159.3125 110.25 C-159.8796875 110.65734375 -160.446875 111.0646875 -161.03125 111.484375 C-177.86933284 125.81151566 -189.93770781 145.40305414 -201.0859375 164.22851562 C-202.22072877 166.09875283 -203.40490032 167.91905308 -204.625 169.734375 C-208.06896623 174.7282415 -208.06896623 174.7282415 -209.359375 180.48828125 C-208.83258379 182.81211022 -208.07675557 184.99345394 -207.3125 187.25 C-202.77928285 209.44814075 -205.25670222 230.24643482 -213.3125 251.25 C-213.98461875 253.24817437 -214.65205273 255.2479376 -215.3125 257.25 C-214.19431885 257.26981934 -213.0761377 257.28963867 -211.92407227 257.31005859 C-161.84826467 258.22192115 -112.37991982 260.79986292 -62.7722168 267.94628906 C-60.22933443 268.31127167 -60.22933443 268.31127167 -57.3125 268.25 C-57.065 269.384375 -56.8175 270.51875 -56.5625 271.6875 C-55.51434789 276.40418448 -54.41777066 281.1089479 -53.3125 285.8125 C-53.1465332 286.52011475 -52.98056641 287.22772949 -52.80957031 287.95678711 C-52.56352051 289.00104858 -52.56352051 289.00104858 -52.3125 290.06640625 C-52.1475 290.77039551 -51.9825 291.47438477 -51.8125 292.19970703 C-51.35158822 294.08971541 -50.83454083 295.96579873 -50.3125 297.83984375 C-47.5596693 308.97387815 -47.0026854 320.21003709 -47.10668945 331.61401367 C-47.12520661 333.71089644 -47.12719625 335.80733987 -47.12695312 337.90429688 C-47.14454314 344.43689267 -47.36844985 350.78400574 -48.3125 357.25 C-48.37277831 359.08246055 -48.40046215 360.91672511 -48.375 362.75 C-48.35416667 364.25 -48.33333333 365.75 -48.3125 367.25 C-49.46238403 367.15150757 -49.46238403 367.15150757 -50.63549805 367.05102539 C-59.12824473 366.35652955 -67.60818832 365.93082674 -76.125 365.6875 C-76.83894928 365.66665344 -77.55289856 365.64580688 -78.28848267 365.62432861 C-93.85664776 365.18749746 -109.42659914 365.14063374 -125 365.125 C-126.17607819 365.1224118 -127.35215637 365.11982361 -128.56387329 365.11715698 C-144.50572426 365.0894944 -160.39061281 365.4419552 -176.3125 366.25 C-176.36841309 367.43126465 -176.42432617 368.6125293 -176.48193359 369.82958984 C-177.11661205 382.91839219 -178.79033147 394.58920488 -183.38671875 406.90234375 C-186.66770041 418.76648418 -173.38073608 436.62067224 -167.82421875 446.63671875 C-158.86912732 462.39513497 -148.93875958 477.33268339 -137.3125 491.25 C-132.8701033 490.67226878 -129.26129475 489.53420762 -125.18359375 487.6953125 C-123.99942871 487.1686499 -122.81526367 486.6419873 -121.59521484 486.09936523 C-120.97007996 485.81858124 -120.34494507 485.53779724 -119.7008667 485.24850464 C-98.09439026 475.57415969 -76.00803096 467.37175471 -53.5625 459.875 C-52.82271912 459.62765106 -52.08293823 459.38030212 -51.32073975 459.12545776 C-40.71894906 455.59275955 -30.05091153 452.341463 -19.3125 449.25 C-21.38674885 433.65053452 -25.91605967 414.99835866 -38.3125 404.25 C-53.87934153 394.45677575 -71.35337018 398.46080107 -88.3125 402.25 C-106.66506782 406.77357649 -124.54157213 412.85282335 -142.3125 419.25 C-142.45292725 418.49372314 -142.59335449 417.73744629 -142.73803711 416.95825195 C-143.44588741 413.62115743 -144.62521552 410.61002983 -145.875 407.4375 C-146.33003906 406.27605469 -146.78507812 405.11460937 -147.25390625 403.91796875 C-147.60324219 403.03753906 -147.95257813 402.15710938 -148.3125 401.25 C-147.70043701 401.0950708 -147.08837402 400.9401416 -146.45776367 400.78051758 C-138.75990004 398.76278163 -131.26793268 396.24681211 -123.74777222 393.66400146 C-112.84274135 389.93184366 -101.94625629 386.39760116 -90.75 383.625 C-89.8010083 383.38998779 -88.8520166 383.15497559 -87.87426758 382.9128418 C-69.12519037 378.45736287 -47.13504403 377.30003311 -30.125 387.6875 C-27.25663064 389.67263455 -24.77589058 391.66697779 -22.4375 394.25 C-21.73625 394.91 -21.035 395.57 -20.3125 396.25 C-15.54705946 396.00009444 -11.7431255 393.45790936 -7.75 391.0625 C-7.02345215 390.62832764 -6.2969043 390.19415527 -5.54833984 389.74682617 C0.59616569 386.0147956 6.61397222 382.0987111 12.5625 378.0625 C13.42431885 377.49313721 14.2861377 376.92377441 15.17407227 376.3371582 C20.14091954 372.89605176 22.93818132 370.12368965 24.6875 364.25 C25.37926449 362.30899431 26.07791738 360.37043768 26.78125 358.43359375 C27.16579346 357.35086182 27.55033691 356.26812988 27.9465332 355.15258789 C40.22403549 320.87074843 59.99540651 285.18393411 87.625 260.640625 C89.95956422 258.49989156 89.95956422 258.49989156 89.54394531 256.07397461 C88.43051526 252.40263897 86.78708823 249.07944241 85.046875 245.67578125 C84.68281555 244.9519072 84.3187561 244.22803314 83.94366455 243.48222351 C82.78056995 241.17275865 81.60922344 238.86759693 80.4375 236.5625 C79.66480835 235.03218177 78.89266752 233.50158529 78.12109375 231.97070312 C76.64292806 229.03967303 75.16180989 226.11017092 73.67773438 223.18212891 C71.32949109 218.54715192 69.00339877 213.90121657 66.6875 209.25 C72.49720821 203.33314553 78.3665386 197.61559641 84.6875 192.25 C85.59628906 191.45207031 86.50507813 190.65414062 87.44140625 189.83203125 C104.86992687 174.6348534 123.85993473 162.2305436 144.6875 152.25 C144.96335937 153.12914062 145.23921875 154.00828125 145.5234375 154.9140625 C146.59253102 157.97784057 147.83243338 160.74276501 149.3125 163.625 C149.75851562 164.49898437 150.20453125 165.37296875 150.6640625 166.2734375 C151.00179688 166.92570313 151.33953125 167.57796875 151.6875 168.25 C150.65753906 168.83265625 149.62757813 169.4153125 148.56640625 170.015625 C133.67836227 178.54299127 119.74881834 188.10458731 106.6875 199.25 C105.46260416 200.27777841 104.23731855 201.3050924 103.01171875 202.33203125 C101.73639969 203.40816781 100.46165476 204.48498516 99.1875 205.5625 C98.58719971 206.06652344 97.98689941 206.57054687 97.3684082 207.08984375 C94.41774349 209.60756479 91.855029 211.99096533 89.6875 215.25 C92.99694591 221.59609585 96.3340345 227.92706219 99.6875 234.25 C100.14157227 235.10964355 100.59564453 235.96928711 101.06347656 236.85498047 C109.04679356 251.91245146 117.91444903 266.01348687 128.6875 279.25 C133.23492362 277.73597606 136.72790647 275.17258331 140.49609375 272.30078125 C148.39910939 266.39486873 156.52525299 260.88263956 164.75 255.4375 C166.20101711 254.47372623 167.65202612 253.50994026 169.10302734 252.54614258 C187.35781586 240.44008211 205.80402775 228.70044364 224.765625 217.73046875 C225.84408691 217.10527344 226.92254883 216.48007813 228.03369141 215.8359375 C230.17943085 214.59354957 232.32746071 213.355107 234.47802734 212.12109375 C235.46754395 211.54875 236.45706055 210.97640625 237.4765625 210.38671875 C238.36037598 209.87842529 239.24418945 209.37013184 240.15478516 208.84643555 C242.83635233 207.15617453 245.24965391 205.27259654 247.6875 203.25 C233.05892136 172.71891773 215.78462818 148.01192856 191.6875 124.25 C189.99825464 124.68071175 188.31118565 125.11996137 186.625 125.5625 C185.68527344 125.80613281 184.74554688 126.04976563 183.77734375 126.30078125 C180.61070933 127.20714638 180.61070933 127.20714638 177.41796875 128.6953125 C173.09976085 130.59854237 168.63646368 131.69543799 164.0625 132.8125 C162.84240234 133.12477539 162.84240234 133.12477539 161.59765625 133.44335938 C149.27294461 136.50057789 137.41250233 137.55598834 124.76538086 137.45581055 C122.36105848 137.43739321 119.95712051 137.4353028 117.55273438 137.43554688 C115.99739255 137.43063501 114.44205329 137.42480814 112.88671875 137.41796875 C112.18133469 137.41685593 111.47595062 137.4157431 110.74919128 137.41459656 C107.21204056 137.38132161 103.82711578 137.16040757 100.32543945 136.64233398 C96.72501116 135.86785342 96.72501116 135.86785342 94.28125 137.8046875 C93.5903125 138.57039063 92.899375 139.33609375 92.1875 140.125 C82.6652549 149.50097405 70.61052704 155.18784409 57.6875 158.25 C56.92566406 158.43949219 56.16382813 158.62898437 55.37890625 158.82421875 C31.2667716 162.63876545 8.80647924 153.23549251 -10.60302734 139.54199219 C-17.51532323 134.5031872 -23.97283401 128.98441445 -30.3125 123.25 C-30.96202637 122.66750488 -31.61155273 122.08500977 -32.28076172 121.48486328 C-34.30105432 119.66694047 -36.30899743 117.83639983 -38.3125 116 C-38.92359619 115.44594482 -39.53469238 114.89188965 -40.16430664 114.32104492 C-44.46889961 110.31753046 -47.8890321 106.03033018 -51.3125 101.25 C-47.3525 97.62 -43.3925 93.99 -39.3125 90.25 C-35.52720384 92.14264808 -33.78266548 93.58838944 -30.92578125 96.58203125 C-30.07830322 97.45706299 -29.2308252 98.33209473 -28.35766602 99.23364258 C-27.45588623 100.16716553 -26.55410645 101.10068848 -25.625 102.0625 C-9.8512793 118.15702359 7.29824725 131.46922617 28.6875 139.25 C29.34621094 139.49621094 30.00492188 139.74242187 30.68359375 139.99609375 C42.26102776 143.60626135 54.09211423 141.59505412 64.6875 136.25 C77.5441783 129.27659306 90.19185578 118.18760941 98.6875 106.25 C97.06736997 102.17289591 94.150119 99.44086438 91.0859375 96.41796875 C90.53064362 95.86313309 89.97534973 95.30829742 89.40322876 94.73664856 C88.22707558 93.56351211 87.04849724 92.39280271 85.86767578 91.22436523 C84.08446546 89.45924266 82.30921976 87.68641977 80.53515625 85.91210938 C74.75456517 80.14936166 68.93506563 74.51050651 62.6875 69.25 C61.53428296 68.25361402 60.38192473 67.25623309 59.23046875 66.2578125 C43.02798375 52.31492244 26.31361004 39.08224728 9.125 26.375 C8.29742187 25.76180908 7.46984375 25.14861816 6.6171875 24.5168457 C5.47443359 23.67706177 5.47443359 23.67706177 4.30859375 22.8203125 C3.6323999 22.32289551 2.95620605 21.82547852 2.25952148 21.31298828 C-0.70116482 19.31099602 -1.89701218 21.27951788 -4.61132812 23.14306641 Z " fill="#FCFCFC" transform="translate(244.3125,-0.25)"/>
<path d="M0 0 C39.00821285 -0.28171232 77.60074832 0.15717193 116.4375 3.9375 C117.26185547 4.01681763 118.08621094 4.09613525 118.93554688 4.17785645 C129.75243668 5.23633836 140.35240366 6.81716515 151 9 C151.81911146 12.49848597 152.62907028 15.99903162 153.4375 19.5 C153.78264648 20.97339844 153.78264648 20.97339844 154.13476562 22.4765625 C154.35712891 23.44335938 154.57949219 24.41015625 154.80859375 25.40625 C155.01282959 26.28603516 155.21706543 27.16582031 155.42749023 28.07226562 C157.18463587 37.05806111 157.1172965 45.88723879 157.0625 55 C157.05747576 56.45702971 157.05291449 57.9140611 157.04882812 59.37109375 C157.03789388 62.9140977 157.02068 66.45703797 157 70 C155.82855942 70.00808685 154.65711884 70.01617371 153.45018005 70.02450562 C142.2607654 70.10292273 131.07145832 70.19087683 119.88218594 70.28752708 C114.13347587 70.33689387 108.38477915 70.38321389 102.63598633 70.421875 C77.35235536 70.59418379 52.2085258 70.91982347 27 73 C24.56057311 73.18937966 22.12103988 73.37739506 19.68139648 73.56396484 C18.59301987 73.64754242 17.50464325 73.73112 16.38328552 73.81723022 C15.5968013 73.87754425 14.81031708 73.93785828 14 74 C5.75231127 50.16958789 -0.16266668 25.3740878 0 0 Z " fill="#010101" transform="translate(20,277)"/>
</svg>
