<?xml version="1.0" encoding="UTF-8"?>
<!DOCTYPE svg PUBLIC "-//W3C//DTD SVG 1.1//EN" "http://www.w3.org/Graphics/SVG/1.1/DTD/svg11.dtd">
<svg xmlns="http://www.w3.org/2000/svg" version="1.1" width="512px" height="512px" style="shape-rendering:geometricPrecision; text-rendering:geometricPrecision; image-rendering:optimizeQuality; fill-rule:evenodd; clip-rule:evenodd" xmlns:xlink="http://www.w3.org/1999/xlink">
<g><path style="opacity:0.975" fill="#fdfdfd" d="M 237.5,-0.5 C 249.5,-0.5 261.5,-0.5 273.5,-0.5C 320.489,7.07861 359.323,29.0786 390,65.5C 433.475,121.086 454.975,184.419 454.5,255.5C 454.975,326.581 433.475,389.914 390,445.5C 359.323,481.921 320.489,503.921 273.5,511.5C 261.5,511.5 249.5,511.5 237.5,511.5C 190.511,503.921 151.677,481.921 121,445.5C 77.5255,389.914 56.0255,326.581 56.5,255.5C 56.0255,184.419 77.5255,121.086 121,65.5C 151.677,29.0786 190.511,7.07861 237.5,-0.5 Z"/></g>
<g><path style="opacity:1" fill="#000000" d="M 241.5,19.5 C 293.58,17.795 336.746,36.4617 371,75.5C 407.878,120.424 428.544,172.09 433,230.5C 438.43,298.001 422.763,360.001 386,416.5C 362.784,450.386 331.617,473.552 292.5,486C 254.565,496.344 218.565,491.678 184.5,472C 154.187,453.354 130.353,428.521 113,397.5C 77.8072,330.328 68.4739,259.662 85,185.5C 96.2983,136.051 120.132,93.8846 156.5,59C 181.081,37.7088 209.415,24.5421 241.5,19.5 Z"/></g>
<g><path style="opacity:1" fill="#f9f9f9" d="M 182.5,130.5 C 186.833,130.5 191.167,130.5 195.5,130.5C 194.899,137.507 194.233,144.507 193.5,151.5C 175.7,149.819 161.533,156.152 151,170.5C 147.312,175.876 144.146,181.542 141.5,187.5C 135.619,185.573 129.786,183.573 124,181.5C 133.095,152.572 152.595,135.572 182.5,130.5 Z"/></g>
<g><path style="opacity:1" fill="#fbfbfb" d="M 326.5,151.5 C 323.375,150.521 320.042,150.187 316.5,150.5C 316.737,149.209 316.404,148.209 315.5,147.5C 315.431,142.146 315.098,136.813 314.5,131.5C 350.787,130.451 374.787,147.118 386.5,181.5C 380.313,183.797 373.979,185.297 367.5,186C 361.612,171.785 351.945,161.118 338.5,154C 334.689,152.261 330.689,151.428 326.5,151.5 Z"/></g>
<g><path style="opacity:1" fill="#7a7a7a" d="M 315.5,147.5 C 316.404,148.209 316.737,149.209 316.5,150.5C 320.042,150.187 323.375,150.521 326.5,151.5C 322.833,151.5 319.167,151.5 315.5,151.5C 315.5,150.167 315.5,148.833 315.5,147.5 Z"/></g>
<g><path style="opacity:1" fill="#fcfcfc" d="M 176.5,206.5 C 184.538,206.101 191.038,209.101 196,215.5C 210.172,237.091 212.172,259.758 202,283.5C 191.715,295.61 181.715,295.277 172,282.5C 160.559,263.847 157.559,243.847 163,222.5C 165.576,215.433 170.076,210.1 176.5,206.5 Z"/></g>
<g><path style="opacity:1" fill="#fcfcfc" d="M 325.5,206.5 C 332.34,205.67 337.84,208.003 342,213.5C 347.537,221.812 350.037,230.978 349.5,241C 349.864,254.71 346.697,267.543 340,279.5C 335.877,286.796 329.711,291.129 321.5,292.5C 315.807,291.31 311.307,288.31 308,283.5C 297.907,259.746 299.907,237.079 314,215.5C 317.183,211.462 321.016,208.462 325.5,206.5 Z"/></g>
<g><path style="opacity:1" fill="#fdfdfd" d="M 234.5,348.5 C 279.279,344.923 321.612,353.256 361.5,373.5C 360.865,383.258 358.032,392.591 353,401.5C 332.64,432.275 303.806,448.442 266.5,450C 227.941,453.597 195.441,441.43 169,413.5C 160.09,402.117 154.256,389.284 151.5,375C 164.258,367.125 177.924,361.125 192.5,357C 206.448,353.182 220.448,350.349 234.5,348.5 Z"/></g>
</svg>
