<?xml version="1.0" encoding="UTF-8"?>
<!DOCTYPE svg PUBLIC "-//W3C//DTD SVG 1.1//EN" "http://www.w3.org/Graphics/SVG/1.1/DTD/svg11.dtd">
<svg xmlns="http://www.w3.org/2000/svg" version="1.1" width="512px" height="512px" style="shape-rendering:geometricPrecision; text-rendering:geometricPrecision; image-rendering:optimizeQuality; fill-rule:evenodd; clip-rule:evenodd" xmlns:xlink="http://www.w3.org/1999/xlink">
<g><path style="opacity:0.976" fill="#fdfdfd" d="M 238.5,-0.5 C 249.833,-0.5 261.167,-0.5 272.5,-0.5C 317.275,7.30608 353.442,29.3061 381,65.5C 412.723,108.971 431.723,157.637 438,211.5C 447.408,286.455 433.742,356.789 397,422.5C 376.407,457.76 347.574,483.927 310.5,501C 298.076,505.871 285.409,509.371 272.5,511.5C 261.167,511.5 249.833,511.5 238.5,511.5C 193.725,503.694 157.558,481.694 130,445.5C 98.2766,402.029 79.2766,353.363 73,299.5C 63.5918,224.545 77.2585,154.211 114,88.5C 134.593,53.2397 163.426,27.0731 200.5,10C 212.924,5.12927 225.591,1.62927 238.5,-0.5 Z"/></g>
<g><path style="opacity:1" fill="#000000" d="M 244.5,19.5 C 278.486,18.4406 308.819,28.2739 335.5,49C 364.171,73.8204 385.337,103.987 399,139.5C 421.454,201.191 425.788,264.191 412,328.5C 401.613,378.793 378.113,421.626 341.5,457C 284.109,502.9 226.776,502.9 169.5,457C 132.887,421.626 109.387,378.793 99,328.5C 85.2123,264.191 89.5456,201.191 112,139.5C 126.05,102.134 148.55,70.9677 179.5,46C 198.968,31.5937 220.635,22.7604 244.5,19.5 Z"/></g>
<g><path style="opacity:1" fill="#fdfdfd" d="M 114.5,198.5 C 179.251,220.099 245.584,226.599 313.5,218C 341.801,214.006 369.468,207.673 396.5,199C 402.928,235.421 403.094,271.921 397,308.5C 360.568,320.768 323.068,327.601 284.5,329C 239.017,331.951 194.017,328.618 149.5,319C 137.658,316.275 125.991,312.941 114.5,309C 107.902,272.167 107.902,235.334 114.5,198.5 Z"/></g>
<g><path style="opacity:1" fill="#020202" d="M 164.5,239.5 C 189.65,237.333 211.983,243.999 231.5,259.5C 226.127,269.371 218.127,276.204 207.5,280C 193.803,284.701 179.803,285.701 165.5,283C 148.569,277.735 137.235,266.735 131.5,250C 142.104,244.964 153.104,241.464 164.5,239.5 Z"/></g>
<g><path style="opacity:1" fill="#020202" d="M 322.5,239.5 C 342.495,238.053 361.495,241.553 379.5,250C 372.934,269.228 359.601,280.562 339.5,284C 317.351,287.583 298.517,281.416 283,265.5C 281.634,263.63 280.467,261.63 279.5,259.5C 292.061,248.982 306.394,242.315 322.5,239.5 Z"/></g>
</svg>
