<?xml version="1.0" encoding="UTF-8"?>
<!DOCTYPE svg PUBLIC "-//W3C//DTD SVG 1.1//EN" "http://www.w3.org/Graphics/SVG/1.1/DTD/svg11.dtd">
<svg xmlns="http://www.w3.org/2000/svg" version="1.1" width="512px" height="512px" style="shape-rendering:geometricPrecision; text-rendering:geometricPrecision; image-rendering:optimizeQuality; fill-rule:evenodd; clip-rule:evenodd" xmlns:xlink="http://www.w3.org/1999/xlink">
<g><path style="opacity:0.975" fill="#fdfdfd" d="M 237.5,-0.5 C 249.5,-0.5 261.5,-0.5 273.5,-0.5C 320.489,7.07861 359.323,29.0786 390,65.5C 433.475,121.086 454.975,184.419 454.5,255.5C 454.975,326.581 433.475,389.914 390,445.5C 359.323,481.921 320.489,503.921 273.5,511.5C 261.5,511.5 249.5,511.5 237.5,511.5C 190.511,503.921 151.677,481.921 121,445.5C 77.5255,389.914 56.0255,326.581 56.5,255.5C 56.0255,184.419 77.5255,121.086 121,65.5C 151.677,29.0786 190.511,7.07861 237.5,-0.5 Z"/></g>
<g><path style="opacity:1" fill="#010101" d="M 241.5,19.5 C 293.58,17.795 336.746,36.4617 371,75.5C 407.878,120.424 428.544,172.09 433,230.5C 438.43,298.001 422.763,360.001 386,416.5C 362.784,450.386 331.617,473.552 292.5,486C 254.565,496.344 218.565,491.678 184.5,472C 154.187,453.354 130.353,428.521 113,397.5C 77.8072,330.328 68.4739,259.662 85,185.5C 96.2983,136.051 120.132,93.8846 156.5,59C 181.081,37.7088 209.415,24.5421 241.5,19.5 Z"/></g>
<g><path style="opacity:1" fill="#fbfbfb" d="M 142.5,204.5 C 172.077,211.061 201.41,218.561 230.5,227C 228.76,232.788 227.094,238.622 225.5,244.5C 219.763,244.658 214.096,243.658 208.5,241.5C 210.044,256.052 207.877,270.052 202,283.5C 191.715,295.61 181.715,295.277 172,282.5C 161.891,266.351 158.391,248.851 161.5,230C 153.904,228.06 146.404,225.894 139,223.5C 139.358,217.057 140.525,210.724 142.5,204.5 Z"/></g>
<g><path style="opacity:1" fill="#fbfbfb" d="M 363.5,204.5 C 365.288,204.215 366.955,204.548 368.5,205.5C 370.067,210.599 371.4,215.766 372.5,221C 372.245,222.326 371.578,223.326 370.5,224C 363.354,225.536 356.354,227.536 349.5,230C 352.609,248.851 349.109,266.351 339,282.5C 329.241,295.286 319.241,295.62 309,283.5C 302.788,270.117 300.955,256.117 303.5,241.5C 297.73,242.359 292.063,243.692 286.5,245.5C 284.046,239.365 282.046,233.032 280.5,226.5C 308.332,219.294 335.998,211.961 363.5,204.5 Z"/></g>
<g><path style="opacity:1" fill="#fafafa" d="M 139.5,333.5 C 152.45,333.326 165.117,335.16 177.5,339C 195.683,344.061 213.683,349.728 231.5,356C 244.259,360.443 257.259,361.443 270.5,359C 293.769,351.799 317.102,344.799 340.5,338C 383.956,325.123 396.623,339.456 378.5,381C 297.833,381.667 217.167,381.667 136.5,381C 132.041,371.33 129.374,361.164 128.5,350.5C 128.572,342.442 132.239,336.775 139.5,333.5 Z"/></g>
<g><path style="opacity:1" fill="#7e7e7e" d="M 368.5,401.5 C 294.331,401.167 220.331,401.501 146.5,402.5C 145.957,402.44 145.624,402.107 145.5,401.5C 182.833,401.167 220.167,400.833 257.5,400.5C 295.237,400.497 332.237,400.83 368.5,401.5 Z"/></g>
<g><path style="opacity:1" fill="#fdfdfd" d="M 368.5,401.5 C 363.698,413.143 356.698,423.31 347.5,432C 337.789,437.607 327.455,438.94 316.5,436C 288.437,423.942 259.437,420.608 229.5,426C 217.041,429.264 204.708,432.931 192.5,437C 178.495,439.582 167.328,435.082 159,423.5C 154.318,416.803 150.152,409.803 146.5,402.5C 220.331,401.501 294.331,401.167 368.5,401.5 Z"/></g>
</svg>
