<?xml version="1.0" encoding="UTF-8"?>
<!DOCTYPE svg PUBLIC "-//W3C//DTD SVG 1.1//EN" "http://www.w3.org/Graphics/SVG/1.1/DTD/svg11.dtd">
<svg xmlns="http://www.w3.org/2000/svg" version="1.1" width="512px" height="512px" style="shape-rendering:geometricPrecision; text-rendering:geometricPrecision; image-rendering:optimizeQuality; fill-rule:evenodd; clip-rule:evenodd" xmlns:xlink="http://www.w3.org/1999/xlink">
<g><path style="opacity:0.982" fill="#fcfcfc" d="M 21.5,-0.5 C 89.8333,-0.5 158.167,-0.5 226.5,-0.5C 235.086,3.31367 239.753,9.98033 240.5,19.5C 224.378,96.0895 223.878,172.756 239,249.5C 243.814,271.952 252.148,292.952 264,312.5C 281.04,282.918 298.207,253.418 315.5,224C 302.044,209.3 296.877,192.133 300,172.5C 305.691,156.821 316.857,147.654 333.5,145C 378.043,142.837 413.877,159.337 441,194.5C 448.331,204.659 452.164,215.993 452.5,228.5C 451.094,251.077 439.094,263.911 416.5,267C 412.5,267.167 408.5,267.333 404.5,267.5C 398.194,267.65 392.027,266.984 386,265.5C 368.167,296.5 350.333,327.5 332.5,358.5C 362.799,379.738 395.466,396.738 430.5,409.5C 458.65,404.274 482.484,411.94 502,432.5C 505.716,437.938 508.882,443.605 511.5,449.5C 511.5,458.5 511.5,467.5 511.5,476.5C 503.538,494.676 489.538,504.843 469.5,507C 409.167,507.667 348.833,507.667 288.5,507C 286.103,505.276 283.769,505.276 281.5,507C 275.167,507.667 268.833,507.667 262.5,507C 224.854,493.294 186.187,488.961 146.5,494C 127.333,497.208 108.333,501.208 89.5,506C 61.4257,510.753 37.5924,502.919 18,482.5C 2.61492,460.952 -3.05175,436.952 1,410.5C 1.78382,404.464 2.78382,398.464 4,392.5C 40.0788,288.648 46.4122,182.981 23,75.5C 18.3348,56.6743 13.1682,38.0077 7.5,19.5C 7.94348,9.74501 12.6101,3.07834 21.5,-0.5 Z"/></g>
<g><path style="opacity:1" fill="#000000" d="M 274.5,406.5 C 274.5,433.167 274.5,459.833 274.5,486.5C 272.167,486.5 269.833,486.5 267.5,486.5C 227.878,473.104 187.211,468.604 145.5,473C 123.984,476.436 102.651,480.77 81.5,486C 51.4893,488.313 31.9893,475.146 23,446.5C 19.3841,428.684 20.0507,411.017 25,393.5C 56.9038,301.356 65.5705,207.023 51,110.5C 46.548,79.5255 39.048,49.3588 28.5,20C 92.1667,19.3333 155.833,19.3333 219.5,20C 216.57,30.6518 214.403,41.4851 213,52.5C 205.428,111.544 205.761,170.544 214,229.5C 218.678,259.551 227.678,288.218 241,315.5C 244.67,322.176 248.836,328.509 253.5,334.5C 249.919,341.33 246.086,347.997 242,354.5C 240.595,358.072 240.262,361.739 241,365.5C 245.727,371.897 250.06,378.564 254,385.5C 261.036,392.368 267.869,399.368 274.5,406.5 Z"/></g>
<g><path style="opacity:1" fill="#020202" d="M 337.5,164.5 C 377.527,164.756 408.027,181.756 429,215.5C 432.282,223.193 432.282,230.86 429,238.5C 425.547,242.145 421.38,244.645 416.5,246C 382.947,247.982 354.781,236.482 332,211.5C 324.696,203.391 320.529,193.891 319.5,183C 319.42,176.16 322.42,171.16 328.5,168C 331.662,166.973 334.662,165.806 337.5,164.5 Z"/></g>
<g><path style="opacity:1" fill="#020202" d="M 331.5,237.5 C 342.185,245.849 353.852,252.682 366.5,258C 342.667,299.167 318.833,340.333 295,381.5C 291.369,384.879 287.202,385.379 282.5,383C 274.009,379.671 266.842,374.504 261,367.5C 259.699,365.635 259.365,363.635 260,361.5C 284.061,320.279 307.894,278.945 331.5,237.5 Z"/></g>
<g><path style="opacity:1" fill="#000000" d="M 319.5,376.5 C 337.948,387.562 356.615,398.396 375.5,409C 392.474,417.826 410.141,424.993 428.5,430.5C 448.452,425.654 466.452,429.488 482.5,442C 489.786,449.396 492.952,458.229 492,468.5C 487.548,479.254 479.382,485.087 467.5,486C 409.834,486.5 352.168,486.667 294.5,486.5C 294.167,458.492 294.5,430.492 295.5,402.5C 305.957,396.045 313.957,387.379 319.5,376.5 Z"/></g>
<g><path style="opacity:1" fill="#464646" d="M 274.5,406.5 C 275.498,433.328 275.831,460.328 275.5,487.5C 272.615,487.806 269.948,487.473 267.5,486.5C 269.833,486.5 272.167,486.5 274.5,486.5C 274.5,459.833 274.5,433.167 274.5,406.5 Z"/></g>
</svg>
