<?xml version="1.0" encoding="UTF-8"?>
<!DOCTYPE svg PUBLIC "-//W3C//DTD SVG 1.1//EN" "http://www.w3.org/Graphics/SVG/1.1/DTD/svg11.dtd">
<svg xmlns="http://www.w3.org/2000/svg" version="1.1" width="512px" height="512px" style="shape-rendering:geometricPrecision; text-rendering:geometricPrecision; image-rendering:optimizeQuality; fill-rule:evenodd; clip-rule:evenodd" xmlns:xlink="http://www.w3.org/1999/xlink">
<g><path style="opacity:0.991" fill="#fdfdfd" d="M 242.5,-0.5 C 250.167,-0.5 257.833,-0.5 265.5,-0.5C 296.766,8.61026 315.933,29.2769 323,61.5C 328.666,87.3337 325.5,112 313.5,135.5C 327.623,141.639 339.123,150.972 348,163.5C 358.757,181.435 365.757,200.769 369,221.5C 374.27,257.981 376.27,294.647 375,331.5C 372.987,338.181 368.82,343.014 362.5,346C 352.566,347.395 342.566,347.895 332.5,347.5C 329.754,395.525 326.587,443.525 323,491.5C 321.377,497.457 317.877,501.957 312.5,505C 301.529,508.028 290.529,510.195 279.5,511.5C 264.833,511.5 250.167,511.5 235.5,511.5C 225.233,510.1 214.9,508.267 204.5,506C 198.333,503.833 194.167,499.667 192,493.5C 187.647,444.888 183.813,396.221 180.5,347.5C 169.769,347.903 159.102,347.403 148.5,346C 142.18,343.014 138.013,338.181 136,331.5C 135.064,296.944 137.397,262.611 143,228.5C 147.012,202.112 156.679,178.112 172,156.5C 179.521,148.467 188.021,141.801 197.5,136.5C 182.044,106.529 180.544,75.8622 193,44.5C 202.456,21.5352 218.956,6.53521 242.5,-0.5 Z"/></g>
<g><path style="opacity:1" fill="#020202" d="M 246.5,9.5 C 251.179,9.33418 255.845,9.50085 260.5,10C 264.179,10.2814 267.512,11.4481 270.5,13.5C 268.089,19.2425 265.589,24.9092 263,30.5C 257.333,29.1667 251.667,29.1667 246,30.5C 243.828,24.65 241.662,18.8166 239.5,13C 241.582,11.1689 243.915,10.0022 246.5,9.5 Z"/></g>
<g><path style="opacity:1" fill="#060606" d="M 229.5,16.5 C 233.763,21.5043 237.43,27.0043 240.5,33C 234.979,37.0208 230.312,41.8541 226.5,47.5C 220.488,44.1618 214.821,40.3284 209.5,36C 215.4,28.5989 222.066,22.0989 229.5,16.5 Z"/></g>
<g><path style="opacity:1" fill="#070707" d="M 278.5,16.5 C 287.659,20.6552 294.993,26.9885 300.5,35.5C 295.45,39.8847 290.116,43.8847 284.5,47.5C 279.982,42.1487 274.982,37.3154 269.5,33C 272.385,27.3929 275.385,21.8929 278.5,16.5 Z"/></g>
<g><path style="opacity:1" fill="#060606" d="M 303.5,43.5 C 309.964,51.2131 313.297,60.2131 313.5,70.5C 307.495,71.5005 301.495,72.5005 295.5,73.5C 293.721,66.3319 291.054,59.4985 287.5,53C 292.732,49.5553 298.065,46.3886 303.5,43.5 Z"/></g>
<g><path style="opacity:1" fill="#070707" d="M 205.5,44.5 C 211.462,47.1476 217.129,50.3143 222.5,54C 219.394,60.1522 217.394,66.6522 216.5,73.5C 209.667,72.8116 203,71.4783 196.5,69.5C 198.118,60.6427 201.118,52.3093 205.5,44.5 Z"/></g>
<g><path style="opacity:1" fill="#070707" d="M 309.5,78.5 C 311.167,78.5 312.833,78.5 314.5,78.5C 316.134,87.2913 315.634,95.9579 313,104.5C 312.481,105.516 311.647,106.182 310.5,106.5C 305.186,105.228 299.852,104.061 294.5,103C 293.941,102.275 293.608,101.442 293.5,100.5C 294.804,93.8837 295.804,87.217 296.5,80.5C 300.967,79.8864 305.3,79.2197 309.5,78.5 Z"/></g>
<g><path style="opacity:1" fill="#030303" d="M 195.5,79.5 C 202.167,79.8333 208.833,80.1667 215.5,80.5C 215.222,87.379 215.555,94.2123 216.5,101C 216.095,101.945 215.428,102.612 214.5,103C 208.76,104.351 203.093,105.851 197.5,107.5C 195.82,98.2607 195.154,88.9273 195.5,79.5 Z"/></g>
<g><path style="opacity:1" fill="#050505" d="M 291.5,108.5 C 297.906,110.358 304.239,112.524 310.5,115C 307.871,124.092 303.538,132.258 297.5,139.5C 292.5,135.5 287.5,131.5 282.5,127.5C 286.842,121.811 289.842,115.478 291.5,108.5 Z"/></g>
<g><path style="opacity:1" fill="#070707" d="M 216.5,109.5 C 217.496,109.414 218.329,109.748 219,110.5C 221.912,116.658 225.079,122.658 228.5,128.5C 223.5,132.5 218.5,136.5 213.5,140.5C 207.462,133.258 203.129,125.092 200.5,116C 205.859,113.718 211.193,111.551 216.5,109.5 Z"/></g>
<g><path style="opacity:1" fill="#050505" d="M 276.5,134.5 C 280.202,136.024 283.536,138.19 286.5,141C 287.793,141.49 289.127,141.657 290.5,141.5C 290.383,143.484 291.05,145.15 292.5,146.5C 289.579,150.971 288.245,155.971 288.5,161.5C 265.518,160.548 261.518,151.548 276.5,134.5 Z"/></g>
<g><path style="opacity:1" fill="#040404" d="M 232.5,134.5 C 233.239,134.369 233.906,134.536 234.5,135C 236.647,138.115 239.147,140.948 242,143.5C 244.349,148.688 243.849,153.522 240.5,158C 235.102,160.321 229.435,161.487 223.5,161.5C 223.278,156.081 221.611,151.248 218.5,147C 220.037,145.89 220.703,144.39 220.5,142.5C 225.293,141.044 229.293,138.377 232.5,134.5 Z"/></g>
<g><path style="opacity:1" fill="#070707" d="M 298.5,143.5 C 308.032,144.676 316.699,148.009 324.5,153.5C 320.885,159.116 316.885,164.45 312.5,169.5C 306.811,166.558 301.144,163.725 295.5,161C 296.378,155.14 297.378,149.307 298.5,143.5 Z"/></g>
<g><path style="opacity:1" fill="#080808" d="M 210.5,144.5 C 211.496,144.414 212.329,144.748 213,145.5C 214.145,151.549 215.145,157.549 216,163.5C 210.358,165.238 205.191,167.905 200.5,171.5C 195.822,166.821 191.489,161.821 187.5,156.5C 194.278,150.613 201.945,146.613 210.5,144.5 Z"/></g>
<g><path style="opacity:1" fill="#0a0a0a" d="M 329.5,159.5 C 331.371,159.859 332.871,160.859 334,162.5C 338.031,168.366 341.864,174.366 345.5,180.5C 339.946,184.197 334.113,187.531 328,190.5C 325.157,184.142 321.323,178.475 316.5,173.5C 320.855,168.813 325.188,164.146 329.5,159.5 Z"/></g>
<g><path style="opacity:1" fill="#060606" d="M 180.5,162.5 C 186.399,166.059 191.733,170.392 196.5,175.5C 192.172,180.821 188.338,186.488 185,192.5C 179.087,189.46 173.253,186.294 167.5,183C 171.22,175.716 175.553,168.882 180.5,162.5 Z"/></g>
<g><path style="opacity:1" fill="#050505" d="M 346.5,189.5 C 348.411,189.574 349.578,190.574 350,192.5C 352.591,198.517 354.758,204.683 356.5,211C 356.095,211.945 355.428,212.612 354.5,213C 349.072,214.19 343.739,215.69 338.5,217.5C 336.064,210.601 333.397,203.767 330.5,197C 335.944,194.582 341.277,192.082 346.5,189.5 Z"/></g>
<g><path style="opacity:1" fill="#070707" d="M 164.5,191.5 C 170.632,193.71 176.632,196.21 182.5,199C 180.272,205.02 178.439,211.187 177,217.5C 176.612,218.428 175.945,219.095 175,219.5C 169.214,218.138 163.547,216.471 158,214.5C 158.832,206.499 160.998,198.832 164.5,191.5 Z"/></g>
<g><path style="opacity:1" fill="#080808" d="M 353.5,220.5 C 355.144,220.286 356.644,220.62 358,221.5C 359.773,229.08 360.94,236.746 361.5,244.5C 354.833,245.167 348.167,245.833 341.5,246.5C 340.332,239.165 339.499,231.832 339,224.5C 343.998,223.44 348.831,222.107 353.5,220.5 Z"/></g>
<g><path style="opacity:1" fill="#080808" d="M 155.5,221.5 C 161.71,222.739 167.877,224.073 174,225.5C 173.171,232.814 172.004,240.147 170.5,247.5C 164.46,247.053 158.46,246.386 152.5,245.5C 151.996,237.354 152.996,229.354 155.5,221.5 Z"/></g>
<g><path style="opacity:1" fill="#060606" d="M 357.5,251.5 C 359.167,251.5 360.833,251.5 362.5,251.5C 362.833,259.5 363.167,267.5 363.5,275.5C 357.196,276.26 350.863,276.593 344.5,276.5C 343.833,268.833 343.167,261.167 342.5,253.5C 347.68,253.153 352.68,252.487 357.5,251.5 Z"/></g>
<g><path style="opacity:1" fill="#060606" d="M 150.5,252.5 C 156.559,252.772 162.559,253.439 168.5,254.5C 168.833,255.333 169.167,256.167 169.5,257C 168.706,263.825 168.039,270.658 167.5,277.5C 160.833,276.833 154.167,276.167 147.5,275.5C 148.582,267.844 149.582,260.178 150.5,252.5 Z"/></g>
<g><path style="opacity:1" fill="#050505" d="M 147.5,283.5 C 154.167,283.833 160.833,284.167 167.5,284.5C 166.687,292.138 166.354,299.804 166.5,307.5C 159.804,307.609 153.137,307.276 146.5,306.5C 146.778,298.83 147.111,291.164 147.5,283.5 Z"/></g>
<g><path style="opacity:1" fill="#000000" d="M 344.5,283.5 C 351.167,283.5 357.833,283.5 364.5,283.5C 364.5,291.167 364.5,298.833 364.5,306.5C 357.833,306.5 351.167,306.5 344.5,306.5C 344.5,298.833 344.5,291.167 344.5,283.5 Z"/></g>
<g><path style="opacity:1" fill="#010101" d="M 146.5,314.5 C 153.2,314.17 159.866,314.503 166.5,315.5C 168.412,322.287 169.078,329.287 168.5,336.5C 150.167,340.167 142.833,332.833 146.5,314.5 Z"/></g>
<g><path style="opacity:1" fill="#000000" d="M 345.5,314.5 C 351.833,314.5 358.167,314.5 364.5,314.5C 368.167,332.833 360.833,340.167 342.5,336.5C 342.5,329.833 342.5,323.167 342.5,316.5C 344.179,316.715 345.179,316.048 345.5,314.5 Z"/></g>
<g><path style="opacity:1" fill="#404040" d="M 201.5,317.5 C 196.833,317.5 192.167,317.5 187.5,317.5C 187.5,323.833 187.5,330.167 187.5,336.5C 186.509,330.021 186.176,323.354 186.5,316.5C 191.695,316.179 196.695,316.513 201.5,317.5 Z"/></g>
<g><path style="opacity:1" fill="#030303" d="M 201.5,317.5 C 204.988,318.143 207.488,320.143 209,323.5C 209.748,328.481 210.248,333.481 210.5,338.5C 203.852,339.139 197.186,339.473 190.5,339.5C 190.5,338.5 190.5,337.5 190.5,336.5C 189.5,336.5 188.5,336.5 187.5,336.5C 187.5,330.167 187.5,323.833 187.5,317.5C 192.167,317.5 196.833,317.5 201.5,317.5 Z"/></g>
<g><path style="opacity:1" fill="#030303" d="M 310.5,317.5 C 315.5,317.5 320.5,317.5 325.5,317.5C 325.5,323.833 325.5,330.167 325.5,336.5C 324.5,336.5 323.5,336.5 322.5,336.5C 322.5,337.5 322.5,338.5 322.5,339.5C 315.743,339.877 309.076,339.377 302.5,338C 303.305,333.251 303.805,328.418 304,323.5C 305.406,320.591 307.572,318.591 310.5,317.5 Z"/></g>
<g><path style="opacity:1" fill="#414141" d="M 310.5,317.5 C 315.64,316.512 320.974,316.179 326.5,316.5C 326.824,323.354 326.491,330.021 325.5,336.5C 325.5,330.167 325.5,323.833 325.5,317.5C 320.5,317.5 315.5,317.5 310.5,317.5 Z"/></g>
<g><path style="opacity:1" fill="#070707" d="M 196.5,346.5 C 201.167,346.5 205.833,346.5 210.5,346.5C 211.497,354.462 212.163,362.462 212.5,370.5C 205.833,370.833 199.167,371.167 192.5,371.5C 192.167,363.5 191.833,355.5 191.5,347.5C 193.415,347.784 195.081,347.451 196.5,346.5 Z"/></g>
<g><path style="opacity:1" fill="#070707" d="M 302.5,346.5 C 309.167,346.833 315.833,347.167 322.5,347.5C 321.833,355.5 321.167,363.5 320.5,371.5C 313.804,371.609 307.137,371.276 300.5,370.5C 300.837,362.462 301.503,354.462 302.5,346.5 Z"/></g>
<g><path style="opacity:1" fill="#080808" d="M 208.5,377.5 C 210.167,377.5 211.833,377.5 213.5,377.5C 214.288,385.809 214.621,394.142 214.5,402.5C 208.196,403.26 201.863,403.593 195.5,403.5C 194.833,395.5 194.167,387.5 193.5,379.5C 198.68,379.153 203.68,378.487 208.5,377.5 Z"/></g>
<g><path style="opacity:1" fill="#070707" d="M 300.5,378.5 C 307.167,378.833 313.833,379.167 320.5,379.5C 319.833,387.5 319.167,395.5 318.5,403.5C 311.804,403.609 305.137,403.276 298.5,402.5C 298.837,394.462 299.503,386.462 300.5,378.5 Z"/></g>
<g><path style="opacity:1" fill="#060606" d="M 210.5,409.5 C 212.167,409.5 213.833,409.5 215.5,409.5C 216.497,417.462 217.163,425.462 217.5,433.5C 210.833,434.167 204.167,434.833 197.5,435.5C 196.833,427.5 196.167,419.5 195.5,411.5C 200.68,411.153 205.68,410.487 210.5,409.5 Z"/></g>
<g><path style="opacity:1" fill="#080808" d="M 298.5,409.5 C 304.559,409.772 310.559,410.439 316.5,411.5C 317.171,419.472 317.171,427.472 316.5,435.5C 309.833,434.833 303.167,434.167 296.5,433.5C 296.837,425.462 297.503,417.462 298.5,409.5 Z"/></g>
<g><path style="opacity:1" fill="#080808" d="M 203.5,441.5 C 208.167,441.5 212.833,441.5 217.5,441.5C 218.497,449.462 219.163,457.462 219.5,465.5C 213.188,466.354 206.855,467.021 200.5,467.5C 199.833,459.167 199.167,450.833 198.5,442.5C 200.415,442.784 202.081,442.451 203.5,441.5 Z"/></g>
<g><path style="opacity:1" fill="#090909" d="M 296.5,441.5 C 302.863,441.407 309.196,441.74 315.5,442.5C 315.167,450.5 314.833,458.5 314.5,466.5C 307.804,466.609 301.137,466.276 294.5,465.5C 294.837,457.462 295.503,449.462 296.5,441.5 Z"/></g>
<g><path style="opacity:1" fill="#040404" d="M 210.5,473.5 C 213.833,473.5 217.167,473.5 220.5,473.5C 220.5,475.167 220.5,476.833 220.5,478.5C 221.833,478.5 223.167,478.5 224.5,478.5C 224.053,485.192 223.386,491.859 222.5,498.5C 215.911,498.05 209.744,496.383 204,493.5C 201.71,487.418 200.543,481.085 200.5,474.5C 204.042,474.813 207.375,474.479 210.5,473.5 Z"/></g>
<g><path style="opacity:1" fill="#060606" d="M 293.5,473.5 C 300.148,474.139 306.814,474.473 313.5,474.5C 314.128,480.762 313.295,486.762 311,492.5C 310.167,493.333 309.333,494.167 308.5,495C 304,496.167 299.5,497.333 295,498.5C 293.674,498.245 292.674,497.578 292,496.5C 290.71,490.554 289.877,484.554 289.5,478.5C 290.833,478.5 292.167,478.5 293.5,478.5C 293.5,476.833 293.5,475.167 293.5,473.5 Z"/></g>
<g><path style="opacity:1" fill="#040404" d="M 232.5,480.5 C 239.48,481.165 246.48,481.498 253.5,481.5C 253.5,488.167 253.5,494.833 253.5,501.5C 245.736,501.731 238.069,501.065 230.5,499.5C 230.167,499 229.833,498.5 229.5,498C 230.378,492.14 231.378,486.307 232.5,480.5 Z"/></g>
<g><path style="opacity:1" fill="#060606" d="M 267.5,480.5 C 272.544,480.173 277.544,480.506 282.5,481.5C 283.386,487.46 284.053,493.46 284.5,499.5C 276.877,500.606 269.21,501.273 261.5,501.5C 261.167,494.833 260.833,488.167 260.5,481.5C 263.059,481.802 265.393,481.468 267.5,480.5 Z"/></g>
</svg>
