<?xml version="1.0" encoding="UTF-8"?>
<!DOCTYPE svg PUBLIC "-//W3C//DTD SVG 1.1//EN" "http://www.w3.org/Graphics/SVG/1.1/DTD/svg11.dtd">
<svg xmlns="http://www.w3.org/2000/svg" version="1.1" width="512px" height="512px" style="shape-rendering:geometricPrecision; text-rendering:geometricPrecision; image-rendering:optimizeQuality; fill-rule:evenodd; clip-rule:evenodd" xmlns:xlink="http://www.w3.org/1999/xlink">
<g><path style="opacity:0.991" fill="#fdfdfd" d="M 379.5,-0.5 C 387.167,-0.5 394.833,-0.5 402.5,-0.5C 418.716,3.70545 432.216,12.3721 443,25.5C 447.837,32.5037 452.171,39.837 456,47.5C 474.419,45.4786 492.919,43.8119 511.5,42.5C 511.5,49.5 511.5,56.5 511.5,63.5C 487.771,64.8941 464.104,66.8941 440.5,69.5C 445.745,100.598 437.078,127.098 414.5,149C 444.258,149.468 464.758,163.301 476,190.5C 485.614,217.297 490.614,244.964 491,273.5C 491.5,291.164 491.667,308.83 491.5,326.5C 477.833,326.5 464.167,326.5 450.5,326.5C 447.123,377.158 443.789,427.825 440.5,478.5C 440.478,480.965 440.978,483.298 442,485.5C 448.055,494.048 453.888,502.715 459.5,511.5C 451.167,511.5 442.833,511.5 434.5,511.5C 433.878,510.373 433.045,509.373 432,508.5C 426.743,509.546 421.577,510.546 416.5,511.5C 401.5,511.5 386.5,511.5 371.5,511.5C 360.507,509.997 349.507,507.831 338.5,505C 333.123,501.957 329.623,497.457 328,491.5C 324.015,443.531 320.515,395.531 317.5,347.5C 308.161,347.666 298.827,347.5 289.5,347C 280.886,345.72 275.386,340.886 273,332.5C 272.545,314.488 272.545,296.488 273,278.5C 259.087,259.008 245.42,239.341 232,219.5C 237.75,258.589 239.75,297.922 238,337.5C 236.264,344.237 232.097,348.737 225.5,351C 215.839,351.5 206.172,351.666 196.5,351.5C 193.179,398.477 190.013,445.477 187,492.5C 185.671,501.645 180.838,507.978 172.5,511.5C 138.167,511.5 103.833,511.5 69.5,511.5C 62.1842,509.016 57.3509,504.016 55,496.5C 51.0892,448.159 47.2558,399.825 43.5,351.5C 33.1613,351.666 22.828,351.5 12.5,351C 6.31536,348.647 1.98203,344.48 -0.5,338.5C -0.5,323.167 -0.5,307.833 -0.5,292.5C 0.933073,265.636 4.76641,238.969 11,212.5C 15.6929,192.782 24.3595,175.116 37,159.5C 44.0221,152.072 52.1888,146.238 61.5,142C 50.1069,121.597 45.9402,99.7641 49,76.5C 52.7304,45.4753 68.2304,22.6419 95.5,8C 125.398,-1.25598 150.232,6.24402 170,30.5C 178.8,42.0999 184.3,55.0999 186.5,69.5C 232.513,65.8878 278.513,62.0545 324.5,58C 330.509,37.2956 342.176,20.629 359.5,8C 365.92,4.28202 372.586,1.44868 379.5,-0.5 Z"/></g>
<g><path style="opacity:1" fill="#010101" d="M 383.5,19.5 C 403.648,18.6564 419.148,26.6564 430,43.5C 434.854,51.2336 438.021,59.567 439.5,68.5C 407.183,71.332 374.85,73.9986 342.5,76.5C 345.228,49.2943 358.894,30.2943 383.5,19.5 Z"/></g>
<g><path style="opacity:1" fill="#000000" d="M 217.5,297.5 C 217.5,308.5 217.5,319.5 217.5,330.5C 203.99,330.171 190.656,330.504 177.5,331.5C 172.87,384.612 169.203,437.945 166.5,491.5C 143.672,495.331 120.672,496.497 97.5,495C 89.854,493.977 82.354,492.477 75,490.5C 71.3296,437.313 67.163,384.313 62.5,331.5C 48.6766,330.504 34.6766,330.171 20.5,330.5C 20.5,322.5 20.5,314.5 20.5,306.5C 20.2217,272.826 24.7217,239.826 34,207.5C 39.4135,190.481 48.9135,176.314 62.5,165C 66.7136,162.726 71.0469,160.726 75.5,159C 82.8764,157.638 90.2097,156.138 97.5,154.5C 67.2694,124.117 61.1027,89.4499 79,50.5C 87.441,35.2097 100.274,26.543 117.5,24.5C 133.47,25.3034 145.97,32.3034 155,45.5C 171.81,73.5291 172.81,102.196 158,131.5C 152.359,139.309 146.525,146.975 140.5,154.5C 154.238,155.412 167.238,158.912 179.5,165C 187.421,170.688 193.588,177.855 198,186.5C 206.433,203.561 211.766,221.561 214,240.5C 216.2,259.437 217.367,278.437 217.5,297.5 Z"/></g>
<g><path style="opacity:1" fill="#000000" d="M 511.5,63.5 C 511.5,212.833 511.5,362.167 511.5,511.5C 494.167,511.5 476.833,511.5 459.5,511.5C 453.888,502.715 448.055,494.048 442,485.5C 440.978,483.298 440.478,480.965 440.5,478.5C 443.789,427.825 447.123,377.158 450.5,326.5C 464.167,326.5 477.833,326.5 491.5,326.5C 491.667,308.83 491.5,291.164 491,273.5C 490.614,244.964 485.614,217.297 476,190.5C 464.758,163.301 444.258,149.468 414.5,149C 437.078,127.098 445.745,100.598 440.5,69.5C 464.104,66.8941 487.771,64.8941 511.5,63.5 Z"/></g>
<g><path style="opacity:1" fill="#010101" d="M 333.5,77.5 C 336.167,77.5 338.833,77.5 341.5,77.5C 339.967,98.3702 345.133,117.37 357,134.5C 361.167,139.333 365.333,144.167 369.5,149C 362.649,150.98 355.649,152.647 348.5,154C 335.341,158.498 325.174,166.664 318,178.5C 307.543,197.539 300.876,217.872 298,239.5C 296.447,250.473 295.114,261.473 294,272.5C 253.58,213.992 212.913,155.659 172,97.5C 170.441,95.7834 169.608,93.7834 169.5,91.5C 224.348,87.263 279.014,82.5963 333.5,77.5 Z"/></g>
<g><path style="opacity:1" fill="#050505" d="M 294.5,275.5 C 307.025,291.874 319.025,308.708 330.5,326C 317.838,326.5 305.171,326.667 292.5,326.5C 292.934,309.49 293.601,292.49 294.5,275.5 Z"/></g>
<g><path style="opacity:1" fill="#383838" d="M 331.5,327.5 C 332.568,326.566 333.901,326.232 335.5,326.5C 336.167,328.819 336.334,331.153 336,333.5C 334.723,331.253 333.223,329.253 331.5,327.5 Z"/></g>
<g><path style="opacity:1" fill="#444444" d="M 20.5,306.5 C 20.5,314.5 20.5,322.5 20.5,330.5C 34.6766,330.171 48.6766,330.504 62.5,331.5C 48.1667,331.5 33.8333,331.5 19.5,331.5C 19.1739,322.983 19.5073,314.65 20.5,306.5 Z"/></g>
<g><path style="opacity:1" fill="#4b4b4b" d="M 217.5,297.5 C 218.495,308.654 218.828,319.988 218.5,331.5C 204.833,331.5 191.167,331.5 177.5,331.5C 190.656,330.504 203.99,330.171 217.5,330.5C 217.5,319.5 217.5,308.5 217.5,297.5 Z"/></g>
<g><path style="opacity:1" fill="#020202" d="M 337.5,337.5 C 370.557,383.925 403.391,430.592 436,477.5C 438.287,480.072 439.453,483.072 439.5,486.5C 409.48,493.085 379.48,493.085 349.5,486.5C 348.749,485.624 348.249,484.624 348,483.5C 344.47,434.834 340.97,386.167 337.5,337.5 Z"/></g>
</svg>
