<?xml version="1.0" encoding="UTF-8"?>
<svg version="1.1" xmlns="http://www.w3.org/2000/svg" width="512" height="512">
<path d="M0 0 C1.63001953 -0.05607422 1.63001953 -0.05607422 3.29296875 -0.11328125 C11.74495724 0.90921236 18.76525355 6.76655755 25.6875 11.375 C32.68513921 15.98800304 39.69970178 20.54285241 46.875 24.875 C54.38146126 29.41078681 61.78758808 34.09031873 69.17724609 38.8137207 C77.46113024 44.10342112 85.79124291 49.31727468 94.13330078 54.51464844 C95.09349121 55.1130957 96.05368164 55.71154297 97.04296875 56.328125 C97.89270264 56.85696289 98.74243652 57.38580078 99.61791992 57.93066406 C101.36633421 59.03156793 103.09336613 60.16641075 104.8125 61.3125 C104.9798465 60.48983139 104.9798465 60.48983139 105.15057373 59.65054321 C106.31319441 54.15665227 107.81270507 48.89261799 109.640625 43.5859375 C109.91211365 42.79402008 110.18360229 42.00210266 110.46331787 41.18618774 C111.03534052 39.52645443 111.61026522 37.86771865 112.18798828 36.20996094 C113.06102482 33.69175503 113.91139394 31.16657545 114.76171875 28.640625 C115.32413739 27.01774906 115.88789494 25.39533639 116.453125 23.7734375 C116.70024231 23.02847015 116.94735962 22.28350281 117.20196533 21.51596069 C119.52743568 14.98831975 123.00052389 10.05592519 128.9375 6.375 C134.53122327 4.38612061 141.31711308 4.18966246 146.96484375 6.00390625 C159.54822153 12.58470995 161.6735286 28.77037374 165.65625 41.1484375 C166.11162432 42.55893764 166.56715322 43.96938788 167.02282715 45.37979126 C167.97203232 48.31919964 168.91990422 51.25903318 169.86669922 54.19921875 C171.06814504 57.93008832 172.27213556 61.66013021 173.47704315 65.38988304 C174.41642037 68.29820977 175.35482903 71.20684827 176.29292297 74.11558914 C176.73599139 75.48928781 177.17925237 76.86292439 177.62272644 78.23649216 C179.02847704 82.59226456 180.42350972 86.95134611 181.8125 91.3125 C182.20236084 92.52601135 182.59222168 93.73952271 182.99389648 94.98980713 C183.35878174 96.14382019 183.72366699 97.29783325 184.09960938 98.48681641 C184.42425171 99.50707916 184.74889404 100.52734192 185.08337402 101.57852173 C185.99675658 105.00340049 186.1392468 107.79997187 185.8125 111.3125 C186.80765625 111.40402344 187.8028125 111.49554688 188.828125 111.58984375 C193.16987361 112.21710643 196.69278735 113.87272544 200.5625 115.875 C201.60857422 116.40855103 201.60857422 116.40855103 202.67578125 116.95288086 C208.83495597 120.17496294 214.39977641 123.94682786 219.8125 128.3125 C220.51632812 128.86421875 221.22015625 129.4159375 221.9453125 129.984375 C246.74163615 150.40487683 259.86342179 184.31360455 263.14453125 215.46484375 C265.93970409 246.80804851 260.28035938 277.32033728 245.8125 305.3125 C246.823125 305.374375 247.83375 305.43625 248.875 305.5 C271.52743267 308.44601058 294.49018051 322.78737326 308.9375 340 C336.33950615 375.94790344 335.96043675 424.87268051 336.10766602 468.02587891 C336.1193276 470.40517048 336.13999457 472.78443319 336.16918945 475.16357422 C336.21179283 478.6560995 336.22800549 482.14787259 336.23828125 485.640625 C336.26454338 487.2235434 336.26454338 487.2235434 336.29133606 488.83843994 C336.26946266 496.28473103 335.06814462 501.62276943 329.99609375 507.37109375 C329.41988281 507.82613281 328.84367187 508.28117187 328.25 508.75 C327.67121094 509.22308594 327.09242188 509.69617188 326.49609375 510.18359375 C323.23487024 512.37035383 320.3597303 512.43893442 316.55626202 512.44392776 C315.46020285 512.44776891 314.36414369 512.45161005 313.23487061 512.4555676 C312.02594409 512.45470112 310.81701757 512.45383463 309.57145691 512.45294189 C307.65060893 512.45739858 307.65060893 512.45739858 305.69095594 512.4619453 C302.12921948 512.47002364 298.56750317 512.47180533 295.00575864 512.47254276 C291.16720944 512.47439186 287.32867072 512.48193845 283.49012756 512.48867798 C275.09347736 512.50226758 266.69683193 512.50828695 258.30017257 512.51268864 C253.0588971 512.5154499 247.81762348 512.51968704 242.57634926 512.52419281 C228.06937749 512.53638611 213.5624072 512.54668543 199.05543041 512.5500679 C197.66235762 512.55039725 197.66235762 512.55039725 196.24114193 512.55073325 C195.31018532 512.55095153 194.37922871 512.55116981 193.42006129 512.5513947 C191.53354021 512.55183817 189.64701913 512.55228473 187.76049805 512.55273438 C186.82471538 512.5529558 185.8889327 512.55317723 184.92479298 512.55340537 C169.75854384 512.55735419 154.59234272 512.57481046 139.42611214 512.5980939 C123.86119547 512.62179685 108.2963029 512.63426926 92.73136789 512.63543582 C83.98978677 512.63635316 75.24826823 512.64212021 66.50670433 512.66025543 C59.06366462 512.67564215 51.62070682 512.68078534 44.17765423 512.67251733 C40.37945356 512.66860579 36.58141791 512.66956486 32.78323746 512.68357468 C28.66686992 512.69861943 24.5508756 512.69046211 20.43449402 512.67999268 C19.23225966 512.68804908 18.0300253 512.69610548 16.7913596 512.70440602 C10.08764856 512.66438689 5.17275881 512.34247696 -0.015625 507.6640625 C-0.48484375 507.09429687 -0.9540625 506.52453125 -1.4375 505.9375 C-1.91703125 505.37289063 -2.3965625 504.80828125 -2.890625 504.2265625 C-6.06421047 499.54265624 -6.48421825 495.17290161 -6.453125 489.63671875 C-6.45589951 488.88715912 -6.45867401 488.13759949 -6.46153259 487.36532593 C-6.46570628 484.91003384 -6.45302617 482.45524195 -6.4375 480 C-6.43473053 479.15670135 -6.43196106 478.31340271 -6.42910767 477.44454956 C-6.23762163 427.52914702 -4.20511869 371.50356896 32.3125 333.4375 C36.77898886 329.14370491 41.61468845 325.66382763 46.8125 322.3125 C47.52277344 321.82265625 48.23304688 321.3328125 48.96484375 320.828125 C59.3297091 314.05179827 71.87136059 309.4795681 83.8125 306.3125 C83.55033691 305.76311768 83.28817383 305.21373535 83.01806641 304.64770508 C81.82293932 302.14089826 80.63019989 299.63296249 79.4375 297.125 C78.81875 295.82852539 78.81875 295.82852539 78.1875 294.50585938 C77.78789062 293.66474609 77.38828125 292.82363281 76.9765625 291.95703125 C76.60998535 291.18721924 76.2434082 290.41740723 75.86572266 289.62426758 C74.76806114 287.21495907 73.77722664 284.77770068 72.8125 282.3125 C67.9225025 282.6613836 63.03270797 283.01298359 58.14306641 283.36682129 C56.33905503 283.49729549 54.5350185 283.62742233 52.73095703 283.75720215 C41.23933324 284.58566095 29.75434651 285.47136546 18.2734375 286.4375 C16.01090902 286.62602545 13.74837649 286.8145023 11.48583984 287.00292969 C8.16513476 287.27979106 4.84483051 287.55967988 1.52520752 287.84924316 C-1.58676956 288.12062999 -4.69948181 288.38149527 -7.8125 288.640625 C-9.18832748 288.7653418 -9.18832748 288.7653418 -10.59194946 288.89257812 C-18.81499402 289.56009149 -26.43584115 289.7341895 -33.39453125 284.88671875 C-37.7562229 281.05717248 -40.23868255 276.59786733 -41.1875 270.875 C-41.55913352 264.33199765 -39.63444846 258.74824566 -35.5 253.6875 C-32.70081349 250.68983816 -29.66715075 248.00049164 -26.54296875 245.34765625 C-23.05346029 242.33267464 -19.68602523 239.18712191 -16.31201172 236.04394531 C-14.01255322 233.91730467 -11.80135726 232.05507151 -9.1875 230.3125 C-16.37826138 227.36658075 -23.81553766 225.41731453 -31.30812073 223.41365242 C-33.69810074 222.77395455 -36.086475 222.12855442 -38.4744873 221.48155212 C-45.25891918 219.64418957 -52.04548771 217.81485236 -58.83447266 215.99438477 C-63.00187036 214.87646782 -67.16693893 213.75020228 -71.33070374 212.61883354 C-72.90856127 212.19188381 -74.48727748 211.76809343 -76.06687927 211.3476429 C-97.22921059 205.71293118 -97.22921059 205.71293118 -101.625 199.25 C-102.09808594 198.57839844 -102.57117188 197.90679687 -103.05859375 197.21484375 C-105.85047102 192.51019243 -105.6393368 187.61351389 -105.1875 182.3125 C-103.97304313 177.6600586 -101.62076003 173.65541109 -98.1875 170.3125 C-91.53691654 166.57435273 -84.3184528 164.93388737 -76.93359375 163.296875 C-75.22140404 162.90583588 -75.22140404 162.90583588 -73.47462463 162.50689697 C-69.85998443 161.6834378 -66.24261391 160.87278385 -62.625 160.0625 C-60.16061515 159.50345048 -57.69642021 158.9435631 -55.23242188 158.3828125 C-49.21961051 157.01634309 -43.20451083 155.66035034 -37.1875 154.3125 C-38.62073182 153.03045193 -40.05511867 151.74969502 -41.48999023 150.46948242 C-42.68796486 149.39944221 -42.68796486 149.39944221 -43.91014099 148.30778503 C-46.60968556 145.9426064 -49.37822317 143.77786634 -52.25 141.625 C-57.2919567 137.80716315 -62.22884514 133.87794935 -67.125 129.875 C-72.10746138 125.80318985 -77.11511907 121.77178519 -82.1875 117.8125 C-88.01129806 113.26440695 -93.76217929 108.6317214 -99.48144531 103.95288086 C-103.25666067 100.86638722 -107.07458772 97.85171475 -110.9375 94.875 C-115.51729635 91.22655719 -118.31062286 87.94313142 -120.1875 82.3125 C-120.79144311 76.1839625 -120.77636045 70.54248626 -117.6640625 65.1015625 C-114.17435863 60.87329697 -109.34096558 58.03032186 -104.1875 56.3125 C-97.89112902 56.00017711 -92.19767981 56.88110426 -86.03955078 58.13256836 C-85.05648453 58.32603348 -84.07341827 58.5194986 -83.06056213 58.71882629 C-79.83313365 59.35595614 -76.60799493 60.00394832 -73.3828125 60.65234375 C-71.13470834 61.0989356 -68.88648666 61.54493627 -66.63815308 61.9903717 C-61.93848963 62.92308147 -57.23986389 63.86079809 -52.54199219 64.80249023 C-46.51061307 66.01137877 -40.47744027 67.21100664 -34.44355965 68.40734005 C-29.8072483 69.32704403 -25.17157677 70.24993676 -20.536129 71.17398262 C-18.31061674 71.61755146 -16.0849825 72.06050872 -13.85922623 72.50285149 C-10.75856837 73.11991079 -7.65871587 73.74085715 -4.55908203 74.36303711 C-3.63441635 74.5464566 -2.70975067 74.7298761 -1.75706482 74.91885376 C-0.91604721 75.08851151 -0.0750296 75.25816925 0.79147339 75.43296814 C1.52404799 75.57953322 2.25662258 75.72609831 3.01139641 75.87710476 C4.8125 76.3125 4.8125 76.3125 6.8125 77.3125 C-0.10509547 63.8915565 -7.0771447 50.51160599 -14.40332031 37.30810547 C-14.8722168 36.45877441 -15.34111328 35.60944336 -15.82421875 34.734375 C-16.43849731 33.62980957 -16.43849731 33.62980957 -17.06518555 32.50292969 C-20.33474927 26.12169721 -21.6058695 20.12816173 -19.53515625 13.09765625 C-17.25647776 8.0024138 -13.80734596 4.41026214 -9.1875 1.3125 C-5.9470213 0.23234043 -3.40984308 0.07595196 0 0 Z " fill="#FDFDFD" transform="translate(148.1875,-0.3125)"/>
<path d="M0 0 C2.48184992 1.93157551 4.86164489 3.92993009 7.21484375 6.015625 C8.13330078 6.81033203 8.13330078 6.81033203 9.0703125 7.62109375 C29.20438283 26.28081568 39.30212155 56.55615312 40.63671875 83.2734375 C41.51576427 119.23072237 30.74384946 149.88862244 7.21484375 177.015625 C11.74532396 178.44344922 16.06181085 179.32948576 20.77246094 179.90112305 C42.34371333 182.56842005 65.76465917 189.12109168 82.21484375 204.015625 C82.88644531 204.59570312 83.55804688 205.17578125 84.25 205.7734375 C107.3939262 227.08903812 110.59906518 262.48009963 112.21484375 292.015625 C112.33248674 296.77446021 112.33266586 301.52901503 112.3125 306.2890625 C112.31037758 308.22369858 112.31037758 308.22369858 112.30821228 310.19741821 C112.3044517 313.5739955 112.2946793 316.95052759 112.2835083 320.3270874 C112.27315263 323.79357278 112.26862941 327.2600659 112.26367188 330.7265625 C112.25358378 337.48962284 112.23399655 344.25256016 112.21484375 351.015625 C95.71484375 351.015625 79.21484375 351.015625 62.21484375 351.015625 C62.21484375 334.185625 62.21484375 317.355625 62.21484375 300.015625 C55.94484375 300.015625 49.67484375 300.015625 43.21484375 300.015625 C43.21484375 316.845625 43.21484375 333.675625 43.21484375 351.015625 C-11.89515625 351.015625 -67.00515625 351.015625 -123.78515625 351.015625 C-123.78515625 334.185625 -123.78515625 317.355625 -123.78515625 300.015625 C-130.05515625 300.015625 -136.32515625 300.015625 -142.78515625 300.015625 C-142.78515625 316.845625 -142.78515625 333.675625 -142.78515625 351.015625 C-157.63515625 351.015625 -172.48515625 351.015625 -187.78515625 351.015625 C-188.0846721 302.94333187 -188.0846721 302.94333187 -185.78515625 285.015625 C-185.63240234 283.7172168 -185.63240234 283.7172168 -185.4765625 282.39257812 C-182.13548512 254.1584119 -175.77327864 223.19954716 -152.47265625 204.203125 C-133.43415958 189.53228345 -105.97529868 179.015625 -81.78515625 179.015625 C-82.25824219 178.43296875 -82.73132813 177.8503125 -83.21875 177.25 C-85.42297312 174.51727894 -87.60304721 171.76602956 -89.78515625 169.015625 C-90.50574219 168.13519531 -91.22632813 167.25476563 -91.96875 166.34765625 C-102.09688486 153.54757138 -109.58980068 138.79084412 -113.78515625 123.015625 C-114.10226563 121.89542969 -114.419375 120.77523437 -114.74609375 119.62109375 C-116.95180571 110.28223075 -117.07196891 100.94801981 -117.09765625 91.390625 C-117.10321533 90.09253906 -117.10877441 88.79445313 -117.11450195 87.45703125 C-116.88386892 56.32748518 -106.18440624 27.59693164 -83.95654297 5.57739258 C-60.13825262 -16.79684033 -26.66767861 -19.00025348 0 0 Z " fill="#000000" transform="translate(350.78515625,140.984375)"/>
<path d="M0 0 C4.69320434 1.61272273 8.52222646 4.1527986 12.625 6.875 C14.15695972 7.87850906 15.68953373 8.88108083 17.22265625 9.8828125 C18.40819092 10.65866699 18.40819092 10.65866699 19.61767578 11.45019531 C23.41094287 13.91787921 27.23441692 16.33679332 31.0625 18.75 C31.84214111 19.24177734 32.62178223 19.73355469 33.42504883 20.24023438 C39.87618962 24.30333378 46.34442637 28.3389345 52.8125 32.375 C60.66857591 37.27721643 68.50371044 42.21029469 76.3125 47.1875 C77.21033203 47.75960205 78.10816406 48.3317041 79.03320312 48.92114258 C82.57458908 51.17829321 86.11567307 53.43591646 89.65625 55.69433594 C92.20668368 57.31966812 94.75932397 58.94148006 97.3125 60.5625 C98.05862549 61.03905029 98.80475098 61.51560059 99.57348633 62.0065918 C104.61362116 65.20165189 109.76094171 68.14447764 115 71 C115.25144775 69.74840088 115.50289551 68.49680176 115.76196289 67.20727539 C117.02348004 61.54600929 118.88463958 56.14896184 120.80859375 50.68359375 C121.1759816 49.62769547 121.54336945 48.57179718 121.92189026 47.48390198 C123.08905717 44.13343891 124.26327682 40.78549569 125.4375 37.4375 C126.22244627 35.18570057 127.00695561 32.93374879 127.79101562 30.68164062 C133.91399289 13.12578424 133.91399289 13.12578424 137 5 C139.93582582 7.93582582 140.66852854 11.61332198 141.8984375 15.48828125 C142.17466949 16.3424614 142.45090149 17.19664154 142.73550415 18.07670593 C143.6210587 20.8201651 144.49802217 23.56628869 145.375 26.3125 C145.95779349 28.1206168 146.54112102 29.92856156 147.125 31.73632812 C149.83456544 40.14224388 152.49656204 48.56030415 155.07470703 57.00756836 C156.06962286 60.22516291 157.10039077 63.42959234 158.140625 66.6328125 C158.48867188 67.7053125 158.83671875 68.7778125 159.1953125 69.8828125 C159.91142432 72.08419328 160.63026929 74.28468648 161.3515625 76.484375 C161.86589844 78.07378906 161.86589844 78.07378906 162.390625 79.6953125 C162.70032227 80.64422363 163.01001953 81.59313477 163.32910156 82.57080078 C164 85 164 85 164 88 C163.030625 88.08636719 162.06125 88.17273438 161.0625 88.26171875 C140.002576 90.36850717 121.73773983 97.58983025 106 112 C105.15953125 112.75925781 104.3190625 113.51851563 103.453125 114.30078125 C81.0053504 135.59828169 67.80350921 168.41783869 66.82373047 199.11499023 C66.75886129 202.60092404 66.76310864 206.08523472 66.79418945 209.5715332 C66.81258134 211.69689907 66.81469701 213.82182782 66.81445312 215.94726562 C66.83577986 224.00352862 67.17071865 231.98106887 68 240 C38.68889534 242.71633529 9.37380482 245.07472154 -20 247 C-19.04112917 245.87035461 -18.08070809 244.74202498 -17.11962891 243.61425781 C-16.58496002 242.98577942 -16.05029114 242.35730103 -15.49942017 241.70977783 C-13.90238213 239.88868706 -12.23741752 238.29776251 -10.375 236.75 C-6.88802566 233.78207909 -3.49158949 230.728108 -0.125 227.625 C4.40957646 223.45313276 8.96804219 219.31002003 13.5546875 215.1953125 C15.25057592 213.67280564 16.94305367 212.14649445 18.6328125 210.6171875 C23.0178089 206.65105643 27.41829795 202.73770431 32 199 C27.24353213 196.83574598 22.73681567 195.31600035 17.625 194.125 C12.06986685 192.82685309 6.61061485 191.31052746 1.14453125 189.6796875 C-8.16260454 186.90914285 -17.5389544 184.43895355 -26.9375 182 C-43.06903388 177.80445731 -59.17587656 173.53879838 -75.125 168.6875 C-76.43404297 168.29208008 -76.43404297 168.29208008 -77.76953125 167.88867188 C-79.84689379 167.26089748 -81.92353658 166.63074202 -84 166 C-84 165.67 -84 165.34 -84 165 C-67.19542473 160.99195808 -50.3847401 157.03266264 -33.5 153.375 C-23.34310209 151.17248234 -13.19391642 148.94232203 -3.0625 146.625 C-1.39960938 146.24867432 -1.39960938 146.24867432 0.296875 145.86474609 C1.80314453 145.51790771 1.80314453 145.51790771 3.33984375 145.1640625 C4.22019287 144.96248535 5.10054199 144.7609082 6.00756836 144.55322266 C7.98341635 144.18063391 7.98341635 144.18063391 9 143 C8.16339844 142.34515625 7.32679688 141.6903125 6.46484375 141.015625 C-0.51886597 135.54234552 -7.47222886 130.03375861 -14.39306641 124.48120117 C-18.55320342 121.14718685 -22.73751989 117.84612082 -26.9375 114.5625 C-32.69617928 110.05741077 -38.3742831 105.45883855 -44.03881836 100.83618164 C-48.32431438 97.344813 -52.64320419 93.90188166 -57 90.5 C-62.73223877 86.02414233 -68.3834083 81.45532466 -74.01489258 76.85351562 C-79.0823535 72.72104475 -84.20762089 68.66857015 -89.39648438 64.68945312 C-92.85718162 62.00709892 -95.92989245 59.11579464 -99 56 C-77.54204591 59.88158734 -56.14866765 64.07664796 -34.75805664 68.31079102 C-30.96315625 69.06190998 -27.16791035 69.81124151 -23.37231445 70.55883789 C15.44815235 78.205081 15.44815235 78.205081 33.97361755 82.30259705 C35.51917076 82.64213158 35.51917076 82.64213158 37.09594727 82.98852539 C37.97920181 83.18539444 38.86245636 83.38226349 39.7724762 83.58509827 C42.11390694 84.09155606 42.11390694 84.09155606 45 84 C32.85425545 61.04644218 32.85425545 61.04644218 20.48413086 38.21337891 C16.21384432 30.41699903 12.00809918 22.58673806 7.8125 14.75 C7.47772644 14.12492554 7.14295288 13.49985107 6.79803467 12.85583496 C1.20933419 2.41866838 1.20933419 2.41866838 0 0 Z " fill="#010101" transform="translate(149,21)"/>
<path d="M0 0 C8.00521772 4.47350402 11.75513084 13.20061606 14.5625 21.54296875 C18.58649883 36.43735329 15.53631524 51.5467589 8.48828125 64.92578125 C5.57672133 69.57158751 1.90622192 72.32784884 -3.125 74.5 C-8.49249855 75.44935348 -12.90640335 75.16402954 -17.4375 72 C-25.34182323 65.19305766 -29.81590336 54.71095382 -31.125 44.5 C-32.03880782 29.74425082 -30.23254623 16.7139961 -21.125 4.5 C-18.5 2 -18.5 2 -16.125 0.5 C-15.526875 0.0875 -14.92875 -0.325 -14.3125 -0.75 C-9.33197229 -2.4576095 -4.75011953 -2.05656516 0 0 Z " fill="#FBFBFB" transform="translate(288.125,193.5)"/>
<path d="M0 0 C9.13127831 6.05927052 13.05809578 16.27674043 15.375 26.5625 C16.36762329 41.02643943 15.79294241 56.50960049 5.85546875 68.08203125 C1.65427122 72.28322878 -1.75178053 74.64526659 -7.75 75 C-13.60755595 74.89523071 -17.4113519 72.49788832 -21.625 68.5625 C-29.13006261 59.90666112 -32.52544911 45.43337083 -31.9453125 34.08203125 C-30.29492929 21.10035848 -27.31125296 8.97762538 -16.625 0.5625 C-11.1869404 -2.69159992 -5.75754355 -2.28316382 0 0 Z " fill="#FCFCFC" transform="translate(352.625,193.4375)"/>
</svg>
