<?xml version="1.0" encoding="UTF-8"?>
<!DOCTYPE svg PUBLIC "-//W3C//DTD SVG 1.1//EN" "http://www.w3.org/Graphics/SVG/1.1/DTD/svg11.dtd">
<svg xmlns="http://www.w3.org/2000/svg" version="1.1" width="512px" height="512px" style="shape-rendering:geometricPrecision; text-rendering:geometricPrecision; image-rendering:optimizeQuality; fill-rule:evenodd; clip-rule:evenodd" xmlns:xlink="http://www.w3.org/1999/xlink">
<g><path style="opacity:0.98" fill="#fdfdfd" d="M 51.5,-0.5 C 61.1667,-0.5 70.8333,-0.5 80.5,-0.5C 86.6902,2.51651 92.5236,6.18318 98,10.5C 102.65,17.2945 103.65,24.6278 101,32.5C 88.2233,59.7191 75.7233,87.0524 63.5,114.5C 69.3745,128.287 75.5412,141.953 82,155.5C 95.4676,110.705 118.968,72.2048 152.5,40C 177.236,18.132 205.902,4.632 238.5,-0.5C 249.833,-0.5 261.167,-0.5 272.5,-0.5C 316.742,7.04144 352.909,28.3748 381,63.5C 402.745,90.9842 418.745,121.651 429,155.5C 435.459,141.953 441.625,128.287 447.5,114.5C 435.277,87.0524 422.777,59.7191 410,32.5C 407.35,24.6278 408.35,17.2945 413,10.5C 418.476,6.18318 424.31,2.51651 430.5,-0.5C 440.167,-0.5 449.833,-0.5 459.5,-0.5C 463.076,3.63914 465.909,8.3058 468,13.5C 482.275,45.0438 496.775,76.3771 511.5,107.5C 511.5,112.167 511.5,116.833 511.5,121.5C 497.606,150.962 483.939,180.628 470.5,210.5C 484.228,241.276 497.894,271.943 511.5,302.5C 511.5,303.833 511.5,305.167 511.5,306.5C 498.847,336.983 485.181,367.15 470.5,397C 483.128,423.758 495.628,450.591 508,477.5C 511.936,487.82 509.769,496.654 501.5,504C 497.104,506.527 492.771,509.027 488.5,511.5C 478.5,511.5 468.5,511.5 458.5,511.5C 455.172,506.852 452.339,501.852 450,496.5C 436.424,466.35 422.59,436.35 408.5,406.5C 393.024,434.901 372.691,459.401 347.5,480C 325.112,496.848 300.112,507.348 272.5,511.5C 261.167,511.5 249.833,511.5 238.5,511.5C 194.258,503.959 158.091,482.625 130,447.5C 119.829,434.486 110.662,420.819 102.5,406.5C 88.4095,436.35 74.5762,466.35 61,496.5C 58.6609,501.852 55.8276,506.852 52.5,511.5C 42.5,511.5 32.5,511.5 22.5,511.5C 15.4372,508.543 9.27057,504.209 4,498.5C 0.139988,491.622 -0.193345,484.622 3,477.5C 15.3715,450.591 27.8715,423.758 40.5,397C 25.8192,367.15 12.1525,336.983 -0.5,306.5C -0.5,305.167 -0.5,303.833 -0.5,302.5C 13.1057,271.943 26.7723,241.276 40.5,210.5C 27.0609,180.628 13.3942,150.962 -0.5,121.5C -0.5,116.833 -0.5,112.167 -0.5,107.5C 14.2248,76.3771 28.7248,45.0438 43,13.5C 45.0911,8.3058 47.9245,3.63914 51.5,-0.5 Z M 68.5,294.5 C 71.0747,304.945 72.908,315.612 74,326.5C 70.5552,319.278 67.3885,311.945 64.5,304.5C 65.8432,301.15 67.1765,297.817 68.5,294.5 Z M 441.5,294.5 C 443.666,297.498 445.333,300.832 446.5,304.5C 443.611,311.945 440.445,319.278 437,326.5C 438.383,315.861 439.883,305.194 441.5,294.5 Z"/></g>
<g><path style="opacity:1" fill="#030303" d="M 64.5,15.5 C 70.5878,17.7105 76.2545,20.7105 81.5,24.5C 67.8139,54.5357 54.1472,84.5357 40.5,114.5C 54.6162,146.734 69.2829,178.734 84.5,210.5C 70.1639,241.838 55.8306,273.172 41.5,304.5C 55.0861,335.507 69.0861,366.34 83.5,397C 68.3408,429.799 53.1742,462.632 38,495.5C 33.2451,492.872 28.4118,490.372 23.5,488C 22.9781,487.439 22.6448,486.772 22.5,486C 35.8401,456.321 49.1735,426.654 62.5,397C 49.2626,365.941 35.2626,335.274 20.5,305C 35.2304,273.704 49.5638,242.204 63.5,210.5C 49.0206,178.387 34.354,146.387 19.5,114.5C 35.0791,81.7625 50.0791,48.7625 64.5,15.5 Z"/></g>
<g><path style="opacity:1" fill="#030303" d="M 444.5,15.5 C 445.75,15.5774 446.583,16.244 447,17.5C 461.357,50.0791 476.19,82.4124 491.5,114.5C 476.646,146.387 461.979,178.387 447.5,210.5C 461.436,242.204 475.77,273.704 490.5,305C 475.737,335.274 461.737,365.941 448.5,397C 461.827,426.654 475.16,456.321 488.5,486C 488.355,486.772 488.022,487.439 487.5,488C 482.588,490.372 477.755,492.872 473,495.5C 457.826,462.632 442.659,429.799 427.5,397C 441.914,366.34 455.914,335.507 469.5,304.5C 455.169,273.172 440.836,241.838 426.5,210.5C 441.717,178.734 456.384,146.734 470.5,114.5C 456.853,84.5357 443.186,54.5357 429.5,24.5C 434.398,21.2225 439.398,18.2225 444.5,15.5 Z"/></g>
<g><path style="opacity:1" fill="#020202" d="M 244.5,19.5 C 278.821,18.2192 309.488,28.0525 336.5,49C 372.421,79.958 396.921,118.458 410,164.5C 430.705,239.168 426.038,312.168 396,383.5C 379.436,420.72 354.269,450.553 320.5,473C 269.39,500.75 220.723,497.083 174.5,462C 148.764,440.386 128.93,414.219 115,383.5C 85.8939,314.684 80.5606,244.018 99,171.5C 109.848,130.454 129.515,94.4541 158,63.5C 182.058,39.3879 210.891,24.7213 244.5,19.5 Z"/></g>
<g><path style="opacity:1" fill="#e6e6e6" d="M 203.5,87.5 C 206.699,87.6964 208.699,89.3631 209.5,92.5C 206.5,99.1667 203.5,99.1667 200.5,92.5C 201.092,90.5775 202.092,88.9108 203.5,87.5 Z"/></g>
<g><path style="opacity:1" fill="#fafafa" d="M 221.5,95.5 C 234.628,94.796 239.461,100.796 236,113.5C 232.723,119.109 227.89,120.942 221.5,119C 214.93,115.345 212.763,109.845 215,102.5C 216.694,99.6424 218.861,97.309 221.5,95.5 Z"/></g>
<g><path style="opacity:1" fill="#f9f9f9" d="M 169.5,104.5 C 184.508,104.009 190.008,111.009 186,125.5C 180.051,133.536 173.051,134.536 165,128.5C 159.144,118.978 160.644,110.978 169.5,104.5 Z"/></g>
<g><path style="opacity:1" fill="#f1f1f1" d="M 352.5,123.5 C 357.406,122.306 360.406,124.139 361.5,129C 359.737,134.718 356.404,135.884 351.5,132.5C 349.992,129.231 350.325,126.231 352.5,123.5 Z"/></g>
<g><path style="opacity:1" fill="#fbfbfb" d="M 207.5,128.5 C 221.649,129.105 227.482,136.439 225,150.5C 221.093,158.811 214.593,161.977 205.5,160C 197.283,155.053 194.45,147.886 197,138.5C 199.106,133.557 202.606,130.224 207.5,128.5 Z"/></g>
<g><path style="opacity:1" fill="#fdfdfd" d="M 165.5,167.5 C 178.313,165.719 189.48,169.052 199,177.5C 203.842,172.701 209.675,171.201 216.5,173C 225.485,178.121 227.985,185.621 224,195.5C 221.104,201.635 216.271,204.302 209.5,203.5C 209.588,207.306 208.921,210.972 207.5,214.5C 211.798,218.863 216.464,219.363 221.5,216C 237.737,213.227 246.903,220.06 249,236.5C 252.586,238.709 256.086,241.043 259.5,243.5C 255.992,229.844 259.325,218.011 269.5,208C 281.124,200.75 292.791,200.75 304.5,208C 306.684,210.016 308.684,212.183 310.5,214.5C 314.399,210.134 319.233,207.467 325,206.5C 329.741,207.799 334.241,209.466 338.5,211.5C 338.002,205.501 340.669,203.334 346.5,205C 349.343,208.619 349.01,211.952 345.5,215C 348.513,220.543 348.013,225.71 344,230.5C 344.05,242.305 342.883,253.971 340.5,265.5C 342.403,268.911 344.903,271.911 348,274.5C 353.015,283.829 352.515,292.829 346.5,301.5C 348.042,306.349 348.708,311.349 348.5,316.5C 348.618,322.608 347.951,328.608 346.5,334.5C 348.802,338.633 351.302,342.633 354,346.5C 357.441,338.059 363.274,331.893 371.5,328C 376.167,327.667 380.833,327.333 385.5,327C 379.975,324.081 378.142,319.581 380,313.5C 386.088,305.265 391.755,305.598 397,314.5C 398.154,322.022 394.987,326.522 387.5,328C 392.183,329.831 395.85,332.831 398.5,337C 386.961,380.101 364.961,416.768 332.5,447C 293.831,478.667 251.498,484.667 205.5,465C 169.451,444.283 143.284,414.783 127,376.5C 102.817,318.868 96.1501,259.202 107,197.5C 109.109,189.173 111.109,180.839 113,172.5C 113.414,172.043 113.914,171.709 114.5,171.5C 121.32,176.329 126.32,182.662 129.5,190.5C 134.125,184.017 140.458,180.35 148.5,179.5C 153.353,174.249 159.02,170.249 165.5,167.5 Z"/></g>
<g><path style="opacity:1" fill="#f6f6f6" d="M 334.5,170.5 C 346.577,170.729 350.41,176.395 346,187.5C 339.135,193.461 333.468,192.461 329,184.5C 327.268,178.314 329.101,173.647 334.5,170.5 Z"/></g>
<g><path style="opacity:1" fill="#f9f9f9" d="M 302.5,171.5 C 316.276,172.448 322.11,179.781 320,193.5C 314.705,203.723 306.872,206.223 296.5,201C 288.215,191.638 288.548,182.638 297.5,174C 299.315,173.243 300.981,172.41 302.5,171.5 Z"/></g>
<g><path style="opacity:1" fill="#030303" d="M 181.5,206.5 C 188.099,206.215 193.599,208.549 198,213.5C 211.721,233.982 214.721,255.982 207,279.5C 197.399,296.473 187.065,296.806 176,280.5C 166.72,263.152 164.053,244.818 168,225.5C 170.074,217.287 174.574,210.954 181.5,206.5 Z"/></g>
<g><path style="opacity:1" fill="#0b0b0b" d="M 333.5,212.5 C 335.017,212.511 336.184,213.177 337,214.5C 339.532,218.728 341.365,223.228 342.5,228C 342.415,229.107 342.081,230.107 341.5,231C 332.051,232.217 327.884,228.051 329,218.5C 330.332,216.34 331.832,214.34 333.5,212.5 Z"/></g>
<g><path style="opacity:1" fill="#080808" d="M 299.5,258.5 C 299.5,255.167 299.5,251.833 299.5,248.5C 299.805,237.053 303.138,226.553 309.5,217C 311.541,219.13 314.207,220.797 317.5,222C 321.783,228.19 320.783,233.523 314.5,238C 312.644,247.326 307.644,254.159 299.5,258.5 Z"/></g>
<g><path style="opacity:1" fill="#e7e7e7" d="M 394.5,259.5 C 398.35,259.701 399.35,261.534 397.5,265C 393.537,265.118 392.537,263.284 394.5,259.5 Z"/></g>
<g><path style="opacity:1" fill="#070707" d="M 297.5,260.5 C 298.451,261.919 298.784,263.585 298.5,265.5C 297.209,265.263 296.209,265.596 295.5,266.5C 291.404,267.285 288.07,266.118 285.5,263C 289.642,262.673 293.642,261.839 297.5,260.5 Z"/></g>
<g><path style="opacity:1" fill="#616161" d="M 299.5,248.5 C 299.5,251.833 299.5,255.167 299.5,258.5C 299.5,261.167 299.5,263.833 299.5,266.5C 298.167,266.5 296.833,266.5 295.5,266.5C 296.209,265.596 297.209,265.263 298.5,265.5C 298.784,263.585 298.451,261.919 297.5,260.5C 298.109,256.395 298.775,252.395 299.5,248.5 Z"/></g>
<g><path style="opacity:1" fill="#050505" d="M 299.5,266.5 C 305.579,266.156 311.412,267.156 317,269.5C 322.677,265.831 328.844,264.664 335.5,266C 337.286,266.196 338.619,267.029 339.5,268.5C 337.053,276.569 332.719,283.402 326.5,289C 318.591,294.376 311.758,293.21 306,285.5C 302.733,279.531 300.566,273.197 299.5,266.5 Z"/></g>
<g><path style="opacity:1" fill="#f1f1f1" d="M 374.5,281.5 C 382.818,281.987 384.485,285.487 379.5,292C 373.143,293.481 370.643,290.981 372,284.5C 373.045,283.627 373.878,282.627 374.5,281.5 Z"/></g>
<g><path style="opacity:1" fill="#000000" d="M 183.5,357.5 C 231.501,357.333 279.501,357.5 327.5,358C 332.891,367.779 335.557,378.279 335.5,389.5C 282.167,389.5 228.833,389.5 175.5,389.5C 175.506,378.129 178.172,367.462 183.5,357.5 Z"/></g>
<g><path style="opacity:1" fill="#3f3f3f" d="M 334.5,403.5 C 334.5,402.5 334.5,401.5 334.5,400.5C 281.833,400.5 229.167,400.5 176.5,400.5C 176.5,401.5 176.5,402.5 176.5,403.5C 175.566,402.432 175.232,401.099 175.5,399.5C 228.833,399.5 282.167,399.5 335.5,399.5C 335.768,401.099 335.434,402.432 334.5,403.5 Z"/></g>
<g><path style="opacity:1" fill="#000000" d="M 334.5,403.5 C 333.655,413.38 331.322,422.88 327.5,432C 279.5,432.667 231.5,432.667 183.5,432C 179.678,422.88 177.345,413.38 176.5,403.5C 176.5,402.5 176.5,401.5 176.5,400.5C 229.167,400.5 281.833,400.5 334.5,400.5C 334.5,401.5 334.5,402.5 334.5,403.5 Z"/></g>
</svg>
