<?xml version="1.0" encoding="UTF-8"?>
<!DOCTYPE svg PUBLIC "-//W3C//DTD SVG 1.1//EN" "http://www.w3.org/Graphics/SVG/1.1/DTD/svg11.dtd">
<svg xmlns="http://www.w3.org/2000/svg" version="1.1" width="512px" height="512px" style="shape-rendering:geometricPrecision; text-rendering:geometricPrecision; image-rendering:optimizeQuality; fill-rule:evenodd; clip-rule:evenodd" xmlns:xlink="http://www.w3.org/1999/xlink">
<g><path style="opacity:0.984" fill="#fdfdfd" d="M 218.5,-0.5 C 223.167,-0.5 227.833,-0.5 232.5,-0.5C 289.116,31.4796 346.116,62.9796 403.5,94C 405,95.5 406.5,97 408,98.5C 437.366,150.52 466.699,202.52 496,254.5C 496.717,260.225 496.384,265.891 495,271.5C 480.509,335.131 466.176,398.798 452,462.5C 451.456,473.793 445.956,481.293 435.5,485C 382.642,493.532 329.975,502.365 277.5,511.5C 271.833,511.5 266.167,511.5 260.5,511.5C 244.027,508.357 227.36,505.524 210.5,503C 207.554,502.194 204.888,500.861 202.5,499C 155.016,446.549 107.183,394.382 59,342.5C 56.2294,338.196 54.2294,333.529 53,328.5C 43.8217,298.12 34.4883,267.787 25,237.5C 21.559,220.52 18.2256,203.52 15,186.5C 14.3333,182.167 14.3333,177.833 15,173.5C 25.0491,134.634 35.7157,95.9676 47,57.5C 48.8333,55.6667 50.6667,53.8333 52.5,52C 107.894,34.367 163.228,16.867 218.5,-0.5 Z"/></g>
<g><path style="opacity:1" fill="#000000" d="M 222.5,19.5 C 225.425,19.4598 228.091,20.2932 230.5,22C 283.672,51.7537 337.006,81.2537 390.5,110.5C 419,160.167 447.5,209.833 476,259.5C 460.979,328.096 445.812,396.763 430.5,465.5C 376.467,473.95 322.467,482.617 268.5,491.5C 247.709,426.295 226.209,361.295 204,296.5C 197.791,320.397 191.791,344.397 186,368.5C 139.304,322.803 92.3037,277.47 45,232.5C 44.3333,231.833 44.3333,231.167 45,230.5C 54.5093,220.125 64.0093,209.792 73.5,199.5C 86.1148,209.945 98.2815,220.945 110,232.5C 104.614,206.531 99.1139,180.531 93.5,154.5C 74.5302,161.815 55.8635,169.981 37.5,179C 36.365,179.749 35.365,179.583 34.5,178.5C 44.3154,142.19 54.1487,105.857 64,69.5C 116.815,52.728 169.649,36.0613 222.5,19.5 Z"/></g>
<g><path style="opacity:1" fill="#fbfbfb" d="M 136.5,171.5 C 135.833,174.167 135.167,176.833 134.5,179.5C 126.177,151.529 117.844,123.529 109.5,95.5C 109.818,94.3527 110.484,93.5194 111.5,93C 129.718,85.046 148.052,77.7126 166.5,71C 157.211,83.7453 148.044,96.5786 139,109.5C 138.264,130.174 137.431,150.841 136.5,171.5 Z"/></g>
<g><path style="opacity:1" fill="#3f3f3f" d="M 186.5,165.5 C 185.503,184.993 185.17,204.66 185.5,224.5C 184.172,204.663 184.172,184.663 185.5,164.5C 186.107,164.624 186.44,164.957 186.5,165.5 Z"/></g>
<g><path style="opacity:1" fill="#fcfcfc" d="M 186.5,165.5 C 223.913,217.314 261.579,268.981 299.5,320.5C 332.858,331.171 366.192,341.838 399.5,352.5C 383.675,353.496 367.675,353.83 351.5,353.5C 333.164,353.667 314.83,353.5 296.5,353C 259.664,310 222.664,267.166 185.5,224.5C 185.17,204.66 185.503,184.993 186.5,165.5 Z"/></g>
<g><path style="opacity:1" fill="#929292" d="M 136.5,171.5 C 136.665,175.182 136.499,178.848 136,182.5C 135.487,181.473 134.987,180.473 134.5,179.5C 135.167,176.833 135.833,174.167 136.5,171.5 Z"/></g>
<g><path style="opacity:1" fill="#030303" d="M 75.5,330.5 C 75.8966,329.475 76.5632,329.308 77.5,330C 121.667,358.833 165.833,387.667 210,416.5C 212.477,438.457 214.144,460.457 215,482.5C 169.002,431.337 122.502,380.671 75.5,330.5 Z"/></g>
<g><path style="opacity:1" fill="#666666" d="M 399.5,352.5 C 400.756,352.461 401.756,352.961 402.5,354C 385.328,354.828 368.328,354.662 351.5,353.5C 367.675,353.83 383.675,353.496 399.5,352.5 Z"/></g>
</svg>
