<?xml version="1.0" encoding="UTF-8"?>
<!DOCTYPE svg PUBLIC "-//W3C//DTD SVG 1.1//EN" "http://www.w3.org/Graphics/SVG/1.1/DTD/svg11.dtd">
<svg xmlns="http://www.w3.org/2000/svg" version="1.1" width="512px" height="512px" style="shape-rendering:geometricPrecision; text-rendering:geometricPrecision; image-rendering:optimizeQuality; fill-rule:evenodd; clip-rule:evenodd" xmlns:xlink="http://www.w3.org/1999/xlink">
<g><path style="opacity:0.978" fill="#fdfdfd" d="M 211.5,-0.5 C 221.833,-0.5 232.167,-0.5 242.5,-0.5C 260.151,4.31874 271.318,15.6521 276,33.5C 276.333,69.1667 276.667,104.833 277,140.5C 288.248,159.999 299.748,179.332 311.5,198.5C 315.756,188.909 319.922,179.242 324,169.5C 330.083,160.082 337.583,151.915 346.5,145C 380.919,127.124 415.586,109.791 450.5,93C 470.253,88.3611 486.419,93.8611 499,109.5C 504.021,117.872 508.188,126.539 511.5,135.5C 511.5,142.167 511.5,148.833 511.5,155.5C 508.499,165.638 502.832,174.138 494.5,181C 466.479,196.011 438.146,210.511 409.5,224.5C 396.821,255.704 383.654,286.704 370,317.5C 366.833,320.667 363.667,323.833 360.5,327C 326.671,350.671 293.005,374.505 259.5,398.5C 263.888,401.361 268.554,403.694 273.5,405.5C 294.305,391.195 314.972,376.695 335.5,362C 357.124,350.375 376.624,353.208 394,370.5C 400.543,378.25 405.543,386.917 409,396.5C 412.844,413.629 408.677,428.462 396.5,441C 366.5,462 336.5,483 306.5,504C 298.832,508.501 290.499,510.668 281.5,510.5C 272.73,510.057 264.063,508.89 255.5,507C 221.561,491.697 187.894,475.863 154.5,459.5C 142.504,487.837 121.504,505.17 91.5,511.5C 82.8333,511.5 74.1667,511.5 65.5,511.5C 29.8333,503.167 7.83333,481.167 -0.5,445.5C -0.5,436.833 -0.5,428.167 -0.5,419.5C 10.3734,376.109 38.04,353.609 82.5,352C 81.4138,347.208 81.2472,342.375 82,337.5C 85.0032,312.808 88.1699,288.141 91.5,263.5C 74.269,240.76 56.4357,218.427 38,196.5C 27.0104,180.65 25.6771,163.984 34,146.5C 40.2273,137.307 48.0606,129.807 57.5,124C 78.804,113.023 97.9707,115.856 115,132.5C 137.854,161.534 161.188,190.2 185,218.5C 191.972,228.369 194.472,239.202 192.5,251C 200.743,246.772 208.577,241.605 216,235.5C 206.174,216.196 195.507,197.196 184,178.5C 181.055,170.052 179.055,161.385 178,152.5C 177.029,112.128 177.362,71.795 179,31.5C 184.319,15.1154 195.153,4.44874 211.5,-0.5 Z"/></g>
<g><path style="opacity:1" fill="#010101" d="M 216.5,19.5 C 225.663,18.9069 234.663,19.7402 243.5,22C 248.774,25.2741 252.608,29.7741 255,35.5C 256.315,72.7735 256.982,110.107 257,147.5C 276.559,180.63 295.559,213.963 314,247.5C 323.658,224.534 333.325,201.534 343,178.5C 347.467,173.032 352.3,167.865 357.5,163C 391.042,145.729 424.709,128.729 458.5,112C 469.037,110.853 477.204,114.686 483,123.5C 485.94,129.046 488.606,134.713 491,140.5C 492.102,149.194 489.602,156.694 483.5,163C 453.079,178.961 422.579,194.794 392,210.5C 379.667,240.833 367.333,271.167 355,301.5C 352.239,307.426 347.739,311.426 341.5,313.5C 340.352,315.149 339.019,316.649 337.5,318C 297.5,346 257.5,374 217.5,402C 236.651,411.407 255.984,420.574 275.5,429.5C 300.696,411.805 326.029,394.305 351.5,377C 363.141,373.737 372.641,376.904 380,386.5C 383.252,391.334 386.252,396.334 389,401.5C 391.153,411.741 388.32,420.241 380.5,427C 353.833,445.667 327.167,464.333 300.5,483C 292.527,489.158 283.527,491.158 273.5,489C 269.416,488.769 265.416,488.102 261.5,487C 229.5,472 197.5,457 165.5,442C 160.921,439.298 157.088,435.798 154,431.5C 137.668,408.178 122.335,384.178 108,359.5C 103.211,352.138 101.545,344.138 103,335.5C 106.745,308.546 109.745,281.546 112,254.5C 93.7122,231.21 75.0455,208.21 56,185.5C 48.7186,176.123 47.7186,166.123 53,155.5C 58.7041,149.738 64.8708,144.572 71.5,140C 83.9424,135.926 94.109,139.092 102,149.5C 123.621,176.79 145.621,203.79 168,230.5C 169.333,233.167 170.667,235.833 172,238.5C 170.744,257.543 169.078,276.543 167,295.5C 192.413,277.544 217.913,259.71 243.5,242C 244.451,241.282 244.617,240.449 244,239.5C 230.333,216.167 216.667,192.833 203,169.5C 200.837,163.68 199.504,157.68 199,151.5C 198.333,113.167 198.333,74.8333 199,36.5C 202.084,27.915 207.917,22.2483 216.5,19.5 Z"/></g>
<g><path style="opacity:1" fill="#010101" d="M 69.5,373.5 C 105.523,372.08 128.023,388.747 137,423.5C 139.129,453.094 126.963,474.261 100.5,487C 71.1433,496.769 47.31,489.269 29,464.5C 13.7216,436.985 16.8882,411.818 38.5,389C 47.6956,381.442 58.0289,376.276 69.5,373.5 Z"/></g>
</svg>
