<?xml version="1.0" encoding="UTF-8"?>
<!DOCTYPE svg PUBLIC "-//W3C//DTD SVG 1.1//EN" "http://www.w3.org/Graphics/SVG/1.1/DTD/svg11.dtd">
<svg xmlns="http://www.w3.org/2000/svg" version="1.1" width="512px" height="512px" style="shape-rendering:geometricPrecision; text-rendering:geometricPrecision; image-rendering:optimizeQuality; fill-rule:evenodd; clip-rule:evenodd" xmlns:xlink="http://www.w3.org/1999/xlink">
<g><path style="opacity:0.985" fill="#fcfcfc" d="M 1.5,-0.5 C 17.1667,-0.5 32.8333,-0.5 48.5,-0.5C 72.8869,13.9161 98.5536,25.7494 125.5,35C 170.726,50.2651 216.56,63.4317 263,74.5C 273.991,60.5314 284.991,46.5314 296,32.5C 303.857,22.1152 310.691,11.1152 316.5,-0.5C 359.833,-0.5 403.167,-0.5 446.5,-0.5C 411.336,0.332515 376.002,0.832515 340.5,1C 324.553,29.2773 305.886,55.6106 284.5,80C 295.193,83.1721 305.86,86.3388 316.5,89.5C 280.292,134.278 263.792,185.611 267,243.5C 268.802,270.563 272.969,297.229 279.5,323.5C 279.182,324.647 278.516,325.481 277.5,326C 272.382,327.405 267.215,328.571 262,329.5C 261.228,329.355 260.561,329.022 260,328.5C 254.191,304.123 250.191,279.457 248,254.5C 242.464,199.326 254.297,148.326 283.5,101.5C 249.785,92.8214 216.119,83.9881 182.5,75C 135.207,62.6823 89.8732,45.3489 46.5,23C 37.7502,18.2101 29.2502,13.0434 21,7.5C 19.2283,12.5017 19.5617,17.5017 22,22.5C 25.2502,29.3398 29.2502,35.6731 34,41.5C 94.1102,82.7147 160.277,109.381 232.5,121.5C 231.998,128.185 231.331,134.851 230.5,141.5C 174.269,132.367 120.936,114.534 70.5,88C 55.97,80.1258 41.97,71.4591 28.5,62C 27.5165,61.4092 26.8499,61.7425 26.5,63C 29.3247,74.1484 34.1581,84.3151 41,93.5C 50.5744,105.076 61.4077,115.243 73.5,124C 119.008,147.96 167.342,162.46 218.5,167.5C 218.713,174.211 218.38,180.877 217.5,187.5C 151.617,181.707 91.1168,160.707 36,124.5C 38.5814,135.327 43.5814,144.994 51,153.5C 59.8981,163.068 69.3981,171.901 79.5,180C 121.901,200.699 166.567,213.532 213.5,218.5C 213.167,225.167 212.833,231.833 212.5,238.5C 171.886,235.097 132.886,225.263 95.5,209C 83.714,203.941 72.0474,198.607 60.5,193C 59.365,192.251 58.365,192.417 57.5,193.5C 61.5008,207.658 69.1675,219.492 80.5,229C 105.63,246.608 133.297,258.608 163.5,265C 180.716,268.864 198.05,272.03 215.5,274.5C 215.448,288.842 218.781,302.342 225.5,315C 220.629,319.007 215.295,322.507 209.5,325.5C 202.928,315.118 198.928,303.785 197.5,291.5C 165.492,287.457 134.658,279.123 105,266.5C 97.68,273.95 91.18,282.117 85.5,291C 100.504,315.641 118.171,338.307 138.5,359C 151.583,355.862 164.416,351.695 177,346.5C 191.111,397.608 221.278,436.108 267.5,462C 327.618,495.041 389.951,500.041 454.5,477C 464.627,462.42 463.794,448.586 452,435.5C 448.885,433.353 446.052,430.853 443.5,428C 424.67,415.418 405.67,403.084 386.5,391C 368.427,378.597 354.26,362.764 344,343.5C 333.78,316.726 323.28,290.06 312.5,263.5C 315.484,257.537 318.984,251.87 323,246.5C 372.962,182.763 435.796,136.43 511.5,107.5C 511.5,114.833 511.5,122.167 511.5,129.5C 448.903,155.208 395.403,193.541 351,244.5C 345.833,251.5 340.667,258.5 335.5,265.5C 344.823,287.635 353.656,309.968 362,332.5C 366.946,342.778 373.446,351.944 381.5,360C 399.285,374.73 418.285,387.73 438.5,399C 451.521,407.019 463.021,416.852 473,428.5C 486.705,451.005 485.205,472.505 468.5,493C 447.165,503.082 424.832,509.248 401.5,511.5C 386.833,511.5 372.167,511.5 357.5,511.5C 289.422,504.548 233.588,474.881 190,422.5C 179.099,407.371 170.266,391.038 163.5,373.5C 154.056,378.487 144.056,380.654 133.5,380C 131.754,379.529 130.087,378.862 128.5,378C 105.268,355.023 84.7681,329.856 67,302.5C 63.3995,294.315 63.7328,286.315 68,278.5C 73.6907,271.644 79.1907,264.644 84.5,257.5C 69.7916,248.224 57.2916,236.557 47,222.5C 41.1968,212.923 37.6968,202.59 36.5,191.5C 36.3326,185.333 38.3326,180 42.5,175.5C 30.8916,163.29 22.0583,149.29 16,133.5C 12.1019,122.125 14.6019,112.625 23.5,105C 13.365,92.0584 7.36501,77.3917 5.5,61C 5.33077,55.326 6.99743,50.326 10.5,46C 5.83439,38.1776 2.16772,30.011 -0.5,21.5C -0.5,15.5 -0.5,9.5 -0.5,3.5C 0.344644,2.32855 1.01131,0.995216 1.5,-0.5 Z"/></g>
<g><path style="opacity:1" fill="#010101" d="M 446.5,-0.5 C 468.167,-0.5 489.833,-0.5 511.5,-0.5C 511.5,35.5 511.5,71.5 511.5,107.5C 435.796,136.43 372.962,182.763 323,246.5C 318.984,251.87 315.484,257.537 312.5,263.5C 323.28,290.06 333.78,316.726 344,343.5C 354.26,362.764 368.427,378.597 386.5,391C 405.67,403.084 424.67,415.418 443.5,428C 446.052,430.853 448.885,433.353 452,435.5C 463.794,448.586 464.627,462.42 454.5,477C 389.951,500.041 327.618,495.041 267.5,462C 221.278,436.108 191.111,397.608 177,346.5C 164.416,351.695 151.583,355.862 138.5,359C 118.171,338.307 100.504,315.641 85.5,291C 91.18,282.117 97.68,273.95 105,266.5C 134.658,279.123 165.492,287.457 197.5,291.5C 198.928,303.785 202.928,315.118 209.5,325.5C 215.295,322.507 220.629,319.007 225.5,315C 218.781,302.342 215.448,288.842 215.5,274.5C 198.05,272.03 180.716,268.864 163.5,265C 133.297,258.608 105.63,246.608 80.5,229C 69.1675,219.492 61.5008,207.658 57.5,193.5C 58.365,192.417 59.365,192.251 60.5,193C 72.0474,198.607 83.714,203.941 95.5,209C 132.886,225.263 171.886,235.097 212.5,238.5C 212.833,231.833 213.167,225.167 213.5,218.5C 166.567,213.532 121.901,200.699 79.5,180C 69.3981,171.901 59.8981,163.068 51,153.5C 43.5814,144.994 38.5814,135.327 36,124.5C 91.1168,160.707 151.617,181.707 217.5,187.5C 218.38,180.877 218.713,174.211 218.5,167.5C 167.342,162.46 119.008,147.96 73.5,124C 61.4077,115.243 50.5744,105.076 41,93.5C 34.1581,84.3151 29.3247,74.1484 26.5,63C 26.8499,61.7425 27.5165,61.4092 28.5,62C 41.97,71.4591 55.97,80.1258 70.5,88C 120.936,114.534 174.269,132.367 230.5,141.5C 231.331,134.851 231.998,128.185 232.5,121.5C 160.277,109.381 94.1102,82.7147 34,41.5C 29.2502,35.6731 25.2502,29.3398 22,22.5C 19.5617,17.5017 19.2283,12.5017 21,7.5C 29.2502,13.0434 37.7502,18.2101 46.5,23C 89.8732,45.3489 135.207,62.6823 182.5,75C 216.119,83.9881 249.785,92.8214 283.5,101.5C 254.297,148.326 242.464,199.326 248,254.5C 250.191,279.457 254.191,304.123 260,328.5C 260.561,329.022 261.228,329.355 262,329.5C 267.215,328.571 272.382,327.405 277.5,326C 278.516,325.481 279.182,324.647 279.5,323.5C 272.969,297.229 268.802,270.563 267,243.5C 263.792,185.611 280.292,134.278 316.5,89.5C 305.86,86.3388 295.193,83.1721 284.5,80C 305.886,55.6106 324.553,29.2773 340.5,1C 376.002,0.832515 411.336,0.332515 446.5,-0.5 Z"/></g>
</svg>
