<?xml version="1.0" encoding="UTF-8"?>
<!DOCTYPE svg PUBLIC "-//W3C//DTD SVG 1.1//EN" "http://www.w3.org/Graphics/SVG/1.1/DTD/svg11.dtd">
<svg xmlns="http://www.w3.org/2000/svg" version="1.1" width="512px" height="512px" style="shape-rendering:geometricPrecision; text-rendering:geometricPrecision; image-rendering:optimizeQuality; fill-rule:evenodd; clip-rule:evenodd" xmlns:xlink="http://www.w3.org/1999/xlink">
<g><path style="opacity:0.983" fill="#fdfdfd" d="M 131.5,-0.5 C 149.167,-0.5 166.833,-0.5 184.5,-0.5C 215.504,1.83573 245.17,9.66906 273.5,23C 303.275,38.2141 317.608,62.5474 316.5,96C 319.5,96.5 322.5,97 325.5,97.5C 353.958,89.5961 378.124,96.5961 398,118.5C 415.278,137.674 421.611,160.007 417,185.5C 414.885,193.067 411.218,199.734 406,205.5C 399.795,222.222 389.462,235.889 375,246.5C 371.199,257.273 365.032,266.439 356.5,274C 390.983,274.524 424.317,280.857 456.5,293C 472.557,299.727 486.391,309.56 498,322.5C 505.153,331.956 509.153,342.623 510,354.5C 510.667,380.5 510.667,406.5 510,432.5C 507.655,452.022 498.488,467.522 482.5,479C 464.81,491.012 445.477,499.346 424.5,504C 409.49,507.308 394.49,509.808 379.5,511.5C 361.833,511.5 344.167,511.5 326.5,511.5C 293.393,509.221 262.06,500.388 232.5,485C 218.229,476.73 207.396,465.23 200,450.5C 198.042,445.671 196.876,440.671 196.5,435.5C 189.476,434.529 182.642,432.863 176,430.5C 160,435.019 144.834,432.852 130.5,424C 98.6517,401.126 87.485,370.626 97,332.5C 99.9579,324.922 104.625,318.588 111,313.5C 114.663,301.844 119.663,290.844 126,280.5C 125.896,263.55 131.73,249.05 143.5,237C 112.842,235.269 83.1758,228.935 54.5,218C 38.4428,211.273 24.6095,201.44 13,188.5C 7.71816,181.268 4.0515,173.268 2,164.5C 0.402083,135.861 0.0687493,107.195 1,78.5C 2.57747,61.1775 10.0775,47.0109 23.5,36C 44.9708,20.0562 68.9708,9.72288 95.5,5C 107.594,2.82549 119.594,0.992157 131.5,-0.5 Z"/></g>
<g><path style="opacity:1" fill="#020202" d="M 136.5,19.5 C 176.048,16.9479 214.381,22.4479 251.5,36C 263.225,40.6078 273.725,47.1078 283,55.5C 287.125,60.3014 290.458,65.6347 293,71.5C 294.43,85.7743 294.93,100.108 294.5,114.5C 305.967,115.199 317.3,116.866 328.5,119.5C 343.395,112.201 357.728,113.368 371.5,123C 387.275,134.775 396.275,150.441 398.5,170C 398.299,179.96 394.633,188.294 387.5,195C 381.889,212.051 371.389,225.217 356,234.5C 351.903,250.604 342.07,261.771 326.5,268C 314.527,272.293 302.193,273.626 289.5,272C 281.057,269.948 274.057,265.614 268.5,259C 258.514,259.113 248.514,259.279 238.5,259.5C 236.376,277.474 227.042,290.307 210.5,298C 197.79,304.036 184.457,306.036 170.5,304C 168.051,303.275 165.717,302.275 163.5,301C 162.167,300.333 160.833,300.333 159.5,301C 153.998,308.34 150.331,316.506 148.5,325.5C 161.437,329.396 171.603,337.063 179,348.5C 187.88,362.349 190.88,377.349 188,393.5C 191.63,395.265 195.463,396.432 199.5,397C 204.885,397.214 210.219,397.714 215.5,398.5C 216.333,382.51 216.833,366.51 217,350.5C 222.599,335.232 232.766,324.065 247.5,317C 280.89,301.417 316.057,294.25 353,295.5C 389.079,294.54 423.579,301.373 456.5,316C 472.175,323.007 483.009,334.507 489,350.5C 489.667,378.167 489.667,405.833 489,433.5C 488.042,439.747 485.709,445.414 482,450.5C 467.667,465.923 450.167,476.09 429.5,481C 379.264,494.626 328.931,494.959 278.5,482C 259.566,476.952 242.733,468.119 228,455.5C 218.022,444.391 214.189,431.391 216.5,416.5C 202.339,416.334 188.672,413.667 175.5,408.5C 162.829,414.533 150.829,413.366 139.5,405C 119.251,389.333 111.085,368.833 115,343.5C 117.56,336.016 122.227,330.349 129,326.5C 132.113,311.609 138.446,298.275 148,286.5C 145.633,268.394 152.133,254.227 167.5,244C 183.926,232.645 201.593,229.978 220.5,236C 223.433,237.271 226.099,238.938 228.5,241C 240.486,240.834 252.486,240.668 264.5,240.5C 266.347,230.469 271.347,222.302 279.5,216C 299.501,201.002 320.834,198.669 343.5,209C 346.312,210.977 348.978,213.144 351.5,215.5C 356.873,211.129 361.539,206.129 365.5,200.5C 335.037,189.859 319.37,168.359 318.5,136C 310.591,134.325 302.591,133.492 294.5,133.5C 298.849,161.304 288.516,181.47 263.5,194C 237.793,205.844 210.793,212.844 182.5,215C 144.234,218.049 106.9,213.716 70.5,202C 53.6024,196.412 39.4357,186.912 28,173.5C 24.873,168.581 22.873,163.248 22,157.5C 21.3333,130.167 21.3333,102.833 22,75.5C 25.7129,63.4461 32.8796,53.9461 43.5,47C 59.5989,37.075 76.9322,30.075 95.5,26C 109.259,23.4756 122.925,21.3089 136.5,19.5 Z"/></g>
<g><path style="opacity:1" fill="#fcfcfc" d="M 140.5,37.5 C 174.736,35.8394 208.07,40.3394 240.5,51C 252.527,55.0937 263.027,61.5937 272,70.5C 278.883,80.9106 277.383,90.0772 267.5,98C 264.795,100.351 261.795,102.184 258.5,103.5C 225.88,89.9766 191.88,83.6433 156.5,84.5C 122.77,83.6799 90.4364,89.8466 59.5,103C 50.058,100.801 43.558,94.9681 40,85.5C 39.2126,76.9044 42.3792,70.0711 49.5,65C 66.9797,52.9363 86.3131,45.2697 107.5,42C 118.674,40.7124 129.674,39.2124 140.5,37.5 Z"/></g>
<g><path style="opacity:1" fill="#fafafa" d="M 137.5,102.5 C 170.871,100.617 203.537,104.45 235.5,114C 217.746,120.353 199.413,124.02 180.5,125C 160.805,125.879 141.139,125.546 121.5,124C 107.351,122.379 93.6843,119.046 80.5,114C 99.137,107.787 118.137,103.953 137.5,102.5 Z"/></g>
<g><path style="opacity:1" fill="#fbfbfb" d="M 342.5,132.5 C 354.919,132.961 364.752,138.294 372,148.5C 378.639,156.75 380.972,166.084 379,176.5C 377.2,180.235 374.2,181.902 370,181.5C 355.578,178.604 345.578,170.27 340,156.5C 337.655,150.357 336.989,144.024 338,137.5C 339.707,135.963 341.207,134.296 342.5,132.5 Z"/></g>
<g><path style="opacity:1" fill="#fafafa" d="M 311.5,220.5 C 319.169,219.817 326.502,220.984 333.5,224C 339.812,229.454 339.978,235.287 334,241.5C 319.236,254.989 302.736,257.822 284.5,250C 281.364,243.928 282.197,238.428 287,233.5C 294.177,227.163 302.344,222.83 311.5,220.5 Z"/></g>
<g><path style="opacity:1" fill="#fcfcfc" d="M 193.5,251.5 C 199.176,251.334 204.843,251.501 210.5,252C 218.24,253.3 221.073,257.8 219,265.5C 213.012,276.474 203.845,283.308 191.5,286C 185.5,286.667 179.5,286.667 173.5,286C 165.054,282.371 163.22,276.538 168,268.5C 174.798,260.191 183.298,254.524 193.5,251.5 Z"/></g>
<g><path style="opacity:1" fill="#fdfdfd" d="M 331.5,313.5 C 368.488,311.38 404.488,316.213 439.5,328C 450.476,332.4 459.976,338.9 468,347.5C 472.667,354.167 472.667,360.833 468,367.5C 463.895,372.443 459.062,376.443 453.5,379.5C 433.496,370.17 412.496,364.336 390.5,362C 350.557,357.044 311.224,360.044 272.5,371C 265.677,373.549 259.01,376.383 252.5,379.5C 244.807,375.307 238.974,369.307 235,361.5C 233.889,356.389 234.889,351.722 238,347.5C 250.819,335.002 265.986,326.502 283.5,322C 299.397,317.741 315.397,314.907 331.5,313.5 Z"/></g>
<g><path style="opacity:1" fill="#fbfbfb" d="M 136.5,342.5 C 141.412,342.063 146.078,342.896 150.5,345C 165.272,355.377 171.772,369.544 170,387.5C 167.86,393.487 163.693,395.654 157.5,394C 139.284,384.774 130.784,369.94 132,349.5C 133.012,346.798 134.512,344.465 136.5,342.5 Z"/></g>
<g><path style="opacity:1" fill="#fafafa" d="M 327.5,378.5 C 357.149,376.894 386.482,379.06 415.5,385C 420.548,386.512 425.548,388.179 430.5,390C 386,402.842 341,404.842 295.5,396C 288.638,394.618 281.972,392.618 275.5,390C 292.388,383.791 309.721,379.957 327.5,378.5 Z"/></g>
</svg>
