<?xml version="1.0" encoding="UTF-8"?>
<!DOCTYPE svg PUBLIC "-//W3C//DTD SVG 1.1//EN" "http://www.w3.org/Graphics/SVG/1.1/DTD/svg11.dtd">
<svg xmlns="http://www.w3.org/2000/svg" version="1.1" width="512px" height="512px" style="shape-rendering:geometricPrecision; text-rendering:geometricPrecision; image-rendering:optimizeQuality; fill-rule:evenodd; clip-rule:evenodd" xmlns:xlink="http://www.w3.org/1999/xlink">
<g><path style="opacity:0.989" fill="#fdfdfd" d="M 233.5,-0.5 C 248.167,-0.5 262.833,-0.5 277.5,-0.5C 370.182,13.347 433.349,64.0137 467,151.5C 493.482,236.074 479.482,313.074 425,382.5C 402.11,408.385 374.943,428.551 343.5,443C 340.607,444.149 337.607,444.649 334.5,444.5C 334.5,466.833 334.5,489.167 334.5,511.5C 327.833,511.5 321.167,511.5 314.5,511.5C 314.333,469.499 314.5,427.499 315,385.5C 316.134,368.426 321.8,353.093 332,339.5C 343.918,327.467 358.418,321.801 375.5,322.5C 374.016,316.495 370.682,311.662 365.5,308C 357.58,302.467 348.914,298.467 339.5,296C 312.327,288.629 284.661,285.462 256.5,286.5C 224.75,285.309 193.75,289.476 163.5,299C 154.211,302.89 146.044,308.39 139,315.5C 136.676,318.48 135.176,321.813 134.5,325.5C 162.59,327.095 181.423,341.095 191,367.5C 193.433,374.999 195.1,382.666 196,390.5C 196.5,430.832 196.667,471.165 196.5,511.5C 189.5,511.5 182.5,511.5 175.5,511.5C 175.5,489.167 175.5,466.833 175.5,444.5C 172.729,444.579 170.063,444.079 167.5,443C 93.7612,407.898 49.2612,350.065 34,269.5C 22.4844,188.719 44.9844,119.219 101.5,61C 138.775,26.1976 182.775,5.69759 233.5,-0.5 Z"/></g>
<g><path style="opacity:1" fill="#010101" d="M 335.5,423.5 C 334.507,415.35 334.174,407.017 334.5,398.5C 333.838,382.294 337.672,367.294 346,353.5C 349.21,349.813 353.044,346.979 357.5,345C 367.421,343.171 377.421,341.837 387.5,341C 399.349,337.497 409.516,331.33 418,322.5C 426.26,308.747 426.594,294.747 419,280.5C 411.627,268.789 402.46,258.623 391.5,250C 353.935,224.144 312.268,209.81 266.5,207C 224.268,203.316 183.935,210.316 145.5,228C 124.664,238.17 107.498,252.67 94,271.5C 80.5184,297.74 85.685,319.574 109.5,337C 113.221,339.527 117.221,341.527 121.5,343C 131.749,343.729 141.749,345.729 151.5,349C 160.058,353.224 166.224,359.724 170,368.5C 173.013,375.206 175.013,382.206 176,389.5C 176.832,400.848 176.666,412.181 175.5,423.5C 101.81,387.531 60.6429,328.531 52,246.5C 48.344,162.667 80.844,97.1674 149.5,50C 220.141,9.33505 290.807,9.33505 361.5,50C 430.156,97.1674 462.656,162.667 459,246.5C 451.939,316.497 419.439,370.997 361.5,410C 352.932,414.783 344.266,419.283 335.5,423.5 Z"/></g>
<g><path style="opacity:1" fill="#fbfbfb" d="M 162.5,109.5 C 182.186,108.074 201.186,110.908 219.5,118C 226.833,121.333 234.167,124.667 241.5,128C 206.993,147.087 172.326,165.921 137.5,184.5C 134.183,180.545 131.349,176.212 129,171.5C 127.632,170.007 127.465,168.507 128.5,167C 150.328,155.254 171.994,143.254 193.5,131C 172.913,126.874 152.913,128.874 133.5,137C 125.429,140.785 117.595,144.951 110,149.5C 106.625,143.915 103.125,138.415 99.5,133C 118.69,120.061 139.69,112.228 162.5,109.5 Z"/></g>
<g><path style="opacity:1" fill="#fafafa" d="M 321.5,109.5 C 353.092,107.866 382.092,115.699 408.5,133C 404.957,138.586 401.291,144.086 397.5,149.5C 372.013,131.864 344.013,125.697 313.5,131C 335.5,143 357.5,155 379.5,167C 380.451,167.718 380.617,168.551 380,169.5C 377.746,173.007 375.746,176.673 374,180.5C 373.101,182.327 371.767,183.66 370,184.5C 335.436,165.801 300.936,146.968 266.5,128C 283.797,118.29 302.13,112.124 321.5,109.5 Z"/></g>
<g><path style="opacity:1" fill="#000000" d="M 314.5,511.5 C 275.167,511.5 235.833,511.5 196.5,511.5C 196.667,471.165 196.5,430.832 196,390.5C 195.1,382.666 193.433,374.999 191,367.5C 181.423,341.095 162.59,327.095 134.5,325.5C 135.176,321.813 136.676,318.48 139,315.5C 146.044,308.39 154.211,302.89 163.5,299C 193.75,289.476 224.75,285.309 256.5,286.5C 284.661,285.462 312.327,288.629 339.5,296C 348.914,298.467 357.58,302.467 365.5,308C 370.682,311.662 374.016,316.495 375.5,322.5C 358.418,321.801 343.918,327.467 332,339.5C 321.8,353.093 316.134,368.426 315,385.5C 314.5,427.499 314.333,469.499 314.5,511.5 Z"/></g>
<g><path style="opacity:1" fill="#838383" d="M 334.5,398.5 C 334.174,407.017 334.507,415.35 335.5,423.5C 335.44,424.043 335.107,424.376 334.5,424.5C 333.179,415.675 333.179,407.009 334.5,398.5 Z"/></g>
</svg>
