<?xml version="1.0" encoding="UTF-8"?>
<!DOCTYPE svg PUBLIC "-//W3C//DTD SVG 1.1//EN" "http://www.w3.org/Graphics/SVG/1.1/DTD/svg11.dtd">
<svg xmlns="http://www.w3.org/2000/svg" version="1.1" width="512px" height="512px" style="shape-rendering:geometricPrecision; text-rendering:geometricPrecision; image-rendering:optimizeQuality; fill-rule:evenodd; clip-rule:evenodd" xmlns:xlink="http://www.w3.org/1999/xlink">
<g><path style="opacity:0.977" fill="#fdfdfd" d="M 316.5,-0.5 C 359.833,-0.5 403.167,-0.5 446.5,-0.5C 411.098,0.169802 375.598,0.836468 340,1.5C 331.791,16.366 322.791,30.6994 313,44.5C 299.241,62.3487 285.241,80.0153 271,97.5C 209.697,161.804 148.031,225.804 86,289.5C 92.7072,341.712 79.3739,388.046 46,428.5C 31.9615,445.372 16.4615,460.705 -0.5,474.5C -0.5,465.167 -0.5,455.833 -0.5,446.5C 22.717,426.458 41.217,402.791 55,375.5C 66.4238,348.275 69.5905,320.108 64.5,291C 64.057,286.385 65.2236,282.218 68,278.5C 132.729,212.44 196.729,145.773 260,78.5C 272,63.1667 284,47.8333 296,32.5C 303.857,22.1152 310.691,11.1152 316.5,-0.5 Z"/></g>
<g><path style="opacity:1" fill="#010101" d="M 446.5,-0.5 C 468.167,-0.5 489.833,-0.5 511.5,-0.5C 511.5,35.5 511.5,71.5 511.5,107.5C 448.367,131.812 393.534,168.479 347,217.5C 337.282,227.949 328.282,238.949 320,250.5C 316.979,254.544 314.479,258.877 312.5,263.5C 323.28,290.06 333.78,316.726 344,343.5C 352.167,360.009 363.667,373.843 378.5,385C 398.563,398.727 418.896,412.06 439.5,425C 448.434,430.6 455.268,438.1 460,447.5C 462.653,457.892 460.987,467.559 455,476.5C 415.937,492.081 375.77,495.581 334.5,487C 281.467,476.09 238.3,449.59 205,407.5C 199.235,398.589 193.735,389.589 188.5,380.5C 168.056,394.132 154.223,412.798 147,436.5C 139.527,461.659 140.027,486.659 148.5,511.5C 142.5,511.5 136.5,511.5 130.5,511.5C 129.013,499.025 123.68,488.525 114.5,480C 111.725,477.084 108.892,476.918 106,479.5C 101.318,489.712 98.1516,500.379 96.5,511.5C 80.5,511.5 64.5,511.5 48.5,511.5C 52.0252,502.133 53.1919,492.466 52,482.5C 51.044,481.106 49.7106,480.439 48,480.5C 42.6868,481.997 38.3535,484.997 35,489.5C 29.668,496.993 24.168,504.327 18.5,511.5C 12.1667,511.5 5.83333,511.5 -0.5,511.5C -0.5,499.167 -0.5,486.833 -0.5,474.5C 16.4615,460.705 31.9615,445.372 46,428.5C 79.3739,388.046 92.7072,341.712 86,289.5C 148.031,225.804 209.697,161.804 271,97.5C 285.241,80.0153 299.241,62.3487 313,44.5C 322.791,30.6994 331.791,16.366 340,1.5C 375.598,0.836468 411.098,0.169802 446.5,-0.5 Z"/></g>
<g><path style="opacity:0.977" fill="#fdfdfd" d="M 511.5,107.5 C 511.5,114.833 511.5,122.167 511.5,129.5C 448.903,155.208 395.403,193.541 351,244.5C 345.833,251.5 340.667,258.5 335.5,265.5C 344.823,287.635 353.656,309.968 362,332.5C 366.946,342.778 373.446,351.944 381.5,360C 399.285,374.73 418.285,387.73 438.5,399C 451.521,407.019 463.021,416.852 473,428.5C 486.705,451.005 485.205,472.505 468.5,493C 447.165,503.082 424.832,509.248 401.5,511.5C 386.833,511.5 372.167,511.5 357.5,511.5C 294.926,505.129 242.092,479.129 199,433.5C 193.283,426.784 187.95,419.784 183,412.5C 160.567,443.364 156.733,476.364 171.5,511.5C 163.833,511.5 156.167,511.5 148.5,511.5C 140.027,486.659 139.527,461.659 147,436.5C 154.223,412.798 168.056,394.132 188.5,380.5C 193.735,389.589 199.235,398.589 205,407.5C 238.3,449.59 281.467,476.09 334.5,487C 375.77,495.581 415.937,492.081 455,476.5C 460.987,467.559 462.653,457.892 460,447.5C 455.268,438.1 448.434,430.6 439.5,425C 418.896,412.06 398.563,398.727 378.5,385C 363.667,373.843 352.167,360.009 344,343.5C 333.78,316.726 323.28,290.06 312.5,263.5C 314.479,258.877 316.979,254.544 320,250.5C 328.282,238.949 337.282,227.949 347,217.5C 393.534,168.479 448.367,131.812 511.5,107.5 Z"/></g>
<g><path style="opacity:1" fill="#f8f8f8" d="M 105.5,321.5 C 115.115,332.789 124.781,344.122 134.5,355.5C 128.056,360.23 121.222,361.23 114,358.5C 109.319,346.596 106.486,334.262 105.5,321.5 Z"/></g>
<g><path style="opacity:1" fill="#f9f9f9" d="M 154.5,354.5 C 161.17,359.18 167.503,364.346 173.5,370C 164.567,380.936 154.9,391.269 144.5,401C 136.672,404.801 133.839,402.301 136,393.5C 141.089,379.989 147.255,366.989 154.5,354.5 Z"/></g>
<g><path style="opacity:1" fill="#fafafa" d="M 101.5,365.5 C 102.805,367.397 103.471,369.731 103.5,372.5C 99.2888,404.685 90.1221,435.351 76,464.5C 73.3143,469.432 69.1477,472.265 63.5,473C 57.6058,474.037 51.9391,473.371 46.5,471C 41.9427,467.671 41.4427,463.838 45,459.5C 50.2454,452.676 55.2454,445.676 60,438.5C 73.6611,414.021 87.4945,389.688 101.5,365.5 Z"/></g>
<g><path style="opacity:1" fill="#fafafa" d="M 116.5,386.5 C 121.189,385.684 123.689,387.684 124,392.5C 126.032,411.627 124.032,430.294 118,448.5C 116.553,452.785 113.719,455.452 109.5,456.5C 107.605,439.221 107.105,421.887 108,404.5C 108.974,397.554 111.808,391.554 116.5,386.5 Z"/></g>
<g><path style="opacity:1" fill="#f6f6f6" d="M 93.5,461.5 C 98.1514,462.174 99.6514,464.841 98,469.5C 94.864,479.241 91.5307,488.908 88,498.5C 86.6912,500.976 84.8579,502.976 82.5,504.5C 81.5224,504.023 80.6891,503.357 80,502.5C 76.6806,486.062 81.1806,472.395 93.5,461.5 Z"/></g>
<g><path style="opacity:1" fill="#fafafa" d="M 130.5,511.5 C 119.167,511.5 107.833,511.5 96.5,511.5C 98.1516,500.379 101.318,489.712 106,479.5C 108.892,476.918 111.725,477.084 114.5,480C 123.68,488.525 129.013,499.025 130.5,511.5 Z"/></g>
<g><path style="opacity:1" fill="#fbfbfb" d="M 48.5,511.5 C 38.5,511.5 28.5,511.5 18.5,511.5C 24.168,504.327 29.668,496.993 35,489.5C 38.3535,484.997 42.6868,481.997 48,480.5C 49.7106,480.439 51.044,481.106 52,482.5C 53.1919,492.466 52.0252,502.133 48.5,511.5 Z"/></g>
</svg>
