<?xml version="1.0" standalone="no"?>
<!DOCTYPE svg PUBLIC "-//W3C//DTD SVG 20010904//EN"
 "http://www.w3.org/TR/2001/REC-SVG-20010904/DTD/svg10.dtd">
<svg version="1.0" xmlns="http://www.w3.org/2000/svg"
 width="512.000000pt" height="512.000000pt" viewBox="0 0 512.000000 512.000000"
 preserveAspectRatio="xMidYMid meet">

<g transform="translate(0.000000,512.000000) scale(0.100000,-0.100000)"
fill="#000000" stroke="none">
<path d="M2990 5091 c456 -74 720 -141 892 -227 188 -94 202 -189 55 -367
-131 -159 -504 -340 -942 -457 -631 -169 -1137 -240 -1711 -240 -405 0 -610
24 -743 86 l-56 26 35 17 c28 13 79 16 269 18 l233 3 84 80 c49 47 79 82 72
85 -7 2 -92 9 -189 15 -443 25 -679 -42 -679 -192 0 -138 125 -227 385 -274
125 -23 594 -26 810 -6 994 93 1849 326 2293 623 228 154 350 366 284 496 -64
125 -317 223 -786 304 -133 23 -221 32 -331 35 l-150 3 175 -28z"/>
<path d="M1895 4169 c-107 -15 -237 -58 -350 -114 l-110 -55 100 6 c212 11
580 53 800 90 133 22 139 25 80 41 -145 39 -374 53 -520 32z"/>
<path d="M2975 3714 c-319 -98 -882 -202 -1345 -248 -212 -22 -562 -38 -637
-30 -57 6 -62 4 -76 -17 -36 -57 -143 -347 -131 -358 11 -11 1556 -13 1889 -1
464 15 891 44 909 61 17 15 -100 200 -232 366 -91 114 -236 263 -254 262 -7
-1 -62 -16 -123 -35z"/>
<path d="M3447 3697 c4 -7 37 -48 73 -92 36 -45 76 -97 89 -116 22 -32 37 -40
155 -79 243 -80 437 -173 534 -255 23 -20 42 -43 42 -51 0 -35 -163 -97 -350
-132 -366 -70 -754 -102 -1500 -123 -417 -11 -1626 -7 -2031 8 l-179 6 0 -95
0 -96 93 -7 c175 -13 2173 -11 2447 3 765 38 1133 81 1405 163 126 39 204 80
254 134 152 165 8 357 -397 532 -201 87 -653 229 -635 200z"/>
<path d="M3678 2525 c-59 -7 -196 -20 -305 -29 -453 -35 -682 -41 -1677 -41
l-989 0 6 -125 c12 -229 67 -500 149 -725 89 -248 262 -552 422 -744 377 -451
902 -703 1365 -652 508 55 902 379 1115 918 85 215 126 432 133 713 6 226 -9
397 -50 590 -27 122 -13 114 -169 95z m-663 -585 c187 -57 341 -104 343 -105
4 -3 -50 -179 -58 -188 -3 -4 -27 0 -54 9 -26 9 -48 15 -50 13 -1 -2 -10 -30
-20 -62 -68 -225 -276 -158 -386 125 l-28 72 -89 26 c-99 30 -95 20 -61 135
26 86 26 88 47 82 9 -2 169 -51 356 -107z m-1161 -8 c25 -43 46 -81 46 -84 0
-4 -35 -27 -79 -52 l-78 -46 -6 -108 c-3 -64 -12 -127 -22 -155 -20 -55 -72
-113 -110 -123 -67 -17 -149 34 -202 123 -13 23 -26 43 -28 43 -2 0 -30 -16
-61 -35 l-58 -34 -52 87 c-29 48 -51 88 -51 89 13 13 644 380 649 377 3 -2 27
-39 52 -82z"/>
</g>
</svg>
