<?xml version="1.0" standalone="no"?>
<!DOCTYPE svg PUBLIC "-//W3C//DTD SVG 20010904//EN"
 "http://www.w3.org/TR/2001/REC-SVG-20010904/DTD/svg10.dtd">
<svg version="1.0" xmlns="http://www.w3.org/2000/svg"
 width="512.000000pt" height="512.000000pt" viewBox="0 0 512.000000 512.000000"
 preserveAspectRatio="xMidYMid meet">

<g transform="translate(0.000000,512.000000) scale(0.100000,-0.100000)"
fill="#000000" stroke="none">
<path d="M2405 4909 c-454 -47 -889 -310 -1154 -699 -79 -116 -239 -429 -294
-575 -119 -317 -165 -668 -138 -1055 35 -506 149 -942 350 -1337 287 -566 702
-928 1168 -1020 118 -23 328 -23 446 0 389 77 744 342 1019 762 287 437 456
977 499 1595 26 375 -14 710 -123 1030 -51 150 -211 478 -296 605 -92 139
-281 327 -425 423 -329 219 -680 309 -1052 271z m442 -198 c566 -116 990 -540
1079 -1079 12 -71 15 -133 10 -232 -13 -317 -138 -600 -366 -828 -266 -266
-624 -412 -1010 -412 -386 0 -744 146 -1010 412 -228 228 -353 511 -366 828
-15 362 121 692 393 951 221 209 500 340 809 379 111 14 346 4 461 -19z m1136
-2819 c-129 -118 -296 -210 -461 -253 -99 -26 -269 -29 -365 -5 -146 35 -299
114 -416 216 l-34 29 64 69 64 68 60 -48 c76 -61 192 -121 275 -143 84 -22
225 -23 314 -1 121 29 304 134 391 225 l29 31 69 -67 68 -68 -58 -53z m-2633
126 c168 -152 394 -233 583 -208 136 18 224 55 345 148 l73 55 65 -64 64 -63
-28 -29 c-70 -74 -231 -167 -355 -206 -297 -91 -621 -3 -895 244 l-53 48 63
64 c34 34 66 63 71 63 5 0 35 -24 67 -52z m1685 -1118 c131 -20 219 -37 307
-61 l37 -9 -24 -86 c-13 -47 -26 -88 -28 -91 -3 -2 -31 3 -63 11 -394 100
-921 101 -1348 1 -33 -8 -64 -11 -67 -7 -3 4 -15 44 -26 89 l-21 83 37 10
c108 29 333 66 516 84 22 2 153 3 290 1 192 -3 283 -8 390 -25z"/>
</g>
</svg>
