<?xml version="1.0" standalone="no"?>
<!DOCTYPE svg PUBLIC "-//W3C//DTD SVG 20010904//EN"
 "http://www.w3.org/TR/2001/REC-SVG-20010904/DTD/svg10.dtd">
<svg version="1.0" xmlns="http://www.w3.org/2000/svg"
 width="512.000000pt" height="512.000000pt" viewBox="0 0 512.000000 512.000000"
 preserveAspectRatio="xMidYMid meet">

<g transform="translate(0.000000,512.000000) scale(0.100000,-0.100000)"
fill="#000000" stroke="none">
<path d="M2460 4914 c-14 -2 -59 -9 -100 -15 -283 -42 -605 -238 -831 -506
-394 -468 -609 -1116 -609 -1833 0 -717 215 -1365 609 -1833 225 -267 532
-455 831 -508 96 -17 304 -17 400 0 643 115 1191 783 1375 1676 50 244 59 350
59 665 0 315 -9 421 -59 665 -182 883 -721 1549 -1354 1671 -77 15 -276 26
-321 18z m-335 -1987 c33 -22 62 -42 64 -43 2 -2 -39 -69 -92 -149 -54 -80
-97 -148 -97 -152 0 -5 65 -51 145 -103 80 -52 145 -98 145 -103 0 -8 -91
-147 -97 -147 -2 0 -65 41 -140 91 -75 51 -144 94 -152 96 -14 3 -83 -93 -203
-280 -4 -6 -32 7 -74 34 -37 24 -71 47 -77 50 -5 4 36 74 91 157 l101 150
-141 93 c-77 52 -145 97 -151 101 -6 4 7 32 34 74 24 37 47 71 50 77 4 5 72
-34 153 -87 81 -53 151 -96 155 -96 4 0 51 65 105 145 64 97 101 143 109 139
7 -4 39 -25 72 -47z m1055 -97 c51 -77 96 -140 101 -140 4 0 74 43 155 96 81
53 149 92 153 87 3 -6 26 -40 50 -77 27 -42 40 -70 34 -74 -6 -4 -74 -49 -151
-101 l-141 -93 101 -150 c55 -83 96 -153 91 -157 -6 -3 -40 -26 -77 -50 -42
-27 -70 -40 -74 -34 -120 187 -189 283 -203 280 -8 -2 -77 -45 -152 -96 -75
-50 -138 -91 -140 -91 -6 0 -97 139 -97 147 0 5 65 51 145 103 80 52 145 98
145 103 0 4 -43 72 -97 152 -53 80 -94 147 -92 149 25 21 144 94 149 91 4 -2
48 -67 100 -145z m-518 -1380 c224 -22 422 -102 568 -228 l35 -31 -64 -64 -64
-65 -51 40 -51 41 -8 -44 c-4 -24 -13 -70 -19 -102 -15 -77 -62 -155 -113
-184 -148 -84 -318 53 -451 360 -37 87 -38 88 -68 82 -115 -23 -259 -87 -343
-153 l-50 -40 -64 65 -64 64 35 31 c141 123 348 207 555 227 113 11 110 11
217 1z"/>
<path d="M2650 1170 c46 -89 129 -200 149 -200 19 0 34 63 39 156 l5 102 -34
10 c-38 13 -152 32 -187 32 -22 0 -21 -4 28 -100z"/>
</g>
</svg>
