<?xml version="1.0" standalone="no"?>
<!DOCTYPE svg PUBLIC "-//W3C//DTD SVG 20010904//EN"
 "http://www.w3.org/TR/2001/REC-SVG-20010904/DTD/svg10.dtd">
<svg version="1.0" xmlns="http://www.w3.org/2000/svg"
 width="512.000000pt" height="512.000000pt" viewBox="0 0 512.000000 512.000000"
 preserveAspectRatio="xMidYMid meet">

<g transform="translate(0.000000,512.000000) scale(0.100000,-0.100000)"
fill="#000000" stroke="none">
<path d="M3803 5009 c-18 -5 -34 -13 -37 -18 -3 -5 9 -45 27 -91 l32 -82 94
-1 95 -1 28 83 c15 46 25 87 23 91 -16 26 -194 39 -262 19z"/>
<path d="M3612 4905 c-54 -39 -143 -136 -142 -153 1 -9 160 -116 164 -111 1 2
15 20 30 40 21 30 57 59 115 96 5 3 -93 172 -100 173 -4 0 -34 -20 -67 -45z"/>
<path d="M4106 4864 c-26 -47 -46 -86 -45 -88 2 -1 23 -14 46 -29 33 -21 68
-58 100 -106 4 -6 162 113 163 122 1 25 -182 188 -209 187 -4 0 -28 -39 -55
-86z"/>
<path d="M1083 4906 c-142 -47 -264 -175 -336 -356 -37 -93 -50 -179 -49 -310
1 -204 58 -352 202 -525 44 -54 79 -99 78 -101 -2 -1 -55 -12 -118 -24 -189
-35 -291 -98 -386 -242 -156 -234 -237 -602 -264 -1193 -5 -121 -10 -239 -10
-262 l0 -43 220 0 c170 0 220 -3 219 -12 0 -7 26 -367 58 -800 l58 -787 85
-15 c225 -41 479 -43 708 -6 63 10 115 20 117 22 3 3 105 1534 105 1576 l0 22
211 0 210 0 -6 228 c-17 645 -66 949 -191 1192 -59 114 -119 188 -194 238 -74
50 -128 67 -275 89 -60 9 -111 17 -113 19 -2 1 34 49 79 106 49 61 98 136 120
184 204 433 -20 986 -407 1009 -52 3 -93 0 -121 -9z m497 -1812 l0 -295 -70
-562 c-38 -309 -72 -577 -75 -594 l-6 -33 -239 0 c-132 0 -240 4 -240 9 0 5
-31 266 -70 580 l-70 572 0 310 0 309 385 0 385 0 0 -296z m-20 -1979 l0 -315
-365 0 -365 0 0 315 0 315 365 0 365 0 0 -315z"/>
<path d="M4332 4637 c-59 -30 -82 -46 -78 -57 3 -8 14 -42 25 -74 12 -33 21
-69 21 -80 0 -46 10 -49 109 -33 50 8 94 17 97 20 13 12 -73 270 -89 266 -1 0
-39 -19 -85 -42z"/>
<path d="M3395 4618 c-28 -60 -62 -194 -52 -204 7 -7 137 -32 169 -33 12 -1
21 15 33 56 9 32 25 74 36 95 10 20 19 40 19 43 0 2 -41 25 -90 50 l-91 46
-24 -53z"/>
<path d="M4392 4320 c-34 -4 -64 -9 -66 -11 -2 -2 -5 -53 -7 -113 l-4 -110 89
-18 c49 -10 92 -16 94 -13 10 10 21 103 21 188 l1 87 -32 -1 c-18 -1 -61 -5
-96 -9z"/>
<path d="M3326 4304 c-15 -39 3 -235 23 -257 4 -4 48 3 97 16 101 28 92 9 78
163 l-7 82 -36 6 c-72 12 -148 7 -155 -10z"/>
<path d="M4280 4005 c-5 -14 -10 -30 -10 -34 0 -4 -18 -36 -41 -71 -22 -34
-39 -63 -37 -65 134 -101 160 -118 169 -104 73 111 127 226 112 240 -4 4 -41
17 -82 29 -40 12 -80 24 -87 27 -8 3 -18 -5 -24 -22z"/>
<path d="M3461 3991 c-47 -14 -86 -31 -88 -37 -4 -11 86 -195 112 -228 14 -18
18 -16 92 39 43 32 80 59 82 61 2 2 -10 25 -27 51 -17 27 -40 70 -52 96 -11
26 -24 47 -28 46 -4 -1 -45 -13 -91 -28z"/>
<path d="M4096 3720 c-56 -71 -65 -111 -37 -157 22 -35 61 -50 146 -55 l49 -3
9 55 c5 30 15 63 22 73 16 22 -2 67 -26 67 -9 0 -39 18 -66 40 l-50 40 -47
-60z"/>
<path d="M3655 3734 c-21 -19 -49 -37 -61 -40 -28 -7 -39 -47 -20 -77 8 -12
17 -42 21 -67 4 -25 9 -48 11 -51 2 -4 36 -1 76 7 59 11 78 19 101 44 32 36
36 82 9 121 -34 50 -77 99 -87 99 -5 -1 -28 -17 -50 -36z"/>
<path d="M4356 3669 c-3 -8 -12 -50 -21 -93 -16 -84 -13 -95 26 -96 10 0 43
-14 74 -30 32 -17 59 -29 60 -28 1 2 28 38 60 81 66 89 69 79 -40 132 -82 40
-152 55 -159 34z"/>
<path d="M3422 3650 c-52 -18 -117 -54 -156 -85 -18 -14 -16 -17 39 -82 32
-37 62 -72 66 -76 4 -5 26 5 49 22 24 17 60 36 82 41 21 6 38 14 38 18 -1 4
-9 45 -18 92 -12 57 -23 86 -32 87 -8 1 -39 -6 -68 -17z"/>
<path d="M4606 3451 l-68 -69 40 -53 c22 -30 47 -69 56 -86 l16 -33 91 45 90
46 -21 37 c-30 50 -124 182 -130 182 -3 0 -36 -31 -74 -69z"/>
<path d="M3147 3445 c-18 -26 -48 -73 -66 -105 l-32 -59 90 -46 91 -45 21 43
c12 23 35 61 51 85 l30 43 -68 62 c-37 34 -70 63 -75 65 -4 2 -23 -18 -42 -43z"/>
<path d="M4765 3186 c-44 -18 -80 -36 -80 -42 0 -16 48 -189 55 -197 3 -4 47
3 96 17 87 23 89 24 87 52 -3 42 -56 197 -68 200 -5 1 -46 -13 -90 -30z"/>
<path d="M3002 3159 c-35 -82 -64 -181 -56 -188 16 -14 177 -52 184 -44 4 5
13 31 19 58 7 28 21 70 32 94 11 25 16 48 12 52 -5 4 -37 19 -73 32 -36 14
-73 28 -82 32 -14 6 -22 -2 -36 -36z"/>
<path d="M4846 2891 c-44 -9 -81 -21 -83 -26 -4 -14 22 -204 30 -211 7 -7 185
11 194 19 4 5 -15 136 -32 215 -6 25 -4 25 -109 3z"/>
<path d="M2915 2878 c-17 -79 -36 -210 -32 -215 4 -3 47 -10 98 -15 100 -11
108 -8 109 42 0 14 7 56 15 94 8 38 13 72 10 74 -4 4 -169 41 -187 42 -4 0
-10 -10 -13 -22z"/>
<path d="M4895 2593 c-99 -12 -95 -9 -95 -67 0 -29 3 -81 6 -115 l7 -61 61 0
c34 0 78 3 100 7 l39 6 -7 104 c-4 56 -9 110 -12 118 -6 15 -30 17 -99 8z"/>
<path d="M2866 2568 c-3 -12 -7 -64 -11 -115 l-6 -91 28 -6 c15 -3 60 -8 99
-11 l71 -7 7 64 c3 34 9 86 12 114 7 60 11 57 -123 69 -70 7 -72 6 -77 -17z"/>
<path d="M2846 2264 c-3 -9 -6 -60 -6 -114 l0 -97 38 -7 c73 -12 149 -7 156
10 3 9 6 60 6 114 l0 97 -37 7 c-74 12 -150 7 -157 -10z"/>
<path d="M4820 2165 l0 -115 100 0 100 0 0 99 c0 55 -3 106 -6 115 -5 13 -24
16 -100 16 l-94 0 0 -115z"/>
<path d="M2838 1974 c-14 -14 -9 -144 7 -174 22 -42 43 -50 134 -50 l81 0 0
100 c0 80 -3 100 -14 100 -8 0 -16 4 -18 9 -4 12 -180 26 -190 15z"/>
<path d="M4862 1973 c-62 -8 -72 -26 -72 -130 l0 -93 84 0 c75 0 88 3 113 24
26 23 28 30 31 115 l4 91 -64 -2 c-34 0 -78 -3 -96 -5z"/>
<path d="M3240 1850 c0 -78 3 -100 14 -100 7 0 16 -9 19 -19 5 -20 6 -20 152
-5 l50 5 -6 74 c-9 120 -37 145 -160 145 l-69 0 0 -100z"/>
<path d="M4458 1934 c-38 -20 -49 -45 -55 -128 -7 -85 -10 -83 117 -87 63 -2
76 0 78 14 2 9 10 17 18 17 11 0 14 20 14 100 l0 100 -72 0 c-45 -1 -84 -7
-100 -16z"/>
<path d="M3306 1643 l-28 -5 7 -91 c10 -154 6 -147 78 -147 34 0 79 3 100 7
l39 6 -7 91 c-11 156 -5 146 -88 145 -40 -1 -85 -4 -101 -6z"/>
<path d="M4396 1623 c-3 -16 -8 -69 -11 -119 l-7 -91 39 -6 c21 -4 66 -7 99
-7 l61 0 7 46 c3 26 6 79 6 119 l0 72 -37 7 c-21 3 -64 6 -95 6 -54 0 -57 -1
-62 -27z"/>
<path d="M3405 1333 c-16 -2 -45 -6 -62 -9 l-33 -5 0 -73 c0 -40 3 -94 6 -120
l7 -46 61 0 c33 0 78 3 99 7 l39 6 -7 96 c-10 147 -11 151 -48 150 -18 -1 -45
-4 -62 -6z"/>
<path d="M4366 1284 c-3 -26 -6 -79 -6 -119 l0 -72 38 -7 c20 -3 65 -6 98 -6
l61 0 7 46 c3 26 6 79 6 119 l0 72 -37 7 c-21 3 -66 6 -99 6 l-61 0 -7 -46z"/>
<path d="M3430 1013 c-19 -2 -50 -6 -69 -9 l-33 -5 7 -92 c3 -51 9 -105 12
-121 l5 -28 67 6 c129 13 121 7 121 90 0 40 -3 94 -6 120 -7 51 -4 49 -104 39z"/>
<path d="M4346 974 c-3 -26 -6 -80 -6 -120 0 -83 -8 -77 121 -90 l67 -6 5 28
c3 16 9 70 12 120 l7 92 -29 5 c-15 3 -60 9 -99 12 l-71 7 -7 -48z"/>
<path d="M3377 693 l-29 -4 7 -97 c3 -53 9 -110 12 -125 l5 -29 71 7 c40 3 85
9 100 12 l29 5 -7 92 c-11 156 -5 146 -88 145 -40 -1 -85 -4 -100 -6z"/>
<path d="M4326 654 c-3 -26 -6 -79 -6 -119 l0 -72 38 -7 c20 -3 63 -6 94 -6
66 0 63 -6 73 146 l7 91 -39 6 c-21 4 -66 7 -99 7 l-61 0 -7 -46z"/>
<path d="M3410 373 l-36 -4 7 -81 c9 -103 27 -124 125 -144 37 -8 73 -13 79
-10 6 2 17 39 23 82 16 106 16 114 -8 114 -15 0 -20 7 -20 25 0 24 -2 25 -67
23 -38 -1 -84 -3 -103 -5z"/>
<path d="M4310 357 c0 -20 -5 -27 -19 -27 -11 0 -22 -3 -24 -7 -5 -9 21 -185
29 -192 2 -2 39 3 82 12 102 22 118 40 127 142 4 42 5 78 3 81 -3 2 -48 7
-102 11 l-96 6 0 -26z"/>
<path d="M3686 283 c-3 -16 -8 -58 -12 -94 -7 -79 -13 -75 124 -85 l99 -7 6
39 c4 22 7 66 7 100 l0 61 -52 7 c-29 3 -79 6 -110 6 -54 0 -57 -1 -62 -27z"/>
<path d="M4018 303 l-38 -4 0 -100 0 -99 58 1 c68 1 169 13 177 21 3 3 1 36
-5 74 -18 123 -11 114 -88 112 -37 -1 -84 -3 -104 -5z"/>
</g>
</svg>
