<?xml version="1.0" standalone="no"?>
<!DOCTYPE svg PUBLIC "-//W3C//DTD SVG 20010904//EN"
 "http://www.w3.org/TR/2001/REC-SVG-20010904/DTD/svg10.dtd">
<svg version="1.0" xmlns="http://www.w3.org/2000/svg"
 width="512.000000pt" height="512.000000pt" viewBox="0 0 512.000000 512.000000"
 preserveAspectRatio="xMidYMid meet">

<g transform="translate(0.000000,512.000000) scale(0.100000,-0.100000)"
fill="#000000" stroke="none">
<path d="M2406 4910 c-468 -59 -894 -349 -1199 -815 -72 -110 -203 -375 -252
-509 -234 -637 -234 -1415 0 -2052 49 -134 180 -399 252 -509 280 -427 659
-706 1086 -797 145 -30 389 -30 534 0 427 91 806 370 1086 797 72 110 203 375
252 509 234 637 234 1415 0 2052 -49 134 -180 399 -252 509 -279 427 -665 710
-1084 795 -114 24 -320 33 -423 20z m-509 -1810 c188 -11 355 -20 372 -20 l31
0 0 -77 c0 -43 -3 -89 -7 -102 l-6 -24 -138 7 -138 6 18 -42 c60 -141 74 -345
33 -476 -27 -85 -82 -154 -139 -173 -101 -33 -217 74 -279 256 -35 106 -45
287 -20 384 9 35 14 66 11 69 -2 3 -56 8 -120 12 -64 4 -118 9 -121 12 -2 3
-2 49 2 102 l7 97 76 -6 c42 -3 230 -15 418 -25z m1816 -67 c3 -54 4 -100 2
-102 -3 -2 -57 -7 -122 -12 -65 -4 -121 -8 -124 -8 -4 -1 0 -20 9 -43 24 -68
28 -241 7 -334 -48 -221 -179 -370 -295 -335 -109 32 -179 198 -167 392 6 92
26 181 57 254 l19 45 -142 -2 -142 -3 -5 94 c-3 58 -1 95 5 97 8 2 764 49 861
53 l31 1 6 -97z m-809 -1599 c198 -24 550 -105 578 -133 5 -4 -6 -48 -22 -97
l-31 -91 -134 38 c-232 66 -406 91 -672 96 -331 8 -540 -17 -801 -94 -67 -20
-124 -34 -126 -32 -2 2 -20 42 -39 89 -26 61 -32 87 -24 93 24 15 204 67 317
91 114 24 319 53 435 60 106 7 393 -4 519 -20z"/>
</g>
</svg>
