<?xml version="1.0" standalone="no"?>
<!DOCTYPE svg PUBLIC "-//W3C//DTD SVG 20010904//EN"
 "http://www.w3.org/TR/2001/REC-SVG-20010904/DTD/svg10.dtd">
<svg version="1.0" xmlns="http://www.w3.org/2000/svg"
 width="512.000000pt" height="512.000000pt" viewBox="0 0 512.000000 512.000000"
 preserveAspectRatio="xMidYMid meet">

<g transform="translate(0.000000,512.000000) scale(0.100000,-0.100000)"
fill="#000000" stroke="none">
<path d="M2450 4914 c-94 -12 -208 -37 -273 -60 -649 -231 -1130 -971 -1243
-1914 -21 -175 -24 -552 -6 -715 51 -446 166 -819 356 -1150 306 -535 729
-837 1217 -871 53 -4 113 -4 133 0 l36 7 0 499 0 499 -32 6 c-45 9 -332 -11
-448 -31 -197 -33 -380 -103 -467 -179 l-42 -36 -10 38 c-23 82 -6 148 55 213
77 83 215 139 434 178 167 29 737 20 853 -14 16 -5 17 22 17 475 l0 480 -27
15 c-41 21 -90 75 -108 120 l-16 39 23 -7 c148 -42 364 -59 574 -46 161 11
350 41 414 66 23 9 43 14 45 12 11 -11 -50 -110 -90 -147 -97 -89 -234 -133
-425 -135 -69 0 -142 3 -162 7 l-38 8 0 -465 0 -464 53 -18 c74 -24 140 -59
182 -95 66 -58 67 -65 66 -338 l-1 -246 46 50 c71 77 183 230 247 337 525 880
525 2176 0 3056 -167 280 -390 511 -633 656 -104 61 -262 124 -374 147 -90 19
-288 31 -356 23z m-570 -1770 c163 -37 319 -152 405 -299 23 -39 65 -147 65
-167 0 -5 -24 9 -52 31 -116 86 -311 163 -503 197 -192 34 -481 19 -602 -31
-22 -9 -33 -10 -33 -3 0 20 165 174 220 205 151 85 319 107 500 67z m-742
-748 c70 -51 224 -122 327 -151 158 -45 270 -58 459 -52 162 5 234 16 330 53
57 22 -74 -121 -170 -185 -44 -30 -109 -62 -157 -77 -71 -24 -99 -28 -207 -28
-112 -1 -134 2 -214 28 -148 49 -282 153 -353 274 -27 45 -77 172 -68 172 3 0
26 -15 53 -34z"/>
<path d="M2860 720 l0 -481 23 6 c51 16 205 79 247 103 25 14 80 47 123 75
l77 50 0 302 0 303 -47 20 c-94 39 -230 74 -380 97 l-43 7 0 -482z"/>
</g>
</svg>
